<svg width="87" height="49" viewBox="0 0 87 49" fill="none" xmlns="http://www.w3.org/2000/svg">
<g clip-path="url(#clip0)">
<path d="M11.1142 42.7317C10.5134 42.7006 9.95276 42.6516 9.86821 42.6249C9.54337 42.5181 8.64449 42.3535 7.47417 42.1799C5.92561 41.9486 5.27148 41.8151 4.5506 41.5748C3.70957 41.2944 3.24233 41.0719 3.05098 40.8405C2.86409 40.6225 2.61489 40.1641 2.4992 39.8171C2.38795 39.4789 2.38795 38.8158 2.4992 38.4865C2.59709 38.1973 2.88634 37.8992 3.24678 37.7034C3.37582 37.6366 3.60277 37.4631 3.74962 37.3251C4.2391 36.8623 4.63959 36.7244 5.41387 36.76C5.83661 36.7778 6.05911 36.8134 6.61979 36.9691C7.30953 37.1516 7.30953 37.1516 8.4665 37.1916C10.064 37.2406 14.3804 37.2584 14.901 37.2183C15.1725 37.1961 15.4662 37.2005 15.7109 37.2317C16.0224 37.2762 16.2004 37.2717 16.7077 37.2094C17.0459 37.1694 17.3351 37.1249 17.3529 37.1071C17.4241 37.0403 16.5475 36.3194 15.7198 35.7677C14.8699 35.1981 14.3181 34.891 11.5147 33.4315C9.44103 32.3457 8.14611 31.5358 7.46527 30.895C7.27838 30.7215 7.05143 30.5835 6.5308 30.3299C5.78322 29.9694 5.42722 29.7069 4.2391 28.6434C2.37015 26.9702 1.37337 25.4617 1.00403 23.7396C0.866087 23.0855 0.866087 21.924 1.00848 21.261C1.31553 19.8103 1.92961 18.6178 2.97533 17.4386C3.43367 16.9224 3.96321 16.4596 4.97334 15.6987C6.23265 14.7508 6.80224 14.3815 7.97701 13.7496C9.16958 13.1133 12.022 11.8361 12.9876 11.5158C13.9265 11.1998 15.0256 10.964 16.0625 10.8527C16.6988 10.7815 18.1005 10.7904 18.6923 10.8705C20.9484 11.1642 22.7239 12.2411 23.6584 13.8697C23.8008 14.1189 23.8275 14.2035 23.832 14.4527C23.8364 14.6129 23.8898 15.0534 23.9521 15.4317C24.0144 15.8099 24.0634 16.2593 24.0634 16.4329C24.0634 17.0247 23.8765 17.4964 23.4982 17.8657C23.338 18.0215 23.2668 18.0571 23.1333 18.0571C22.9865 18.0571 22.9509 18.0838 22.7996 18.2885C22.5193 18.6712 22.4036 18.7424 22.0342 18.7602C21.3 18.8002 20.8416 18.422 20.5124 17.5053C20.2276 16.7221 20.1119 16.5664 19.7025 16.4195C19.569 16.3706 19.2975 16.2682 19.1017 16.1881C18.1317 15.7965 16.8189 15.7387 15.0301 16.0101C13.7841 16.2015 12.9386 16.4062 11.3634 16.9046C9.80592 17.3941 9.79702 17.3985 8.6445 17.977C7.10483 18.7468 6.83339 18.9115 6.5753 19.2185C6.18816 19.6813 6.08136 19.9171 5.80101 20.9495C5.50287 22.0264 5.64972 22.9119 6.27715 23.8597C6.66429 24.4382 7.58987 25.346 8.86699 26.3917C9.45438 26.8723 10.1174 27.4286 10.3355 27.6333C10.9762 28.2206 12.3335 29.0795 15.3861 30.8283C18.1673 32.4169 19.5601 33.2757 20.7482 34.1345C21.429 34.6285 21.6515 34.8821 21.9942 35.563C22.1944 35.9546 22.1944 35.9546 22.1944 35.4295C22.1944 34.6196 22.3902 33.5516 22.7106 32.586C22.8263 32.23 22.8263 32.23 22.8619 29.4711C22.8975 26.4585 22.9197 26.1915 23.209 24.9989C23.3336 24.4872 23.3336 24.4872 23.7118 24.4738C24.0901 24.4605 24.0901 24.4605 24.1702 24.1356C24.2547 23.8108 24.2547 23.8108 24.7709 23.7796C25.5541 23.7396 25.8478 23.8464 26.1771 24.3047C26.5731 24.8654 26.7377 25.3549 26.9335 26.5786C26.9958 26.9702 27.0759 27.4019 27.1115 27.5398C27.2139 27.9225 27.2806 28.8392 27.2495 29.3821C27.205 30.1163 27.1471 30.5479 26.9113 31.963C26.5909 33.8809 26.5375 34.624 26.6621 35.5229C26.7155 35.9234 26.7155 35.9234 26.5375 36.2749C26.315 36.7199 25.9635 37.1026 25.6253 37.2717C25.4829 37.3429 25.2826 37.4942 25.1758 37.6055C25.0557 37.739 24.8599 37.8769 24.6507 37.9837C24.317 38.1439 24.3037 38.1483 23.7964 38.1483C23.4893 38.1483 23.249 38.1261 23.1912 38.0949C23.0532 38.0149 22.7462 37.5966 22.5727 37.2495C22.4169 36.9469 22.4169 36.9469 22.4169 37.3296C22.4169 38.5043 21.6693 39.7325 20.3522 40.7293C20.0807 40.934 19.698 41.2232 19.5022 41.3745C19.0839 41.6905 18.2429 42.1221 17.6778 42.3045C17.1927 42.4603 16.5519 42.6027 15.9201 42.6961C15.2837 42.7851 12.5604 42.8074 11.1142 42.7317ZM16.8189 41.5125C18.5499 41.2455 19.7559 40.7026 20.6814 39.7726C21.5581 38.8915 22.0298 37.8947 21.9497 37.0804C21.8918 36.4574 21.5269 35.603 21.0997 35.0824C20.9395 34.8955 20.4723 34.5439 19.5022 33.8987C18.4387 33.1912 17.6288 32.7017 15.3193 31.3756C11.7995 29.3509 10.6291 28.6078 9.89046 27.9314C9.64572 27.7045 9.05388 27.2016 8.57775 26.8145C6.70434 25.2837 6.07691 24.6251 5.60967 23.7307C5.27593 23.0855 5.21808 22.8185 5.21808 21.9507C5.21808 21.2877 5.23143 21.1498 5.32488 20.8383C5.38273 20.6425 5.45392 20.3666 5.48952 20.2286C5.69867 19.3654 6.2994 18.6 7.30063 17.9325C7.54092 17.7723 8.3419 17.3362 9.08058 16.9624C10.4245 16.2771 10.4245 16.2771 12.0487 15.7654C13.7129 15.2403 14.5317 15.0401 15.7866 14.8532C17.0815 14.6618 18.1584 14.6262 19.0439 14.7419C19.6402 14.822 20.014 14.9199 20.4901 15.1335C20.6814 15.2181 20.9039 15.3026 20.9885 15.3204C21.3267 15.3916 21.5803 15.752 21.9007 16.6153C22.1321 17.2383 22.4303 17.5543 22.8307 17.5988C23.0176 17.621 23.031 17.6121 23.2268 17.3941C23.6006 16.9802 23.6629 16.5441 23.4893 15.5652C23.4359 15.2848 23.3825 14.8932 23.3692 14.6974C23.338 14.2836 23.2312 14.0611 22.8174 13.5494C21.4913 11.8806 19.1195 11.0485 16.4096 11.2977C14.8076 11.4401 13.437 11.8094 11.7594 12.5392C8.32855 14.0299 6.73104 14.9199 5.30263 16.1169C3.39362 17.7189 2.29895 19.7881 2.29895 21.795C2.29895 23.9532 3.51377 25.92 6.28605 28.2384C7.00249 28.8392 7.07813 28.8926 7.76787 29.2263C8.33745 29.5067 8.5466 29.6357 8.76909 29.8404C9.50777 30.5257 10.8205 31.3267 13.3836 32.6527C16.4986 34.2636 17.7045 35.0423 18.9371 36.2527C19.3198 36.6265 19.3465 36.6665 19.3465 36.8312C19.3465 37.0047 19.342 37.0136 19.0661 37.1427C18.1762 37.5654 16.8679 37.7479 15.1858 37.6811C14.9277 37.6722 14.7052 37.6811 14.6518 37.7078C14.5895 37.739 13.4459 37.739 10.9362 37.6989C7.30953 37.6455 7.30953 37.6455 6.4952 37.4408C5.53402 37.2005 5.28928 37.1649 4.98223 37.2317C4.46605 37.3429 3.96766 37.7034 3.86531 38.0371C3.74072 38.4598 3.84751 39.0027 4.15011 39.5056C4.35035 39.8349 4.44825 39.9194 4.85764 40.1107C5.72982 40.5112 6.60645 40.7248 8.5555 41.0185C9.81927 41.2054 10.4867 41.33 10.8917 41.4457C11.2566 41.5525 13.0766 41.6371 14.7631 41.6193C15.9646 41.6059 16.3117 41.5881 16.8189 41.5125ZM25.3627 36.8267C25.6475 36.6754 25.87 36.4485 26.0614 36.1103C26.186 35.9012 26.186 35.9012 26.1637 34.9311C26.1415 33.8097 26.1637 33.5516 26.4663 31.7138C26.5865 30.9929 26.7066 30.1741 26.7377 29.8982C26.8089 29.2174 26.7689 28.2028 26.6532 27.6867C26.5998 27.4686 26.5153 27.0147 26.4663 26.6854C26.2928 25.5819 26.0836 24.9767 25.7276 24.5584C25.514 24.3136 25.3449 24.2424 24.9578 24.2424C24.6507 24.2424 24.6507 24.2424 24.5573 24.634C24.2992 25.7421 24.2191 26.7967 24.2592 28.6478C24.277 29.4266 24.2681 30.3699 24.2414 30.8639C24.2013 31.6426 24.1835 31.7717 24.0456 32.2255C23.8275 32.9375 23.6673 33.6896 23.6095 34.2591C23.516 35.1536 23.694 35.9635 24.1257 36.6087C24.3793 36.9869 24.4505 37.0225 24.8599 36.9869C25.0156 36.9736 25.1981 36.9157 25.3627 36.8267Z" fill="#1F2937"/>
<path d="M75.3839 38.5266C75.1436 38.4687 74.841 38.264 74.6541 38.0282C74.3782 37.6766 74.3025 37.4986 74.3025 37.2005C74.3025 36.3684 74.6808 35.6875 75.3483 35.3004C75.4729 35.2292 75.682 35.069 75.82 34.9444C76.2916 34.5128 76.6832 34.3437 77.818 34.0722C78.2229 33.9743 78.6812 33.8542 78.837 33.8008C79.1351 33.694 79.5089 33.4092 79.5089 33.2846C79.5089 33.1466 79.0061 32.4614 78.6189 32.0698C78.4098 31.8606 77.9203 31.4112 77.5287 31.073C76.6343 30.2987 76.078 29.7291 75.8689 29.3776C75.7043 29.1061 75.7043 29.1061 75.6998 29.9338C75.6909 31.38 75.4462 32.2834 74.8365 33.1199C74.6096 33.427 73.9777 34.0144 73.8308 34.05C73.7641 34.0678 73.5505 34.228 73.3547 34.4104C73.021 34.7219 72.9854 34.7442 72.665 34.8154C72.2734 34.9044 71.775 34.8821 71.4368 34.762C71.2321 34.6908 70.6403 34.317 70.311 34.05C70.1686 33.9343 70.1686 33.9343 70.1018 34.09C69.7992 34.8243 69.4744 35.2425 69.0606 35.4383C68.9048 35.514 68.7224 35.6519 68.5933 35.7943C68.175 36.2571 67.69 36.3817 66.9869 36.2126C66.76 36.1592 66.5464 36.1014 66.5197 36.0836C66.4752 36.0524 66.4752 35.9545 66.5775 34.5439C66.5998 34.2814 66.5998 34.2814 66.4396 34.4772C66.1815 34.7976 65.7765 35.1669 65.385 35.4339C65.1892 35.5718 64.9044 35.7854 64.7575 35.9056C64.317 36.2749 63.8809 36.4574 63.1333 36.5909C61.8829 36.8089 60.8372 36.8178 60.1519 36.6131C59.7914 36.5063 59.2397 36.1503 58.986 35.8566C58.6167 35.4339 58.3363 34.8732 58.1672 34.2191C58.1227 34.0411 58.0738 33.9031 58.056 33.9076C58.0426 33.9165 57.9225 34.05 57.789 34.2102C57.6555 34.3659 57.3752 34.6196 57.1705 34.7753C56.9613 34.9266 56.6721 35.1535 56.5208 35.2737C55.5507 36.0613 54.5139 36.4529 52.8096 36.6799C51.9018 36.8 51.7015 36.7911 51.1854 36.6087C50.1396 36.2349 49.8904 36.0079 49.7035 35.2559C49.57 34.7175 49.5567 34.6107 49.6056 34.3303C49.6946 33.7696 50.0328 33.2846 50.4912 33.0665C50.6425 32.9953 50.8249 32.853 50.954 32.715C51.2521 32.3857 51.5369 32.2567 51.9685 32.2611C52.151 32.2611 52.3913 32.2389 52.4981 32.2122C52.814 32.1321 53.3436 31.9363 53.3436 31.9007C53.3436 31.8784 53.1433 31.6381 52.8986 31.3622C52.3334 30.7259 51.9552 30.2587 51.7238 29.9071C51.6214 29.7514 51.5324 29.6268 51.5147 29.6268C51.5013 29.6268 51.4568 29.7202 51.4167 29.8404C51.2655 30.2542 50.8116 30.7526 50.3844 30.9706C50.2865 31.024 50.0996 31.1709 49.9661 31.2999C49.4054 31.8606 48.4353 32.1187 46.8645 32.1187C46.5664 32.1187 46.1748 32.1321 45.9879 32.1454C45.6452 32.1766 45.6452 32.1766 45.6452 32.4169C45.6452 32.5504 45.6897 32.8708 45.7387 33.1288C45.8321 33.5961 45.8321 33.5961 45.7298 33.8141C45.5963 34.1034 45.2804 34.4193 44.9778 34.5662C44.8443 34.6329 44.6129 34.8065 44.4616 34.9533C44.1323 35.2826 43.8252 35.4116 43.3091 35.4428C42.8552 35.4739 42.6371 35.4116 42.379 35.1847C42.0008 34.851 41.8539 34.4994 41.6848 33.5204C41.5825 32.9331 41.4801 32.6394 41.3511 32.5904C41.3111 32.5771 41.1331 32.5637 40.9551 32.5637C40.6302 32.5637 40.6302 32.5637 40.6035 33.4003C40.5813 34.1034 40.4567 35.3493 40.3677 35.7765C40.3365 35.9367 39.8782 36.3862 39.5889 36.5419C39.4555 36.6131 39.2241 36.7867 39.0728 36.9335C38.699 37.285 38.3697 37.4363 37.582 37.6099C37.4708 37.6366 37.4396 37.6099 37.2528 37.3607C37.008 37.0269 36.7366 36.4707 36.6253 36.0791C36.563 35.8477 36.5452 35.6297 36.5452 35.0112C36.5497 34.2235 36.5497 34.228 36.8567 32.3724C36.8745 32.2522 36.8701 32.2567 36.6075 32.4747C36.4607 32.5949 36.2827 32.7239 36.2159 32.7595C36.1492 32.7951 35.9356 32.9553 35.7398 33.1199C35.5484 33.2801 35.2281 33.4937 35.0323 33.5916C34.6362 33.7919 34.5561 33.7963 34.0444 33.6272C33.4436 33.4314 32.9275 32.9597 32.5581 32.2789C32.3534 31.8962 32.3534 31.8962 32.3267 32.9064C32.3045 33.6272 32.2689 34.0366 32.211 34.3259C32.0375 35.1758 31.5257 35.8833 31.0007 36.0124C30.9339 36.0302 30.8182 36.1281 30.7381 36.2349C30.4667 36.5998 30.1329 36.76 29.639 36.7555C29.0516 36.7555 28.5354 36.4173 27.9792 35.6697C27.7211 35.3271 27.7211 35.3271 27.7611 35.1135C27.8501 34.6463 27.9792 33.4136 28.0682 32.2077C28.1705 30.7793 28.264 29.8582 28.3619 29.204C28.62 27.5353 29.1495 26.2048 30.0128 25.0567C30.2353 24.7631 30.2709 24.7319 30.4133 24.7319C30.6313 24.7319 30.6981 24.683 30.9606 24.3314C31.1831 24.0333 31.2009 24.0199 31.3744 24.0199C31.4768 24.0199 31.7616 23.971 32.0063 23.9087C32.8429 23.6995 33.2745 23.7885 33.7462 24.2647C34.0221 24.5361 34.4137 25.0968 34.6184 25.5106C34.7074 25.6886 35.1079 26.6988 35.2503 27.1126C35.277 27.1793 35.3171 27.117 35.4461 26.8189C35.7932 26.0179 36.1759 25.5329 36.6431 25.297C36.7677 25.2303 36.9769 25.0745 37.1059 24.9499C37.5954 24.4738 38.2451 24.2914 38.9927 24.4204C39.322 24.4783 39.3353 24.4872 39.5533 24.7275C39.6735 24.8654 39.8648 25.1591 39.9716 25.3771C40.2698 25.9779 40.3232 26.3561 40.2831 27.6466C40.2564 28.5099 40.2653 28.7413 40.3321 29.1373C40.3721 29.3954 40.4122 29.609 40.4166 29.6179C40.4255 29.6268 40.5234 29.5689 40.6436 29.4977C40.7593 29.4221 40.8794 29.3598 40.9017 29.3598C40.9284 29.3598 41.0352 29.2619 41.1375 29.1417C41.2577 28.9993 41.4357 28.8703 41.6492 28.7591C41.9741 28.59 41.9741 28.59 41.9785 27.9848C41.983 26.7477 42.29 25.8577 43.3402 24.0333C43.8341 23.1655 43.8341 23.1655 44.0833 23.0587C44.4927 22.8852 44.5461 22.8496 44.6618 22.6494C44.7686 22.4714 44.8176 22.4402 45.3115 22.2355C46.4507 21.7638 47.0292 21.6615 47.71 21.8172C48.0081 21.8795 48.1283 21.9418 48.5733 22.24C49.6813 22.9875 50.3844 23.7529 50.8961 24.772C51.0786 25.1413 51.0786 25.1413 51.2477 24.852C51.6526 24.1623 52.1955 23.6016 53.2101 22.8318C54.149 22.1109 54.7586 21.7149 55.5907 21.2699C56.3027 20.8916 56.6498 20.7626 57.2506 20.6603C58.8169 20.3844 59.827 20.945 60.0896 22.2266C60.2631 23.0632 59.9917 23.704 59.3331 24.0155C59.164 24.1 58.9994 24.2202 58.9015 24.3403C58.7279 24.545 58.3408 24.7809 58.0293 24.8609C57.9269 24.8876 57.6199 24.9499 57.3396 24.9989C56.6899 25.1146 56.4407 25.1991 56.2538 25.3638C56.1381 25.4661 56.0713 25.4928 55.969 25.4795C55.8488 25.4617 55.8221 25.4839 55.6308 25.7732C55.395 26.1292 55.3772 26.2716 55.5062 26.7344C55.653 27.2505 55.9645 27.7222 56.899 28.8481C57.5398 29.6134 58.0159 30.2765 58.1984 30.6636C58.2562 30.7793 58.3096 30.8728 58.323 30.8728C58.363 30.8728 59.1106 29.7069 59.2575 29.4176C59.5022 28.9415 59.569 28.5143 59.4889 28.0204C59.4577 27.8246 59.4622 27.8112 59.6001 27.7178C59.6802 27.6644 59.9338 27.4152 60.1652 27.166C60.4411 26.8679 60.6681 26.6676 60.8238 26.5831C60.9573 26.5119 61.1887 26.3383 61.3356 26.2004C62.0164 25.5685 62.6127 25.5685 63.2891 26.1959C63.6673 26.5475 63.9921 26.7166 64.4327 26.7878C64.6552 26.8234 64.8287 26.8856 64.98 26.9791C65.7187 27.4463 66.3773 28.2384 66.7644 29.1284C66.9068 29.4532 66.9068 29.4532 66.938 29.2174C67.0003 28.7146 67.3741 28.2206 67.7834 28.1005C67.9214 28.0604 68.0148 27.9937 68.1261 27.8468C68.2062 27.74 68.3753 27.5887 68.4954 27.5131C68.6957 27.3885 68.7446 27.3796 69.1184 27.3796C69.5234 27.3796 69.5234 27.3796 70.1686 27.6955C70.5201 27.8735 70.8628 28.0293 70.9295 28.0426C71.0853 28.0782 71.5303 28.4921 71.7439 28.8036C71.8373 28.937 71.9218 29.0483 71.9263 29.0483C71.953 29.0483 71.8951 28.7635 71.8017 28.4476C71.7572 28.2785 71.5258 27.6644 71.2989 27.0903C70.7382 25.6797 70.6447 25.3237 70.6358 24.5539C70.6314 23.7529 70.6981 23.4459 70.9384 23.1789C71.1253 22.9786 71.4012 22.8229 71.5792 22.8184C71.6371 22.8184 71.6771 22.7917 71.6771 22.7517C71.6771 22.6271 72.0286 22.2978 72.2645 22.1955C72.5582 22.0709 72.8697 22.0887 73.2791 22.2622C73.4393 22.329 73.6573 22.4091 73.7686 22.4358C73.9421 22.4803 73.9999 22.5337 74.2046 22.7962C74.5339 23.2367 74.8143 23.8286 75.1302 24.7497C75.4017 25.5507 75.4017 25.5507 75.5441 25.1012C75.8422 24.1401 76.345 23.3569 77.1594 22.5737C77.5732 22.1777 78.9571 21.0874 79.9005 20.4155C80.0918 20.282 80.3588 20.0773 80.5012 19.9616C81.2043 19.3876 82.032 19.1295 82.9932 19.1829C84.1279 19.2452 85.1069 19.7658 85.6631 20.5935C85.8144 20.8204 85.8278 20.8605 85.8278 21.1586C85.8278 21.3366 85.8767 21.7861 85.939 22.1599C86.0013 22.5337 86.0502 22.9341 86.0502 23.0543C86.0502 23.8197 85.5697 24.6073 85.0668 24.6741C84.9734 24.6874 84.8933 24.7141 84.8933 24.7364C84.8933 24.7586 84.7731 24.901 84.6263 25.0567C84.3771 25.3237 84.3415 25.346 84.119 25.3727C83.8075 25.4127 83.367 25.3326 83.1 25.1858C82.9798 25.1235 82.7796 24.9588 82.6594 24.8253C82.4325 24.5762 82.4325 24.5762 82.4636 24.0066C82.4948 23.437 82.4948 23.437 82.2589 23.4681C81.9074 23.5082 81.5158 23.615 81.2577 23.7396C80.6436 24.0288 79.9361 25.3727 79.8783 26.3561C79.856 26.7566 79.856 26.7566 80.0785 27.0458C80.3588 27.4152 80.8216 27.8557 81.6894 28.5766C82.9976 29.6668 83.6162 30.3833 83.9232 31.162C84.0389 31.4601 84.0656 31.5981 84.0834 31.9986C84.1101 32.586 84.0344 32.9464 83.763 33.5204C83.3447 34.3971 82.3123 35.5051 80.9774 36.5063C80.0028 37.2316 79.6113 37.4853 78.9527 37.7968C78.0938 38.2017 77.2172 38.4376 76.2338 38.5221C75.642 38.5755 75.5841 38.5755 75.3839 38.5266ZM78.0182 37.2138C79.8827 36.7956 81.5648 35.6831 82.8552 34.0144C83.3759 33.3424 83.6785 32.5548 83.6295 32.0164C83.5672 31.3889 83.1845 30.6948 82.5259 30.0228C82.3212 29.8137 81.7784 29.3242 81.3111 28.9281C80.3855 28.1494 79.727 27.4908 79.5356 27.1704C79.233 26.6498 79.3799 25.6575 79.9272 24.5317C80.1185 24.1445 80.2387 23.9665 80.5057 23.6817C80.9373 23.2189 81.3912 22.8718 81.8674 22.6449C82.3435 22.418 82.6683 22.3334 83.2023 22.3023C83.5939 22.2756 83.634 22.28 83.7497 22.3735C83.8787 22.4758 83.8787 22.4758 83.8609 23.0765C83.8476 23.6728 83.8475 23.6728 84.0745 23.882C84.3148 24.1 84.5462 24.1979 84.8354 24.1979C84.9778 24.1979 85.0357 24.1668 85.1692 24.0333C85.5741 23.6105 85.6364 23.1967 85.454 22.1065C85.3917 21.7282 85.3383 21.3277 85.3383 21.212C85.3383 21.034 85.3116 20.9673 85.1647 20.7848C84.6085 20.0773 83.7007 19.6457 82.7796 19.6457C82.0364 19.6457 81.4313 19.8815 80.7326 20.4378C80.4879 20.6336 80.0651 20.9539 79.7982 21.1497C78.7346 21.9151 78.1561 22.4447 77.7023 23.0543C76.5987 24.5361 76.3539 26.632 77.106 28.1806C77.3151 28.6122 77.7913 29.1239 78.8637 30.054C80.0295 31.0641 80.5279 31.6159 80.8394 32.2389C81.0664 32.6928 81.053 32.7417 80.5235 33.2623C79.7537 34.0099 79.4466 34.1657 78.0938 34.5039C76.4296 34.9133 75.9268 35.2737 75.7443 36.1859C75.6731 36.5197 75.6731 36.5197 75.7933 36.7422C75.9267 36.9869 76.1225 37.1916 76.3272 37.3028C76.523 37.4096 77.3329 37.3696 78.0182 37.2138ZM39.1707 36.1904C39.3531 36.1014 39.5667 35.9501 39.6913 35.8255C39.9316 35.5807 39.9449 35.5451 40.0606 34.5217C40.2431 32.9286 40.1674 30.7793 39.8782 29.3642C39.8292 29.1106 39.8114 28.7368 39.8203 27.74C39.8248 26.2983 39.807 26.1737 39.5266 25.5996C39.3175 25.1724 39.0594 24.9232 38.7568 24.8654C38.2807 24.7764 37.7956 24.9677 37.3863 25.4127C37.0659 25.7598 36.7855 26.3472 36.4117 27.4463C36.2515 27.9225 36.0646 28.4253 35.9979 28.5588C35.8777 28.7991 35.8733 28.8036 35.6819 28.8036C35.495 28.8036 35.4772 28.7902 35.3616 28.6033C35.2147 28.363 34.9166 27.6466 34.6051 26.8011C34.2224 25.7554 33.8753 25.1324 33.3991 24.6429C33.0343 24.2647 32.7628 24.2068 32.1621 24.3715C31.9796 24.4249 31.7571 24.4649 31.6637 24.4649C31.5168 24.4649 31.4768 24.4916 31.321 24.7008C30.5913 25.6708 30.1018 26.8233 29.8303 28.2295C29.6835 28.9993 29.5989 29.7202 29.4921 31.1842C29.3809 32.7195 29.3275 33.2935 29.243 33.9521C29.1718 34.4727 29.1718 34.4727 29.3052 34.6641C29.6345 35.1402 30.2353 35.5896 30.5468 35.5896C31.0541 35.5896 31.5124 35.0645 31.7438 34.2324C31.7972 34.0366 31.8239 33.6406 31.8506 32.7417C31.8817 31.7004 31.904 31.4646 31.9841 31.162C32.0597 30.8906 32.0909 30.6013 32.1176 29.9605C32.1576 29.0483 32.1754 28.937 32.3 28.6834C32.3979 28.4876 32.5003 28.4253 32.7094 28.4253C32.8607 28.4253 32.8696 28.4342 32.9987 28.7502C33.0699 28.9237 33.2434 29.4399 33.3813 29.8938C33.724 31.0018 33.991 31.5536 34.387 31.9496C34.7208 32.2834 35.1836 32.537 35.455 32.537C35.7398 32.537 36.3806 32.0653 36.8256 31.5224C37.1059 31.1842 37.542 30.539 37.7244 30.1919C37.8312 29.9917 37.8446 29.9828 38.0226 29.9828C38.2095 29.9828 38.2095 29.9828 38.2317 30.1741C38.3252 30.9573 38.2851 31.6737 38.0715 32.942C37.8846 34.0411 37.8713 34.7353 38.027 35.2336C38.1472 35.603 38.294 35.9189 38.4898 36.2037C38.6411 36.4262 38.6812 36.4262 39.1707 36.1904ZM53.7218 35.5006C55.4261 35.2514 56.5074 34.7931 57.2773 33.9877C57.8246 33.4136 58.1405 32.6483 58.0916 32.0075C58.0337 31.2154 57.6688 30.5702 56.4362 29.0928C55.2926 27.7178 54.9455 27.0458 54.9455 26.1826C54.9455 25.8711 54.9455 25.8711 55.2882 25.3549C55.8355 24.5406 56.0758 24.3403 56.5653 24.2958C56.7477 24.2825 56.8857 24.238 56.9925 24.1668C57.1927 24.0333 57.4464 23.9576 58.1939 23.8241C58.9237 23.6862 59.2975 23.5215 59.5022 23.2323C59.6579 23.0053 59.7024 22.6761 59.6179 22.3201C59.4043 21.4212 58.6523 20.945 57.6555 21.083C57.0147 21.172 56.6454 21.2921 55.9957 21.6303C54.0555 22.6449 53.0143 23.5616 52.4091 24.7987C51.9151 25.8088 51.9463 26.77 52.5159 27.9581C52.8763 28.7057 53.2902 29.2886 54.2024 30.3165C54.4427 30.5835 54.7319 30.9439 54.8476 31.1175C55.0301 31.3889 55.0568 31.4601 55.0701 31.7093C55.0968 32.1054 55.0523 32.1454 54.5317 32.1766C54.189 32.1944 54.0021 32.2389 53.3703 32.4525C52.725 32.6705 52.5559 32.7106 52.191 32.7284C51.6882 32.7551 51.4746 32.853 51.2566 33.1466C50.9896 33.516 50.9406 33.8141 51.0741 34.3214C51.2165 34.8866 51.4079 35.109 51.9151 35.2959C52.8274 35.6341 52.8096 35.6297 53.7218 35.5006ZM63.8898 35.4339C64.7486 35.2737 65.0824 35.1046 65.6875 34.5261C66.3906 33.8497 66.6977 33.2267 66.7867 32.2878C66.9024 31.0997 66.6176 29.8003 66.0346 28.808C65.6564 28.1717 64.6908 27.2683 64.3837 27.2683C64.1879 27.2683 63.6895 27.1126 63.4626 26.9791C63.3425 26.9079 63.1155 26.7255 62.9509 26.5742C62.3412 26.0046 62.1632 26.0535 61.211 27.0814C60.9084 27.4018 60.9084 27.4018 60.9084 27.7712C60.9084 28.452 60.766 28.8214 60.1163 29.8181C59.6179 30.5791 59.4889 30.8194 59.3554 31.2198C59.1863 31.7405 59.1907 31.9407 59.3687 32.6572C59.5957 33.5427 59.6891 33.8186 59.9027 34.2324C60.232 34.8777 60.8505 35.376 61.5002 35.5229C61.9496 35.6252 63.0933 35.5852 63.8898 35.4339ZM68.8158 35.0022C69.0784 34.8821 69.292 34.6151 69.5278 34.1212C70.0484 33.022 70.0929 32.9419 70.3021 32.7328C70.4845 32.5504 70.5424 32.5192 70.6892 32.5192C70.9162 32.5192 71.1876 32.6661 71.7439 33.0888C72.3624 33.556 72.6783 33.6984 73.0788 33.694C73.4749 33.6895 73.6395 33.6183 73.9866 33.2979C74.6363 32.6928 75.019 31.9274 75.1747 30.9173C75.2281 30.5702 75.2326 30.1252 75.2103 28.4698C75.1836 26.4451 75.1836 26.4451 74.8588 25.4839C74.4939 24.4026 74.307 23.9398 74.0889 23.5527C73.8531 23.1344 73.6707 22.9163 73.5327 22.8896C73.466 22.8763 73.2702 22.8051 73.1011 22.7295C72.7629 22.5826 72.6205 22.5648 72.4425 22.6583C72.2155 22.7784 72.131 22.9119 72.0509 23.3079C71.9129 23.9932 72.0553 24.6207 72.7006 26.2315C73.2301 27.5442 73.3236 27.9047 73.3236 28.6656C73.3236 29.3108 73.2746 29.5467 73.0477 30.0184C72.9097 30.2943 72.9097 30.2943 72.6249 30.2943C72.1621 30.2943 72.0642 30.2142 71.5125 29.382C71.1209 28.7947 70.885 28.5544 70.6269 28.4698C70.529 28.4387 70.2531 28.3096 70.0084 28.1806C69.7636 28.0515 69.4477 27.9091 69.3053 27.8691C69.0472 27.7934 69.0428 27.7934 68.8425 27.9002C68.5355 28.056 68.3931 28.2918 68.3174 28.7413C68.175 29.6223 68.1083 30.5702 67.9837 33.5204C67.957 34.1078 67.9258 34.6819 67.9125 34.7976C67.8858 35.0067 67.8858 35.0067 68.0593 35.0512C68.4509 35.1491 68.5088 35.1446 68.8158 35.0022ZM44.5417 34.2102C44.7597 34.1479 45.0579 33.9165 45.2092 33.6984C45.3293 33.5204 45.3293 33.5204 45.267 33.2312C45.2314 33.071 45.2003 32.7017 45.2003 32.4035C45.2003 31.9185 45.2092 31.8473 45.316 31.6381C45.3916 31.4824 45.4939 31.3711 45.6274 31.2777C45.9523 31.0641 46.3305 31.0018 47.6254 30.9573C48.2885 30.9351 48.9515 30.8906 49.1785 30.8505C50.0417 30.6992 50.6158 30.321 50.9184 29.698C51.0563 29.4132 51.0741 29.3242 51.1231 28.7591C51.261 27.0814 50.9139 25.6085 50.0818 24.3759C49.7703 23.9176 49.1785 23.3168 48.6311 22.903C47.5008 22.0531 47.1404 22.0264 45.5562 22.6761C45.1335 22.8451 45.1335 22.8451 44.7597 23.4904C43.6606 25.3771 43.3536 26.2849 43.3669 27.6243C43.3803 28.5855 43.3224 28.6701 42.5081 28.9415C42.0987 29.0794 41.8094 29.2174 41.6225 29.3731C41.4935 29.4755 41.489 29.4933 41.4979 29.8537C41.5024 30.2631 41.6136 30.7571 41.7872 31.1531C41.9029 31.4067 41.9029 31.4067 42.161 31.4067C42.7261 31.4067 42.9041 31.6559 43.0866 32.7195C43.2112 33.4359 43.318 33.734 43.5582 34.0055C43.8119 34.2992 44.0566 34.3481 44.5417 34.2102Z" fill="#1F2937"/>
<path d="M62.0788 33.0665C62.0254 33.0576 61.9275 32.9865 61.8652 32.9153C61.7628 32.7862 61.7539 32.7462 61.7539 32.3056C61.7539 31.1531 62.0565 30.232 62.5994 29.7425C62.8352 29.5289 62.9376 29.4933 63.3203 29.4933C63.7163 29.4933 63.9344 29.5912 64.2236 29.8982C64.4327 30.1207 64.6463 30.5079 64.6463 30.6725C64.6463 30.7215 64.5885 30.9529 64.5173 31.1842C64.4416 31.4156 64.3304 31.785 64.2636 32.003C64.0456 32.7239 63.7831 32.9731 63.1734 33.0532C62.8441 33.0932 62.2656 33.1021 62.0788 33.0665ZM62.853 32.5904C62.853 32.5904 62.9376 32.3145 63.0399 31.9852C63.2179 31.3845 63.2179 31.3845 63.1111 31.202C62.991 30.9974 62.675 30.6948 62.5816 30.6948C62.4436 30.6948 62.2434 31.5402 62.23 32.1677C62.2211 32.5726 62.2211 32.5815 62.3324 32.6127C62.4169 32.6394 62.813 32.6216 62.853 32.5904Z" fill="#1F2937"/>
<path d="M46.2015 28.7368C46.1258 28.7145 46.0057 28.6344 45.9345 28.5588C45.8054 28.4253 45.8054 28.4253 45.8588 27.6021C45.9211 26.6854 46.0012 26.187 46.157 25.7687C46.2905 25.4216 46.5708 25.0122 46.8111 24.8209C46.9757 24.6874 47.0069 24.6785 47.2249 24.7007C47.6432 24.7452 48.1194 25.0567 48.4086 25.4706C48.6133 25.7732 48.8669 26.3116 49.0894 26.9257C49.4944 28.0515 49.3609 28.3052 48.2306 28.5365C48.0259 28.5766 47.7856 28.6389 47.6922 28.67C47.4875 28.7412 46.3795 28.7902 46.2015 28.7368ZM47.572 28.1939C47.8301 28.1272 47.8301 28.1316 47.5587 27.4374C47.3228 26.8456 47.0825 26.4451 46.82 26.2004C46.6064 26.0046 46.6064 26.0046 46.5486 26.147C46.4596 26.365 46.3572 27.0547 46.3261 27.6599C46.3038 28.1094 46.3083 28.2206 46.3617 28.2562C46.4462 28.3096 47.2961 28.2696 47.572 28.1939Z" fill="#1F2937"/>
<path d="M82.9355 36.3461C82.9355 35.9901 82.9355 35.9901 82.802 35.9901C82.713 35.9901 82.6685 35.9679 82.6685 35.9234C82.6685 35.87 82.7352 35.8566 83.0022 35.8566C83.2692 35.8566 83.3359 35.87 83.3359 35.9234C83.3359 35.9679 83.2914 35.9901 83.2024 35.9901C83.0689 35.9901 83.0689 35.9901 83.0689 36.3461C83.0689 36.6309 83.0556 36.7021 83.0022 36.7021C82.9488 36.7021 82.9355 36.6309 82.9355 36.3461Z" fill="#1F2937"/>
<path d="M83.4695 36.2794C83.4695 35.8611 83.4695 35.8566 83.5763 35.8566C83.6742 35.8566 83.692 35.8878 83.7587 36.1948C83.8433 36.5775 83.8789 36.5686 83.9634 36.137C84.0124 35.8878 84.0302 35.8566 84.1236 35.8566C84.2215 35.8566 84.226 35.8655 84.226 36.2794C84.226 36.533 84.2082 36.7021 84.1815 36.7021C84.1548 36.7021 84.137 36.5553 84.137 36.3461C84.137 36.1503 84.1192 35.9901 84.1014 35.9901C84.0791 35.9901 84.0391 36.1236 84.0035 36.2927C83.9323 36.671 83.9189 36.7021 83.8477 36.7021C83.8077 36.7021 83.7543 36.5642 83.7009 36.3372C83.6119 35.9679 83.6119 35.9679 83.6074 36.3372C83.603 36.6309 83.5896 36.7021 83.5362 36.7021C83.4828 36.7021 83.4695 36.6265 83.4695 36.2794Z" fill="#1F2937"/>
<path d="M41.1288 19.441C40.7416 19.3475 40.4079 19.0672 40.2343 18.7023C40.0341 18.2796 39.9139 17.443 39.865 16.1436C39.8383 15.4583 39.8383 15.4583 39.6959 15.4272C39.42 15.3738 39.1886 15.1691 39.0462 14.8532C38.9706 14.693 38.9528 14.555 38.9483 14.1634C38.9439 13.8964 38.9261 13.5938 38.9083 13.4915C38.8727 13.309 38.8727 13.309 39.064 13.2334C39.4067 13.0954 39.6781 12.8907 39.8383 12.6549C40.0029 12.4057 40.1409 12.1076 40.1186 12.0497C40.1008 12.0052 39.4957 12.4013 39.3043 12.5793C38.8682 12.9886 38.2052 13.3179 37.6445 13.4025C37.4176 13.4336 37.2262 13.4692 37.2173 13.4781C37.2084 13.487 37.155 14.5328 37.1016 15.8054C36.9948 18.1149 36.9948 18.1149 36.7501 18.3107C36.6121 18.4175 36.4074 18.551 36.2917 18.6044C36.1716 18.6578 36.0781 18.7246 36.0781 18.7557C36.0781 18.8358 35.6376 19.1695 35.3439 19.3075C35.1259 19.4143 35.0191 19.4365 34.7654 19.4365C34.3338 19.4321 34.0846 19.2941 33.8087 18.9026C33.6084 18.6133 33.6084 18.6133 33.6084 16.5441C33.604 14.5817 33.5995 14.4571 33.5105 14.1278C33.4616 13.9365 33.3993 13.7629 33.3815 13.7407C33.3593 13.7229 32.9721 13.6828 32.5182 13.6561C30.7338 13.5493 30.1108 13.3446 29.3944 12.6238C29.0117 12.2322 29.0117 12.2322 29.0785 11.9296C29.2298 11.2621 29.5323 10.8127 29.9862 10.5857C30.142 10.5101 30.36 10.3454 30.4935 10.203C31.0142 9.66013 31.5481 9.58003 32.8297 9.84257C33.2569 9.92712 33.6885 10.0072 33.782 10.0117C33.9555 10.025 33.9555 10.025 34.0089 9.79363C34.089 9.44653 34.3071 9.03269 34.5652 8.74345C34.8233 8.45866 35.3039 8.07152 35.3573 8.10712C35.3795 8.12047 35.464 8.05817 35.5486 7.97362C35.6331 7.88462 35.8156 7.72443 35.958 7.61318C36.1938 7.43073 36.2294 7.41738 36.3941 7.44408C36.8747 7.52418 37.4443 7.98697 37.6667 8.47646C37.8091 8.7835 37.8136 9.08609 37.6801 9.42873C37.6311 9.56223 37.5911 9.68683 37.5911 9.70908C37.5911 9.78473 38.0227 9.68683 38.6591 9.46878C39.3666 9.22404 39.7448 9.18399 40.1053 9.31304C40.3055 9.38424 40.35 9.35309 40.35 9.12614C40.35 8.6945 40.5859 7.92022 40.7861 7.67993C40.9152 7.52418 41.2044 7.38179 41.378 7.37734C41.4759 7.37734 41.5115 7.34174 41.5649 7.20824C41.6538 6.98574 41.903 6.77215 42.1389 6.7054C42.6729 6.563 43.3092 6.8923 43.5807 7.45298C43.6963 7.68883 43.7008 7.71108 43.6696 8.23616C43.6563 8.53431 43.6029 9.19734 43.554 9.71353C43.465 10.6436 43.4472 11.449 43.5006 11.8272C43.5317 12.0141 43.5406 12.0275 43.683 12.0408C43.8654 12.0586 43.9099 12.0052 43.9099 11.7382C43.9099 11.627 43.9767 11.0796 44.0523 10.5145C44.1725 9.62453 44.1947 9.34864 44.1992 8.38746C44.2081 7.28389 44.2081 7.28389 44.346 7.11479C44.484 6.94125 44.88 6.70985 45.0313 6.70985C45.0758 6.70985 45.1114 6.68315 45.1114 6.64755C45.1114 6.52296 45.5475 6.14027 45.7833 6.06462C46.3485 5.87772 47.016 6.23816 47.3631 6.919C47.4921 7.17264 47.4921 7.18599 47.4877 7.88907C47.4832 8.35631 47.4521 8.8458 47.3853 9.31304C47.2741 10.1274 47.2118 11.2977 47.283 11.2265C47.3052 11.2042 47.4031 11.004 47.4921 10.7815C47.7635 10.1185 48.1685 9.34419 48.5289 8.8013C48.925 8.20056 49.6281 7.46633 50.1398 7.11924C50.3222 6.99019 50.6426 6.7588 50.8518 6.5986C51.3146 6.24261 51.7684 6.00232 52.3247 5.81542C52.6896 5.69083 52.783 5.67748 53.099 5.69528C53.5306 5.72198 53.7753 5.82432 54.3983 6.23371C54.9857 6.62085 55.1059 6.7499 55.3773 7.27054C56.0225 8.51206 56.1738 9.80253 55.8134 11.0529C55.6176 11.716 55.5242 11.8717 54.9279 12.4636C54.6342 12.7662 54.2604 13.0999 54.1046 13.2067C53.9489 13.3179 53.6775 13.5182 53.5039 13.6561C52.8097 14.199 52.2268 14.5283 51.5504 14.7464C51.1766 14.8665 51.1677 14.8754 51.2745 14.9288C51.3368 14.9644 51.5905 15.0623 51.8396 15.1468C52.0933 15.2358 52.3514 15.3337 52.4181 15.3693C52.5116 15.4183 52.605 15.4227 52.8631 15.3871C53.8154 15.267 54.4695 14.9822 55.8134 14.0967C56.6144 13.5716 56.6144 13.5716 57.3397 13.6873C58.0606 13.803 58.0606 13.803 58.1095 13.9587C58.1318 14.0477 58.1674 14.2791 58.1807 14.4794C58.2341 15.2581 57.8782 15.8722 57.0104 16.4774C56.8413 16.5975 56.5743 16.7978 56.4141 16.9268C56.2539 17.0514 55.8312 17.3495 55.4708 17.5809C55.1103 17.8168 54.741 18.0749 54.6475 18.1639C54.4873 18.3063 54.4295 18.3241 53.5885 18.4976C52.1823 18.7824 51.3902 18.8581 50.6738 18.7735C49.5791 18.6489 48.9428 18.3419 48.4266 17.6922C48.0973 17.2783 47.6345 16.5931 47.4476 16.2415C47.3764 16.1169 47.3186 16.0146 47.3097 16.019C47.3052 16.0279 47.2696 16.3617 47.2296 16.7666C47.1895 17.1715 47.1361 17.6744 47.1094 17.888C47.0605 18.2707 47.0605 18.2707 46.6422 18.3018C46.1749 18.3374 46.2239 18.2929 46.1482 18.7468C46.1126 18.9693 46.1126 18.9693 45.7566 19.0004C44.7688 19.0805 44.0612 18.7691 43.8387 18.1505C43.7275 17.8346 43.7052 17.0469 43.7987 16.4462C43.8387 16.1703 43.8654 15.8633 43.8565 15.7654C43.8432 15.5918 43.8432 15.5918 43.6207 15.6007C43.238 15.623 43.1757 15.8321 43.3359 16.5397C43.4071 16.8512 43.4427 17.1493 43.4427 17.4118C43.4427 17.7589 43.4249 17.8435 43.3181 18.066C43.1535 18.3997 42.753 18.7691 42.5483 18.7691C42.437 18.7691 42.3836 18.8047 42.2813 18.9559C42.2101 19.0583 42.0543 19.2185 41.9386 19.3119C41.7473 19.4588 41.6939 19.481 41.4937 19.4766C41.3646 19.4721 41.2044 19.4588 41.1288 19.441ZM42.5572 18.2039C42.7352 18.0704 42.9265 17.7723 42.9755 17.5409C43.0022 17.4296 42.9799 17.2249 42.8998 16.8423C42.8108 16.4151 42.793 16.2237 42.8108 15.9211C42.8242 15.712 42.8375 15.3693 42.8375 15.1602C42.8375 14.515 42.9488 14.4571 44.2036 14.4215C45.058 14.3948 45.058 14.3948 45.1381 14.5239C45.2583 14.7019 45.2761 15.3159 45.1782 15.9567C45.0892 16.5397 45.1114 16.9846 45.2405 17.2783C45.3962 17.6299 45.8011 17.8346 46.3396 17.8346C46.5977 17.8346 46.6244 17.8257 46.6422 17.7367C46.6733 17.5898 46.7401 16.9579 46.8914 15.2759C47.0293 13.8119 47.0293 13.8119 47.3141 13.5137C47.4921 13.3313 47.6034 13.1755 47.6034 13.1177C47.6034 13.0643 47.5188 12.9219 47.412 12.8062C47.1628 12.5303 46.9537 12.1343 46.8691 11.7783C46.7623 11.3288 46.7846 10.2787 46.9136 9.22404C47.0605 8.07152 47.0694 7.51083 46.9448 7.23049C46.7579 6.8122 46.2862 6.43841 46.0281 6.50516C45.9613 6.52296 45.8456 6.5897 45.77 6.6609C45.6276 6.7855 45.6276 6.7855 45.6187 7.69328C45.6143 8.41416 45.5831 8.8191 45.4763 9.64678C45.3517 10.6035 45.2583 11.5113 45.2316 12.072C45.2227 12.2678 45.2049 12.3034 45.0758 12.3924C44.8667 12.5303 44.6308 12.5526 43.8432 12.517C43.1535 12.4858 43.1535 12.4858 43.1045 12.3212C43.0022 12.0052 43.0022 10.4656 43.1045 9.40204C43.2425 7.96917 43.238 7.82232 43.1001 7.61318C43.0378 7.51973 42.9087 7.38623 42.8108 7.31949C42.4192 7.04804 42.1166 7.14149 41.952 7.58648C41.7829 8.04037 41.725 8.47201 41.685 9.66903C41.6316 11.182 41.5515 11.6715 41.2667 12.1521C41.1288 12.3924 40.7683 12.7261 40.528 12.8374C40.3545 12.9174 40.3545 12.9174 40.35 13.3535C40.35 13.6962 40.3678 13.8252 40.4346 13.9587C40.5325 14.1501 40.6971 14.2747 40.8484 14.2747C40.9908 14.2747 41.1288 14.377 41.1866 14.5283C41.2133 14.5951 41.2445 14.9555 41.2534 15.3204C41.2801 16.108 41.3869 17.1493 41.4803 17.443C41.5649 17.7322 41.7473 18.0304 41.8941 18.1238C41.9876 18.1861 42.2546 18.2929 42.3881 18.3196C42.397 18.3241 42.4726 18.2707 42.5572 18.2039ZM36.0603 18.1461C36.5765 17.888 36.5231 18.1461 36.6566 15.3293C36.7456 13.4336 36.7901 12.8507 36.8391 12.7706C37.0082 12.5036 37.3508 12.379 38.2897 12.2544C38.6724 12.2055 38.8504 12.1565 39.0685 12.0453C39.905 11.6225 40.4568 11.0262 40.5147 10.4789C40.5325 10.3187 40.5147 10.2653 40.3945 10.1229C40.3189 10.0339 40.1631 9.90487 40.0474 9.83812C39.7493 9.66013 39.5224 9.68238 38.8148 9.93602C38.3075 10.1229 38.1829 10.1496 37.7824 10.1719C37.1906 10.1986 37.1016 10.1541 37.1016 9.81588C37.1016 9.68683 37.1506 9.44653 37.2129 9.26409C37.3241 8.9437 37.3241 8.9437 37.2351 8.739C37.1194 8.46311 36.8391 8.17387 36.5721 8.04927C36.354 7.94247 36.354 7.94247 36.1671 8.09377C35.9357 8.28511 35.602 8.7212 35.4952 8.97485C35.4463 9.08164 35.3795 9.32639 35.3484 9.51773C35.2816 9.89597 35.1748 10.0873 34.9078 10.2876C34.5607 10.5501 33.9555 10.5635 32.8342 10.3321C31.9531 10.1541 31.695 10.1318 31.3924 10.2208C31.1121 10.3009 30.7739 10.608 30.6359 10.9061C30.4401 11.3288 30.4401 11.3377 30.7516 11.6359C31.3479 12.2099 31.9842 12.4013 33.5639 12.4903C34.7788 12.5615 34.6675 12.5214 34.801 12.9308C35.0013 13.536 35.0191 13.8386 35.0013 15.8321C34.9879 17.6788 34.9879 17.6788 35.1615 17.9191C35.335 18.1505 35.5174 18.2751 35.7043 18.2796C35.7533 18.2796 35.9179 18.2217 36.0603 18.1461ZM53.2547 17.5409C53.5128 17.5008 54.0334 17.4074 54.4161 17.3273C55.0747 17.1893 55.1281 17.1715 55.3284 17.0024C55.4485 16.9001 55.7778 16.6732 56.0581 16.4952C57.1484 15.8099 57.5444 15.4049 57.7002 14.822C57.7447 14.6529 57.7135 14.3147 57.6468 14.2435C57.6334 14.2346 57.4243 14.1901 57.1795 14.1501C56.739 14.0833 56.739 14.0833 56.3874 14.3281C55.4619 14.9777 54.6831 15.4049 53.9978 15.6319C53.0945 15.93 52.5116 15.9434 51.8307 15.6808C51.5994 15.5918 51.3279 15.4895 51.2256 15.4494C50.9408 15.3471 50.696 15.1691 50.567 14.9733C50.4646 14.8131 50.4513 14.7464 50.4513 14.4304C50.4513 14.2346 50.478 14.0255 50.5091 13.9632C50.5625 13.8564 50.5937 13.8519 51.052 13.8208C52.0132 13.7585 52.9877 13.398 53.7931 12.8018C54.2559 12.4591 54.9768 11.7249 55.137 11.4401C55.1993 11.3199 55.3061 11.044 55.3729 10.826C55.4841 10.4656 55.4975 10.3543 55.4975 9.73578C55.5019 9.11279 55.4886 9.00154 55.3818 8.60995C55.2438 8.12047 55.0169 7.60428 54.781 7.24384C54.6653 7.06584 54.5274 6.9368 54.2826 6.7766C53.7397 6.41616 53.4683 6.26931 53.2191 6.19366C52.9966 6.12692 52.9655 6.12692 52.6762 6.21591C51.1811 6.6698 50.0419 7.79118 49.143 9.69573C48.8627 10.2876 48.6624 10.7949 48.3509 11.6893C48.1284 12.3256 48.124 12.3479 48.124 12.8507C48.1284 13.8697 48.4488 14.7864 49.2009 15.9078C49.9039 16.9624 50.1976 17.216 50.963 17.4563C51.6127 17.661 52.2357 17.6833 53.2547 17.5409Z" fill="#1F2937"/>
<path d="M50.7584 11.8405C50.6427 11.7026 50.6916 11.2665 50.8607 10.8927C50.9453 10.7103 51.0432 10.4833 51.0743 10.3854C51.1322 10.2074 52.0177 8.86801 52.2224 8.65441C52.2891 8.58766 52.4315 8.47197 52.5472 8.40077C52.7297 8.28062 52.7875 8.26727 53.1035 8.26727C53.5485 8.26727 53.7353 8.37407 53.8644 8.69891C53.9712 8.98371 53.9712 9.69124 53.8555 10.0695C53.5796 10.9906 53.0901 11.3911 51.7685 11.756C51.1277 11.934 50.8518 11.9562 50.7584 11.8405ZM51.764 11.2442C52.0221 11.1686 52.2402 11.0707 52.2847 11.0173C52.4983 10.7726 52.6184 9.87813 52.476 9.60669C52.3514 9.3575 52.3025 9.3931 51.8975 9.99828C51.6884 10.3142 51.5193 10.5946 51.5193 10.6213C51.5193 10.6524 51.4481 10.826 51.3636 11.0129C51.279 11.1998 51.2078 11.3555 51.2078 11.3644C51.2078 11.4044 51.3502 11.3733 51.764 11.2442Z" fill="#1F2937"/>
</g>
<defs>
<clipPath id="clip0">
<rect width="85.4379" height="48.0588" fill="white" transform="translate(0.790527 0.0350342)"/>
</clipPath>
</defs>
</svg>
