<svg width="92" height="176" viewBox="0 0 92 176" fill="none" xmlns="http://www.w3.org/2000/svg">
<path d="M67.1428 104.388C71.3746 105.379 76.1849 106.305 79.9596 108.738C81.8773 110.016 83.0216 111.295 83.2517 114.858C83.4818 118.422 80.3272 122.891 77.3132 125.492C77.9152 126.826 77.9972 128.336 77.5433 129.727C78.304 130.187 79.1414 130.555 79.7998 131.13C80.6276 131.866 80.8354 132.949 79.6368 133.409C77.7958 134.144 76.3703 133.339 75.0822 132.719C75.8397 133.154 76.8305 133.409 77.3579 134.122C78.3935 135.548 77.5657 136.698 76.0251 136.516C73.9987 136.286 72.733 134.627 71.5504 132.578C70.8824 128.759 68.6291 126.365 67.9387 122.545C69.4792 121.142 73.0015 118.31 73.7813 116.31C72.1167 115.868 70.5434 115.135 69.1341 114.146C68.4756 110.879 67.8076 107.635 67.1428 104.388Z" fill="#FFD709"/>
<path d="M67.1428 104.388C69.3035 104.896 71.6175 105.379 73.8549 106.069C74.5654 108.567 74.73 111.189 74.3375 113.756C75.7886 114.561 77.3515 114.884 77.2141 116.54C77.0063 119.324 75.1429 123.488 72.4038 125.882C71.4449 124.319 70.4861 122.731 69.5272 121.142C71.186 119.691 73.2092 117.783 73.7845 116.31C72.1188 115.868 70.5444 115.136 69.1341 114.146C68.4756 110.879 67.8076 107.635 67.1428 104.388Z" fill="#E8C411"/>
<path d="M80.4643 132.303C80.5123 132.741 80.2821 133.153 79.6365 133.409C77.7955 134.144 76.37 133.339 75.0819 132.719C75.8394 133.153 76.8302 133.409 77.3576 134.122C78.3932 135.547 77.5654 136.698 76.0248 136.516C73.9984 136.286 72.7327 134.627 71.5501 132.578C71.4077 131.745 71.1839 130.929 70.8821 130.139C71.6428 129.471 72.4003 128.781 73.161 128.091C74.6664 130.44 76.5074 132.441 80.4643 132.303Z" fill="#E8C411"/>
<path d="M73.5383 105.976C75.7962 106.595 77.9573 107.524 79.9595 108.738C81.8772 110.016 83.0215 111.295 83.2516 114.858C83.4114 117.876 81.2252 121.51 78.7386 124.127C81.3403 121.043 82.1234 118.604 81.5704 114.162C81.3179 112.046 79.0614 110.62 77.3131 109.444C75.8843 108.489 74.6111 107.319 73.5383 105.976Z" fill="#FFE047"/>
<path d="M77.3833 125.63C77.9285 126.932 77.9852 128.387 77.5431 129.727C78.3038 130.187 79.1412 130.555 79.7997 131.13C80.0293 131.328 80.2163 131.571 80.3494 131.843C79.2691 131.405 78.2111 131.108 77.2683 130.44C76.8751 130.162 76.8751 129.612 76.9902 129.104C77.3354 127.793 76.9902 126.25 77.3833 125.63Z" fill="#FFE047"/>
<path d="M67.1428 104.388C71.3746 105.379 76.1849 106.305 79.9596 108.738C81.8773 110.016 83.0216 111.295 83.2517 114.858C83.4818 118.422 80.3272 122.891 77.3132 125.492C77.9152 126.826 77.9972 128.336 77.5433 129.727C78.304 130.187 79.1414 130.555 79.7998 131.13C80.6276 131.866 80.8354 132.949 79.6368 133.409C77.7958 134.144 76.3703 133.339 75.0822 132.719C75.8397 133.154 76.8305 133.409 77.3579 134.122C78.3935 135.548 77.5657 136.698 76.0251 136.516C73.9987 136.286 72.733 134.627 71.5504 132.578C70.8824 128.759 68.6291 126.365 67.9387 122.545C69.4792 121.142 73.0015 118.31 73.7813 116.31C72.1167 115.868 70.5434 115.135 69.1341 114.146C68.4756 110.879 67.8076 107.635 67.1428 104.388Z" stroke="#1D1D1B" stroke-width="0.458547" stroke-linecap="round" stroke-linejoin="round"/>
<path d="M74.7816 116.562C73.241 116.217 70.5019 115.283 69.1211 114.146" stroke="#1D1D1B" stroke-width="0.458547" stroke-linecap="round" stroke-linejoin="round"/>
<path d="M20.3566 122.235C18.2631 121.452 15.7317 121.452 13.5902 121.452C13.5231 125.288 13.798 129.229 13.7277 133.074C16.2846 133.096 18.8832 132.591 21.8301 130.149C21.3474 127.448 20.8392 124.962 20.3566 122.235Z" fill="#797979" stroke="#1D1D1B" stroke-width="0.458547" stroke-linecap="round" stroke-linejoin="round"/>
<path d="M13.5199 133.102C16.5786 133.102 19.0429 130.501 19.0429 127.301C19.0429 124.102 16.5818 121.465 13.5199 121.465C10.4579 121.465 8 124.063 8 127.285C8 130.507 10.4835 133.102 13.5199 133.102Z" fill="#797979"/>
<path d="M13.9833 128.922C14.9753 128.922 15.7796 128.117 15.7796 127.125C15.7796 126.133 14.9753 125.329 13.9833 125.329C12.9912 125.329 12.187 126.133 12.187 127.125C12.187 128.117 12.9912 128.922 13.9833 128.922Z" fill="#DADADA" stroke="#1D1D1B" stroke-width="0.458547" stroke-linecap="round" stroke-linejoin="round"/>
<path d="M12.4173 129.634C11.5192 129.241 10.9438 128.161 10.9662 127.01C10.9618 126.48 11.1102 125.959 11.3935 125.51C11.6768 125.061 12.0833 124.703 12.5643 124.479" stroke="#5F5F5E" stroke-width="0.458547" stroke-miterlimit="10" stroke-linecap="round"/>
<path d="M12.5611 124.473C14.3574 123.667 16.1984 125.278 16.077 127.004C15.9555 128.73 14.7186 130.347 12.3022 129.587" stroke="#1D1D1B" stroke-width="0.458547" stroke-linecap="round" stroke-linejoin="round"/>
<path d="M14.856 121.625C16.08 121.976 17.1541 122.72 17.9117 123.744C18.6693 124.767 19.068 126.012 19.0462 127.285C19.0558 128.309 18.7974 129.317 18.2967 130.209C17.7959 131.102 17.0703 131.848 16.192 132.374C18.3782 128.231 18.2855 124.984 14.856 121.625Z" fill="#5F5F5E"/>
<path d="M13.5199 133.102C16.5786 133.102 19.0429 130.501 19.0429 127.301C19.0429 124.102 16.5818 121.465 13.5199 121.465C10.4579 121.465 8 124.063 8 127.285C8 130.507 10.4835 133.102 13.5199 133.102Z" stroke="#1D1D1B" stroke-width="0.471556" stroke-linecap="round" stroke-linejoin="round"/>
<path d="M22.1049 153.037C20.0114 152.254 17.48 152.254 15.3385 152.254C15.2714 156.089 15.5463 160.056 15.4792 163.901C18.0361 163.923 20.657 163.393 23.5784 160.954C23.1085 158.263 22.5875 155.754 22.1049 153.037Z" fill="#797979" stroke="#1D1D1B" stroke-width="0.458547" stroke-linecap="round" stroke-linejoin="round"/>
<path d="M15.2713 163.901C18.3301 163.901 20.8168 161.277 20.8168 158.078C20.8168 154.878 18.3301 152.254 15.2713 152.254C12.2126 152.254 9.74829 154.878 9.74829 158.078C9.74829 161.277 12.2413 163.901 15.2713 163.901Z" fill="#797979"/>
<path d="M15.7316 159.714C16.7236 159.714 17.5278 158.91 17.5278 157.918C17.5278 156.926 16.7236 156.121 15.7316 156.121C14.7395 156.121 13.9353 156.926 13.9353 157.918C13.9353 158.91 14.7395 159.714 15.7316 159.714Z" fill="#DADADA" stroke="#1D1D1B" stroke-width="0.458547" stroke-linecap="round" stroke-linejoin="round"/>
<path d="M14.1591 160.449C13.2866 160.034 12.6857 158.976 12.7112 157.825C12.7019 157.29 12.8479 156.764 13.1315 156.31C13.4152 155.856 13.8243 155.494 14.3093 155.268" stroke="#5F5F5E" stroke-width="0.458547" stroke-miterlimit="10" stroke-linecap="round"/>
<path d="M14.3286 155.271C16.1217 154.466 17.9403 156.099 17.8029 157.803C17.6655 159.506 16.4669 161.14 14.0505 160.379" stroke="#1D1D1B" stroke-width="0.458547" stroke-linecap="round" stroke-linejoin="round"/>
<path d="M16.6042 152.439C17.8301 152.783 18.9079 153.522 19.6699 154.542C20.4318 155.562 20.8351 156.805 20.8169 158.078C20.8226 159.102 20.5602 160.111 20.0555 161.003C19.5509 161.895 18.8217 162.64 17.9403 163.163C20.1265 159.043 20.0338 155.776 16.6042 152.439Z" fill="#5F5F5E"/>
<path d="M15.2713 163.901C18.3301 163.901 20.8168 161.277 20.8168 158.078C20.8168 154.878 18.3301 152.254 15.2713 152.254C12.2126 152.254 9.74829 154.878 9.74829 158.078C9.74829 161.277 12.2413 163.901 15.2713 163.901Z" stroke="#1D1D1B" stroke-width="0.471556" stroke-linecap="round" stroke-linejoin="round"/>
<path d="M34.4165 116.907C33.4736 118.186 31.655 119.164 30.7824 120.474C30.1144 121.487 30.1815 122.823 30.2071 124.019C30.4372 133.316 31.1021 142.589 32.0705 151.864C32.4381 155.38 32.8536 158.896 33.2435 162.412C33.4289 163.952 33.7261 165.493 33.8188 167.059C33.9563 169.568 33.2211 171.569 31.5623 172.582C30.5747 173.18 28.2031 173.71 26.8926 172.857C24.1311 171.041 22.9805 168.139 22.418 165.656C21.5154 161.784 20.8747 157.855 20.5002 153.897C19.9729 148.834 19.9249 143.701 19.6948 138.593C19.5573 135.116 19.4423 131.619 19.3752 128.145C19.3304 125.981 19.2377 122.414 19.5158 120.273C19.8354 117.834 20.3884 116.846 21.1714 114.52C21.7819 112.647 22.9102 109.936 24.7064 109.105C27.468 107.827 29.9514 107.91 32.697 109.22C34.4932 110.096 34.653 112.736 35.0686 114.676C35.2699 115.641 34.9918 116.124 34.4165 116.907Z" fill="#9DC422"/>
<path d="M27.9732 110.464C26.7779 112.22 25.7971 114.113 25.0519 116.102C24.5136 117.446 24.2025 118.871 24.1313 120.318" stroke="#1D1D1B" stroke-width="0.458547" stroke-linecap="round" stroke-linejoin="round"/>
<path d="M27.3308 122.555C27.676 120.231 28.2258 117.952 29.8366 115.788" stroke="#1D1D1B" stroke-width="0.458547" stroke-linecap="round" stroke-linejoin="round"/>
<path d="M23.8083 122.063C23.8083 131.773 24.0385 141.486 24.569 151.196C25.4416 160.146 25.6494 170.252 30.6195 171.908" stroke="#1D1D1B" stroke-width="0.458547" stroke-linecap="round" stroke-linejoin="round"/>
<path d="M27.3307 124.041C27.238 132.233 28.1585 142.384 28.7562 151.564" stroke="#1D1D1B" stroke-width="0.458547" stroke-linecap="round" stroke-linejoin="round"/>
<path d="M28.9417 152.599C29.1462 155.223 29.2613 157.918 29.7695 160.449" stroke="#1D1D1B" stroke-width="0.458547" stroke-linecap="round" stroke-linejoin="round"/>
<path d="M30.252 122.107C30.2017 122.745 30.1868 123.386 30.2072 124.025C30.4373 133.323 31.1022 142.595 32.0706 151.871C32.4382 155.386 32.8537 158.902 33.2436 162.418C33.429 163.959 33.7262 165.499 33.8189 167.065C33.9564 169.574 33.2212 171.575 31.5624 172.588C31.1312 172.833 30.6658 173.012 30.1816 173.119C30.7736 172.768 31.3293 172.359 31.8405 171.898C32.9432 170.725 33.3363 168.906 33.1989 167.423C32.8281 163.396 32.1377 158.241 31.6327 153.916C30.7122 145.884 30.0666 137.852 29.7917 129.775C29.7693 127.263 29.2388 123.833 30.252 122.107Z" fill="#E6EAA4"/>
<path d="M34.4165 116.907C33.4736 118.186 31.655 119.164 30.7824 120.474C30.1144 121.487 30.1815 122.823 30.2071 124.019C30.4372 133.316 31.1021 142.589 32.0705 151.864C32.4381 155.38 32.8536 158.896 33.2435 162.412C33.4289 163.952 33.7261 165.493 33.8188 167.059C33.9563 169.568 33.2211 171.569 31.5623 172.582C30.5747 173.18 28.2031 173.71 26.8926 172.857C24.1311 171.041 22.9805 168.139 22.418 165.656C21.5154 161.784 20.8747 157.855 20.5002 153.897C19.9729 148.834 19.9249 143.701 19.6948 138.593C19.5573 135.116 19.4423 131.619 19.3752 128.145C19.3304 125.981 19.2377 122.414 19.5158 120.273C19.8354 117.834 20.3884 116.846 21.1714 114.52C21.7819 112.647 22.9102 109.936 24.7064 109.105C27.468 107.827 29.9514 107.91 32.697 109.22C34.4932 110.096 34.653 112.736 35.0686 114.676C35.2699 115.641 34.9918 116.124 34.4165 116.907Z" stroke="#1D1D1B" stroke-width="0.458547" stroke-linecap="round" stroke-linejoin="round"/>
<path d="M67.2162 152.139C68.5299 150.001 71.4288 149.582 75.3857 150.324C77.4792 153.66 78.6778 157.227 78.2847 161.14C77.5496 168.641 74.3054 172.346 69.2874 172.991C67.4016 170.022 65.4903 167.075 63.6045 164.106C64.8159 160.126 66.0144 156.115 67.2162 152.139Z" fill="#1EB3DF"/>
<path d="M72.7806 150.001C73.6524 150.056 74.52 150.163 75.3792 150.32C77.4727 153.657 78.6713 157.224 78.2781 161.136C77.543 168.638 74.2988 172.342 69.2808 172.988C69.0059 172.572 68.7534 172.157 68.4753 171.745C76.5074 170.575 78.5338 156.812 72.7806 150.001Z" fill="#EDEDED"/>
<path d="M67.2162 152.139C68.5298 150.001 71.4288 149.582 75.3857 150.324C77.4792 153.66 78.6778 157.227 78.2847 161.14C78.2847 161.255 78.2623 161.37 78.2623 161.485C78.2623 161.507 78.2623 161.507 78.2399 161.507C78.2399 161.622 78.2175 161.715 78.2175 161.827V161.868C78.1952 161.983 78.1952 162.076 78.1696 162.188C78.1472 162.281 78.1472 162.37 78.1249 162.485V162.508C78.1006 162.605 78.0857 162.705 78.0801 162.805C78.0801 162.827 78.0801 162.827 78.0545 162.827C78.0523 162.929 78.0373 163.03 78.0098 163.128V163.172C77.9874 163.265 77.9874 163.358 77.965 163.428V163.473C77.9395 163.566 77.9171 163.658 77.8947 163.725V163.796C77.8724 163.888 77.85 163.955 77.8244 164.048V164.106C77.802 164.176 77.7797 164.269 77.7573 164.361V164.425C77.7349 164.496 77.7093 164.588 77.687 164.655V164.703C77.6646 164.771 77.6422 164.863 77.6199 164.934C77.6214 164.946 77.6199 164.959 77.6154 164.97C77.611 164.982 77.6037 164.992 77.5943 165.001C77.5665 165.074 77.5514 165.152 77.5495 165.231C77.5272 165.231 77.5272 165.253 77.5272 165.279C77.5272 165.304 77.4792 165.416 77.4568 165.509C77.4551 165.526 77.4472 165.542 77.4345 165.554C77.4121 165.624 77.3897 165.691 77.3642 165.784C77.3642 165.806 77.3642 165.806 77.3418 165.828C77.3194 165.899 77.3194 165.969 77.297 166.036C77.2747 166.103 77.2747 166.084 77.2491 166.107C77.2235 166.129 77.2267 166.222 77.2043 166.289C77.182 166.356 77.182 166.337 77.1596 166.359C77.1372 166.381 77.1117 166.496 77.0893 166.544C77.0907 166.557 77.0895 166.569 77.0856 166.58C77.0817 166.592 77.0754 166.603 77.0669 166.612C77.0445 166.682 77.019 166.727 76.9966 166.797C76.9966 166.819 76.9742 166.842 76.9742 166.864C76.9548 166.938 76.9235 167.008 76.8815 167.072C76.8797 167.09 76.8718 167.107 76.8592 167.12C76.8368 167.187 76.8144 167.235 76.7888 167.302C76.7633 167.369 76.7665 167.324 76.7665 167.35C76.7665 167.375 76.6993 167.465 76.6738 167.532C76.6711 167.55 76.6634 167.567 76.6514 167.58C76.6309 167.645 76.5996 167.707 76.5587 167.762C76.5587 167.785 76.5587 167.785 76.5363 167.81C76.518 167.865 76.4956 167.918 76.4692 167.97C76.4435 167.995 76.4267 168.027 76.4213 168.063C76.3787 168.108 76.347 168.163 76.3286 168.222C76.3159 168.235 76.308 168.252 76.3062 168.27C76.2683 168.319 76.2371 168.373 76.2135 168.43L76.1688 168.475C76.1478 168.534 76.1164 168.59 76.0761 168.638C76.0761 168.66 76.0761 168.66 76.0537 168.683C76.018 168.734 75.987 168.789 75.961 168.846C75.9386 168.846 75.9386 168.868 75.9386 168.89C75.8868 168.948 75.8408 169.01 75.8012 169.076C72.3269 166.199 69.5398 159.986 66.9189 153.171V153.127V153.104L66.9413 153.082V153.056V153.012C66.9929 152.894 67.0315 152.77 67.0564 152.644H67.0788V152.574C67.0788 152.568 67.0811 152.562 67.0853 152.558C67.0895 152.554 67.0952 152.551 67.1011 152.551V152.529V152.507V152.481H67.1235V152.414C67.1491 152.414 67.1491 152.414 67.1491 152.392C67.1452 152.359 67.1532 152.326 67.1714 152.299V152.251H67.1938V152.206V152.184C67.2063 152.172 67.2142 152.156 67.2162 152.139Z" fill="#8DD2EF"/>
<path d="M72.3877 153.453C72.9853 153.315 73.6661 154.05 73.8835 155.086C74.1008 156.122 73.8611 157.042 73.2634 157.179C72.6657 157.317 72.0201 156.559 71.7676 155.524C71.5151 154.488 71.8123 153.558 72.3877 153.453Z" fill="white" stroke="#1D1D1B" stroke-width="0.468304" stroke-linecap="round" stroke-linejoin="round"/>
<path d="M67.2162 152.139C68.4947 150.068 71.2211 149.608 74.9734 150.253C75.2036 150.921 75.456 151.564 75.6638 152.232C72.6018 150.736 69.4248 151.059 67.1235 152.439C67.1427 152.324 67.1875 152.232 67.2162 152.139Z" fill="#BBE2F4"/>
<path d="M72.7808 150.001H72.8031C72.8429 149.995 72.8834 150.003 72.9182 150.023H73.126C73.1729 150.02 73.2198 150.028 73.2634 150.046H73.4456C73.4982 150.063 73.5534 150.07 73.6086 150.068V150.068C73.6632 150.063 73.7182 150.071 73.7684 150.094H73.7908C73.846 150.091 73.9012 150.099 73.9538 150.116V150.116C74.0081 150.111 74.0628 150.118 74.1136 150.138H74.136C74.1839 150.135 74.232 150.143 74.2766 150.161H74.299C74.3605 150.157 74.4223 150.165 74.4811 150.183H74.5674L74.6601 150.209C74.7049 150.209 74.7752 150.231 74.8199 150.231C74.8903 150.253 74.9606 150.253 75.0053 150.276C75.068 150.272 75.1307 150.28 75.1907 150.298H75.2067C75.2572 150.319 75.312 150.328 75.3665 150.324C77.46 153.66 78.6586 157.227 78.2655 161.14C78.2655 161.255 78.2431 161.37 78.2431 161.485C78.2431 161.507 78.2431 161.507 78.2207 161.507C78.2207 161.622 78.1983 161.715 78.1983 161.827V161.868C78.176 161.983 78.176 162.076 78.1504 162.188C78.128 162.281 78.128 162.37 78.1056 162.485V162.508C78.0814 162.605 78.0664 162.705 78.0609 162.805C78.0609 162.827 78.0609 162.827 78.0353 162.827C78.0331 162.929 78.018 163.03 77.9906 163.128V163.172C77.9682 163.265 77.9682 163.358 77.9458 163.428V163.473C77.9203 163.566 77.8979 163.658 77.8755 163.725V163.796C77.8531 163.888 77.8308 163.955 77.8052 164.048V164.106C77.7828 164.176 77.7605 164.269 77.7381 164.361V164.425C77.7157 164.496 77.6901 164.588 77.6678 164.655V164.703C77.6454 164.77 77.623 164.863 77.6006 164.934C77.6022 164.946 77.6007 164.959 77.5962 164.97C77.5917 164.982 77.5845 164.992 77.5751 165.001C77.5473 165.074 77.5322 165.152 77.5303 165.231C77.508 165.231 77.508 165.253 77.508 165.279C77.508 165.304 77.46 165.416 77.4376 165.509C77.4359 165.526 77.428 165.542 77.4153 165.554C77.3929 165.624 77.3705 165.691 77.3449 165.784C77.3449 165.806 77.3449 165.806 77.3226 165.828C77.3002 165.899 77.3002 165.969 77.2778 166.036C77.2555 166.103 77.2555 166.084 77.2299 166.107C77.2043 166.129 77.2075 166.222 77.1851 166.289C77.1628 166.356 77.1628 166.337 77.1404 166.359C77.118 166.381 77.0924 166.496 77.0701 166.544C77.0715 166.557 77.0703 166.569 77.0664 166.58C77.0625 166.592 77.0561 166.603 77.0477 166.612C77.0253 166.682 76.9998 166.727 76.9774 166.797C76.9774 166.819 76.955 166.842 76.955 166.864C76.9356 166.938 76.9043 167.008 76.8623 167.072C76.8605 167.09 76.8526 167.107 76.8399 167.12C76.8176 167.187 76.7952 167.235 76.7696 167.302C76.7441 167.369 76.7473 167.324 76.7473 167.35C76.7473 167.375 76.6801 167.465 76.6546 167.532C76.6519 167.55 76.6442 167.566 76.6322 167.58C76.6117 167.645 76.5804 167.707 76.5395 167.762C76.5395 167.785 76.5395 167.785 76.5171 167.81C76.4988 167.865 76.4764 167.918 76.45 167.97C76.4243 167.995 76.4075 168.027 76.4021 168.063C76.3595 168.108 76.3278 168.163 76.3094 168.222C76.2967 168.235 76.2888 168.252 76.287 168.27C76.2491 168.319 76.2179 168.373 76.1943 168.43L76.1496 168.475C76.1286 168.534 76.0972 168.59 76.0569 168.638C76.0569 168.66 76.0569 168.66 76.0345 168.683C75.9988 168.734 75.9678 168.789 75.9418 168.846C75.9194 168.846 75.9194 168.868 75.9194 168.89C75.8676 168.948 75.8216 169.01 75.782 169.076C75.2203 168.583 74.6967 168.049 74.2159 167.478C77.0125 162.587 76.7377 154.67 72.7808 150.001Z" fill="white"/>
<path d="M72.7806 150.001C73.6524 150.056 74.52 150.163 75.3792 150.32C77.4727 153.657 78.6713 157.224 78.2781 161.136C77.543 168.638 74.2988 172.342 69.2808 172.988C69.0059 172.572 68.7534 172.157 68.4753 171.745C76.5074 170.575 78.5338 156.812 72.7806 150.001Z" stroke="#1D1D1B" stroke-width="0.458547" stroke-linecap="round" stroke-linejoin="round"/>
<path d="M67.2162 152.139C68.5299 150.001 71.4288 149.582 75.3857 150.324C77.4792 153.66 78.6778 157.227 78.2847 161.14C77.5496 168.641 74.3054 172.346 69.2874 172.991C67.4016 170.022 65.4903 167.075 63.6045 164.106C64.8159 160.126 66.0144 156.115 67.2162 152.139Z" stroke="#1D1D1B" stroke-width="0.458547" stroke-linecap="round" stroke-linejoin="round"/>
<path d="M56.1413 161.184C51.7913 163.831 51.7465 166.96 51.8136 171.265C56.9691 175.101 64.3555 176.28 71.905 173.381C72.4803 166.915 68.3892 164.083 65.0715 161.277C62.1022 161.255 59.1106 161.229 56.1413 161.184Z" fill="#1EB3DF"/>
<path d="M57.3367 174.071C61.6867 175.452 66.7719 175.35 71.905 173.381C72.3876 167.928 69.559 165.052 66.6568 162.61L62.7447 162.68C59.2256 164.154 57.5221 168.088 57.3367 174.071Z" fill="#8DD2EF"/>
<path d="M51.8137 168.801C51.7913 169.561 51.7913 170.399 51.8137 171.265C56.9691 175.101 64.3556 176.28 71.905 173.381C72.0007 172.399 71.9771 171.41 71.8347 170.434C65.2761 173.036 58.5353 172.071 51.8137 168.801Z" fill="#EDEDED"/>
<path d="M57.3367 174.071C61.6867 175.452 66.7719 175.35 71.905 173.381C72.0007 172.399 71.977 171.41 71.8347 170.434C67.165 172.301 62.3771 172.323 57.5924 171.009C57.4556 172.025 57.3702 173.047 57.3367 174.071Z" fill="white"/>
<path d="M51.8137 168.801C51.7913 169.561 51.7913 170.399 51.8137 171.265C56.9691 175.101 64.3556 176.28 71.905 173.381C72.0007 172.399 71.9771 171.41 71.8347 170.434C65.2761 173.036 58.5353 172.071 51.8137 168.801Z" stroke="#1D1D1B" stroke-width="0.458547" stroke-linecap="round" stroke-linejoin="round"/>
<path d="M56.1413 161.184C51.7913 163.831 51.7465 166.96 51.8136 171.265C56.9691 175.101 64.3555 176.28 71.905 173.381C72.4803 166.915 68.3892 164.083 65.0715 161.277C62.1022 161.255 59.1106 161.229 56.1413 161.184Z" stroke="#1D1D1B" stroke-width="0.458547" stroke-linecap="round" stroke-linejoin="round"/>
<path d="M54.9204 164.636C55.4957 164.796 55.7035 165.764 55.4062 166.822C55.109 167.88 54.4154 168.593 53.8625 168.421C53.3095 168.248 53.0794 167.292 53.3798 166.234C53.6803 165.176 54.3706 164.476 54.9204 164.636Z" fill="white" stroke="#1D1D1B" stroke-width="0.461799" stroke-linecap="round" stroke-linejoin="round"/>
<path d="M56.9691 158.237C55.4509 158.698 54.2075 159.874 54.1404 161.024C54.0733 162.175 54.6007 162.84 55.8408 163.645C57.0809 164.451 60.3986 165.074 62.4474 164.889C64.4961 164.703 65.992 164.476 66.9796 163.556C67.9672 162.635 66.3116 160.494 65.3463 159.529C64.3811 158.563 63.4606 158.493 61.7091 158.122C60.1451 157.756 58.5134 157.795 56.9691 158.237V158.237Z" fill="#EDEDED"/>
<path d="M59.9832 164.745C60.7948 164.9 61.6236 164.947 62.4474 164.882C63.988 164.723 65.209 164.563 66.1518 164.099C65.0539 163.614 63.8507 163.416 62.6552 163.524C61.6196 163.623 60.8238 164.106 59.9832 164.745Z" fill="white"/>
<path d="M56.9691 158.237C55.4509 158.698 54.2075 159.874 54.1404 161.024C54.0733 162.175 54.6007 162.84 55.8408 163.645C57.0809 164.451 60.3986 165.074 62.4474 164.889C64.4961 164.703 65.992 164.476 66.9796 163.556C67.9672 162.635 66.3116 160.494 65.3463 159.529C64.3811 158.563 63.4606 158.493 61.7091 158.122C60.1451 157.756 58.5134 157.795 56.9691 158.237V158.237Z" stroke="#1D1D1B" stroke-width="0.458547" stroke-linecap="round" stroke-linejoin="round"/>
<path d="M67.2322 144.085C66.8199 147.997 66.382 151.934 66.4523 155.847C64.0104 156.511 61.5717 157.157 59.1011 157.825C57.4678 156.029 55.809 154.258 54.1533 152.484C54.3611 149.218 54.5656 145.974 54.7734 142.729C58.9253 143.19 63.0899 143.624 67.2322 144.085Z" fill="#FFD709"/>
<path d="M67.1427 144.928C67.0276 146.101 66.9126 147.252 66.7975 148.403C65.1272 148.88 63.4013 149.135 61.6644 149.16C61.3192 151.487 60.974 153.811 60.6512 156.157L57.2696 154.018C56.787 152.59 56.2788 151.164 55.7961 149.735L56.755 144.443L67.1427 144.928Z" fill="#E8C411"/>
<path d="M67.2322 144.085C66.8199 147.997 66.382 151.934 66.4523 155.847C64.0104 156.511 61.5717 157.157 59.1011 157.825C57.4678 156.029 55.809 154.258 54.1533 152.484C54.3611 149.218 54.5656 145.974 54.7734 142.729C58.9253 143.19 63.0899 143.624 67.2322 144.085Z" stroke="#1D1D1B" stroke-width="0.458547" stroke-linecap="round" stroke-linejoin="round"/>
<path d="M66.2574 162.312C68.5586 162.312 70.4124 159.666 70.4124 156.396C70.4124 153.127 68.5491 150.461 66.2574 150.461C63.9657 150.461 62.1023 153.13 62.1023 156.396C62.1023 159.663 63.9657 162.312 66.2574 162.312Z" fill="#EDEDED"/>
<path d="M66.2573 150.461C68.5585 150.461 70.4124 153.13 70.4124 156.396C70.4307 157.827 70.0392 159.234 69.2841 160.449C66.7079 159.49 64.2213 157.64 62.1501 155.476C62.4474 152.647 64.1733 150.461 66.2573 150.461Z" fill="white"/>
<path d="M66.2574 162.312C68.5586 162.312 70.4124 159.666 70.4124 156.396C70.4124 153.127 68.5491 150.461 66.2574 150.461C63.9657 150.461 62.1023 153.13 62.1023 156.396C62.1023 159.663 63.9657 162.312 66.2574 162.312Z" stroke="#1D1D1B" stroke-width="0.471556" stroke-linecap="round" stroke-linejoin="round"/>
<path d="M57.3078 144.868C56.7101 150.621 58.4137 152.347 65.3623 152.858C67.8713 154.606 67.4558 158.816 65.1769 160.497C50.8866 161.603 45.3604 155.549 46.5622 144.481C50.2762 144.609 53.5651 144.73 57.3078 144.868Z" fill="#FFD709"/>
<path d="M57.3078 144.868C57.0777 147.032 57.1928 148.62 57.7681 149.793C56.146 150.285 54.4932 150.67 52.8203 150.944C52.7277 156.949 57.6306 158.905 65.3399 158.615C66.0303 157.336 66.5129 155.875 66.0527 153.411C67.7339 155.575 66.9508 159.19 65.1769 160.5C50.8866 161.606 45.3604 155.553 46.5622 144.484C50.2762 144.609 53.5651 144.73 57.3078 144.868Z" fill="#E8C411"/>
<path d="M57.3078 144.868C56.7101 150.621 58.4137 152.347 65.3623 152.858C67.8713 154.606 67.4558 158.816 65.1769 160.497C50.8866 161.603 45.3604 155.549 46.5622 144.481C50.2762 144.609 53.5651 144.73 57.3078 144.868Z" stroke="#1D1D1B" stroke-width="0.458547" stroke-linecap="round" stroke-linejoin="round"/>
<path d="M71.7451 134.397C71.1442 138.149 70.6392 141.898 70.9397 145.651C64.8669 147.607 58.9027 146.594 52.9897 144.938C53.8176 142.681 54.6678 140.428 55.5211 138.172C60.9291 136.906 66.3371 135.659 71.7451 134.397Z" fill="#1EB3DF"/>
<path d="M71.1698 138.309C70.8504 140.746 70.7733 143.208 70.9397 145.66C69.3152 146.2 67.6293 146.533 65.9216 146.651V143.544C67.9419 142.094 69.7141 140.326 71.1698 138.309V138.309Z" fill="#8DD2EF"/>
<path d="M71.0068 139.99C70.8231 141.872 70.8006 143.765 70.9397 145.651C70.5018 145.811 70.0416 145.926 69.6037 146.041C69.3512 143.509 69.5334 141.508 71.0068 139.99Z" fill="#BAE2F4"/>
<path d="M71.7451 134.397C71.1442 138.149 70.6392 141.898 70.9397 145.651C64.8669 147.607 58.9027 146.594 52.9897 144.938C53.8176 142.681 54.6678 140.428 55.5211 138.172C60.9291 136.906 66.3371 135.659 71.7451 134.397Z" stroke="#1D1D1B" stroke-width="0.458547" stroke-linecap="round" stroke-linejoin="round"/>
<path d="M37.8112 129.037C37.417 133.064 38.5751 136.324 41.2854 138.817C40.5647 141.186 40.087 143.623 39.8599 146.089C45.6131 148.367 51.8489 148.85 58.6377 147.169C58.7048 145.89 58.7751 144.57 58.8199 143.257C68.8304 142.617 73.7334 137.641 73.9635 128.759L37.8112 129.037Z" fill="#1EB3DF"/>
<path d="M46.0862 147.805C50.2744 148.444 54.5488 148.227 58.6505 147.166C58.7176 145.887 58.7879 144.567 58.8327 143.254C68.8432 142.614 73.7462 137.638 73.9763 128.755C73.2859 128.778 72.5955 128.778 71.9052 128.778C66.82 135.154 57.4519 137.133 47.9496 138.974C47.1665 141.924 46.5688 144.868 46.0862 147.805Z" fill="#8DD2EF"/>
<path d="M57.4292 147.447C57.8407 147.376 58.2483 147.283 58.6501 147.169C58.7173 145.89 58.7876 144.593 58.8323 143.279C58.6691 143.078 58.4654 142.914 58.2346 142.797C57.6274 143.234 57.4771 145.168 57.4292 147.447Z" fill="#BAE2F4"/>
<path d="M37.8112 129.037C37.417 133.064 38.5751 136.324 41.2854 138.817C40.5647 141.186 40.087 143.623 39.8599 146.089C45.6131 148.367 51.8489 148.85 58.6377 147.169C58.7048 145.89 58.7751 144.57 58.8199 143.257C68.8304 142.617 73.7334 137.641 73.9635 128.759L37.8112 129.037Z" stroke="#1D1D1B" stroke-width="0.458547" stroke-linecap="round" stroke-linejoin="round"/>
<path d="M58.4873 103.17C61.642 102.617 64.9564 102.064 68.5905 102.432C69.6037 102.524 71.3073 102.917 71.6972 103.86C74.0465 109.844 72.5954 115.389 67.718 120.129C65.3016 118.911 62.9236 117.668 60.5137 116.447C59.8233 112.008 59.1479 107.583 58.4873 103.17Z" fill="#E30613"/>
<path d="M62.0542 102.595C64.2196 102.292 66.412 102.233 68.5904 102.419C69.6036 102.512 71.3072 102.905 71.6972 103.848C71.8825 104.353 72.0647 104.861 72.2054 105.343C69.1425 103.746 65.6709 103.105 62.2396 103.502C62.1948 103.215 62.1245 102.917 62.0542 102.595Z" fill="#F29E8F"/>
<path d="M72.6881 111.109C72.2279 114.331 70.5467 117.367 67.718 120.129C65.3017 118.911 62.9237 117.668 60.5137 116.447C60.0535 113.526 59.6156 110.601 59.1777 107.68C63.9657 108.277 68.5682 109.22 72.6881 111.109Z" fill="#D7201F"/>
<path d="M58.4873 103.17C61.642 102.617 64.9564 102.064 68.5905 102.432C69.6037 102.524 71.3073 102.917 71.6972 103.86C74.0465 109.844 72.5954 115.389 67.718 120.129C65.3016 118.911 62.9236 117.668 60.5137 116.447C59.8233 112.008 59.1479 107.583 58.4873 103.17Z" stroke="#1D1D1B" stroke-width="0.458547" stroke-linecap="round" stroke-linejoin="round"/>
<path d="M41.0231 101.236C41.982 98.9572 42.7235 97.324 44.7275 97.944C50.2953 98.5833 55.8887 99.2577 61.4789 99.9001C64.4034 100.015 65.1161 107.012 65.9919 113.455C71.515 118.08 75.4015 123.421 75.6796 130.277C66.5896 138.402 47.374 139.46 37.2484 133.153C35.7973 128.091 37.1557 122.018 41.1829 117.172C41.0155 114.715 41.1465 112.247 41.5729 109.821C41.1606 106.967 41.4354 104.09 41.0231 101.236Z" fill="#E30613"/>
<path d="M60.9038 99.8331L61.4791 99.9002C64.4037 100.015 65.1164 107.012 65.9922 113.455C71.5152 118.08 75.4018 123.421 75.6799 130.277C74.9845 130.896 74.2465 131.465 73.4713 131.981C73.6087 127.148 72.065 122.072 65.9922 116.319C64.931 115.306 64.1256 114.111 64.0744 112.752C63.8955 107.494 62.9526 103.058 60.9038 99.8331Z" fill="#F29E8F"/>
<path d="M45.0024 136.238C42.2668 135.639 39.6476 134.598 37.2484 133.153C35.7973 128.091 37.1557 122.018 41.1829 117.172C41.0155 114.715 41.1465 112.247 41.5729 109.821C41.4354 108.949 41.3907 108.05 41.3427 107.2C42.5861 106.347 43.8518 105.519 45.0951 104.669C44.2193 110.029 44.8202 115.322 46.6133 120.548C44.8873 125.112 43.8837 130.117 45.0024 136.238Z" fill="#D7201F"/>
<path d="M41.0232 101.236C41.9821 98.9572 42.7236 97.324 44.7276 97.944L49.4676 98.497C48.7772 99.8777 47.8695 101.076 46.6134 101.811C45.0153 102.77 43.0975 102.547 41.1383 102.249C41.0903 101.904 41.0679 101.581 41.0232 101.236Z" fill="#D7201F"/>
<path d="M41.0231 101.236C41.982 98.9572 42.7235 97.324 44.7275 97.944C50.2953 98.5833 55.8887 99.2577 61.4789 99.9001C64.4034 100.015 65.1161 107.012 65.9919 113.455C71.515 118.08 75.4015 123.421 75.6796 130.277C66.5896 138.402 47.374 139.46 37.2484 133.153C35.7973 128.091 37.1557 122.018 41.1829 117.172C41.0155 114.715 41.1465 112.247 41.5729 109.821C41.1606 106.967 41.4354 104.09 41.0231 101.236Z" stroke="#1D1D1B" stroke-width="0.458547" stroke-linecap="round" stroke-linejoin="round"/>
<path d="M33.9116 112.397C29.6319 109.201 28.8935 98.2445 33.7486 95.988C35.4522 95.1825 45.8782 98.2669 45.5554 105.257C45.3476 109.821 37.5936 115.136 33.9116 112.397Z" fill="#E30613"/>
<path d="M31.0349 99.3025C31.5623 97.7843 32.4604 96.5889 33.7485 95.9881C35.1996 95.2977 43.0015 97.4391 45.0727 102.409C42.7011 102.847 39.9587 101.812 37.5008 101.812C36.6503 104.6 36.1931 107.494 36.1425 110.409C35.2219 110.224 34.3014 110.016 33.3809 109.834C32.5989 106.342 31.8169 102.831 31.0349 99.3025Z" fill="#D7201F"/>
<path d="M43.2447 109.751C41.4484 111.614 38.917 113.017 36.7084 113.132C36.0884 111.039 35.3724 108.658 34.8674 106.919C37.4505 108.396 40.2955 109.357 43.2447 109.751V109.751Z" fill="#D7201F"/>
<path d="M33.9116 112.397C29.6319 109.201 28.8935 98.2445 33.7486 95.988C35.4522 95.1825 45.8782 98.2669 45.5554 105.257C45.3476 109.821 37.5936 115.136 33.9116 112.397Z" stroke="#1D1D1B" stroke-width="0.458547" stroke-linecap="round" stroke-linejoin="round"/>
<path d="M33.9116 95.9432C35.3851 95.2081 35.6599 100.418 35.5673 105.976" stroke="#1D1D1B" stroke-width="0.458547" stroke-linecap="round" stroke-linejoin="round"/>
<path d="M35.3371 98.5195C32.5092 97.4604 29.519 96.9002 26.4995 96.8638C22.3445 96.7935 15.0635 99.6477 15.3384 104.068C15.6388 109.038 20.7016 111.982 27.42 112.765C27.595 113.403 27.9243 113.988 28.3789 114.469C27.941 115.827 27.5031 117.3 27.9634 118.656C28.331 119.739 29.3442 119.992 30.4277 119.071C31.0293 118.577 31.5188 117.96 31.8638 117.262C32.2087 116.563 32.4012 115.8 32.4285 115.021C32.5883 116.562 32.3134 118.08 32.0609 119.669C31.9235 120.66 32.7513 121.395 34.3846 120.775C35.044 120.378 35.578 119.803 35.9252 119.116C36.3407 119.646 36.8233 120.014 37.7662 119.461C39.1022 118.036 39.4921 115.779 39.4698 113.133C39.2396 109.22 38.1593 106.101 35.58 105.193H35.5736C35.6521 102.966 35.573 100.736 35.3371 98.5195V98.5195Z" fill="#E8C411"/>
<path d="M26.4551 100.821C28.181 102.892 31.5882 103.768 35.5898 105.193C38.1692 106.114 39.2495 109.22 39.4796 113.133C39.502 115.779 39.112 118.036 37.776 119.461C36.8172 120.014 36.3505 119.646 35.935 119.116C35.5879 119.803 35.0539 120.378 34.3944 120.775C34.1119 120.879 33.8179 120.948 33.5187 120.982C33.4364 119.101 33.6996 117.22 34.2954 115.434C34.6406 114.353 34.7332 113.065 33.7904 112.097C31.553 109.821 28.4719 108.715 25.7583 107.149C24.3072 106.344 22.9264 105.551 22.789 103.953C22.6963 102.892 23.1566 101.767 24.5853 101.051C25.1703 100.784 25.8229 100.704 26.4551 100.821V100.821Z" fill="#FFD709"/>
<path d="M26.5699 100.961C28.3183 102.917 31.6839 103.812 35.5897 105.193C38.169 106.114 39.2493 109.22 39.4794 113.132C39.5018 115.779 39.1119 118.035 37.7759 119.461C37.5605 119.603 37.3176 119.698 37.0631 119.739C37.2261 117.761 37.7759 115.689 37.6384 113.8C37.4786 111.522 36.948 109.06 35.5002 107.312C34.0938 105.631 31.5624 105.356 29.6767 104.228C28.5037 103.515 27.2603 103.077 26.685 101.834C26.5737 101.557 26.5341 101.257 26.5699 100.961V100.961Z" fill="#FFE047"/>
<path d="M32.3775 115.089C32.3704 115.853 32.1949 116.606 31.8634 117.294C31.5319 117.982 31.0527 118.589 30.4598 119.071C30.2559 119.244 30.0316 119.391 29.7918 119.509C29.7483 118.593 29.8662 117.677 30.1402 116.802C30.4853 115.881 31.1757 114.318 32.0962 114.616C32.1844 114.658 32.258 114.726 32.308 114.81C32.3581 114.894 32.3822 114.991 32.3775 115.089V115.089Z" fill="#FFD709"/>
<path d="M35.3371 98.5195C32.5092 97.4604 29.519 96.9002 26.4995 96.8638C22.3445 96.7935 15.0635 99.6477 15.3384 104.068C15.6388 109.038 20.7016 111.982 27.42 112.765C27.595 113.403 27.9243 113.988 28.3789 114.469C27.941 115.827 27.5031 117.3 27.9634 118.656C28.331 119.739 29.3442 119.992 30.4277 119.071C31.0293 118.577 31.5188 117.96 31.8638 117.262C32.2087 116.563 32.4012 115.8 32.4285 115.021C32.5883 116.562 32.3134 118.08 32.0609 119.669C31.9235 120.66 32.7513 121.395 34.3846 120.775C35.044 120.378 35.578 119.803 35.9252 119.116C36.3407 119.646 36.9384 120.199 37.7662 119.461C39.2396 118.183 39.4921 115.779 39.4698 113.133C39.2396 109.22 38.1593 106.101 35.58 105.193H35.5736C35.6521 102.966 35.573 100.736 35.3371 98.5195V98.5195Z" stroke="#1D1D1B" stroke-width="0.458547" stroke-linecap="round" stroke-linejoin="round"/>
<path d="M26.4551 100.821C28.181 102.892 31.5882 103.768 35.5898 105.193C38.1692 106.114 39.2495 109.22 39.4796 113.132" stroke="#1D1D1B" stroke-width="0.458547" stroke-linecap="round" stroke-linejoin="round"/>
<path d="M36.3056 115.549C36.4929 116.793 36.3417 118.065 35.8677 119.231" stroke="#1D1D1B" stroke-width="0.458547" stroke-linecap="round" stroke-linejoin="round"/>
<path d="M28.3886 114.469C27.5608 113.663 27.0526 112.26 27.0749 109.796" stroke="#1D1D1B" stroke-width="0.458547" stroke-linecap="round" stroke-linejoin="round"/>
<path d="M44.7275 98.5833C45.4403 91.5517 45.0472 83.5324 44.3344 75.1551C43.7847 68.6892 42.6788 61.9707 42.0587 54.9039C41.7583 51.5927 40.7451 48.2302 39.8469 44.8487C41.3427 44.9637 42.8386 45.6541 44.3216 47.1723C44.3472 45.4463 44.5773 43.7428 45.5202 42.0168C46.685 42.9886 47.6799 44.1476 48.4639 45.4463C48.857 43.9505 49.362 42.5026 50.535 41.2369C51.9861 42.1095 53.0217 43.3305 53.9646 44.6185C54.4951 43.0204 55.2431 41.5118 56.659 40.5913C57.6178 41.4671 58.3849 42.7072 59.0274 44.1806C59.6615 42.6366 60.5701 41.2202 61.709 40C62.8852 41.0356 63.5276 42.4163 64.0806 43.8355C64.7486 42.4835 65.2983 41.0516 66.6823 40.1151C67.785 41.173 68.2804 42.5761 68.7055 44.0496C69.1881 42.6688 69.6644 41.2657 70.5689 40.3899C71.63 41.1506 72.2501 42.5538 72.8957 43.9345C73.4711 42.7839 74.0464 41.6333 75.0116 40.668C75.8874 41.5406 76.2326 42.7615 76.5075 44.0496C77.3832 42.9437 78.2781 41.9337 79.1763 41.5406C78.5729 48.7475 78.6039 55.9934 79.269 63.1949C79.3617 63.9556 80.6274 64.8314 80.5475 65.6112C80.3876 67.0176 79.0069 67.5929 78.3836 68.881C78.6841 71.1183 79.2594 73.4611 79.5598 75.6921C79.6269 78.9842 79.5119 82.2731 79.7644 85.5428C79.89 86.9077 80.1841 88.2518 80.6401 89.5444C80.7319 89.8365 80.7324 90.1497 80.6416 90.442C80.5508 90.7344 80.373 90.9922 80.132 91.1809C75.4847 94.7479 69.6388 94.5401 64.0934 94.4922C63.9559 95.1314 63.9783 95.7707 63.7034 96.3108C63.3103 97.1163 61.9999 97.1386 61.8848 97.3943C61.5652 98.1295 61.8145 99.1874 61.5396 99.9513C61.3095 100.571 61.057 101.262 60.4113 101.425C52.619 103.352 47.6968 101.259 44.7275 98.5833Z" fill="#FFD709"/>
<path d="M44.7275 98.5833C45.4403 91.5517 45.0472 83.5324 44.3344 75.1551C43.7847 68.6892 42.6788 61.9707 42.0587 54.9039C41.7583 51.5927 40.7451 48.2302 39.8469 44.8487C41.3427 44.9637 42.8386 45.6541 44.3216 47.1723C44.3472 45.4463 44.5773 43.7428 45.5202 42.0168C46.685 42.9886 47.6799 44.1477 48.4639 45.4463C48.857 43.9505 49.362 42.5026 50.535 41.2369C50.8527 41.4157 51.1534 41.6233 51.4332 41.857C51.2031 42.6848 50.9506 43.5126 50.6501 44.3181C50.3049 45.3089 49.052 46.0217 49.1319 47.0796C50.0908 60.7498 51.088 74.42 50.1451 88.0678C50.8355 87.9751 51.5259 87.6523 52.1939 87.7674C53.3893 87.9527 52.3761 88.5281 52.0788 88.7806C51.1956 89.5392 50.5703 90.5538 50.2897 91.6838C50.0091 92.8137 50.087 94.003 50.5127 95.0867C49.8734 96.9724 49.2342 99.3664 48.0963 100.814C46.8694 100.241 45.7341 99.4893 44.7275 98.5833V98.5833Z" fill="#E8C411"/>
<path d="M54.0701 44.3724C54.5527 42.9437 55.2207 41.6556 56.4417 40.7574C56.6552 41.4037 56.6383 42.104 56.3937 42.7391C56.0741 43.4742 55.6586 44.2094 55.1152 44.5801C54.94 44.6527 54.7472 44.6718 54.5611 44.6348C54.3751 44.5978 54.2042 44.5065 54.0701 44.3724V44.3724Z" fill="#E8C411"/>
<path d="M59.2031 43.8419C59.7981 42.4685 60.6144 41.202 61.6195 40.0928C61.8108 40.4506 61.9222 40.8456 61.9459 41.2507C61.9696 41.6557 61.9051 42.0611 61.7569 42.4388C61.4373 43.1995 60.9962 43.9122 60.4433 44.2798C60.0757 44.5323 59.478 44.2478 59.2031 43.8419Z" fill="#E8C411"/>
<path d="M66.3117 40.3676C66.4249 40.2691 66.5493 40.1843 66.6825 40.1151C67.7628 41.1283 68.2454 42.4835 68.6609 43.8898C68.6385 43.9346 68.613 43.957 68.5906 44.0049C68.3157 44.4652 67.3952 44.3725 67.0277 43.9346C66.577 43.404 66.0816 41.563 66.3117 40.3676Z" fill="#FFE047"/>
<path d="M70.3387 40.6424C70.409 40.5529 70.5017 40.4826 70.5688 40.3899C71.582 41.1282 72.1669 42.4163 72.8062 43.7267C72.7582 43.7971 72.7135 43.8897 72.6687 43.9569C72.3906 44.4171 71.4701 44.3244 71.1026 43.9121C70.7094 43.4039 70.2492 41.8186 70.3387 40.6424Z" fill="#FFE047"/>
<path d="M74.248 41.563C74.4772 41.2448 74.7316 40.9455 75.0087 40.6681C75.8845 41.5407 76.2297 42.7616 76.4822 44.0273C76.4651 44.0941 76.4335 44.1564 76.3895 44.2095C76.1146 44.6953 75.1686 44.6026 74.8234 44.1647C74.5293 43.7972 74.248 42.6913 74.248 41.563Z" fill="#FFE047"/>
<path d="M77.4983 42.899C77.9669 42.3444 78.5363 41.8835 79.1763 41.5406C78.573 48.7475 78.604 55.9935 79.269 63.195C79.3617 63.9557 80.6274 64.8314 80.5475 65.6113C80.3877 67.0176 79.0069 67.593 78.3837 68.881C78.6841 71.1184 79.2594 73.4612 79.5599 75.6922C79.627 78.9842 79.5119 82.2731 79.7644 85.5429C79.89 86.9078 80.1842 88.2519 80.6402 89.5445C80.7319 89.8366 80.7324 90.1497 80.6416 90.4421C80.5508 90.7345 80.3731 90.9923 80.132 91.181C78.4378 92.4551 76.4936 93.3569 74.4268 93.8274C75.945 92.8686 77.9937 91.7563 78.6362 90.35C79.2786 88.9436 77.786 87.7738 77.6933 86.1949C77.5558 83.1809 78.0864 79.2911 78.2686 76.2866C77.786 73.1576 77.281 70.0061 76.7728 66.8738C77.1403 66.1163 77.9234 65.3556 77.9458 64.5278C77.9682 63.7 75.9673 63.0767 75.7084 62.2713C75.6158 61.9261 76.2838 61.696 76.3061 61.3508C76.4915 58.9121 76.3764 56.4733 76.3541 54.057C76.255 49.9179 76.3477 45.9354 77.4983 42.899Z" fill="#FFE047"/>
<path d="M54.1627 90.4202C53.0121 91.1105 52.5966 92.1909 52.734 93.5269" stroke="#1D1D1B" stroke-width="0.458547" stroke-linecap="round" stroke-linejoin="round"/>
<path d="M53.0569 91.6859C56.4417 93.4566 60.1461 94.31 64.0806 94.5178" stroke="#1D1D1B" stroke-width="0.458547" stroke-linecap="round" stroke-linejoin="round"/>
<path d="M44.7275 98.5833C45.4403 91.5517 45.0472 83.5324 44.3344 75.1551C43.7847 68.6892 42.6788 61.9707 42.0587 54.9039C41.7583 51.5927 40.7451 48.2302 39.8469 44.8487C41.3427 44.9637 42.8386 45.6541 44.3216 47.1723C44.3472 45.4463 44.5773 43.7428 45.5202 42.0168C46.685 42.9886 47.6799 44.1476 48.4639 45.4463C48.857 43.9505 49.362 42.5026 50.535 41.2369C51.9861 42.1095 53.0217 43.3305 53.9646 44.6185C54.4951 43.0204 55.2431 41.5118 56.659 40.5913C57.6178 41.4671 58.3849 42.7072 59.0274 44.1806C59.6615 42.6366 60.5701 41.2202 61.709 40C62.8852 41.0356 63.5276 42.4163 64.0806 43.8355C64.7486 42.4835 65.2983 41.0516 66.6823 40.1151C67.785 41.173 68.2804 42.5761 68.7055 44.0496C69.1881 42.6688 69.6644 41.2657 70.5689 40.3899C71.63 41.1506 72.2501 42.5538 72.8957 43.9345C73.4711 42.7839 74.0464 41.6333 75.0116 40.668C75.8874 41.5406 76.2326 42.7615 76.5075 44.0496C77.3832 42.9437 78.2781 41.9337 79.1763 41.5406C78.5729 48.7475 78.6039 55.9934 79.269 63.1949C79.3617 63.9556 80.6274 64.8314 80.5475 65.6112C80.3876 67.0176 79.0069 67.5929 78.3836 68.881C78.6841 71.1183 79.2594 73.4611 79.5598 75.6921C79.6269 78.9842 79.5119 82.2731 79.7644 85.5428C79.89 86.9077 80.1841 88.2518 80.6401 89.5444C80.7319 89.8365 80.7324 90.1497 80.6416 90.442C80.5508 90.7344 80.373 90.9922 80.132 91.1809C75.4847 94.7479 69.6388 94.5401 64.0934 94.4922C63.9559 95.1314 63.9783 95.7707 63.7034 96.3108C63.3103 97.1163 61.9999 97.1386 61.8848 97.3943C61.5652 98.1295 61.8145 99.1874 61.5396 99.9513C61.3095 100.571 61.057 101.262 60.4113 101.425C52.619 103.352 47.6968 101.259 44.7275 98.5833Z" stroke="#1D1D1B" stroke-width="0.458547" stroke-linecap="round" stroke-linejoin="round"/>
<path d="M47.5562 80.7996C47.0959 80.1796 46.2457 79.9718 45.4403 80.0421C43.8997 80.1572 42.4486 81.4676 42.4486 83.6315C42.4262 86.2556 45.2549 87.9112 47.2429 86.2076C47.9828 85.4992 48.4539 84.5559 48.5758 83.5388C48.678 82.6183 48.0164 81.4005 47.5562 80.7996Z" fill="#E8C411"/>
<path d="M46.4408 80.0645C47.1983 80.317 47.6586 80.9626 47.4764 81.5156C47.2942 82.0685 46.4632 82.3434 45.7025 82.1133C44.9418 81.8831 44.4847 81.2151 44.6925 80.6398C44.9003 80.0645 45.6705 79.8344 46.4408 80.0645Z" fill="#FFE047"/>
<path d="M47.5562 80.7996C47.0959 80.1796 46.2457 79.9718 45.4403 80.0421C43.8997 80.1572 42.4486 81.4676 42.4486 83.6315C42.4262 86.2556 45.2549 87.9112 47.2429 86.2076" stroke="#1D1D1B" stroke-width="0.458547" stroke-linecap="round" stroke-linejoin="round"/>
<path d="M44.4048 83.1264C44.5931 82.9352 44.82 82.7863 45.0704 82.6897C45.3208 82.5931 45.5889 82.551 45.8568 82.5661C46.1248 82.5812 46.3864 82.6533 46.6243 82.7774C46.8623 82.9016 47.071 83.075 47.2366 83.2862" stroke="#1D1D1B" stroke-width="0.458547" stroke-linecap="round" stroke-linejoin="round"/>
<path d="M45.9006 82.6023C45.7096 82.9123 45.6202 83.2742 45.6449 83.6375C45.6695 84.0008 45.807 84.3473 46.038 84.6287" stroke="#1D1D1B" stroke-width="0.458547" stroke-linecap="round" stroke-linejoin="round"/>
<path d="M73.9538 65.4514C75.6461 65.451 77.2849 66.0443 78.5848 67.128C79.8847 68.2116 80.7632 69.7169 81.0674 71.3816C81.3717 73.0464 81.0822 74.7651 80.2496 76.2384C79.4169 77.7117 78.0938 78.8463 76.5107 79.4444C76.2582 77.6929 74.593 76.6573 72.899 76.7276C71.3009 76.798 69.7028 76.8651 68.1047 76.8875C67.3297 75.8099 66.8667 74.5396 66.7667 73.2161C66.6666 71.8926 66.9332 70.5671 67.5374 69.3853C68.1415 68.2034 69.0597 67.211 70.1911 66.517C71.3225 65.823 72.6233 65.4543 73.9506 65.4514H73.9538Z" fill="white" stroke="#1D1D1B" stroke-width="0.458547" stroke-linecap="round" stroke-linejoin="round"/>
<path d="M66.2572 76.865C68.4658 76.9353 70.6744 76.8203 72.8862 76.7276C74.772 76.6572 76.5682 77.9006 76.5426 79.9717C76.5203 81.0776 75.5071 82.2091 74.4491 82.5958C72.6856 83.149 70.801 83.1889 69.0156 82.7109C68.0248 82.1803 67.0371 81.6305 66.0239 81.1128C66.1294 79.6968 66.1965 78.2681 66.2572 76.865Z" fill="#FFD709"/>
<path d="M67.1172 76.8874C69.0349 76.9129 70.9526 76.7979 72.8959 76.7276C74.7817 76.6572 76.578 77.9006 76.5524 79.9717C76.5285 80.3243 76.4351 80.6686 76.2775 80.9849C75.6383 80.0644 74.9415 79.0288 73.8164 78.6836C72.1576 78.1786 70.2239 78.754 68.5906 78.086C68.0153 77.8028 67.5116 77.393 67.1172 76.8874Z" fill="#FFE047"/>
<path d="M76.3926 80.7325C76.0151 81.5817 75.3214 82.2501 74.4589 82.5959C72.6953 83.1491 70.8108 83.189 69.0254 82.711C68.84 82.6183 68.6578 82.5256 68.4724 82.4106C68.4919 82.1912 68.5678 81.9805 68.6927 81.7991C68.8176 81.6177 68.9872 81.4716 69.1852 81.375C69.9906 81.0298 71.3266 81.4229 72.1097 81.4677C72.8928 81.5124 73.3275 81.6978 74.2959 81.375C74.9824 81.1222 75.6824 80.9077 76.3926 80.7325V80.7325Z" fill="#E8C411"/>
<path d="M66.2573 76.865C68.4659 76.9353 70.6745 76.8203 72.8863 76.7276C74.772 76.6572 76.5683 77.9006 76.5427 79.9717C76.5204 81.0776 75.5072 82.2091 74.4492 82.5958C72.6856 83.149 70.8011 83.1889 69.0157 82.7109" stroke="#1D1D1B" stroke-width="0.458547" stroke-linecap="round" stroke-linejoin="round"/>
<path d="M76.2549 72.8859C76.4877 72.8865 76.7154 72.818 76.9092 72.6892C77.1031 72.5603 77.2543 72.3768 77.3439 72.162C77.4334 71.9471 77.4571 71.7105 77.4121 71.4821C77.3671 71.2538 77.2553 71.0439 77.0909 70.8791C76.9266 70.7143 76.717 70.6019 76.4887 70.5563C76.2605 70.5106 76.0238 70.5337 75.8087 70.6227C75.5936 70.7116 75.4097 70.8624 75.2803 71.0559C75.151 71.2493 75.0819 71.4769 75.0819 71.7096C75.0798 71.8644 75.1086 72.0181 75.1668 72.1615C75.2249 72.305 75.3112 72.4354 75.4205 72.545C75.5298 72.6546 75.6599 72.7412 75.8032 72.7998C75.9465 72.8583 76.1001 72.8876 76.2549 72.8859Z" fill="#1D1D1B"/>
<path d="M61.1436 80.4097C65.7461 80.4097 69.5209 76.8651 69.5209 72.5406C69.5209 68.2162 65.7366 64.646 61.1436 64.646C56.5506 64.646 52.7695 68.1906 52.7695 72.5406C52.7695 76.8907 56.5091 80.4097 61.1436 80.4097Z" fill="white" stroke="#1D1D1B" stroke-width="0.474808" stroke-linecap="round" stroke-linejoin="round"/>
<path d="M58.6025 72.9528C58.7659 72.9533 58.9277 72.9214 59.0788 72.8591C59.2298 72.7967 59.367 72.7052 59.4826 72.5896C59.5981 72.4741 59.6897 72.3368 59.752 72.1858C59.8143 72.0348 59.8462 71.8729 59.8458 71.7095C59.8483 71.5439 59.8181 71.3794 59.757 71.2254C59.6958 71.0714 59.6049 70.931 59.4894 70.8123C59.3739 70.6935 59.2361 70.5987 59.0839 70.5333C58.9317 70.4679 58.7681 70.4331 58.6025 70.431C58.2634 70.431 57.9382 70.5657 57.6984 70.8055C57.4587 71.0453 57.324 71.3704 57.324 71.7095C57.3261 71.8752 57.3608 72.0388 57.4262 72.191C57.4916 72.3432 57.5865 72.481 57.7052 72.5965C57.824 72.712 57.9644 72.8029 58.1183 72.8641C58.2723 72.9252 58.4368 72.9554 58.6025 72.9528Z" fill="#1D1D1B"/>
</svg>
