<svg width="66" height="175" viewBox="0 0 66 175" fill="none" xmlns="http://www.w3.org/2000/svg">
<g clip-path="url(#clip0)">
<path d="M23.2674 159.816C20.631 161.112 21.4399 164.194 21.2893 168.233C22.8348 168.824 24.4639 169.168 26.1164 169.252V168.168C27.4538 169.317 28.9211 169.996 30.5803 169.996C35.0856 170.102 40.698 170.291 44.2674 169.125C45.4483 168.744 45.4159 167.489 44.3737 167.02C39.8923 165.007 35.5967 162.603 31.5369 159.837C29.1986 159.772 25.6056 159.857 23.2674 159.816Z" fill="#1D1D1B" stroke="#1D1D1B" stroke-width="0.415514" stroke-linecap="round" stroke-linejoin="round"/>
<path d="M6.04933 163.725C3.26528 165.086 2.96709 168.679 2.80176 172.91C4.3743 173.543 6.04176 173.91 7.73512 173.993V172.845C9.15815 174.058 10.6875 174.779 12.4116 174.758C17.1708 174.885 22.0599 174.696 25.8241 173.462C27.0789 173.057 27.0789 172.186 25.9924 171.69C21.7587 169.783 17.6137 166.807 13.4036 163.876C10.9591 163.811 8.49387 163.769 6.04933 163.725Z" fill="#1D1D1B" stroke="#1D1D1B" stroke-width="0.415514" stroke-linecap="round" stroke-linejoin="round"/>
<path d="M5.13403 160.622C5.1547 161.962 5.17832 163.279 5.21965 164.599C7.94171 165.189 10.6815 165.449 13.5954 164.008V160.07C10.7878 160.262 7.97123 160.454 5.13403 160.622Z" fill="#EDEDED"/>
<path d="M7.6229 165C9.66851 165.259 11.745 164.912 13.5955 164.003V163.385C11.5895 163.63 9.55691 163.544 7.57861 163.132C7.59928 163.769 7.59928 164.386 7.6229 165Z" fill="white"/>
<path d="M5.13403 160.622C5.1547 161.962 5.17832 163.279 5.21965 164.599C7.94171 165.189 10.6815 165.449 13.5954 164.008V160.07C10.7878 160.262 7.97123 160.454 5.13403 160.622Z" stroke="#1D1D1B" stroke-width="0.415514" stroke-linecap="round" stroke-linejoin="round"/>
<path d="M22.7566 156.69L22.8215 160.07C24.1678 160.597 25.6083 160.841 27.053 160.786C28.4978 160.731 29.9156 160.379 31.218 159.751C31.1737 158.57 31.1324 157.348 31.0674 156.138C28.304 156.329 25.52 156.521 22.7566 156.69Z" fill="#EDEDED"/>
<path d="M25.7975 160.749C27.6606 160.896 29.5297 160.552 31.218 159.751C31.218 159.58 31.1944 159.391 31.1944 159.22C29.3967 159.572 27.5422 159.506 25.7739 159.028C25.7975 159.604 25.7975 160.176 25.7975 160.749Z" fill="white"/>
<path d="M22.7566 156.69L22.8215 160.07C24.1678 160.597 25.6083 160.841 27.053 160.786C28.4978 160.731 29.9156 160.379 31.218 159.751C31.1737 158.57 31.1324 157.348 31.0674 156.138C28.304 156.329 25.52 156.521 22.7566 156.69Z" stroke="#1D1D1B" stroke-width="0.415514" stroke-linecap="round" stroke-linejoin="round"/>
<path d="M3.13525 109.606C5.41425 126.739 5.6432 144.084 3.81724 161.272C7.65529 161.165 11.4933 161.611 15.2517 160.976C15.9543 160.85 16.3381 159.852 16.4001 159.128C17.1028 150.667 17.5279 142.164 17.5486 133.685C17.5692 125.714 16.8253 117.742 16.4651 109.771C12.0218 109.691 7.57853 109.65 3.13525 109.606Z" fill="#01847C"/>
<path d="M3.13525 109.606C5.41425 126.739 5.6432 144.084 3.81724 161.272C4.92142 161.251 6.02855 161.272 7.13272 161.292C9.08717 145.84 8.8746 130.556 7.42796 115.316C10.2533 114.135 13.3799 113.701 16.6747 113.615C16.5891 112.319 16.5241 111.043 16.4621 109.777C12.0218 109.691 7.57853 109.65 3.13525 109.606Z" fill="#016E67"/>
<path d="M18.0801 109.499C20.8848 125.274 21.9476 141.193 22.0126 157.2C25.4786 157.791 28.986 158.381 32.4078 157.029C33.0248 156.796 33.1931 155.848 33.2374 155.16C33.9814 138.961 32.8123 122.744 31.0468 106.523C26.7304 107.524 22.4171 108.502 18.0801 109.499Z" fill="#01847C"/>
<path d="M18.0801 109.499C20.8848 125.274 21.9476 141.193 22.0126 157.2C22.9485 157.372 23.905 157.519 24.8616 157.646C25.0535 143.894 24.9029 130.139 22.5234 116.408C24.649 113.857 27.7313 112.774 31.7258 113.178C31.5132 110.946 31.28 108.735 31.0468 106.523C26.7304 107.524 22.4171 108.502 18.0801 109.499Z" fill="#016E67"/>
<path d="M3.13525 109.606C5.41425 126.739 5.6432 144.084 3.81724 161.272C7.65529 161.165 11.4933 161.611 15.2517 160.976C15.9543 160.85 16.3381 159.852 16.4001 159.128C17.1028 150.667 17.5279 142.164 17.5486 133.685C17.5692 125.714 16.8253 117.742 16.4651 109.771C12.0218 109.691 7.57853 109.65 3.13525 109.606Z" stroke="#1D1D1B" stroke-width="0.415514" stroke-linecap="round" stroke-linejoin="round"/>
<path d="M18.0801 109.499C20.8848 125.274 21.9476 141.193 22.0126 157.2C25.4786 157.791 28.986 158.381 32.4078 157.029C33.0248 156.796 33.1931 155.848 33.2374 155.16C33.9814 138.961 32.8123 122.744 31.0468 106.523C26.7304 107.524 22.4171 108.502 18.0801 109.499Z" stroke="#1D1D1B" stroke-width="0.415514" stroke-linecap="round" stroke-linejoin="round"/>
<path d="M26.7953 109.054C28.1865 109.4 29.6348 109.45 31.0467 109.201C31.8113 109.095 33.2137 108.395 33.2787 107.607C33.8957 100.191 32.5553 93.1759 32.4933 85.7124C36.0007 84.5019 37.9965 83.5867 41.5482 82.3969C39.5288 72.6542 40.1665 61.7305 35.6819 54.2965C34.4271 55.2737 33.1517 56.2716 31.897 57.2725L25.9805 79.4003C26.2432 89.264 26.5178 99.1691 26.7953 109.054Z" fill="#01847C"/>
<path d="M32.6204 89.9017C32.5554 88.7208 32.5131 87.53 32.4934 86.3294L26.7305 87.159C26.6685 88.4344 26.6035 89.7305 26.5415 90.9971C28.6001 90.8423 30.6372 90.4752 32.6204 89.9017Z" fill="#016E67"/>
<path d="M26.7953 109.054C28.1865 109.4 29.6348 109.45 31.0467 109.201C31.8113 109.095 33.2137 108.395 33.2787 107.607C33.8957 100.191 32.5553 93.1759 32.4933 85.7124C36.0007 84.5019 37.9965 83.5867 41.5482 82.3969C39.5288 72.6542 40.1665 61.7305 35.6819 54.2965C34.4271 55.2737 33.1517 56.2716 31.897 57.2725L25.9805 79.4003C26.2432 89.264 26.5178 99.1691 26.7953 109.054Z" stroke="#1D1D1B" stroke-width="0.415514" stroke-linecap="round" stroke-linejoin="round"/>
<path d="M20.8435 39.7769C8.9603 40.1814 4.42846 56.3897 2.77515 72.852C-0.242143 85.2518 -0.0945264 97.5956 0.690796 109.969C9.84305 111.584 18.951 112.602 27.9232 109.479C27.624 102.232 27.3288 94.9827 27.0375 87.7318C26.9755 84.5433 26.9105 81.3341 26.8692 78.1249C24.8577 65.3491 22.8491 52.5665 20.8435 39.7769Z" fill="#01847C"/>
<path d="M20.8435 39.7769C8.9603 40.1814 4.42846 56.3897 2.77515 72.852C-0.242143 85.2518 -0.0945263 97.5956 0.690796 109.969C1.98983 110.202 3.2859 110.415 4.58198 110.627C4.19162 102.502 4.24878 94.3623 4.75322 86.2438C5.70978 89.1371 7.36604 91.8769 10.8734 92.2813C16.2939 92.8718 21.7794 92.6002 27.2412 92.7065C27.1999 91.6643 27.1556 90.6015 27.1142 89.5386C26.3909 88.712 25.6381 87.8824 24.9029 87.0734C20.0345 87.3686 15.2104 87.4129 10.6402 86.1611C3.92361 84.31 3.73171 76.445 5.3673 67.1569C7.3867 55.6782 11.0447 46.3045 21.3099 47.5357C21.5225 47.2611 21.7351 47.0043 21.9476 46.7503C21.5875 44.4328 21.2273 42.0945 20.8435 39.7769Z" fill="#016E67"/>
<path d="M11.9805 78.7213C13.5473 79.5119 15.2122 80.0907 16.9315 80.4425" stroke="#1D1D1B" stroke-width="0.415514" stroke-linecap="round" stroke-linejoin="round"/>
<path d="M20.8435 39.7769C8.9603 40.1814 4.42846 56.3897 2.77515 72.852C-0.242143 85.2518 -0.0945264 97.5956 0.690796 109.969C9.84305 111.584 18.951 112.602 27.9232 109.479C27.624 102.232 27.3288 94.9827 27.0375 87.7318C26.9755 84.5433 26.9105 81.3341 26.8692 78.1249C24.8577 65.3491 22.8491 52.5665 20.8435 39.7769Z" stroke="#1D1D1B" stroke-width="0.415514" stroke-linecap="round" stroke-linejoin="round"/>
<path d="M13.3416 52.658L12.2551 57.8039L17.2505 61.8634L18.5495 57.8039L13.3416 52.658Z" fill="#016E67"/>
<path d="M16.4002 62.8613C15.7831 63.6702 15.169 64.4998 14.552 65.3058C16.5921 70.685 19.1636 75.9136 22.8422 80.8676C23.8921 80.8747 24.9411 80.8036 25.9805 80.655C26.1075 80.3362 26.258 79.973 26.385 79.6542C23.039 74.0447 19.7107 68.4471 16.4002 62.8613Z" fill="#016E67"/>
<path d="M27.0935 89.1518C23.7544 89.2345 20.3976 89.5534 17.0555 89.3201C13.8464 89.1076 9.25546 89.5534 6.98216 87.3214C3.87925 84.2687 3.62535 79.7132 3.07326 75.5327L2.81641 72.79M13.6161 61.1135C12.6961 66.1667 12.375 71.3107 12.6595 76.4391C12.8307 79.2231 14.2951 80.0734 16.9965 80.4779C20.2834 80.9725 23.6221 81.0222 26.9223 80.6255L13.6161 61.1135Z" stroke="#1D1D1B" stroke-width="0.415514" stroke-linecap="round" stroke-linejoin="round"/>
<path d="M19.633 41.4568L23.288 39.585H27.4538L31.7288 42.8178L33.3201 48.7698L33.4913 57.5471L32.8949 64.0304L31.0468 72.725L27.1143 79.9524L24.4778 76.2974L20.3121 65.731L18.1657 55.507L17.0586 47.0692L19.633 41.4568Z" fill="white" stroke="#1D1D1B" stroke-width="0.415514" stroke-linecap="round" stroke-linejoin="round"/>
<path d="M25.2662 52.6373C24.3805 53.523 23.6926 56.2097 23.2881 58.0578C20.8229 57.0393 19.1548 54.7424 17.5901 52.3185" stroke="#1D1D1B" stroke-width="0.415514" stroke-linecap="round" stroke-linejoin="round"/>
<path d="M28.5815 52.7436C29.4112 54.3585 29.6857 55.9115 30.0046 57.7183C31.444 56.8184 32.7694 55.7478 33.9518 54.5298" stroke="#1D1D1B" stroke-width="0.415514" stroke-linecap="round" stroke-linejoin="round"/>
<path d="M26.01 58.2704C25.8181 63.3514 25.3281 68.0131 23.7781 71.3433C24.9236 74.0447 26.0927 76.7639 27.2412 79.4859C28.0058 78.305 28.7498 77.1683 29.5174 76.0199C29.4318 69.9823 29.0273 64.0097 27.3917 58.2704H26.01Z" fill="#F7C6C8" stroke="#1D1D1B" stroke-width="0.415514" stroke-linecap="round" stroke-linejoin="round"/>
<path d="M25.7531 52.469C26.5014 52.3875 27.2559 52.3796 28.0057 52.4454C28.6877 52.4897 29.1129 53.4669 29.1129 54.146C29.1129 55.6221 28.9859 57.3138 28.05 58.4623C27.5393 59.1 26.2432 58.9937 25.6055 58.5036C24.3094 57.4644 23.8607 52.7229 25.7531 52.469Z" fill="#F7C6C8" stroke="#1D1D1B" stroke-width="0.415514" stroke-linecap="round" stroke-linejoin="round"/>
<path d="M31.6639 48.0257C32.5496 59.779 31.0734 70.0473 27.135 78.8275V81.2721C31.5901 75.2847 35.3632 68.9638 36.6593 61.4589C35.871 60.3754 35.0857 59.2919 34.2974 58.1848L37.2291 55.1881C37.3353 52.469 36.0481 49.747 33.7423 47.0485C33.0456 47.3674 32.3636 47.6862 31.6639 48.0257Z" fill="#01847C" stroke="#1D1D1B" stroke-width="0.415514" stroke-linecap="round" stroke-linejoin="round"/>
<path d="M28.7499 38.4808C22.736 36.8009 19.3556 38.2476 17.3155 41.0966C14.4071 45.0836 12.8035 49.8728 12.7246 54.8073C14.3809 56.0384 16.0401 57.2725 17.6964 58.4829C16.8106 59.6639 15.9249 60.8448 15.0186 62.011C18.2927 70.8326 22.3994 77.7204 27.5188 82.2493L27.135 78.6563C23.914 72.0873 21.8001 65.1788 19.9283 58.1847C18.8035 53.9777 17.5665 49.4694 19.1637 44.7723C20.3771 41.1586 23.0755 39.1628 26.6685 41.0966C27.3682 40.2227 28.0473 39.3518 28.7499 38.4808Z" fill="#01847C"/>
<path d="M28.7498 38.4808C22.7358 36.8009 19.3554 38.2476 17.3153 41.0966C15.5463 43.5431 14.2451 46.2957 13.4773 49.2155C15.0437 48.1485 16.8748 47.5354 18.7679 47.4441C18.8328 46.5584 18.7915 45.6166 19.1724 44.7664C20.746 41.3033 23.0635 39.1569 26.6329 41.0671C27.0817 40.5356 27.5186 40.0042 27.9526 39.4964C28.1977 39.1599 28.4752 38.8203 28.7498 38.4808Z" fill="#016E67"/>
<path d="M28.7499 38.4808C22.736 36.8009 19.3556 38.2476 17.3155 41.0966C14.4071 45.0836 12.8035 49.8728 12.7246 54.8073C14.3809 56.0384 16.0401 57.2725 17.6964 58.4829C16.8106 59.6639 15.9249 60.8448 15.0186 62.011C18.2927 70.8326 22.3994 77.7204 27.5188 82.2493L27.135 78.6563C23.914 72.0873 21.8001 65.1788 19.9283 58.1847C18.8035 53.9777 17.5665 49.4694 19.1637 44.7723C20.3771 41.1586 23.0755 39.1628 26.6685 41.0966C27.3682 40.2227 28.0473 39.3518 28.7499 38.4808Z" stroke="#1D1D1B" stroke-width="0.415514" stroke-linecap="round" stroke-linejoin="round"/>
<path d="M40.4855 81.7385C41.1025 84.1004 41.7402 86.4623 42.3543 88.7739C38.7407 89.0928 35.3396 88.0949 32.1953 85.3522C33.5121 83.504 34.8731 81.6736 36.2134 79.8254L40.1017 79.7604L40.4855 81.7385Z" fill="#01847C"/>
<path d="M41.7815 86.6689C41.9734 87.3922 42.1654 88.0742 42.3543 88.7739C39.2707 89.0843 36.1781 88.2776 33.639 86.5006C33.6355 86.4282 33.6216 86.3566 33.5977 86.2881C33.9372 85.798 34.2767 85.2872 34.6398 84.8119C36.8405 85.9859 39.2878 86.6223 41.7815 86.6689Z" fill="#016E67"/>
<path d="M40.4855 81.7385C41.1025 84.1004 41.7402 86.4623 42.3543 88.7739C38.7407 89.0928 35.3396 88.0949 32.1953 85.3522C33.5121 83.504 34.8731 81.6736 36.2134 79.8254L40.1017 79.7604L40.4855 81.7385Z" stroke="#1D1D1B" stroke-width="0.415514" stroke-linecap="round" stroke-linejoin="round"/>
<path d="M41.9233 80.6343C42.1358 83.7579 42.1801 87.0321 45.0911 88.2868C43.8668 88.6622 42.5891 88.8338 41.3092 88.7946C38.9266 85.8836 38.7141 83.3328 39.9481 80.6343H41.9233Z" fill="white"/>
<path d="M43.1632 86.669C43.6323 87.3888 44.3056 87.9522 45.097 88.2868C43.8598 88.6062 42.5919 88.7913 41.315 88.8389C40.7085 88.138 40.2109 87.3497 39.8389 86.5007C40.9388 86.6651 42.0523 86.7215 43.1632 86.669Z" fill="#EDEDED"/>
<path d="M41.9233 80.6343C42.1358 83.7579 42.1801 87.0321 45.0911 88.2868C43.8668 88.6622 42.5891 88.8338 41.3092 88.7946C38.9266 85.8836 38.7141 83.3328 39.9481 80.6343H41.9233Z" stroke="#1D1D1B" stroke-width="0.415514" stroke-linecap="round" stroke-linejoin="round"/>
<path d="M41.2294 74.5112C41.0375 76.3593 41.1644 77.9979 41.9941 79.167C42.0147 80.59 41.8878 82.0367 42.059 83.4597C42.2716 85.5264 43.3551 87.4779 44.97 88.3281C47.9046 87.6904 49.989 86.0548 52.0261 83.8229C53.4521 82.2493 53.1126 79.229 51.6866 78.5707C53.706 76.8288 53.4728 73.4483 50.5057 72.4918C51.6866 69.7284 50.1868 67.709 47.4884 67.3045C45.9096 67.0937 44.3048 67.194 42.7646 67.5998C42.2125 67.7267 41.4036 68.2168 41.5335 68.7807C41.7018 69.5247 42.6377 69.8849 43.361 70.1417C44.2969 70.4812 45.3154 70.4163 46.3133 70.5669V72.5006C45.4276 72.6925 45.3568 73.159 45.3774 74.0949C45.3774 74.5614 45.4837 74.9658 45.6727 75.0515C45.0113 75.0928 44.3323 76.3918 44.0341 77.0295C43.9721 75.9874 43.3758 74.7119 43.2901 73.6904C42.3779 74.0004 42.1417 74.1923 41.2294 74.5112Z" fill="#FED70E" stroke="#1D1D1B" stroke-width="0.415514" stroke-linecap="round" stroke-linejoin="round"/>
<path d="M46.3103 72.4918C47.6684 72.3649 48.9881 72.1966 50.5174 72.4918" stroke="#1D1D1B" stroke-width="0.415514" stroke-linecap="round" stroke-linejoin="round"/>
<path d="M45.6726 75.0633C46.8535 75.766 48.4773 75.828 50.1011 75.9136" stroke="#1D1D1B" stroke-width="0.415514" stroke-linecap="round" stroke-linejoin="round"/>
<path d="M51.6866 78.5707C50.5228 78.2166 49.3096 78.0521 48.0936 78.0836C47.075 78.1249 45.3538 78.2518 45.3302 79.4859C45.3095 81.9098 48.0729 81.3547 49.3926 81.5053" stroke="#1D1D1B" stroke-width="0.415514" stroke-linecap="round" stroke-linejoin="round"/>
<path d="M46.1804 70.5374C46.642 70.559 47.1046 70.5373 47.5621 70.4724" stroke="#1D1D1B" stroke-width="0.415514" stroke-linecap="round" stroke-linejoin="round"/>
<path d="M42.1653 83.7373C42.3897 83.6903 42.6163 83.6549 42.8443 83.631L42.7794 85.6179C42.3911 85.0666 42.1771 84.4115 42.1653 83.7373Z" fill="#1D1D1B"/>
<path d="M31.8114 80.0587L25.7325 80.7613C25.1597 81.3783 24.3715 83.3535 24.4777 84.7794C24.6 86.4028 25.2502 87.9415 26.3289 89.1607C28.7291 89.0958 31.0526 88.6706 33.0868 87.2476C32.641 84.8414 32.2365 82.4412 31.8114 80.0587Z" fill="white"/>
<path d="M25.3723 87.776C25.6248 88.2801 25.9468 88.7462 26.3289 89.1607C28.7291 89.0957 31.0526 88.6706 33.0868 87.2476C33.0012 86.8431 32.9392 86.4386 32.8535 86.0135C30.4545 86.9481 27.9362 87.5414 25.3723 87.776Z" fill="#EDEDED"/>
<path d="M31.8114 80.0587L25.7325 80.7613C25.1597 81.3783 24.3715 83.3535 24.4777 84.7794C24.6 86.4028 25.2502 87.9415 26.3289 89.1607C28.7291 89.0958 31.0526 88.6706 33.0868 87.2476C32.641 84.8414 32.2365 82.4412 31.8114 80.0587Z" stroke="#1D1D1B" stroke-width="0.415514" stroke-linecap="round" stroke-linejoin="round"/>
<path d="M37.7427 74.6588L40.7187 74.4698L41.2707 75.2552L38.7406 79.2526L35.9565 80.6963L35.8945 76.997L37.7427 74.6588Z" fill="#FED70E" stroke="#1D1D1B" stroke-width="0.415514" stroke-linecap="round" stroke-linejoin="round"/>
<path d="M31.8852 76.7432C32.3104 74.9157 32.4373 73.0439 32.7355 71.1957C33.2876 68.0072 37.1138 67.3901 40.6625 67.3577C42.6819 67.3577 42.8945 69.2708 40.9194 70.1417C39.4727 70.8001 37.3057 70.3336 36.3905 72.0342C36.0097 72.7782 36.0097 73.8056 36.0303 74.4787C36.7781 73.6212 37.7279 72.9637 38.7937 72.5656C39.7503 72.1818 40.8338 72.2231 41.876 72.2704C42.9181 72.3176 43.981 72.291 44.8932 72.7368C45.13 72.8708 45.3225 73.071 45.4473 73.3127C45.5721 73.5544 45.6237 73.8273 45.5959 74.0979C45.4453 74.6883 44.8726 75.3526 44.2349 75.3939C42.7262 75.5445 40.8751 74.9895 39.4521 75.7335C38.156 76.4154 37.2408 77.8001 36.795 79.2763C37.7102 78.5087 38.2711 78.1898 39.1746 78.0953C40.7139 78.0521 42.2544 78.0944 43.7891 78.2223C45.2652 78.2843 45.7878 80.9857 44.2762 81.2839C42.4694 81.6234 40.7924 81.4728 39.1332 81.709C38.5289 81.7666 37.9495 81.9784 37.4506 82.3243C36.9518 82.6701 36.5501 83.1384 36.2842 83.6841C35.7971 84.62 35.5402 85.7242 34.8612 86.5331C34.3091 87.1915 32.7946 87.9148 32.0328 87.596C30.5567 87.0232 29.9928 85.9161 29.5883 84.3868C29.2281 82.9608 30.2703 81.5378 30.6954 80.1561C31.0261 78.9751 31.59 77.9123 31.8852 76.7432Z" fill="#FED70E" stroke="#1D1D1B" stroke-width="0.415514" stroke-linecap="round" stroke-linejoin="round"/>
<path d="M26.6241 20.6251C28.0058 18.9245 29.3668 17.224 30.7278 15.5234C33.938 11.276 37.162 7.0384 40.3997 2.81065C38.7198 1.68581 36.9041 0.558014 34.6604 0.324779C30.3883 -0.141691 26.2757 0.791249 23.1167 3.38636C20.3677 5.59918 18.6033 8.80762 18.207 12.3142C17.7405 16.353 19.568 19.9224 22.2901 23.1109L26.6241 20.6251Z" fill="#DADADA" stroke="#1D1D1B" stroke-width="0.415514" stroke-linecap="round" stroke-linejoin="round"/>
<path d="M29.8186 0.472412C32.2631 1.24002 33.9017 2.83428 34.9202 5.12825" stroke="#1D1D1B" stroke-width="0.415514" stroke-linecap="round" stroke-linejoin="round"/>
<path d="M21.7351 4.7031C25.8684 3.8735 28.9418 5.65966 31.6638 8.40239" stroke="#1D1D1B" stroke-width="0.415514" stroke-linecap="round" stroke-linejoin="round"/>
<path d="M19.1636 18.2012C19.8219 14.8208 24.1796 10.4218 29.9632 11.2189" stroke="#1D1D1B" stroke-width="0.415514" stroke-linecap="round" stroke-linejoin="round"/>
<path d="M60.9334 28.8503C61.3585 30.9346 60.1481 33.3998 58.7221 35.186L54.884 31.2948C56.6407 30.6364 59.1915 29.488 60.9334 28.8503Z" fill="#FED70E" stroke="#1D1D1B" stroke-width="0.415514" stroke-linecap="round" stroke-linejoin="round"/>
<path d="M58.0429 31.5901C58.8231 31.5924 59.5865 31.3633 60.2365 30.9317C60.8865 30.5001 61.3939 29.8854 61.6945 29.1654C61.9951 28.4454 62.0754 27.6524 61.9253 26.8867C61.7751 26.1211 61.4013 25.4172 60.851 24.864C60.3008 24.3108 59.5988 23.9333 58.8339 23.7792C58.0691 23.625 57.2757 23.7012 56.5541 23.998C55.8325 24.2948 55.2152 24.799 54.7802 25.4467C54.3452 26.0944 54.1121 26.8566 54.1104 27.6369C54.1111 28.6815 54.525 29.6835 55.2618 30.4241C55.9985 31.1647 56.9982 31.5838 58.0429 31.5901Z" fill="white" stroke="#1D1D1B" stroke-width="0.415514" stroke-linecap="round" stroke-linejoin="round"/>
<path d="M57.9367 28.682C58.1001 28.6812 58.2566 28.616 58.3722 28.5004C58.4877 28.3849 58.553 28.2284 58.5538 28.065C58.543 27.9114 58.4745 27.7676 58.3619 27.6626C58.2493 27.5575 58.101 27.4991 57.947 27.4991C57.7931 27.4991 57.6448 27.5575 57.5322 27.6626C57.4196 27.7676 57.3511 27.9114 57.3403 28.065C57.3395 28.2253 57.4014 28.3797 57.5129 28.495C57.6243 28.6103 57.7764 28.6774 57.9367 28.682Z" fill="#1D1D1B"/>
<path d="M21.735 43.3699C24.0733 41.8937 25.5731 39.8271 26.6241 37.5243C27.2146 36.2695 27.9645 34.8878 27.3917 33.5917C26.4115 31.2948 25.4136 28.868 25.0948 26.0249C26.9429 22.5175 28.8147 18.9895 30.6629 15.4821C29.9839 14.0059 29.1336 12.4205 29.5174 10.72C30.1964 7.5521 32.2808 5.25517 34.7873 3.68453C39.266 0.856187 43.9278 -0.354273 48.7962 0.537334C54.0454 1.51456 58.2761 4.02405 61.2728 7.9359C63.8885 11.337 64.2251 14.9507 64.0598 18.3931C63.9092 21.5403 63.1032 23.8785 61.6152 25.5791C59.7228 27.7461 57.3845 27.6457 55.2146 27.6457C55.4874 29.1098 56.1319 30.4793 57.0864 31.6225C58.7662 33.7246 60.5731 35.7027 62.1053 37.8933C63.8059 40.3142 64.975 42.9123 64.913 45.4159C64.8687 46.892 64.3225 47.7777 63.6376 47.7128C62.681 47.6478 62.126 46.9038 61.5532 46.3311C60.1509 44.9287 58.6836 43.5884 57.2369 42.1978C57.2797 42.9205 57.2797 43.6451 57.2369 44.3678C57.0037 46.0034 56.1327 46.4935 55.1349 46.4344C53.6026 46.4138 52.2002 46.3931 50.7063 46.03C48.0286 45.3509 45.2002 44.9464 42.5225 44.2881C41.2264 46.2219 39.6114 46.5407 37.781 45.8823C35.7144 48.2206 30.9906 51.8756 27.0463 52.4513C24.6254 52.8115 22.9868 51.2704 21.9683 48.6133C21.5647 46.8952 21.4856 45.117 21.735 43.3699Z" fill="#FED70E"/>
<path d="M55.2086 27.7048C55.5071 29.1471 56.1492 30.4962 57.0804 31.6373C58.7603 33.7394 60.5671 35.7174 62.0994 37.9081C63.8 40.329 64.9691 42.927 64.9071 45.4306C64.8628 46.9068 64.3166 47.7925 63.6317 47.7275C63.2388 47.6971 62.8624 47.5569 62.5452 47.3231C62.7159 46.4701 62.7596 45.5967 62.6751 44.7309C62.4625 43.0924 61.6329 41.5631 60.824 40.14C59.3154 37.4386 57.2546 35.0797 55.7224 32.3813C54.8927 30.9051 54.4263 29.2547 53.7886 27.7048C54.255 27.7048 54.7245 27.7048 55.1909 27.6812C55.2086 27.6812 55.2086 27.7048 55.2086 27.7048Z" fill="#FFE047"/>
<path d="M30.5361 38.3096C31.4927 37.5892 32.6825 37.2054 34.1291 37.0991" stroke="#1D1D1B" stroke-width="0.415514" stroke-linecap="round" stroke-linejoin="round"/>
<path d="M31.0674 7.12696C32.0592 5.73739 33.3252 4.56581 34.7873 3.68453C39.266 0.856187 43.9278 -0.354273 48.7962 0.537334C54.0455 1.51456 58.2762 4.02405 61.2728 7.9359C63.8886 11.337 64.2251 14.9507 64.0598 18.3931C63.9092 21.5403 63.1032 23.8785 61.6153 25.5791C60.9039 26.401 59.9746 27.0049 58.9345 27.321C61.9991 21.5521 62.253 15.7773 57.9573 10.5281C54.9813 6.87306 50.9868 4.151 45.2888 3.68453C38.4659 3.10882 34.4271 4.87432 31.0674 7.12696Z" fill="#FFE047"/>
<path d="M37.6364 11.3547C38.2462 11.3547 38.7406 10.8604 38.7406 10.2505C38.7406 9.64072 38.2462 9.14636 37.6364 9.14636C37.0266 9.14636 36.5322 9.64072 36.5322 10.2505C36.5322 10.8604 37.0266 11.3547 37.6364 11.3547Z" fill="#E8C412" stroke="#1D1D1B" stroke-width="0.415514" stroke-linecap="round" stroke-linejoin="round"/>
<path d="M39.2721 17.7997C39.7188 17.7997 40.081 17.4375 40.081 16.9908C40.081 16.544 39.7188 16.1818 39.2721 16.1818C38.8253 16.1818 38.4631 16.544 38.4631 16.9908C38.4631 17.4375 38.8253 17.7997 39.2721 17.7997Z" fill="#E8C412" stroke="#1D1D1B" stroke-width="0.415514" stroke-linecap="round" stroke-linejoin="round"/>
<path d="M33.9814 14.248C34.2406 14.248 34.4891 14.1451 34.6724 13.9618C34.8556 13.7785 34.9586 13.53 34.9586 13.2708C34.9586 13.0116 34.8556 12.7631 34.6724 12.5798C34.4891 12.3965 34.2406 12.2936 33.9814 12.2936C33.7222 12.2936 33.4736 12.3965 33.2904 12.5798C33.1071 12.7631 33.0042 13.0116 33.0042 13.2708C33.0042 13.53 33.1071 13.7785 33.2904 13.9618C33.4736 14.1451 33.7222 14.248 33.9814 14.248Z" fill="#E8C412" stroke="#1D1D1B" stroke-width="0.415514" stroke-linecap="round" stroke-linejoin="round"/>
<path d="M43.0154 44.4534C42.8442 44.4121 42.6966 44.3678 42.5254 44.3265C41.2293 46.2602 39.6144 46.5791 37.7839 45.9207C35.7173 48.259 30.9935 51.914 27.0492 52.4897C26.1568 52.6519 25.2359 52.4851 24.457 52.0203C27.9437 50.7035 31.7906 49.6584 33.0454 46.0477C33.8957 43.6474 33.0867 41.0523 32.4549 38.5665C32.5288 38.4448 32.6148 38.3311 32.7118 38.2269C34.5422 39.4787 36.3136 40.7423 38.1264 42.0089C39.762 42.809 41.3769 43.6238 43.0154 44.4534Z" fill="#E8C412"/>
<path d="M21.7351 43.3699C24.0734 41.8937 25.5732 39.8271 26.6242 37.5243C27.2147 36.2695 27.9646 34.8878 27.3918 33.5917C26.4116 31.2948 25.4137 28.868 25.0949 26.0249C25.2218 25.7917 25.3281 25.5791 25.4551 25.3665C26.5179 27.321 27.8376 29.2046 28.4753 31.3391C29.0658 33.4057 29.5382 35.6968 28.9625 37.7782C28.372 39.9895 26.8368 41.9114 25.1805 43.4762C24.1315 44.4098 22.9209 45.1442 21.6082 45.6432C21.5989 44.8834 21.6414 44.1239 21.7351 43.3699Z" fill="#E8C412"/>
<path d="M21.7351 43.3699C24.0734 41.8937 25.5732 39.8271 26.6242 37.5243C27.2147 36.2695 27.9645 34.8878 27.3918 33.5917C26.4116 31.2948 25.4137 28.868 25.0949 26.0249C26.943 22.5175 28.8148 18.9895 30.663 15.4821C29.984 14.0059 29.1337 12.4205 29.5175 10.72C30.1965 7.5521 32.2809 5.25517 34.7874 3.68453C39.2661 0.856187 43.9279 -0.354273 48.7963 0.537334C54.0455 1.51456 58.2762 4.02405 61.2729 7.9359C63.8886 11.337 64.2252 14.9507 64.0599 18.3931C63.9093 21.5403 63.1033 23.8785 61.6153 25.5791C59.7229 27.7461 57.4053 27.7254 55.2383 27.7254C55.504 29.1678 56.141 30.5161 57.0864 31.6373C58.7663 33.7394 60.5732 35.7174 62.1054 37.9081C63.806 40.329 64.9751 42.927 64.9131 45.4306C64.8688 46.9068 64.3226 47.7925 63.6377 47.7276C62.6811 47.6626 62.1261 46.9186 61.5533 46.3459C60.151 44.9435 58.6837 43.6031 57.237 42.2126C57.2798 42.9353 57.2798 43.6599 57.237 44.3825C57.0038 46.0181 56.1328 46.5082 55.1349 46.4492C53.6027 46.4285 52.2003 46.4079 50.7064 46.0447C48.0287 45.3657 45.2003 44.9612 42.5225 44.3028C41.2265 46.2366 39.6115 46.5555 37.7811 45.8971C35.7144 48.2354 30.9907 51.8904 27.0464 52.4661C24.6255 52.8262 22.9869 51.2851 21.9683 48.628C21.5629 46.9053 21.4838 45.1218 21.7351 43.3699V43.3699Z" stroke="#1D1D1B" stroke-width="0.415514" stroke-linecap="round" stroke-linejoin="round"/>
<path d="M26.1371 18.6913C26.9687 18.6913 27.7785 18.9576 28.4479 19.4511C29.1173 19.9447 29.6111 20.6395 29.857 21.434C29.9778 21.8035 30.0347 22.1909 30.0253 22.5795C30.0259 23.3494 29.7981 24.1021 29.3707 24.7425C28.9434 25.3828 28.3357 25.882 27.6246 26.1769C26.9134 26.4718 26.1308 26.5491 25.3757 26.399C24.6206 26.249 23.927 25.8783 23.3826 25.334C22.8383 24.7896 22.4676 24.096 22.3175 23.3409C22.1675 22.5858 22.2448 21.8032 22.5397 21.092C22.8346 20.3809 23.3338 19.7732 23.9741 19.3458C24.6145 18.9185 25.3672 18.6907 26.1371 18.6913Z" fill="#FED70E"/>
<path d="M26.1371 26.4707C25.417 26.4705 24.711 26.2705 24.0979 25.8929C23.4847 25.5153 22.9883 24.9749 22.664 24.332C22.3397 23.689 22.2002 22.9687 22.261 22.2512C22.3217 21.5336 22.5804 20.847 23.0082 20.2678C23.436 19.6885 24.0162 19.2394 24.6841 18.9703C25.3521 18.7012 26.0816 18.6227 26.7915 18.7436C27.5013 18.8645 28.1638 19.18 28.705 19.655C29.2462 20.13 29.645 20.7458 29.857 21.434" stroke="#1D1D1B" stroke-width="0.415514" stroke-linecap="round" stroke-linejoin="round"/>
<path d="M24.7759 21.8473C26.1576 21.1033 27.2618 21.5698 28.1356 22.8659" stroke="#1D1D1B" stroke-width="0.415514" stroke-linecap="round" stroke-linejoin="round"/>
<path d="M26.6684 21.623C25.2424 22.4733 24.9678 23.666 25.2217 25.0477" stroke="#1D1D1B" stroke-width="0.415514" stroke-linecap="round" stroke-linejoin="round"/>
<path d="M30.6422 15.4821C31.77 17.3509 33.258 18.8596 34.3415 20.0287C34.8316 20.5601 34.5748 21.5049 34.3415 22.178C33.6726 24.3012 32.7487 26.3355 31.5899 28.2362C31.4064 28.4753 31.1605 28.6592 30.8792 28.7675C30.5979 28.8758 30.2922 28.9045 29.9957 28.8503C29.1488 28.661 28.4081 28.1509 27.929 27.4273C27.6102 26.8959 27.7785 26.1725 27.991 25.5998C28.4605 24.3244 29.2871 23.2379 29.9484 22.057C29.8814 21.296 29.5794 20.5746 29.0843 19.9928C28.5892 19.411 27.9255 18.9974 27.1851 18.8094C27.7312 17.5222 28.9328 16.3088 30.6422 15.4821Z" fill="#DADADA" stroke="#1D1D1B" stroke-width="0.415514" stroke-linecap="round" stroke-linejoin="round"/>
<path d="M30.9198 21.0709C30.5485 21.3436 30.2312 21.683 29.9839 22.0717" stroke="#1D1D1B" stroke-width="0.415514" stroke-linecap="round" stroke-linejoin="round"/>
<path d="M39.4226 24.2388C43.1042 26.5711 48.2442 27.8318 55.2796 27.7255" stroke="#1D1D1B" stroke-width="0.415514" stroke-linecap="round" stroke-linejoin="round"/>
<path d="M52.283 27.6812C51.9288 29.0844 51.0717 30.3088 49.8743 31.1216C48.677 31.9345 47.2228 32.2794 45.7879 32.0907C44.353 31.902 43.0374 31.1929 42.0909 30.0981C41.1444 29.0033 40.633 27.599 40.6537 26.1519C40.648 25.7664 40.6837 25.3813 40.76 25.0034C43.7359 26.5357 47.5002 27.4568 52.283 27.6812Z" fill="white" stroke="#1D1D1B" stroke-width="0.415514" stroke-linecap="round" stroke-linejoin="round"/>
<path d="M44.5243 28C44.6788 28.0024 44.8305 27.9585 44.96 27.8741C45.0895 27.7897 45.1909 27.6686 45.2511 27.5262C45.3113 27.3839 45.3277 27.2268 45.2981 27.0751C45.2685 26.9234 45.1943 26.7839 45.085 26.6746C44.9757 26.5653 44.8363 26.4911 44.6846 26.4616C44.5329 26.432 44.3758 26.4483 44.2334 26.5086C44.0911 26.5688 43.9699 26.6701 43.8855 26.7996C43.8011 26.9291 43.7573 27.0808 43.7596 27.2354C43.7619 27.4375 43.8432 27.6306 43.9861 27.7735C44.129 27.9164 44.3222 27.9977 44.5243 28Z" fill="#1D1D1B"/>
<path d="M32.9392 37.3117C35.0648 40.0751 43.6532 44.539 50.9632 46.1333C49.7114 47.6862 48.4773 47.7276 47.2226 46.2809C45.4512 46.9629 44.226 46.6234 43.5469 45.2624C41.6958 45.7938 40.7392 45.283 40.6772 43.7862C38.8468 44.3176 38.1677 43.7212 37.9758 42.6053C35.9358 42.7972 35.1062 42.2657 35.5106 40.9667C33.875 41.1793 33.1724 40.7128 33.4263 39.585C32.3221 39.3518 31.6195 38.6727 31.4512 37.7782C31.9177 37.5408 32.4206 37.3832 32.9392 37.3117Z" fill="white" stroke="#1D1D1B" stroke-width="0.415514" stroke-linecap="round" stroke-linejoin="round"/>
<path d="M57.2341 42.2185C56.2775 41.3682 55.2147 40.6242 54.388 39.6677C53.771 38.9237 53.771 37.8608 54.7689 37.2438C56.2155 36.3581 57.5116 37.3294 58.5538 38.6255" stroke="#1D1D1B" stroke-width="0.415514" stroke-linecap="round" stroke-linejoin="round"/>
</g>
<defs>
<clipPath id="clip0">
<rect width="65.1198" height="175" fill="white"/>
</clipPath>
</defs>
</svg>
