<svg width="99" height="177" viewBox="0 0 99 177" fill="none" xmlns="http://www.w3.org/2000/svg">
<path d="M31.2041 151.14C35.2059 152.028 39.0662 153.386 42.9422 154.743C43.3563 154.895 43.828 155.236 43.9224 155.669C44.0351 156.347 43.7153 157.065 43.469 157.726C43.2436 158.25 42.7902 158.633 42.5255 159.141C42.3091 159.55 42.1629 159.993 42.0931 160.451C42.0355 160.886 42.2242 161.3 42.1875 161.735C42.15 162.127 42.0481 162.509 41.8861 162.868C41.3934 163.884 41.32 165.528 40.2246 165.811C36.6028 166.754 32.7346 166.597 28.9791 166.395C25.1199 166.207 21.2892 165.632 17.545 164.679C16.2106 164.318 14.9383 163.758 13.7712 163.017C13.284 162.686 12.9035 162.221 12.6757 161.678C12.5497 161.319 12.5369 160.93 12.6391 160.564C12.7144 160.164 12.8608 159.78 13.0715 159.432C13.3178 158.942 13.6375 158.528 13.9022 158.056C14.1669 157.584 14.3923 157.186 14.5993 156.746C14.8885 156.141 15.1346 155.517 15.3358 154.877C15.4878 154.235 15.4118 153.567 15.5244 152.914C15.6371 152.262 15.7315 151.63 16.0722 151.08C16.3758 150.634 16.8096 150.292 17.3144 150.102C18.1109 149.781 18.9669 149.633 19.825 149.67C23.6224 149.953 27.4722 150.33 31.2041 151.14Z" fill="#A59DB5"/>
<path d="M19.9797 165.255C19.1516 165.085 18.3391 164.896 17.5477 164.689C16.2133 164.328 14.941 163.768 13.7739 163.027C13.2867 162.697 12.9062 162.231 12.6784 161.688C12.5524 161.33 12.5396 160.941 12.6417 160.575C12.7171 160.174 12.8635 159.791 13.0742 159.442C13.3205 158.952 13.6402 158.538 13.9049 158.067C14.1696 157.595 14.395 157.196 14.602 156.756C14.8912 156.151 15.1372 155.527 15.3384 154.888C15.4904 154.246 15.4144 153.577 15.5271 152.925C15.6398 152.272 15.7342 151.641 16.0749 151.09C16.3762 150.641 16.8092 150.296 17.3145 150.102C18.111 149.781 18.967 149.633 19.8251 149.67C19.9194 149.67 20.0321 149.688 20.1448 149.688C19.0965 150.212 18.0116 150.736 17.5398 151.405C17.0681 152.073 16.9371 152.914 16.7536 153.706C16.6016 154.366 16.696 155.066 16.5649 155.726C16.4704 156.254 16.2935 156.763 16.0408 157.236C15.6634 157.878 15.1183 158.423 14.6649 159.01C14.4029 159.348 14.0412 159.649 13.8787 160.058C13.7501 160.393 13.7309 160.76 13.8237 161.107C13.9595 161.502 14.1856 161.861 14.4841 162.155C14.8073 162.496 15.1834 162.783 15.5979 163.004C16.0623 163.23 16.5412 163.425 17.0314 163.588C18.5278 164.178 19.2826 164.613 19.9797 165.255Z" fill="#837B94"/>
<path d="M37.4546 152.878C39.3022 153.462 41.1236 154.104 42.9581 154.744C43.3721 154.896 43.8438 155.236 43.9382 155.669C44.0509 156.347 43.7312 157.065 43.4848 157.726C43.2594 158.25 42.806 158.633 42.5414 159.141C42.3249 159.551 42.1787 159.993 42.1089 160.451C42.0513 160.886 42.24 161.3 42.2033 161.736C42.1658 162.127 42.0639 162.509 41.9019 162.868C41.6841 163.41 41.4952 163.964 41.3358 164.527C40.9376 164.194 40.6211 163.774 40.4107 163.3C40.2037 162.81 40.7488 162.302 40.8641 161.791C40.9375 161.358 40.8641 160.886 40.9375 160.433C41.0402 159.965 41.1922 159.509 41.3909 159.073C41.5796 158.696 41.9386 158.412 42.0696 158.025C42.0964 157.945 42.0981 157.859 42.0747 157.779C42.0513 157.698 42.0038 157.627 41.9386 157.574C41.8259 157.48 41.6372 157.553 41.4852 157.574C40.7881 157.592 40.1093 157.668 39.4096 157.668C38.6456 157.692 37.8811 157.641 37.127 157.516C35.8881 157.267 34.6634 156.952 33.458 156.573C34.0817 155.76 35.4969 154.932 36.139 154.12L37.4546 152.878Z" fill="#DDD8E6"/>
<path d="M31.2041 151.14C35.2059 152.028 39.0662 153.386 42.9422 154.743C43.3563 154.895 43.828 155.236 43.9224 155.669C44.0351 156.347 43.7153 157.065 43.469 157.726C43.2436 158.25 42.7902 158.633 42.5255 159.141C42.3091 159.55 42.1629 159.993 42.0931 160.451C42.0355 160.886 42.2242 161.3 42.1875 161.735C42.15 162.127 42.0481 162.509 41.8861 162.868C41.3934 163.884 41.32 165.528 40.2246 165.811C36.6028 166.754 32.7346 166.597 28.9791 166.395C25.1199 166.207 21.2892 165.632 17.545 164.679C16.2106 164.318 14.9383 163.758 13.7712 163.017C13.284 162.686 12.9035 162.221 12.6757 161.678C12.5497 161.319 12.5369 160.93 12.6391 160.564C12.7144 160.164 12.8608 159.78 13.0715 159.432C13.3178 158.942 13.6375 158.528 13.9022 158.056C14.1669 157.584 14.3923 157.186 14.5993 156.746C14.8885 156.141 15.1346 155.517 15.3358 154.877C15.4878 154.235 15.4118 153.567 15.5244 152.914C15.6371 152.262 15.7315 151.63 16.0722 151.08C16.3758 150.634 16.8096 150.292 17.3144 150.102C18.1109 149.781 18.9669 149.633 19.825 149.67C23.6224 149.953 27.4722 150.33 31.2041 151.14Z" stroke="#1D1D1B" stroke-width="0.371142" stroke-miterlimit="10" stroke-linecap="round"/>
<path d="M69.1729 151.612C71.6818 150.389 74.1976 149.166 76.7205 147.943C77.3416 147.888 77.9837 147.681 78.6074 147.754C79.0538 147.778 79.4759 147.965 79.7946 148.278C80.1353 148.674 80.2479 149.258 80.3816 149.788C80.5268 150.523 80.6335 151.266 80.7013 152.013C80.759 152.372 80.683 152.799 80.8324 153.127C81.0787 153.674 81.5688 154.109 81.8806 154.618C82.1195 155.01 82.3155 155.428 82.4651 155.863C82.6471 156.416 82.7297 156.997 82.7088 157.579C82.641 158.369 82.4032 159.135 82.0117 159.825C81.2342 161.062 80.3161 162.206 79.2757 163.232C78.4086 164.085 77.4537 164.844 76.427 165.496C75.7205 165.973 74.9339 166.318 74.105 166.516C72.4645 166.893 70.7479 167.346 69.0497 167.118C65.1422 166.573 61.4077 165.177 57.5763 164.215C56.03 161.835 55.9724 160.546 56.9342 159.988C55.3128 158.006 55.3321 156.289 56.9918 154.835C59.7095 154.573 62.4455 154.311 65.1815 154.062C66.5128 153.234 67.852 152.414 69.1729 151.612Z" fill="#A59DB5"/>
<path d="M74.852 148.839L76.7205 147.932C77.3416 147.877 77.9837 147.67 78.6074 147.744C79.0538 147.768 79.476 147.954 79.7946 148.268C80.1353 148.663 80.248 149.248 80.3817 149.777C80.5269 150.513 80.6336 151.256 80.7014 152.002C80.759 152.361 80.683 152.788 80.8324 153.116C81.0788 153.664 81.5688 154.099 81.8807 154.607C82.1196 155 82.3155 155.417 82.4651 155.852C82.6472 156.405 82.7297 156.986 82.7088 157.569C82.641 158.359 82.4032 159.125 82.0117 159.815C81.4108 160.792 80.708 161.703 79.9152 162.532C80.7403 160.911 81.4344 159.227 81.9908 157.495C82.1611 156.984 81.8571 156.418 81.6317 155.946C81.4064 155.475 80.9346 155.16 80.6306 154.72C80.3266 154.28 80.0646 153.776 79.8025 153.305C79.5928 152.909 79.6872 151.795 79.4985 151.381C77.7269 153.758 75.4626 155.739 73.3293 156.305C73.8509 153.821 74.3436 151.329 74.852 148.839Z" fill="#DDD8E6"/>
<path d="M57.0207 163.256C56.0589 161.463 56.1349 160.444 56.9447 159.972C55.3233 157.991 55.3426 156.273 57.0023 154.819L58.2839 154.707C57.7727 155.164 57.3312 155.694 56.9735 156.279C56.8411 156.536 56.7613 156.817 56.7388 157.105C56.7163 157.393 56.7516 157.682 56.8425 157.956C57.0679 158.599 57.7492 158.958 58.1528 159.505C58.3029 159.687 58.412 159.899 58.4726 160.126C58.5209 160.643 58.5024 161.163 58.4175 161.675C58.3256 162.205 58.2058 162.73 58.0585 163.248L57.0207 163.256Z" fill="#837B94"/>
<path d="M69.1729 151.612C71.6818 150.389 74.1976 149.166 76.7205 147.943C77.3416 147.888 77.9837 147.681 78.6074 147.754C79.0538 147.778 79.4759 147.965 79.7946 148.278C80.1353 148.674 80.2479 149.258 80.3816 149.788C80.5268 150.523 80.6335 151.266 80.7013 152.013C80.759 152.372 80.683 152.799 80.8324 153.127C81.0787 153.674 81.5688 154.109 81.8806 154.618C82.1195 155.01 82.3155 155.428 82.4651 155.863C82.6471 156.416 82.7297 156.997 82.7088 157.579C82.641 158.369 82.4032 159.135 82.0117 159.825C81.2342 161.062 80.3161 162.206 79.2757 163.232C78.4086 164.085 77.4537 164.844 76.427 165.496C75.7205 165.973 74.9339 166.318 74.105 166.516C72.4645 166.893 70.7479 167.346 69.0497 167.118C65.1422 166.573 61.4077 165.177 57.5763 164.215C56.03 161.835 55.9724 160.546 56.9342 159.988C55.3128 158.006 55.3321 156.289 56.9918 154.835C59.7095 154.573 62.4455 154.311 65.1815 154.062C66.5128 153.234 67.852 152.414 69.1729 151.612Z" stroke="#1D1D1B" stroke-width="0.371142" stroke-miterlimit="10" stroke-linecap="round"/>
<path d="M56.8503 159.859C57.1727 160.161 57.6811 160.142 58.0952 160.197" stroke="#1D1D1B" stroke-width="0.371142" stroke-miterlimit="10" stroke-linecap="round"/>
<path d="M79.0792 169.915C82.363 169.915 85.0413 170.048 85.0413 170.992C85.0413 171.935 82.3813 172.009 79.0792 172.179C75.7771 172.349 71.4373 171.765 71.4373 171.105C71.4373 170.444 75.7771 169.915 79.0792 169.915Z" fill="#854514" stroke="#1D1D1B" stroke-width="0.371142" stroke-miterlimit="10" stroke-linecap="round"/>
<path d="M50.1702 170.858C50.2082 168.881 50.8982 166.971 52.1331 165.425C54.4917 162.613 57.7754 160.991 61.8139 160.97C68.5125 160.952 72.7947 164.519 73.8901 172.255L77.0219 172.197C77.719 172.218 78.4187 172.218 79.0791 172.179C82.3812 172.009 85.0412 171.954 85.0412 170.992C85.0412 170.614 84.6062 170.368 83.8907 170.206C84.0303 170.222 84.1686 170.247 84.3048 170.282C84.9663 170.374 85.6056 170.585 86.1917 170.905C86.581 171.103 86.9029 171.411 87.1168 171.791C87.1977 171.965 87.2426 172.153 87.249 172.344C87.2553 172.536 87.2228 172.726 87.1535 172.905C87.0876 173.095 86.984 173.27 86.8489 173.419C86.7138 173.568 86.55 173.688 86.3673 173.772C85.2317 174.185 84.0554 174.476 82.8582 174.64C79.7448 175.188 76.6131 175.319 73.4997 175.507C69.7809 175.769 66.0831 175.434 62.3276 174.962C59.3846 174.585 56.5621 174.074 53.8758 173.149C52.4788 172.685 51.2098 171.9 50.1702 170.858Z" fill="#AE5511"/>
<path d="M50.1702 170.858C50.2082 168.88 50.8982 166.971 52.1331 165.425C53.8455 163.349 56.2035 161.905 58.8316 161.324C53.9649 164.495 51.2473 168.646 51.3783 171.891C50.9465 171.582 50.5422 171.237 50.1702 170.858Z" fill="#96470B"/>
<path d="M74.228 172.237C75.1715 172.218 76.0966 172.218 77.0217 172.197C77.7188 172.218 78.4185 172.218 79.0789 172.179C82.381 172.009 85.041 171.954 85.041 170.992C85.041 170.614 84.606 170.368 83.8906 170.206C84.0301 170.222 84.1684 170.247 84.3046 170.282C84.9661 170.374 85.6055 170.585 86.1915 170.905C86.5808 171.103 86.9028 171.411 87.1166 171.791C87.1975 171.965 87.2425 172.153 87.2488 172.344C87.2551 172.536 87.2226 172.726 87.1533 172.905C87.0874 173.095 86.9838 173.27 86.8487 173.419C86.7136 173.568 86.5498 173.688 86.3671 173.772L86.1968 173.83C86.3204 173.446 86.3719 173.043 86.3488 172.64C86.3304 172.378 85.877 172.339 85.6124 172.321C85.1653 172.291 84.7164 172.31 84.2732 172.376C83.3114 172.509 82.3679 172.638 81.4245 172.753C80.3762 172.866 79.3096 172.96 78.2534 172.981C77.2523 172.999 76.0468 173.054 75.064 172.847C74.65 172.753 74.3853 172.677 74.2333 172.263L74.228 172.237Z" fill="#CC6D25"/>
<path d="M50.1702 170.858C50.2082 168.881 50.8982 166.971 52.1331 165.425C54.4917 162.613 57.7754 160.991 61.8139 160.97C68.5125 160.952 72.7947 164.519 73.8901 172.255L77.0219 172.197C77.719 172.218 78.4187 172.218 79.0791 172.179C82.3812 172.009 85.0412 171.954 85.0412 170.992C85.0412 170.614 84.6062 170.368 83.8907 170.206C84.0302 170.222 84.1686 170.247 84.3048 170.282C84.9663 170.374 85.6056 170.585 86.1917 170.905C86.581 171.103 86.9029 171.411 87.1168 171.791C87.1977 171.965 87.2426 172.153 87.249 172.344C87.2553 172.536 87.2228 172.726 87.1535 172.905C87.0876 173.095 86.984 173.27 86.8489 173.419C86.7138 173.568 86.55 173.688 86.3673 173.772C85.2317 174.185 84.0554 174.476 82.8582 174.64C79.7448 175.188 76.6131 175.319 73.4997 175.507C69.7809 175.769 66.0831 175.434 62.3276 174.962C59.3846 174.585 56.5621 174.074 53.8758 173.149C52.4788 172.685 51.2098 171.9 50.1702 170.858V170.858Z" stroke="#1D1D1B" stroke-width="0.371142" stroke-miterlimit="10" stroke-linecap="round"/>
<path d="M82.2291 159.442C82.8026 159.776 83.2879 160.243 83.6443 160.803C84.061 161.387 84.5511 162.613 84.3047 164.33C84.1578 164.938 83.8287 165.487 83.3613 165.902C83.0415 166.222 82.2108 166.563 81.8701 166.883L77.3992 171.146C77.0907 171.479 76.8011 171.829 76.5317 172.195L73.89 172.252C73.6605 170.392 73.1294 168.582 72.3176 166.893C72.923 166.78 73.5258 166.631 74.1102 166.497C74.9391 166.3 75.7256 165.954 76.4321 165.478C77.4589 164.826 78.4138 164.067 79.2808 163.214C80.3213 162.187 81.2394 161.044 82.0169 159.807C82.0992 159.692 82.1703 159.57 82.2291 159.442Z" fill="#FED70E" stroke="#1D1D1B" stroke-width="0.371142" stroke-miterlimit="10" stroke-linecap="round"/>
<path d="M81.0787 164.482C81.4194 163.557 81.7575 162.82 80.5703 161.861" stroke="#1D1D1B" stroke-width="0.371142" stroke-miterlimit="10" stroke-linecap="round"/>
<path d="M13.6794 162.952C13.64 162.973 13.6217 162.972 13.585 162.991C12.889 163.256 12.2437 163.639 11.6771 164.123C11.2097 164.469 10.7963 164.882 10.4507 165.349C10.2069 165.669 10.1676 166.104 10.1126 166.5C10.0393 167.105 10.0712 167.717 10.2069 168.311L10.6787 170.103L17.9432 172.69L27.0947 173.379L29 166.416H28.9816C25.1224 166.228 21.2917 165.653 17.5475 164.7C16.2131 164.339 14.9408 163.779 13.7737 163.038C13.7368 163.016 13.7047 162.986 13.6794 162.952Z" fill="#FED70E" stroke="#1D1D1B" stroke-width="0.371142" stroke-miterlimit="10" stroke-linecap="round"/>
<path d="M15.6791 167.066C14.5837 166.141 14.395 164.954 15.4511 163.953" stroke="#1D1D1B" stroke-width="0.371142" stroke-miterlimit="10" stroke-linecap="round"/>
<path d="M24.2644 172.103C25.1135 166.217 28.0749 162.349 34.4851 161.746C39.2391 161.293 43.0705 162.794 45.6362 166.801C46.9754 168.877 47.6358 171.029 47.5048 173.122C45.8432 174.433 43.2959 175.028 40.6359 175.444C36.4832 176.06 32.2702 176.159 28.0932 175.738C24.5646 175.534 21.0586 175.041 17.6104 174.265C14.442 173.529 11.1766 172.85 8.57162 170.793C8.27024 170.549 8.19424 170.006 8.28858 169.642C8.34304 169.449 8.43648 169.269 8.56314 169.114C8.68979 168.958 8.84698 168.83 9.025 168.738C9.30467 168.633 9.61278 168.633 9.89245 168.738C10.7625 169 11.554 169.493 12.4031 169.786C14.1379 170.385 15.9054 170.885 17.6969 171.283C19.8668 171.707 22.0761 171.82 24.2644 172.103Z" fill="#AE5511"/>
<path d="M37.7741 161.764C41.0185 162.178 43.6811 163.782 45.6362 166.801C46.9754 168.877 47.6358 171.028 47.5047 173.122C45.8432 174.433 43.2959 175.028 40.6359 175.444C38.2208 175.808 35.7822 175.994 33.3398 176C34.8127 175.507 36.4532 175.056 37.6221 174.792C38.7909 174.527 39.9257 174.207 41.0762 173.903C42.027 173.714 42.966 173.469 43.8882 173.17C44.4493 173.01 44.9701 172.733 45.416 172.357C45.5754 172.222 45.7044 172.054 45.7947 171.865C45.885 171.676 45.9346 171.471 45.9402 171.262C45.8825 170.489 45.5418 169.752 45.2038 169.055C44.771 168.282 44.2786 167.545 43.7309 166.848C43.4135 166.401 43.0631 165.978 42.6826 165.583C42.2293 165.129 41.7025 164.752 41.2124 164.338C40.7224 163.924 40.193 163.47 39.6636 163.093C39.0661 162.634 38.4161 162.197 37.7741 161.764Z" fill="#CC6D25"/>
<path d="M24.2647 172.103C24.9434 167.352 27.0112 163.916 31.1702 162.443C26.453 166.18 24.9801 170.877 25.5095 175.52C22.8487 175.275 20.2072 174.853 17.6028 174.255C14.4344 173.518 11.169 172.839 8.56405 170.782C8.26267 170.538 8.18667 169.996 8.28101 169.632C8.33547 169.439 8.42891 169.259 8.55557 169.103C8.68223 168.948 8.83942 168.82 9.01743 168.728C9.2971 168.623 9.60521 168.623 9.88488 168.728C10.755 168.99 11.5464 169.482 12.3955 169.776C14.1327 170.378 15.9028 170.881 17.6972 171.283C19.8671 171.707 22.0764 171.82 24.2647 172.103Z" fill="#96470B"/>
<path d="M24.2644 172.103C25.1135 166.217 28.0749 162.349 34.4851 161.746C39.2391 161.293 43.0705 162.794 45.6362 166.801C46.9754 168.877 47.6358 171.029 47.5048 173.122C45.8432 174.433 43.2959 175.028 40.6359 175.444C36.4832 176.06 32.2702 176.159 28.0932 175.738C24.5646 175.534 21.0586 175.041 17.6104 174.265C14.442 173.529 11.1766 172.85 8.57162 170.793C8.27024 170.549 8.19424 170.006 8.28858 169.642C8.34304 169.449 8.43648 169.269 8.56314 169.114C8.68979 168.958 8.84698 168.83 9.025 168.738C9.30467 168.633 9.61278 168.633 9.89245 168.738C10.7625 169 11.554 169.493 12.4031 169.786C14.1379 170.385 15.9054 170.885 17.6969 171.283C19.8668 171.707 22.0761 171.82 24.2644 172.103Z" stroke="#1D1D1B" stroke-width="0.371142" stroke-miterlimit="10" stroke-linecap="round"/>
<path d="M75.7376 106.837C75.7192 109.101 75.7769 111.78 74.9645 114.437C74.6814 115.344 74.8151 116.437 74.6631 117.38C74.3224 119.249 73.7197 120.494 73.4733 122.38C73.2846 123.853 73.5126 125.326 73.4733 126.796C73.4735 127.673 73.4174 128.548 73.3056 129.417C73.0592 130.963 72.5508 132.454 72.3988 134.003C72.2934 134.805 72.3513 135.62 72.5692 136.399C73.2846 138.739 74.3224 140.945 75.2475 143.212C75.7505 144.525 76.3235 145.811 76.9641 147.062C77.4751 148.006 78.1722 148.818 78.7986 149.704C77.0427 153.572 74.5137 156.156 71.2509 157.304C67.1548 158.774 62.8909 158.352 58.703 157.265C57.1935 154.812 55.5713 152.453 54.2111 149.927C53.3437 148.304 52.7016 146.551 52.0229 144.832C51.6822 143.946 51.2864 143.06 51.1161 142.117C50.9851 141.268 51.1161 140.398 51.1161 139.53C51.1371 138.06 51.1161 136.569 51.2104 135.096C51.2681 134.21 51.5695 133.343 51.6271 132.454C51.7031 130.832 51.6455 129.021 51.6455 127.378C50.9274 127.284 50.1726 127.341 49.4572 127.247C49.4939 129.606 49.5122 131.983 49.5515 134.36C49.5699 135.775 49.6826 137.172 49.6275 138.587C49.6114 139.351 49.5094 140.11 49.3235 140.851C49.0488 141.784 48.6983 142.693 48.2753 143.569C47.8035 144.57 47.227 145.532 46.729 146.512C46.1813 147.626 45.6546 148.739 45.1435 149.872C44.2184 151.947 43.3326 154.041 42.4258 156.135C34.5008 157.362 23.2738 155.703 17.613 151.457C17.8017 150.833 17.9721 150.21 18.2001 149.607C18.6169 148.444 19.1017 147.306 19.6519 146.2C20.1541 145.374 20.7155 144.586 21.3318 143.841C21.8979 143.123 22.54 142.445 23.106 141.708C23.4441 141.276 23.8922 140.877 24.0495 140.351C24.2382 139.785 24.1438 139.142 24.1438 138.54C24.1687 137.859 24.1372 137.177 24.0495 136.501C23.9158 135.557 23.5778 134.666 23.4258 133.728C23.2839 132.815 23.1894 131.894 23.1427 130.971C23.0851 129.784 23.1244 128.576 23.0484 127.386C22.9907 126.254 22.9357 125.143 22.7863 124.029C22.6581 123.017 22.4628 122.014 22.2019 121.028C21.8822 119.878 21.4655 118.764 21.0697 117.621C20.7291 116.696 20.2023 115.829 20.0215 114.849C19.7102 113.16 19.8865 111.419 20.5299 109.827C30.4536 109.45 40.3852 109.086 50.3246 108.734C58.7965 108.098 67.2675 107.466 75.7376 106.837Z" fill="#A59DB5"/>
<path d="M75.7377 108.307C75.7193 110.213 75.6066 112.346 74.9646 114.44C74.6815 115.347 74.8152 116.439 74.6632 117.383C74.3225 119.251 73.7197 120.496 73.4734 122.383C73.2847 123.856 73.5127 125.329 73.4734 126.799C73.4735 127.675 73.4175 128.551 73.3057 129.42C73.0593 130.966 72.5509 132.457 72.3989 134.006C72.2934 134.808 72.3514 135.622 72.5692 136.401C73.2847 138.742 74.3225 140.948 75.2476 143.215C75.7506 144.528 76.3236 145.813 76.9642 147.065C77.4752 148.008 78.1723 148.821 78.7986 149.707C78.5523 150.215 78.3086 150.708 78.0439 151.179C77.8428 150.967 77.667 150.732 77.5198 150.48C75.7848 147.442 74.333 144.235 72.7291 141.121C72.3124 140.335 71.859 139.575 71.4633 138.762C71.2196 138.215 70.8789 137.667 70.8029 137.083C70.7269 136.386 70.9549 135.707 71.0309 135.007C71.1069 134.307 71.1803 133.537 71.3323 132.8C71.4843 132.064 71.728 131.328 71.9167 130.591C72.087 129.912 72.3517 129.234 72.4251 128.537C72.4919 127.802 72.4919 127.062 72.4251 126.327C72.3884 125.612 72.2364 124.894 72.2181 124.176C72.1521 123.365 72.1714 122.55 72.2757 121.744C72.4251 120.913 72.7658 120.14 73.0121 119.327C73.2375 118.609 73.5572 117.912 73.6909 117.176C73.7459 116.78 74.029 115.865 73.6149 115.931C73.0672 116.025 73.1065 116.932 72.7291 117.328C72.3517 117.723 71.9743 118.159 71.4633 118.214C71.2196 118.232 71.2196 117.723 71.2563 117.477C71.3139 117.063 71.6153 116.704 71.7647 116.308C72.7658 113.855 73.1615 111.083 74.7104 108.931C74.9671 108.607 75.3316 108.386 75.7377 108.307Z" fill="#DDD8E6"/>
<path d="M60.9647 157.784C60.2099 157.632 59.4552 157.457 58.7004 157.259C57.1909 154.806 55.5687 152.448 54.2085 149.921C53.3411 148.299 52.699 146.546 52.0203 144.827C51.6796 143.941 51.2838 143.055 51.1135 142.112C50.9825 141.263 51.1135 140.393 51.1135 139.525C51.1345 138.055 51.1135 136.564 51.2078 135.091C51.2655 134.205 51.5669 133.338 51.6245 132.449C51.7005 130.827 51.6245 129.186 51.6245 127.562C51.5485 127.224 51.1135 127.355 50.7571 127.431V127.072C51.5852 127.035 52.416 127.035 53.2284 126.959C53.9526 126.906 54.6718 126.799 55.38 126.639C56.0848 126.469 56.7781 126.255 57.4556 125.997C58.095 125.769 58.7188 125.473 59.3425 125.211C59.8326 124.985 60.3043 124.59 60.8311 124.55C61.0407 124.55 61.1717 124.891 61.1534 125.098C61.1385 125.238 61.0935 125.373 61.0216 125.494C60.9497 125.614 60.8525 125.718 60.7367 125.798C60.177 126.124 59.5828 126.388 58.9651 126.584C58.3047 126.846 57.605 127.056 56.9262 127.281C56.2474 127.507 55.587 127.792 54.8873 127.981C54.4156 128.112 53.839 127.963 53.4354 128.243C53.1341 128.468 53.0947 128.94 53.0214 129.317C52.9069 130.068 52.8308 130.824 52.7934 131.582C52.7383 132.368 52.7174 133.186 52.644 133.977C52.568 134.637 52.4343 135.261 52.3819 135.922C52.3295 136.582 52.2876 137.261 52.2692 137.94C52.2483 138.846 52.1356 139.753 52.2692 140.639C52.4657 141.715 52.7686 142.768 53.1734 143.784C53.5507 144.767 54.0408 145.692 54.5125 146.635C54.9659 147.503 55.3826 148.388 55.9094 149.201C56.3051 149.804 56.8712 150.249 57.2486 150.86C57.5691 151.448 57.8409 152.061 58.061 152.694C58.496 153.714 58.8472 154.791 59.3451 155.789C59.6439 156.423 60.6633 157.197 60.9647 157.784Z" fill="#837B94"/>
<path d="M49.6041 127.271C49.5561 127.254 49.5053 127.248 49.4548 127.252C49.4914 129.611 49.5098 131.988 49.5491 134.365C49.5674 135.78 49.6801 137.177 49.6251 138.592C49.609 139.356 49.507 140.115 49.3211 140.856C49.0464 141.789 48.6958 142.698 48.2728 143.574C47.8011 144.575 47.2245 145.537 46.7266 146.517C46.1789 147.631 45.6521 148.745 45.1411 149.877C44.216 151.952 43.3302 154.046 42.4234 156.14C41.915 156.216 41.4066 156.274 40.8772 156.329C40.9349 156.198 40.9899 156.046 41.0292 155.933C41.4433 154.555 42.1404 153.273 42.6698 151.934C43.0471 150.951 43.3485 149.953 43.7836 148.988C44.1216 148.202 44.5698 147.461 44.9524 146.687C45.3874 145.82 45.7255 144.932 46.1972 144.083C46.6139 143.328 47.2455 142.707 47.5757 141.913C47.8378 141.234 47.8011 140.479 47.8954 139.764C48.0107 138.977 48.1234 138.233 48.2361 137.46C48.3672 136.517 48.5768 135.591 48.6319 134.648C48.6712 133.862 48.5192 133.076 48.5008 132.289C48.4825 131.503 48.4825 130.761 48.4248 129.988C48.3672 129.215 48.4432 129.328 48.4065 128.573C48.3672 128.025 48.5375 126.912 48.6685 125.572C48.7419 124.912 49.3656 124.875 49.4783 125.743C49.5176 126.063 49.4967 126.403 49.536 126.723C49.5674 126.893 49.5674 127.082 49.6041 127.271Z" fill="#DDD8E6"/>
<path d="M31.1125 156.14C25.9051 155.462 20.8498 153.876 17.6211 151.462C17.8098 150.839 17.9801 150.215 18.2081 149.612C18.625 148.449 19.1098 147.311 19.66 146.205C20.1621 145.379 20.7236 144.591 21.3399 143.847C21.9059 143.129 22.548 142.45 23.1141 141.713C23.4522 141.281 23.9003 140.883 24.0575 140.356C24.2462 139.79 24.1519 139.148 24.1519 138.545C24.1768 137.864 24.1452 137.182 24.0575 136.506C23.9239 135.563 23.5858 134.672 23.4338 133.733C23.2919 132.82 23.1974 131.9 23.1508 130.976C23.0931 129.789 23.1324 128.581 23.0564 127.391C22.9988 126.259 22.9437 125.148 22.7944 124.034C22.6661 123.022 22.4709 122.02 22.2099 121.033C21.8902 119.883 21.4735 118.769 21.0778 117.626C20.7371 116.701 20.2103 115.834 20.0295 114.854C19.7592 113.474 19.8303 112.049 20.2366 110.703C21.1433 110.797 22.0475 110.91 22.9542 111.004C38.329 111.081 53.7038 111.162 69.0786 111.248C69.794 111.759 70.5304 112.267 71.2669 112.778C71.3245 113.211 71.3796 113.664 71.4372 114.117C70.9471 114.814 70.7191 115.776 70.0037 116.23C64.8514 119.419 57.7755 122.061 51.5487 122.703C44.7192 123.418 40.9453 122.627 34.3962 120.682C32.0376 119.985 29.7183 119.173 27.3963 118.324C26.1331 117.852 24.98 117.118 23.6985 116.72C23.4155 116.646 22.9804 116.72 22.8494 116.982C22.6607 117.359 22.8861 117.831 22.9437 118.248C23.0255 118.988 23.1639 119.722 23.3578 120.441C23.5098 120.965 23.9239 121.403 24.0366 121.951C24.1702 122.648 24.0366 123.347 24.0366 124.063C24.0942 125.006 24.1519 125.968 24.2069 126.912C24.3406 128.222 24.49 129.498 24.6236 130.801C24.8123 132.064 25.0193 133.327 25.208 134.593L25.5461 137.028L25.3784 139.8C25.0953 140.497 24.8123 141.215 24.5476 141.913C24.0942 142.555 23.6408 143.197 23.1875 143.857C22.679 144.575 22.189 145.33 21.6779 146.045C21.3006 146.556 20.8498 147.007 20.4908 147.555C20.1317 148.103 19.7046 148.669 19.5657 149.329C19.4545 149.902 19.5472 150.497 19.8277 151.009C20.1475 151.622 20.6479 152.123 21.2612 152.443C23.5255 153.517 26.0152 154.065 28.3188 155.047C29.1076 155.386 30.0956 155.763 31.1125 156.14Z" fill="#837B94"/>
<path d="M75.7376 106.837C75.7192 109.101 75.7769 111.78 74.9645 114.437C74.6814 115.344 74.8151 116.437 74.6631 117.38C74.3224 119.249 73.7197 120.494 73.4733 122.38C73.2846 123.853 73.5126 125.326 73.4733 126.796C73.4735 127.673 73.4174 128.548 73.3056 129.417C73.0592 130.963 72.5508 132.454 72.3988 134.003C72.2934 134.805 72.3513 135.62 72.5692 136.399C73.2846 138.739 74.3224 140.945 75.2475 143.212C75.7505 144.525 76.3235 145.811 76.9641 147.062C77.4751 148.006 78.1722 148.818 78.7986 149.704C77.0427 153.572 74.5137 156.156 71.2509 157.304C67.1548 158.774 62.8909 158.352 58.703 157.265C57.1935 154.812 55.5713 152.453 54.2111 149.927C53.3437 148.304 52.7016 146.551 52.0229 144.832C51.6822 143.946 51.2864 143.06 51.1161 142.117C50.9851 141.268 51.1161 140.398 51.1161 139.53C51.1371 138.06 51.1161 136.569 51.2104 135.096C51.2681 134.21 51.5695 133.343 51.6271 132.454C51.7031 130.832 51.6638 128.833 51.6638 127.189C50.932 127.294 50.189 127.294 49.4572 127.189C49.4939 129.569 49.5122 131.983 49.5515 134.36C49.5699 135.775 49.6826 137.172 49.6275 138.587C49.6114 139.351 49.5094 140.11 49.3235 140.851C49.0488 141.784 48.6983 142.693 48.2753 143.569C47.8035 144.57 47.227 145.532 46.729 146.512C46.1813 147.626 45.6546 148.739 45.1435 149.872C44.2184 151.947 43.3326 154.041 42.4258 156.135C34.5008 157.362 23.2738 155.703 17.613 151.457C17.8017 150.833 17.9721 150.21 18.2001 149.607C18.6169 148.444 19.1017 147.306 19.6519 146.2C20.1541 145.374 20.7155 144.586 21.3318 143.841C21.8979 143.123 22.54 142.445 23.106 141.708C23.4441 141.276 23.8922 140.877 24.0495 140.351C24.2382 139.785 24.1438 139.142 24.1438 138.54C24.1687 137.859 24.1372 137.177 24.0495 136.501C23.9158 135.557 23.5778 134.666 23.4258 133.728C23.2839 132.815 23.1894 131.894 23.1427 130.971C23.0851 129.784 23.1244 128.576 23.0484 127.386C22.9907 126.254 22.9357 125.143 22.7863 124.029C22.6581 123.017 22.4628 122.014 22.2019 121.028C21.8822 119.878 21.4655 118.764 21.0697 117.621C20.7291 116.696 20.2023 115.829 20.0215 114.849C19.7102 113.16 19.8865 111.419 20.5299 109.827C30.4536 109.45 40.3852 109.086 50.3246 108.734C58.7965 108.098 67.2675 107.466 75.7376 106.837Z" stroke="#1D1D1B" stroke-width="0.371142" stroke-miterlimit="10" stroke-linecap="round"/>
<path d="M59.0385 157.367C58.6097 157.266 58.1925 157.121 57.7937 156.934" stroke="#1D1D1B" stroke-width="0.371142" stroke-miterlimit="10" stroke-linecap="round"/>
<path d="M17.207 151.14L17.8308 151.612" stroke="#1D1D1B" stroke-width="0.371142" stroke-linecap="round" stroke-linejoin="round"/>
<path d="M72.3806 135.403C72.3622 135.927 72.3412 136.556 72.0032 136.975" stroke="#1D1D1B" stroke-width="0.371142" stroke-miterlimit="10" stroke-linecap="round"/>
<path d="M71.563 118.195C73.8849 116.327 75.1298 114.327 75.6198 110.779" stroke="#1D1D1B" stroke-width="0.371142" stroke-miterlimit="10" stroke-linecap="round"/>
<path d="M49.1323 125.119C49.4914 126.366 49.4547 127.535 49.473 128.725" stroke="#1D1D1B" stroke-width="0.371142" stroke-miterlimit="10" stroke-linecap="round"/>
<path d="M49.5857 127.234C53.8496 127.234 57.9719 126.403 61.2085 124.351" stroke="#1D1D1B" stroke-width="0.371142" stroke-miterlimit="10" stroke-linecap="round"/>
<path d="M63.7375 79.5896C65.3414 78.0617 66.8509 76.1355 68.3238 74.0861C70.1347 72.2202 71.9456 71.1247 73.7565 70.8234C75.6644 71.4261 77.5696 72.0105 79.4749 72.6159C81.3801 72.8413 83.267 73.0483 85.1723 73.258C85.4003 75.4646 85.6257 77.6529 85.8537 79.8412C85.5553 80.345 85.1566 80.7821 84.6822 81.1253C84.5925 81.977 84.3567 82.8068 83.9851 83.5783C83.4589 84.6233 82.7707 85.5786 81.9462 86.4087C81.0027 87.4098 79.5876 87.9549 78.8145 89.0687C77.6063 90.8246 76.4558 92.5778 75.004 94.048C71.7569 92.7639 68.5125 91.464 65.2471 90.1799C64.7491 86.6655 64.2486 83.1171 63.7375 79.5896Z" fill="#DF9C94"/>
<path d="M85.8325 79.8726C85.536 80.3602 85.1448 80.7835 84.6821 81.1175C84.5923 81.9691 84.3565 82.7989 83.9849 83.5704C83.4587 84.6154 82.7706 85.5707 81.946 86.4008C81.0026 87.4019 79.5874 87.947 78.8143 89.0608C77.7188 90.6463 76.6811 92.2318 75.4074 93.6077L74.595 92.6276L76.8593 89.6845C77.4253 88.9114 77.9075 88.0623 78.5575 87.3809C79.4826 86.4584 80.7274 85.8714 81.6158 84.9279C82.2002 84.3068 83.8041 82.779 82.955 82.779C80.143 82.8157 77.8027 82.5169 76.1988 80.043C79.9648 80.9655 83.3245 81.1935 85.8325 79.8726Z" fill="#C7867F"/>
<path d="M63.7375 79.5896C65.3414 78.0617 66.8509 76.1355 68.3238 74.0861C70.1347 72.2202 71.9456 71.1247 73.7565 70.8234C75.6644 71.4261 77.5696 72.0105 79.4749 72.6159C81.3801 72.8413 83.267 73.0483 85.1723 73.258C85.4003 75.4646 85.6257 77.6529 85.8537 79.8412C85.5553 80.345 85.1566 80.7821 84.6822 81.1253C84.5925 81.977 84.3567 82.8068 83.9851 83.5783C83.4589 84.6233 82.7707 85.5786 81.9462 86.4087C81.0027 87.4098 79.5876 87.9549 78.8145 89.0687C77.6063 90.8246 76.4558 92.5778 75.004 94.048C71.7569 92.7639 68.5125 91.464 65.2471 90.1799C64.7491 86.6655 64.2486 83.1171 63.7375 79.5896Z" stroke="#1D1D1B" stroke-width="0.371142" stroke-miterlimit="10" stroke-linecap="round"/>
<path d="M72.4565 72.7207C72.4172 75.6035 73.379 77.873 75.5882 79.4952C78.3793 81.5132 81.5687 82.4959 84.7004 81.1358" stroke="#1D1D1B" stroke-width="0.371142" stroke-miterlimit="10" stroke-linecap="round"/>
<path d="M75.2477 73.5122C72.6453 74.1936 70.4754 74.0783 69.3039 72.5504C68.3605 71.3056 67.8888 69.4947 69.4166 68.6194C70.8711 67.807 72.682 67.9957 74.3435 67.8332C75.3053 67.7205 76.2304 67.6078 76.9642 66.9081C79.7212 64.172 83.3247 61.9471 88.0026 60.6446C90.3062 60.0209 92.7409 59.6435 94.8715 60.9643C96.098 61.7505 96.4439 62.8905 95.8909 63.758C95.6266 64.1708 95.2813 64.5258 94.8759 64.8015C94.4705 65.0772 94.0134 65.2678 93.5323 65.3618C91.9861 65.6632 90.4189 65.8336 88.9094 66.363C88.7784 66.777 88.532 67.3614 88.608 67.7781C88.6593 68.0633 88.8036 68.3234 89.0184 68.5178C89.2332 68.7122 89.5064 68.83 89.7952 68.8526C91.137 69.0046 92.4762 69.0413 93.797 69.306C95.0616 69.5472 96.2466 70.0983 97.2458 70.9099C98.1526 71.683 98.3413 72.7024 97.9639 73.5515C97.827 73.8988 97.5782 74.1904 97.2568 74.3803C96.9354 74.5702 96.5599 74.6474 96.1897 74.5998C94.1718 74.4295 92.3399 73.203 90.4242 72.9593C90.3214 73.1269 90.2533 73.3135 90.224 73.508C90.1948 73.7025 90.2049 73.9009 90.2538 74.0914C90.8199 75.4306 91.7633 76.4867 92.9348 77.4669C94.405 78.6934 95.5371 80.1295 94.916 81.5054C94.4627 82.5248 93.6319 82.9022 92.6884 82.9389C91.1789 82.9782 90.0284 82.1291 89.0666 81.0336C88.4062 80.2789 87.9528 79.3538 87.3868 78.5256C86.273 80.3182 84.7268 80.5069 83.1779 80.3732C80.3869 80.1112 79.1604 78.675 78.9324 76.7881C76.0784 76.1355 75.059 75.0034 75.2477 73.5122Z" fill="#FED70E"/>
<path d="M68.8716 69.0596C69.0294 68.8876 69.2133 68.7417 69.4167 68.6272C70.8712 67.8148 72.6821 68.0035 74.3436 67.841C75.3054 67.7283 76.2305 67.6156 76.9643 66.9159C79.7213 64.1799 83.3248 61.9549 88.0027 60.6524C90.3063 60.0287 92.7409 59.6513 94.8716 60.9721C95.891 61.6142 96.3051 62.521 96.0981 63.3124C95.9628 63.0759 95.8114 62.8491 95.6447 62.6336C95.3139 62.2435 94.8838 61.9501 94.3998 61.7845C93.6927 61.5032 92.9357 61.3686 92.1749 61.3888C90.9738 61.4495 89.7835 61.6456 88.6264 61.9732C87.4177 62.3157 86.2382 62.7539 85.099 63.2836C83.8771 63.8164 82.6918 64.4293 81.5505 65.1181C80.8447 65.5982 80.1707 66.1235 79.5326 66.6905C79.0085 67.1255 78.5131 67.6156 77.9471 68.0008C77.3233 68.4333 76.6629 68.905 75.9265 69.1146C75.0927 69.3142 74.2361 69.4024 73.3792 69.3767C72.399 69.4003 70.3418 69.4946 68.8716 69.0596Z" fill="#FFE047"/>
<path d="M89.1923 68.6456C89.3752 68.7588 89.5812 68.8295 89.7951 68.8526C91.1369 69.0046 92.476 69.0413 93.7969 69.306C95.0614 69.5472 96.2464 70.0983 97.2457 70.9099C98.1525 71.683 98.3412 72.7024 97.9638 73.5515C97.8957 73.7176 97.8 73.8709 97.6808 74.0049C97.693 73.7218 97.6869 73.4381 97.6624 73.1558C97.6104 72.7778 97.4674 72.4181 97.2457 72.1075C96.9721 71.8116 96.646 71.569 96.2839 71.3921C95.9733 71.1888 95.6453 71.0134 95.3038 70.8679C94.9406 70.7037 94.5688 70.5594 94.19 70.4355C93.7183 70.2835 93.2649 70.1734 92.7932 70.0581C92.3214 69.9428 91.813 69.9061 91.3229 69.8118C90.8329 69.7174 90.3795 69.6414 89.9078 69.5104C89.679 69.4711 89.4642 69.3737 89.284 69.2274C89.2167 69.1601 89.1689 69.0758 89.1458 68.9835C89.1227 68.8911 89.1252 68.7943 89.153 68.7032L89.1923 68.6456Z" fill="#FFE047"/>
<path d="M90.2301 73.9289C90.2338 73.9872 90.2462 74.0446 90.2668 74.0992C90.8329 75.4384 91.7764 76.4946 92.9478 77.4747C94.418 78.7012 95.5502 80.1373 94.9291 81.5132C94.7196 82.0307 94.3215 82.4493 93.8153 82.6847C94.0546 82.3853 94.24 82.0466 94.363 81.6836C94.4563 81.267 94.4169 80.8317 94.2503 80.4387C94.1158 80.1559 93.939 79.8953 93.7262 79.6656C93.2544 78.9659 92.9531 78.7955 92.3686 78.2688C92.0713 77.994 91.7879 77.7045 91.5195 77.4013C91.1857 77.0585 90.8765 76.6924 90.5944 76.3059C90.3882 75.9909 90.2292 75.6475 90.1227 75.2864C90.0439 75.0241 90.012 74.75 90.0283 74.4766C90.0598 74.2879 90.0781 74.0547 90.2301 73.9289Z" fill="#FFE047"/>
<path d="M87.1928 78.8349C86.0973 80.3444 84.6455 80.5147 83.191 80.3811C80.3999 80.119 79.1735 78.6829 78.9455 76.796C76.0784 76.1355 75.0589 75.0034 75.2476 73.5332C75.266 73.4939 75.2869 73.4755 75.3053 73.4388C75.549 73.4755 75.8294 73.3995 76.0601 73.5332C76.4374 73.7586 76.6812 74.1726 77.0035 74.4766C77.2541 74.7167 77.5331 74.9253 77.8343 75.0978C78.3035 75.318 78.797 75.4824 79.3045 75.5878C79.7288 75.6577 80.1586 75.6892 80.5886 75.6822C80.9084 75.7031 81.2307 75.5878 81.5504 75.6271C81.8926 75.6372 82.2255 75.7415 82.5122 75.9285C82.6284 76.0205 82.7177 76.142 82.7707 76.2803C82.8237 76.4186 82.8385 76.5687 82.8136 76.7147C82.7009 77.0738 82.2685 77.2389 82.0038 77.5271C81.7391 77.8154 81.3984 77.9805 81.3434 78.3134C81.325 78.5414 81.5871 78.7091 81.7968 78.8244C82.2227 79.0098 82.6742 79.13 83.136 79.1808C83.5628 79.2265 83.9939 79.2142 84.4175 79.1441C84.9835 79.0681 85.5496 78.882 86.0973 78.7667C86.4601 78.6691 86.8449 78.6931 87.1928 78.8349Z" fill="#E8C412"/>
<path d="M75.2477 73.5122C72.6453 74.1936 70.4754 74.0783 69.3039 72.5504C68.3605 71.3056 67.8888 69.4947 69.4166 68.6194C70.8711 67.807 72.682 67.9957 74.3435 67.8332C75.3053 67.7205 76.2304 67.6078 76.9642 66.9081C79.7212 64.172 83.3247 61.9471 88.0026 60.6446C90.3062 60.0209 92.7409 59.6435 94.8715 60.9643C96.098 61.7505 96.4439 62.8905 95.8909 63.758C95.6266 64.1708 95.2813 64.5258 94.8759 64.8015C94.4705 65.0772 94.0134 65.2678 93.5323 65.3618C91.9861 65.6632 90.4189 65.8336 88.9094 66.363C88.7784 66.777 88.532 67.3614 88.608 67.7781C88.6593 68.0633 88.8036 68.3234 89.0184 68.5178C89.2332 68.7122 89.5064 68.83 89.7952 68.8526C91.137 69.0046 92.4762 69.0413 93.797 69.306C95.0616 69.5472 96.2466 70.0983 97.2459 70.9099C98.1526 71.683 98.3413 72.7024 97.9639 73.5515C97.827 73.8988 97.5782 74.1904 97.2568 74.3803C96.9354 74.5702 96.5599 74.6474 96.1897 74.5998C94.1718 74.4295 92.3399 73.203 90.4242 72.9593C90.3214 73.1269 90.2533 73.3135 90.224 73.508C90.1948 73.7025 90.2049 73.9009 90.2538 74.0914C90.8199 75.4306 91.7633 76.4867 92.9348 77.4669C94.405 78.6934 95.5371 80.1295 94.916 81.5054C94.4627 82.5248 93.6319 82.9022 92.6884 82.9389C91.1789 82.9782 90.0284 82.1291 89.0666 81.0336C88.4062 80.2789 87.9528 79.3538 87.3868 78.5256C86.273 80.3182 84.7268 80.5069 83.1779 80.3732C80.3869 80.1112 79.1604 78.675 78.9324 76.7881C76.0784 76.1355 75.059 75.0034 75.2477 73.5122Z" stroke="#1D1D1B" stroke-width="0.371142" stroke-miterlimit="10" stroke-linecap="round"/>
<path d="M77.4177 72.173C76.8149 72.8723 76.0008 73.3563 75.0984 73.5515" stroke="#1D1D1B" stroke-width="0.371142" stroke-miterlimit="10" stroke-linecap="round"/>
<path d="M78.8145 76.7776C80.0206 76.9709 81.2568 76.7725 82.3419 76.2115" stroke="#1D1D1B" stroke-width="0.371142" stroke-miterlimit="10" stroke-linecap="round"/>
<path d="M88.9277 72.684C89.5072 72.7471 90.081 72.8539 90.6443 73.0037" stroke="#1D1D1B" stroke-width="0.371142" stroke-miterlimit="10" stroke-linecap="round"/>
<path d="M87.2688 67.1727C87.8292 66.8306 88.4227 66.5461 89.0404 66.3236" stroke="#1D1D1B" stroke-width="0.371142" stroke-miterlimit="10" stroke-linecap="round"/>
<path d="M88.3799 68.9469C88.9032 68.8564 89.4358 68.8308 89.9654 68.8709" stroke="#1D1D1B" stroke-width="0.371142" stroke-miterlimit="10" stroke-linecap="round"/>
<path d="M74.9097 105.139C75.8531 105.157 77.0219 106.006 77.1346 106.95C77.1631 107.584 77.1058 108.218 76.9643 108.837C76.7573 109.835 75.8715 110.59 75.1167 111.29C73.5712 112.685 71.9108 113.947 70.1531 115.063C68.4073 116.138 66.5924 117.095 64.7204 117.93C62.7575 118.856 60.8129 119.817 58.7373 120.459C56.7004 121.053 54.6176 121.475 52.5105 121.723C50.4173 122.019 48.3018 122.126 46.1894 122.045C43.9191 121.911 41.6653 121.576 39.4542 121.044C37.9263 120.706 36.5111 119.996 35.0383 119.534C33.2038 118.932 31.3221 118.486 29.5348 117.799C27.786 117.149 26.0838 116.379 24.4402 115.496C22.9322 114.669 21.4932 113.723 20.137 112.665C19.4253 112.14 18.816 111.489 18.3392 110.745C18.0678 110.222 17.9626 109.63 18.0378 109.046C18.1505 107.196 18.6982 105.708 20.1894 105.82C38.3771 107.12 56.6617 104.78 74.9097 105.139Z" fill="#DF9C94"/>
<path d="M76.1543 105.553C76.5285 105.793 76.8288 106.132 77.0218 106.533C76.3093 107.55 75.5411 108.526 74.7208 109.458C73.9593 110.297 73.0966 111.04 72.1525 111.667C70.9837 112.422 69.6812 112.93 68.4547 113.572C67.4353 114.12 66.4184 114.686 65.3597 115.194C63.7008 115.981 62.0392 116.856 60.286 117.477C58.3253 118.203 56.3097 118.771 54.2584 119.175C52.1954 119.533 50.1044 119.705 48.0106 119.686C45.8144 119.671 43.6232 119.475 41.4589 119.102C40.4971 118.95 39.648 118.441 38.7229 118.137C37.7977 117.833 36.912 117.592 36.0052 117.328C35.2897 117.121 34.5717 116.95 33.8746 116.743C32.7608 116.421 31.6286 116.138 30.5515 115.695C29.4194 115.26 28.3265 114.694 27.2311 114.146C26.1356 113.598 24.9484 113.098 23.853 112.466C22.7575 111.835 21.704 111.127 20.6846 110.391C20.0059 109.923 19.3622 109.406 18.7583 108.844C18.5697 108.674 18.3259 108.504 18.1189 108.32C18.2316 107.435 18.4963 106.661 18.947 106.224C19.3821 106.452 19.8171 106.696 20.2312 106.942C32.5904 107.204 44.9313 107.99 57.2722 107.752C63.5881 107.628 69.9276 104.929 76.1543 105.553Z" fill="#C7867F"/>
<path d="M74.9097 105.139C75.8531 105.157 77.0219 106.006 77.1346 106.95C77.1631 107.584 77.1058 108.218 76.9643 108.837C76.7573 109.835 75.8715 110.59 75.1167 111.29C73.5712 112.685 71.9108 113.947 70.1531 115.063C68.4073 116.138 66.5924 117.095 64.7204 117.93C62.7575 118.856 60.8129 119.817 58.7373 120.459C56.7004 121.053 54.6176 121.475 52.5105 121.723C50.4173 122.019 48.3018 122.126 46.1894 122.045C43.9191 121.911 41.6652 121.576 39.4542 121.044C37.9263 120.706 36.5111 119.996 35.0383 119.534C33.2038 118.932 31.3221 118.486 29.5348 117.799C27.786 117.149 26.0838 116.379 24.4402 115.496C22.9322 114.669 21.4932 113.723 20.137 112.665C19.4253 112.14 18.816 111.489 18.3392 110.745C18.0678 110.222 17.9626 109.63 18.0378 109.046C18.1505 107.196 18.6982 105.708 20.1894 105.82C38.3771 107.12 56.6617 104.78 74.9097 105.139Z" stroke="#1D1D1B" stroke-width="0.371142" stroke-miterlimit="10" stroke-linecap="round"/>
<path d="M46.9075 55.6259C53.8314 57.0594 59.6624 60.7573 62.3408 70.7212C64.55 73.2292 65.8709 75.7398 66.0963 78.2295C66.2089 79.4009 66.9637 80.4204 67.9465 81.3245C69.8517 83.0804 72.247 84.3829 73.7566 86.4952C75.1351 88.3821 75.4364 90.4262 76.1152 92.3629C76.9853 94.7792 77.9838 97.0618 78.1174 99.5148C78.3611 104.062 77.305 104.29 76.2672 105.836C74.5506 108.402 72.5694 110.233 70.2396 111.515C67.0309 113.238 63.7079 114.739 60.294 116.007C57.7834 116.95 55.2361 117.97 52.5577 118.214C48.9333 118.554 45.2538 118.082 41.5927 117.705C39.967 117.504 38.3673 117.13 36.8204 116.591C35.3109 116.101 33.9376 115.281 32.4622 114.686C30.7639 114.007 28.9321 113.685 27.3099 112.836C24.5372 111.384 21.7618 109.835 19.3482 107.836C18.4781 107.099 18.0378 105.912 17.7443 104.817C17.2909 103.194 17.9513 101.779 18.7611 100.61C18.6877 97.2034 18.6117 93.8358 18.5541 90.4393C20.5851 83.4185 22.6214 76.3635 24.6525 69.3374C27.3885 65.5828 30.1367 61.8265 32.8972 58.0684C37.5655 57.2508 42.2356 56.4366 46.9075 55.6259Z" fill="#DF9C94"/>
<path d="M54.6043 58.7209C58.0112 61.0403 60.7367 64.7486 62.3406 70.7211C64.5498 73.2292 65.8707 75.7398 66.096 78.2294C66.2087 79.4009 66.9635 80.4204 67.9463 81.3245C69.8515 83.0804 72.2468 84.3829 73.7564 86.4951C75.1348 88.382 75.4362 90.4262 76.115 92.3629C76.9851 94.7792 77.9835 97.0618 78.1172 99.5148C78.3609 104.062 77.3048 104.29 76.267 105.836C74.5504 108.402 72.5692 110.233 70.2394 111.515C68.7665 112.327 67.257 113.064 65.7291 113.761C68.9762 111.554 72.0319 109.196 74.3775 106.161C75.2816 104.974 76.2251 103.708 76.7361 102.293C77.0558 101.37 76.9431 100.311 76.7911 99.3497C76.5841 97.9345 76.0364 96.5953 75.6799 95.2168C75.4179 94.2 75.2449 93.1622 74.9619 92.1428C74.6212 90.953 74.3381 89.7081 73.7721 88.6127C73.2104 87.5638 72.5047 86.5988 71.6755 85.7456C71.0151 85.0092 70.166 84.4615 69.3929 83.8404C68.5438 83.18 67.5427 82.7082 66.7722 81.9535C66.2298 81.3762 65.787 80.7129 65.4618 79.9906C65.0959 79.2024 64.7876 78.3887 64.5393 77.5559C64.2353 76.6885 64.0676 75.8027 63.7531 74.9352C63.5213 74.2752 63.2181 73.6425 62.849 73.0483C62.414 72.3879 61.6775 71.9738 61.3395 71.2767C61.0931 70.784 61.3578 70.1629 61.2058 69.6335C60.9013 68.7568 60.5289 67.9051 60.092 67.0862C59.5259 65.9174 58.9808 64.7276 58.3204 63.6138C57.856 62.849 57.3301 62.1233 56.748 61.4439C56.1243 60.7101 55.2018 60.199 54.7091 59.3473C54.6158 59.1526 54.5795 58.9354 54.6043 58.7209Z" fill="#FAB9B1"/>
<path d="M54.5285 117.912C53.8742 118.05 53.2128 118.15 52.5472 118.214C48.9228 118.554 45.2433 118.082 41.5822 117.705C39.9565 117.504 38.3568 117.13 36.8099 116.591C35.3004 116.101 33.9271 115.281 32.4517 114.686C30.7534 114.007 28.9216 113.685 27.2994 112.836C24.5267 111.384 21.7513 109.835 19.3377 107.836C18.4676 107.099 18.0273 105.912 17.7338 104.816C17.2804 103.194 17.9408 101.779 18.7506 100.61V100.157L20.2837 100.786C20.2261 101.467 20.2077 102.146 20.1501 102.825C20.0951 103.427 19.8487 104.051 19.943 104.659C20.0557 105.414 20.1684 106.302 20.7293 106.829C22.1077 108.113 23.8243 108.981 25.5042 109.83C27.1264 110.661 28.9111 111.056 30.5621 111.793C31.7677 112.359 32.8815 113.103 34.0896 113.698C35.4864 114.358 36.8833 115.058 38.3535 115.533C40.7698 116.319 43.2044 117.21 45.7517 117.493C49.1717 117.875 51.6614 117.666 54.5285 117.912Z" fill="#C7867F"/>
<path d="M47.9766 55.8513C50.4886 56.4289 52.8654 57.486 54.9765 58.9647C54.9129 60.1798 54.5979 61.3684 54.0514 62.4555C52.3925 59.8138 49.9946 58.5873 47.2979 58.0396C47.5101 57.3058 47.7381 56.5877 47.9766 55.8513Z" fill="#C7867F"/>
<path d="M27.2075 65.8152C29.1128 63.2285 30.9997 60.6445 32.9049 58.0605C36.4726 57.4368 40.0542 56.8139 43.6498 56.192C43.6681 57.5023 43.6891 58.7943 43.7258 60.0968C43.6315 63.1159 43.5555 66.1244 43.4795 69.1356C40.3661 70.2101 39.6323 70.1551 36.0078 70.0607C34.6975 70.0424 33.4789 69.513 32.234 69.1356C31.3849 68.8735 30.4991 68.6639 29.781 68.1555C28.8297 67.5029 28.0383 66.6459 27.2075 65.8152Z" fill="#C7867F"/>
<path d="M46.9075 55.6259C53.8314 57.0594 59.6624 60.7573 62.3408 70.7212C64.55 73.2292 65.8709 75.7398 66.0963 78.2295C66.2089 79.4009 66.9637 80.4204 67.9465 81.3245C69.8517 83.0804 72.247 84.3829 73.7566 86.4952C75.1351 88.3821 75.4364 90.4262 76.1152 92.3629C76.9853 94.7792 77.9838 97.0618 78.1174 99.5148C78.3611 104.062 77.305 104.29 76.2672 105.836C74.5506 108.402 72.5694 110.233 70.2396 111.515C67.0309 113.238 63.7079 114.739 60.294 116.007C57.7834 116.95 55.2361 117.97 52.5577 118.214C48.9333 118.554 45.2538 118.082 41.5927 117.705C39.967 117.504 38.3673 117.13 36.8204 116.591C35.3109 116.101 33.9376 115.281 32.4622 114.686C30.7639 114.007 28.9321 113.685 27.3099 112.836C24.5372 111.384 21.7618 109.835 19.3482 107.836C18.4781 107.099 18.0378 105.912 17.7443 104.817C17.2909 103.194 17.9513 101.779 18.7611 100.61C18.6877 97.2034 18.6117 93.8358 18.5541 90.4393C20.5851 83.4185 22.6214 76.3635 24.6525 69.3374C27.3885 65.5828 30.1367 61.8265 32.8972 58.0684C37.5655 57.2508 42.2356 56.4366 46.9075 55.6259Z" stroke="#1D1D1B" stroke-width="0.371142" stroke-miterlimit="10" stroke-linecap="round"/>
<path d="M43.4535 58.6266C42.5928 61.8163 42.2051 65.1152 42.303 68.4175C40.6992 69.2876 38.7546 69.2037 36.8494 69.1539C33.4425 68.7215 30.0958 67.8436 26.7728 66.7953C25.3969 66.0091 24.0184 66.0589 22.6425 65.9095C22.5482 63.6636 22.9623 61.436 24.5294 59.1927L43.4535 58.6266Z" fill="#DF9C94" stroke="#1D1D1B" stroke-width="0.371142" stroke-miterlimit="10" stroke-linecap="round"/>
<path d="M31.6787 71.0042C31.925 68.4385 29.7918 65.6632 27.4856 64.5127C25.1269 63.3439 22.0896 64.172 19.5606 64.9844C17.3723 65.6816 15.5797 67.3614 13.8605 68.9155C11.937 70.6504 10.3147 72.7077 8.69252 74.7439C7.78576 75.8761 7.08865 77.1602 6.33389 78.4129C5.95651 79.055 5.71016 79.7731 5.28561 80.3758C4.56754 81.3953 3.51139 82.1684 2.92698 83.2586C2.43428 84.1627 2.36091 85.2189 2.14077 86.2017C1.8787 87.4281 1.386 88.6153 1.42531 89.8706C1.49869 91.9462 1.48035 94.1896 2.4736 96.0214C3.46684 97.8533 5.2594 99.2134 7.03624 100.327C8.52742 101.271 10.3016 101.685 12.0156 102.025C13.4491 102.308 14.9586 102.044 16.4131 102.156C17.2989 102.232 18.148 102.497 19.0338 102.61C19.6759 102.704 20.3756 103.042 20.9967 102.817C22.6766 102.193 25.3366 101.892 25.638 100.139C26.3927 95.8354 24.2621 91.4902 23.7511 87.1739C23.5834 85.7404 23.206 84.2492 23.62 82.8524C23.9974 81.542 25.2056 80.6458 25.9787 79.5136C27.8865 76.7016 31.3223 74.4006 31.6787 71.0042Z" fill="#DF9C94"/>
<path d="M29.7181 66.2109C29.0749 65.5174 28.3147 64.9426 27.4721 64.5127C25.1135 63.3439 22.0761 64.172 19.5471 64.9844C17.3589 65.6816 15.5663 67.3614 13.8471 68.9155C11.9235 70.6504 10.3013 72.7077 8.67909 74.7439C7.77233 75.8761 7.07522 77.1602 6.32046 78.4129C5.94308 79.055 5.69673 79.7731 5.27218 80.3758C4.55411 81.3953 3.49797 82.1684 2.91355 83.2586C2.42086 84.1627 2.34748 85.2189 2.12734 86.2017C1.86527 87.4281 1.37258 88.6153 1.41189 89.8706C1.48527 91.9462 1.46692 94.1896 2.46017 96.0214C3.45341 97.8533 5.25908 99.2134 7.03591 100.327C8.52709 101.271 10.3013 101.685 12.0152 102.025C13.4488 102.308 14.9583 102.044 16.4128 102.156C17.2986 102.232 18.1477 102.497 19.0335 102.61C19.6756 102.704 20.3753 103.042 20.9964 102.817C21.4131 102.665 21.8848 102.534 22.3565 102.382C21.6018 102.099 20.7841 101.892 20.0923 101.627C18.9785 101.213 17.7703 101.231 16.6015 101.103C14.8823 100.896 13.1107 101.027 11.4125 100.631C9.78855 100.292 8.23647 99.6707 6.82626 98.7968C5.558 97.9304 4.48792 96.805 3.68666 95.4947C3.10224 94.5512 2.90045 93.4191 2.7432 92.3079C2.60277 91.1752 2.62129 90.0285 2.79824 88.901C3.02834 87.298 3.42715 85.7238 3.98804 84.2047C4.19507 83.6936 4.77425 83.4185 5.10184 82.9782C5.68469 82.2844 6.22051 81.5525 6.7057 80.7873C7.25343 79.8438 7.5915 78.7877 8.17592 77.8442C9.08997 76.2715 10.1312 74.7762 11.2893 73.3733C12.4941 72.0152 13.8175 70.7672 15.244 69.6441C17.0365 68.2105 18.8291 66.7403 20.8496 65.6449C21.7538 65.1548 22.8492 65.1548 23.8477 64.9268C25.7346 64.5311 28.8113 65.9096 29.7181 66.2109Z" fill="#C7867F"/>
<path d="M22.755 85.6827C22.7947 85.0908 22.5977 84.5073 22.2073 84.0605C21.9452 83.7408 21.4525 83.6648 21.0385 83.6071C20.5274 83.5521 20.019 83.7775 19.508 83.7591C18.8681 83.7621 18.2296 83.6988 17.6027 83.5704C17.0582 83.4528 16.5301 83.2689 16.0303 83.0227C15.5219 82.779 15.1445 82.3073 14.6151 82.0976C14.2954 81.9666 13.8604 81.8355 13.5668 82.0426C13.3415 82.2313 13.3782 82.6637 13.5302 82.9284C13.7824 83.3794 14.1542 83.7521 14.6046 84.0055C15.0397 84.2675 15.5874 84.3252 16.0775 84.4562C16.6619 84.6082 17.2463 84.7183 17.8517 84.8336C18.4571 84.9489 19.0782 84.9489 19.6626 85.1376C20.4488 85.3997 21.0594 86.0811 21.8692 86.2121C22.2073 86.2698 22.6974 86.0234 22.755 85.6827Z" fill="#FAB9B1"/>
<path d="M31.6787 71.0042C31.925 68.4385 29.7918 65.6632 27.4856 64.5127C25.1269 63.3439 22.0896 64.172 19.5606 64.9844C17.3723 65.6816 15.5797 67.3614 13.8605 68.9155C11.937 70.6504 10.3147 72.7077 8.69252 74.7439C7.78576 75.8761 7.08865 77.1602 6.33389 78.4129C5.95651 79.055 5.71016 79.7731 5.28561 80.3758C4.56754 81.3953 3.51139 82.1684 2.92698 83.2586C2.43428 84.1627 2.36091 85.2189 2.14077 86.2017C1.8787 87.4281 1.386 88.6153 1.42531 89.8706C1.49869 91.9462 1.48035 94.1896 2.4736 96.0214C3.46684 97.8533 5.2594 99.2134 7.03624 100.327C8.52742 101.271 10.3016 101.685 12.0156 102.025C13.4491 102.308 14.9586 102.044 16.4131 102.156C17.2989 102.232 18.148 102.497 19.0338 102.61C19.6759 102.704 20.3756 103.042 20.9967 102.817C22.6766 102.193 25.3366 101.892 25.638 100.139C26.3927 95.8354 24.2621 91.4902 23.7511 87.1739C23.5834 85.7404 23.206 84.2492 23.62 82.8524C23.9974 81.542 25.2056 80.6458 25.9787 79.5136" stroke="#1D1D1B" stroke-width="0.371142" stroke-miterlimit="10" stroke-linecap="round"/>
<path d="M22.7551 84.928C22.5851 84.5951 22.3426 84.3047 22.0456 84.0779C21.7485 83.8511 21.4044 83.6939 21.0385 83.6176C20.5275 83.5626 20.0191 83.788 19.508 83.7696C18.8681 83.7726 18.2297 83.7093 17.6028 83.5809C17.0582 83.4633 16.5301 83.2794 16.0304 83.0332C15.5219 82.7895 15.1446 82.3178 14.6152 82.1081C14.2954 81.9771 13.8604 81.846 13.5669 82.0531" stroke="#1D1D1B" stroke-width="0.371142" stroke-miterlimit="10" stroke-linecap="round"/>
<path d="M26.4867 101.383C30.6012 101.383 33.961 97.3632 33.961 92.4729C33.961 87.5827 30.6012 83.5626 26.4867 83.5626C22.3722 83.5626 19.0334 87.5827 19.0334 92.4729C19.0334 97.3632 22.3775 101.383 26.4867 101.383Z" fill="#DF9C94"/>
<path d="M26.4871 83.5705C26.9181 83.5767 27.3478 83.6206 27.7712 83.7015C28.678 84.1366 29.5821 84.5506 30.4889 84.9673C32.5645 86.5529 33.9613 89.3072 33.9613 92.4756C33.9613 95.4397 32.7348 98.0813 30.8165 99.7035C30.6488 99.8162 30.4601 99.9289 30.2714 100.044C29.7635 100.344 29.2076 100.555 28.6282 100.665C28.1041 100.76 26.5159 100.516 26.0258 100.327C25.5533 100.095 25.1129 99.8026 24.7155 99.4572C24.3722 99.2 24.067 98.8956 23.8087 98.5531C23.4304 98.0653 23.1135 97.5328 22.8653 96.9675C22.4884 96.1595 22.1849 95.3193 21.9585 94.4569C21.7676 93.7682 21.6603 93.059 21.6388 92.3446C21.5978 91.3971 21.6611 90.4479 21.8275 89.5142C22.0649 88.4237 22.44 87.3679 22.9439 86.372C23.2642 85.7468 23.7103 85.1945 24.2543 84.7498C24.7624 84.3047 25.3188 83.9179 25.9132 83.5967C26.094 83.5888 26.301 83.5705 26.4871 83.5705Z" fill="#C7867F"/>
<path d="M26.4867 101.383C30.6012 101.383 33.961 97.3632 33.961 92.4729C33.961 87.5827 30.6012 83.5626 26.4867 83.5626C22.3722 83.5626 19.0334 87.5827 19.0334 92.4729C19.0334 97.3632 22.3775 101.383 26.4867 101.383Z" stroke="#1D1D1B" stroke-width="0.381671" stroke-miterlimit="10" stroke-linecap="round"/>
<path d="M32.7164 98.629C31.8965 99.5032 30.7686 100.024 29.5715 100.081C27.7973 100.251 26.1934 99.6275 24.8543 98.3067C23.08 96.5534 22.666 94.7216 22.4956 92.8923C22.2624 90.8417 22.6159 88.7669 23.5151 86.9092C24.5634 84.7603 26.0048 83.4394 28.2874 83.9662C28.7591 81.5132 29.8729 79.6263 32.1949 79.0786C33.7411 78.7222 35.0619 79.5503 36.27 80.7401C37.3655 79.5896 38.516 78.6645 39.7425 78.1194C40.7391 77.8345 41.7637 77.6588 42.7982 77.5953C43.6243 77.7379 44.3805 78.1487 44.9498 78.7641C45.6286 79.7652 45.4399 80.6694 44.6301 81.5001C43.4586 82.2732 42.3081 83.028 41.1393 83.8011C40.0189 84.6031 39.1177 85.6736 38.5186 86.9145C39.5531 88.5507 39.9738 90.5008 39.7058 92.418C41.2153 92.2293 42.7825 92.0956 44.2553 92.701C45.6888 93.2671 46.669 94.2105 46.9337 95.209C47.2927 96.5482 46.876 97.4916 45.9719 98.0027C45.2967 98.3673 44.516 98.4867 43.7626 98.3408C43.1022 98.2281 42.5571 97.7956 41.8967 97.6803C40.8956 97.531 39.8578 97.607 38.8567 97.5676C36.3225 99.4755 34.3962 99.4755 32.7164 98.629Z" fill="#FED70E"/>
<path d="M32.7163 98.6291C31.8964 99.5032 30.7685 100.024 29.5714 100.081C27.7972 100.251 26.1933 99.6276 24.8541 98.3067C24.7415 98.194 24.6471 98.0813 24.5344 97.987C26.281 98.5153 28.1148 98.6934 29.9304 98.5111C30.5748 98.4381 31.194 98.2194 31.7414 97.8717C32.1947 97.6096 32.4018 97.0016 32.8735 96.7579C33.033 96.6606 33.2122 96.6001 33.3981 96.5806C33.5839 96.5611 33.7717 96.5832 33.948 96.6452C34.1943 96.7579 34.307 97.0776 34.383 97.3423C34.4407 97.5493 34.1367 97.89 34.3463 97.9844C34.8703 98.1351 35.4262 98.1351 35.9502 97.9844C36.6059 97.7822 37.233 97.4968 37.8161 97.1353C38.0934 96.9617 38.3563 96.7663 38.6024 96.5508C38.8518 96.3441 39.1321 96.1779 39.4331 96.0581C39.6008 96.0215 39.9992 96.0582 39.9232 96.2102C39.6952 96.7343 39.2051 97.0959 38.8461 97.5493C36.3223 99.4755 34.3961 99.4755 32.7163 98.6291Z" fill="#E8C412"/>
<path d="M40.1328 92.3629C41.5113 92.1925 42.9265 92.1375 44.2473 92.6852C45.6808 93.2513 46.661 94.1947 46.9256 95.1932C47.2847 96.5324 46.868 97.4759 45.9638 97.9869C45.7317 98.1128 45.4842 98.208 45.2274 98.2699C45.5865 97.7982 46.1342 97.3265 46.3019 96.7787C46.4029 96.4298 46.3693 96.0557 46.2076 95.7305C46.0204 95.38 45.7635 95.0714 45.4528 94.8237C45.1601 94.5418 44.8303 94.3011 44.4727 94.1083C44.0599 93.8909 43.6189 93.7321 43.1623 93.6365C42.6146 93.5029 42.0302 93.4269 41.4641 93.3142C41.1051 93.2591 40.7277 93.2775 40.4158 93.1071C40.3303 93.0533 40.2586 92.9802 40.2063 92.8938C40.154 92.8074 40.1225 92.7099 40.1144 92.6092C40.1015 92.5268 40.1078 92.4425 40.1328 92.3629Z" fill="#FFE047"/>
<path d="M44.8317 81.2695C44.7557 81.3428 44.698 81.4188 44.6246 81.4948C43.4532 82.2679 42.3027 83.0227 41.1339 83.7958C40.0134 84.5978 39.1123 85.6684 38.5132 86.9092C38.4948 86.8909 38.4948 86.8725 38.4738 86.8542C38.1541 86.3431 38.4738 85.6277 38.6625 85.0616C38.8668 84.5381 39.1682 84.0579 39.551 83.6464C39.9134 83.2616 40.3188 82.9196 40.7591 82.627C41.2544 82.2488 41.7706 81.8988 42.3053 81.5787C42.701 81.3533 43.0915 81.0126 43.5501 80.955C44.001 80.9056 44.4548 81.017 44.8317 81.2695Z" fill="#E8C412"/>
<path d="M27.9988 83.9479C27.7917 83.9479 27.6214 84.1942 27.603 84.4013C27.6076 84.52 27.6367 84.6365 27.6886 84.7434C27.7405 84.8503 27.814 84.9453 27.9044 85.0224C28.2084 85.3264 28.6041 85.4757 28.9239 85.7404C29.2905 86.0114 29.6147 86.3356 29.8857 86.7022C30.1078 87.0292 30.2677 87.3944 30.3574 87.7793C30.4334 88.0991 30.3574 88.4398 30.415 88.7228C30.4727 89.0058 30.4727 89.3072 30.6614 89.4776C30.8501 89.6479 31.2275 89.7213 31.3401 89.5326C31.5839 89.1369 31.5288 88.6285 31.4712 88.1934C31.3707 87.4799 31.1613 86.7861 30.8501 86.1362C30.6981 85.7981 30.3574 85.5517 30.1137 85.2687C29.8422 84.9194 29.5248 84.6082 29.1702 84.3436C28.8299 84.0939 28.4207 83.9557 27.9988 83.9479Z" fill="#FFE047"/>
<path d="M32.1503 79.0995C32.0009 79.2489 32.2656 79.532 32.4333 79.6656C32.643 79.815 32.926 79.815 33.1697 79.9093C33.4917 80.0156 33.8068 80.1416 34.1132 80.2867C34.3857 80.4189 34.6485 80.5704 34.8994 80.7401C35.1589 80.9017 35.3997 81.0915 35.6175 81.3062C35.8286 81.5517 36.0049 81.8251 36.1416 82.1186C36.2916 82.3881 36.3936 82.6816 36.443 82.986C36.4571 83.2783 36.4252 83.5711 36.3486 83.8535C36.291 84.1156 36.0866 84.3619 36.0656 84.6397C36.0656 84.8284 36.1416 85.1638 36.3093 85.1507C36.4821 85.1208 36.6446 85.048 36.7819 84.9391C36.9193 84.8301 37.0271 84.6884 37.0955 84.527C37.3104 84.0418 37.3883 83.5071 37.3209 82.9808C37.2429 82.4655 37.0771 81.9673 36.8308 81.508C36.3205 80.5393 35.4949 79.7738 34.4906 79.338C34.0785 79.1416 33.6348 79.02 33.1802 78.979C32.8317 78.9475 32.415 78.8715 32.1503 79.0995Z" fill="#FFE047"/>
<path d="M32.7164 98.629C31.8965 99.5032 30.7686 100.024 29.5715 100.081C27.7973 100.251 26.1934 99.6275 24.8543 98.3067C23.08 96.5534 22.666 94.7216 22.4956 92.8923C22.2624 90.8417 22.6159 88.7669 23.5151 86.9092C24.5634 84.7603 26.0048 83.4394 28.2874 83.9662C28.7591 81.5132 29.8729 79.6263 32.1949 79.0786C33.7411 78.7222 35.0619 79.5503 36.27 80.7401C37.3655 79.5896 38.516 78.6645 39.7425 78.1194C40.7391 77.8345 41.7637 77.6588 42.7982 77.5953C43.6243 77.7379 44.3805 78.1487 44.9498 78.7641C45.6286 79.7652 45.4399 80.6694 44.6301 81.5001C43.4586 82.2732 42.3081 83.028 41.1393 83.8011C40.0189 84.6031 39.1177 85.6736 38.5186 86.9145C39.5531 88.5507 39.9738 90.5008 39.7058 92.418C41.2153 92.2293 42.7825 92.0956 44.2553 92.701C45.6888 93.2671 46.669 94.2105 46.9337 95.209C47.2927 96.5482 46.876 97.4916 45.9719 98.0027C45.2967 98.3673 44.516 98.4867 43.7626 98.3408C43.1022 98.2281 42.5571 97.7956 41.8967 97.6803C40.8956 97.531 39.8578 97.607 38.8567 97.5676C36.3225 99.4755 34.3962 99.4755 32.7164 98.629Z" stroke="#1D1D1B" stroke-width="0.371142" stroke-miterlimit="10" stroke-linecap="round"/>
<path d="M25.8289 88.2065C26.2822 88.8669 26.6151 89.6584 27.189 90.2638C27.6974 90.7879 28.2635 91.5269 28.9999 91.5269C29.7363 91.5269 30.4151 90.9058 30.9052 90.3188C31.1056 90.0904 31.2588 89.8247 31.3559 89.5368C31.4531 89.2489 31.4923 88.9446 31.4712 88.6415C31.3851 87.6122 31.0418 86.6209 30.4727 85.7588C29.9205 84.9989 29.1872 84.3891 28.3395 83.9846" stroke="#1D1D1B" stroke-width="0.371142" stroke-miterlimit="10" stroke-linecap="round"/>
<path d="M31.301 83.7225C31.9614 84.2466 32.5092 84.928 33.2639 85.3263C33.8693 85.6644 34.5743 85.9867 35.2845 85.9107C35.5749 85.8588 35.8517 85.7484 36.0981 85.5862C36.3445 85.424 36.5554 85.2135 36.718 84.9673C37.0978 84.5008 37.2819 83.9052 37.2317 83.3058C37.1886 82.3786 36.8445 81.4908 36.2515 80.7768" stroke="#1D1D1B" stroke-width="0.371142" stroke-miterlimit="10" stroke-linecap="round"/>
<path d="M33.9059 97.2872C33.5654 97.7655 33.1734 98.2049 32.7371 98.5976" stroke="#1D1D1B" stroke-width="0.371142" stroke-miterlimit="10" stroke-linecap="round"/>
<path d="M40.0204 96.2311C39.6904 96.724 39.2895 97.1656 38.8306 97.5414" stroke="#1D1D1B" stroke-width="0.371142" stroke-miterlimit="10" stroke-linecap="round"/>
<path d="M47.7173 60.3799L47.8143 58.7577L48.1157 57.4185L46.3231 57.2482L44.0588 58.7393L45.322 59.2478L46.2838 59.8138L47.1513 60.7023L47.7173 60.3799Z" fill="#E8C412"/>
<path d="M49.1324 55.5132C47.6806 57.7382 47.3215 59.9082 48.0842 61.9838C46.897 59.5884 44.8214 58.7 42.3684 58.5113" stroke="#1D1D1B" stroke-width="0.371142" stroke-miterlimit="10" stroke-linecap="round"/>
<path d="M48.7 63.8707C52.4738 66.5883 54.5677 69.589 56.0196 73.4572C57.267 76.8143 57.2277 80.1924 58.0401 83.5705C58.6245 86.0051 59.5863 88.4004 60.5691 90.7984" stroke="#1D1D1B" stroke-width="0.371142" stroke-miterlimit="10" stroke-linecap="round"/>
<path d="M48.0002 65.4379C50.5685 67.6628 51.3416 71.2689 52.0964 74.495C52.7175 77.0607 52.1514 79.7967 52.0204 82.4384C51.9261 84.0789 51.5854 85.7038 51.5487 87.3627C51.5754 88.8326 51.6759 90.3003 51.8501 91.7602" stroke="#1D1D1B" stroke-width="0.371142" stroke-miterlimit="10" stroke-linecap="round"/>
<path d="M47.2086 60.6079C49.4362 59.5124 51.8132 60.0208 52.5496 61.7584C53.286 63.4959 52.0962 65.8336 49.8686 66.9474C47.6803 68.0402 45.2641 67.5318 44.5303 65.7969C43.7965 64.062 45.002 61.719 47.2086 60.6079Z" fill="#DADADA" stroke="#1D1D1B" stroke-width="0.400096" stroke-miterlimit="10" stroke-linecap="round"/>
<path d="M48.548 52.8899C50.7573 53.532 53.0032 54.022 54.7932 56.0033C55.5112 56.8131 55.6056 57.4368 55.4745 58.2283C55.3037 59.4075 54.9201 60.5459 54.3424 61.588C52.9272 58.5873 50.1912 57.4368 46.8682 57.0961C47.4342 55.7098 48.0003 54.2867 48.548 52.8899Z" fill="#DF9C94" stroke="#1D1D1B" stroke-width="0.371142" stroke-miterlimit="10" stroke-linecap="round"/>
<path d="M37.4939 62.2301C40.6833 62.8905 43.3617 62.4922 44.7009 59.211C47.2299 59.0407 49.2504 58.0789 49.4181 54.3601C50.3616 54.1531 51.6274 53.5503 51.8711 51.8888C52.2302 49.5878 51.5514 48.7571 50.3826 47.8896C48.438 46.3984 47.5889 45.0959 47.2692 43.4921L46.4201 38.4551C46.9101 37.5667 47.3819 36.6442 47.9086 35.7741C48.3253 35.0953 48.873 34.5109 49.219 33.8138C49.4827 33.2728 49.6554 32.6919 49.73 32.0946C49.7507 31.5071 49.7059 30.919 49.5963 30.3414C49.4837 29.4346 49.295 28.5488 49.1456 27.6421C49.0341 27.1914 48.9709 26.7302 48.9569 26.2662C49.0343 25.515 49.1666 24.7705 49.3526 24.0386C49.6907 22.115 49.9003 20.9619 49.5963 18.9439C49.4286 17.7935 48.8101 16.643 47.6361 15.5108C49.0303 13.5663 50.5398 11.7921 53.0871 11.0189C52.466 9.49108 50.0314 10.1882 47.9558 10.4529C48.89 8.61455 50.0087 6.87595 51.2946 5.26388C49.0696 4.75547 46.9547 6.57423 44.8241 8.18859C45.2565 5.13285 44.541 2.68511 42.4471 1C41.86 3.20663 41.9937 5.75395 40.8222 7.8479C41.0109 5.28223 39.8998 3.58401 37.8792 2.47021C37.5202 5.26388 37.8792 8.11259 36.8047 10.8565C35.2991 10.6605 33.7685 10.8406 32.3495 11.3806C29.6685 12.4289 27.9703 14.9474 26.1778 17.285C24.0655 16.871 22.9333 18.0713 22.2729 19.9477C20.4594 19.9634 19.4111 21.3393 18.8477 23.4542C15.0555 24.3793 14.9795 27.1887 16.5467 29.6993C15.3385 35.229 14.5078 40.1349 13.3022 45.6856C17.7574 46.139 22.189 46.6107 26.6416 47.0824C30.2634 52.1351 33.8809 57.1844 37.4939 62.2301Z" fill="#FED70E"/>
<path d="M44.4153 56.834C44.7961 57.5654 44.8968 58.4107 44.6983 59.211" stroke="#1D1D1B" stroke-width="0.371142" stroke-miterlimit="10" stroke-linecap="round"/>
<path d="M48.0393 51.2101C49.0011 52.2295 49.4912 53.2857 49.4152 54.3549" stroke="#1D1D1B" stroke-width="0.371142" stroke-miterlimit="10" stroke-linecap="round"/>
<path d="M45.4347 20.8676C44.781 21.9377 44.3629 23.1349 44.2082 24.3793C44.1139 25.1655 44.4153 25.9255 44.6249 26.6803C44.7743 27.2463 45.115 27.7286 45.0757 28.3025C45.0573 28.9812 45.0207 29.6626 44.4729 30.1527" stroke="#1D1D1B" stroke-width="0.371142" stroke-miterlimit="10" stroke-linecap="round"/>
<path d="M46.3779 28.9079C46.5116 29.2276 46.9833 29.5106 47.2847 29.3586C47.5861 29.2066 47.7381 28.6432 47.6621 28.2841C47.619 28.1224 47.5188 27.9818 47.38 27.8884C47.2413 27.7949 47.0733 27.7549 46.9073 27.7757" stroke="#1D1D1B" stroke-width="0.371142" stroke-miterlimit="10" stroke-linecap="round"/>
<path d="M46.2651 23.0768C46.3778 23.3965 46.8496 23.6796 47.1509 23.5302C47.4916 23.3598 47.6227 22.8121 47.5283 22.4531C47.4881 22.2939 47.3917 22.1547 47.2568 22.0613C47.1218 21.9678 46.9576 21.9264 46.7945 21.9447" stroke="#1D1D1B" stroke-width="0.371142" stroke-miterlimit="10" stroke-linecap="round"/>
<path d="M45.7568 14.0747C46.5299 14.3577 47.0384 14.8609 47.6228 15.4899" stroke="#1D1D1B" stroke-width="0.371142" stroke-miterlimit="10" stroke-linecap="round"/>
<path d="M48.4169 35.0193C48.721 34.6415 48.9919 34.2382 49.2267 33.8138C49.4904 33.2727 49.6631 32.6919 49.7377 32.0946C49.7585 31.507 49.7136 30.919 49.6041 30.3414C49.4914 29.4346 49.3027 28.5488 49.1533 27.642C49.0419 27.1914 48.9786 26.7302 48.9646 26.2662C49.042 25.515 49.1743 24.7705 49.3604 24.0386C49.6984 22.115 49.9081 20.9619 49.6041 18.9439C49.4364 17.7934 48.8179 16.643 47.6438 15.5108C47.6438 15.4962 47.6471 15.4818 47.6534 15.4686C47.6598 15.4555 47.669 15.4439 47.6805 15.4348C47.6621 15.4348 47.6228 15.4532 47.6045 15.4532C46.5562 15.7152 48.1155 17.5104 48.3592 17.8485C48.8703 18.5299 48.9646 18.7552 49.0197 19.6227C49.0485 20.0503 49.0485 20.4793 49.0197 20.9068C49.0197 21.8686 48.7366 22.5291 48.5872 23.4725C48.4536 24.1906 48.2649 24.9637 48.1889 25.6791C48.1706 26.0065 48.1706 26.3346 48.1889 26.6619C48.2282 27.0576 48.3226 27.4717 48.3986 27.87C48.4746 28.2684 48.6056 28.7192 48.6816 29.1516C48.755 29.5106 48.7943 29.8696 48.8493 30.2287C48.9044 30.5877 48.9646 30.8681 49.0013 31.1905C49.0197 31.4601 49.0197 31.7307 49.0013 32.0003C48.9768 32.2845 48.9134 32.5641 48.8126 32.831C48.6239 33.3552 48.0762 33.8138 48.0946 34.3799C48.1005 34.5031 48.1323 34.6237 48.1878 34.7338C48.2433 34.844 48.3214 34.9413 48.4169 35.0193Z" fill="#FFE047"/>
<path d="M35.7354 10.7936C34.5824 10.7602 33.4345 10.959 32.3599 11.378C29.6789 12.4263 27.9807 14.9448 26.1881 17.2824C24.0759 16.8684 22.9437 18.0686 22.2833 19.9451C20.4593 19.9634 19.411 21.3393 18.8475 23.4542C15.0554 24.3793 14.9794 27.1887 16.5466 29.6993C16.5099 29.888 16.4706 30.0584 16.4155 30.247H17.2017C15.5822 26.8873 16.4933 24.5601 19.9351 23.2655C20.0111 21.8503 20.8209 20.6789 23.2005 20.0001C23.2949 18.5299 24.2174 17.5104 26.9534 17.4921C29.0368 14.3027 31.6418 11.737 35.7354 10.7936Z" fill="#E8C412"/>
<path d="M36.7363 10.8486C37.2531 10.9119 37.7601 11.0386 38.2458 11.226" stroke="#1D1D1B" stroke-width="0.371142" stroke-miterlimit="10" stroke-linecap="round"/>
<path d="M30.8293 18.6032C34.0869 17.4475 36.5661 18.3202 38.5421 20.6238" stroke="#1D1D1B" stroke-width="0.371142" stroke-miterlimit="10" stroke-linecap="round"/>
<path d="M29.3699 21.4912C32.3714 20.1337 34.9441 20.6177 37.0878 22.9431" stroke="#1D1D1B" stroke-width="0.371142" stroke-miterlimit="10" stroke-linecap="round"/>
<path d="M27.6609 24.6623C30.6039 23.4542 33.3976 23.7556 36.0183 25.5665" stroke="#1D1D1B" stroke-width="0.371142" stroke-miterlimit="10" stroke-linecap="round"/>
<path d="M23.7746 23.8499C22.3777 23.1318 20.6979 23.0637 18.8477 23.4358" stroke="#1D1D1B" stroke-width="0.371142" stroke-miterlimit="10" stroke-linecap="round"/>
<path d="M22.2937 19.9451C23.4327 19.8996 24.5603 20.1874 25.5381 20.7733" stroke="#1D1D1B" stroke-width="0.371142" stroke-miterlimit="10" stroke-linecap="round"/>
<path d="M26.188 17.2825C26.8771 17.4022 27.537 17.6521 28.1325 18.0189" stroke="#1D1D1B" stroke-width="0.371142" stroke-miterlimit="10" stroke-linecap="round"/>
<path d="M37.4939 62.2301C40.6833 62.8905 43.3617 62.4922 44.7009 59.211C47.2299 59.0407 49.2504 58.0789 49.4181 54.3601C50.3616 54.1531 51.6274 53.5503 51.8711 51.8888C52.2302 49.5878 51.5514 48.7571 50.3826 47.8896C48.438 46.3984 47.5889 45.0959 47.2692 43.4921L46.4201 38.4551C46.9101 37.5667 47.3819 36.6442 47.9086 35.7741C48.3253 35.0953 48.873 34.5109 49.219 33.8138C49.4827 33.2728 49.6554 32.6919 49.73 32.0946C49.7507 31.5071 49.7059 30.919 49.5963 30.3414C49.4837 29.4346 49.295 28.5488 49.1456 27.6421C49.0341 27.1914 48.9709 26.7302 48.9569 26.2662C49.0343 25.515 49.1666 24.7705 49.3526 24.0386C49.6907 22.115 49.9003 20.9619 49.5963 18.9439C49.4286 17.7935 48.8101 16.643 47.6361 15.5108C49.0303 13.5663 50.5398 11.7921 53.0871 11.0189C52.466 9.49108 50.0314 10.1882 47.9558 10.4529C48.89 8.61455 50.0087 6.87595 51.2946 5.26388C49.0696 4.75547 46.9547 6.57423 44.8241 8.18859C45.2565 5.13285 44.541 2.68511 42.4471 1C41.86 3.20663 41.9937 5.75395 40.8222 7.8479C41.0109 5.28223 39.8998 3.58401 37.8792 2.47021C37.5202 5.26388 37.8792 8.11259 36.8047 10.8565C35.2991 10.6605 33.7685 10.8406 32.3495 11.3806C29.6685 12.4289 27.9703 14.9474 26.1778 17.285C24.0655 16.871 22.9333 18.0713 22.2729 19.9477C20.4594 19.9634 19.4111 21.3393 18.8477 23.4542C15.0555 24.3793 14.9795 27.1887 16.5467 29.6993C15.3385 35.229 14.5078 40.1349 13.3022 45.6856C17.7574 46.139 22.189 46.6107 26.6416 47.0824C30.2634 52.1351 33.8809 57.1844 37.4939 62.2301Z" stroke="#1D1D1B" stroke-width="0.371142" stroke-miterlimit="10" stroke-linecap="round"/>
<path d="M43.076 47.4938C43.3835 47.9212 43.7985 48.2598 44.279 48.4752C44.7594 48.6906 45.2883 48.7751 45.812 48.7203C46.8131 48.6627 47.6622 48.1726 47.7749 47.1348C47.9269 45.9634 47.8325 44.8312 48.0763 43.7279C48.2617 43.1026 48.6067 42.5363 49.0774 42.0847C49.627 41.5572 50.0716 40.9303 50.3877 40.2371C51.1739 38.2166 50.5554 36.369 49.1979 34.8961C47.8876 33.4626 46.0845 33.3499 44.499 33.992C42.274 34.8594 41.687 36.7464 41.5376 38.6333C42.0382 41.5868 42.5492 44.5482 43.076 47.4938Z" fill="#FED70E"/>
<path d="M47.7145 36.3166C46.9769 36.4506 46.2874 36.7759 45.7149 37.26C45.2616 37.6767 44.8108 38.3083 44.8658 38.9399C44.9602 39.941 46.1316 40.6565 46.1316 41.6576C46.1316 42.318 45.5839 42.8657 44.8213 43.2038" stroke="#1D1D1B" stroke-width="0.371142" stroke-miterlimit="10" stroke-linecap="round"/>
<path d="M43.9252 34.2462C43.7992 34.3448 43.7027 34.4762 43.6463 34.6259C43.5899 34.7757 43.5758 34.9381 43.6055 35.0953C43.6705 35.2346 43.7749 35.3518 43.9057 35.4324C44.0366 35.5129 44.1883 35.5534 44.3419 35.5487C44.908 35.567 45.4531 35.229 46.0191 35.153C46.5442 35.0678 47.0796 35.0678 47.6047 35.153C47.9453 35.208 48.21 35.5304 48.5481 35.5487C48.7551 35.567 49.0382 35.436 49.0591 35.2473C49.074 35.0898 49.0488 34.9311 48.9861 34.7859C48.9233 34.6407 48.825 34.5137 48.7001 34.4166C48.0948 34.0678 47.4287 33.8374 46.7372 33.7378C46.2852 33.6715 45.8248 33.6901 45.3797 33.7928C44.887 33.8688 44.3419 33.9579 43.9252 34.2462Z" fill="#FFE047"/>
<path d="M43.076 47.4938C43.3835 47.9212 43.7985 48.2598 44.279 48.4752C44.7594 48.6906 45.2883 48.7751 45.812 48.7203C46.8131 48.6627 47.6622 48.1726 47.7749 47.1348C47.9269 45.9634 47.8325 44.8312 48.0763 43.7279C48.2617 43.1026 48.6067 42.5363 49.0774 42.0847C49.627 41.5572 50.0716 40.9303 50.3877 40.2371C51.1739 38.2166 50.5554 36.369 49.1979 34.8961C47.8876 33.4626 46.0845 33.3499 44.499 33.992C42.274 34.8594 41.687 36.7464 41.5376 38.6333" stroke="#1D1D1B" stroke-width="0.371142" stroke-miterlimit="10" stroke-linecap="round"/>
<path d="M25.3206 48.6051L26.3584 54.3601L25.6429 58.0396L33.7749 60.4559L39.0006 58.493L40.7172 54.3601L40.5862 51.6818L38.2275 48.4164L35.2085 46.9069L30.3602 47.2292L25.3206 48.6051Z" fill="#1D1D1B" stroke="#1D1D1B" stroke-width="0.371142" stroke-miterlimit="10" stroke-linecap="round"/>
<path d="M35.9058 55.2092C36.3591 54.685 37.1323 54.305 38.2094 54.3234C38.7184 54.3318 39.215 54.4825 39.6429 54.7584C39.7372 56.5117 39.0375 57.6071 37.756 58.1155C36.4745 58.624 35.1353 58.4562 33.8695 58.0788C33.0667 57.8164 32.2472 57.608 31.4165 57.4551C31.4418 56.7973 31.7108 56.1724 32.1713 55.7019C33.6991 54.098 35.096 54.305 35.9058 55.2092Z" fill="#E30613" stroke="#1D1D1B" stroke-width="0.371142" stroke-miterlimit="10" stroke-linecap="round"/>
<path d="M35.9818 55.1542C35.7673 55.3439 35.5771 55.5596 35.4158 55.7962" stroke="#1D1D1B" stroke-width="0.371142" stroke-miterlimit="10" stroke-linecap="round"/>
<path d="M13.8474 50.644C15.5456 52.5675 18.0563 53.4927 20.3389 51.9071C22.9046 53.0786 25.3968 53.3223 27.6978 51.5114C29.2702 52.4365 32.0194 52.2111 33.2458 50.2849C34.3963 51.286 36.983 51.0397 37.4154 49.3415C36.7894 48.7739 36.0199 48.3887 35.1904 48.2277C33.4346 47.7992 31.5852 47.9842 29.949 48.7518C28.1014 49.6376 26.2328 49.8001 24.1835 49.4489C21.9192 51.0213 19.5789 50.8091 17.2412 49.6193C16.2195 50.2527 15.049 50.6061 13.8474 50.644Z" fill="white" stroke="#1D1D1B" stroke-width="0.371142" stroke-miterlimit="10" stroke-linecap="round"/>
<path d="M11.7166 41.4164C10.4718 42.5119 9.20596 43.6047 7.52347 44.1341C6.36996 44.5049 5.15904 44.6647 3.94883 44.6058C2.30827 44.5115 1.32813 44.9832 1.06606 46.1337C0.688677 47.7061 1.9702 48.7544 3.83876 49.3808C5.51863 49.9259 7.24567 50.0779 8.95175 49.4934C11.8345 50.775 14.6334 51.2284 17.2751 49.6061C19.6128 50.7959 21.9531 51.003 24.2173 49.4358C26.2562 49.7765 28.1248 49.6245 29.9829 48.7387C31.619 47.971 33.4685 47.7861 35.2243 48.2145C37.3733 48.6679 38.4871 50.2168 39.1553 52.2347C40.2324 55.5184 39.5904 57.387 37.7978 58.1025C36.553 58.5925 35.1771 58.4431 33.9113 58.0658C32.5885 57.6332 31.2202 57.3544 29.8335 57.235C28.8901 57.159 27.9466 57.235 27.0241 57.235C27.6953 56.6524 28.1367 55.8496 28.2689 54.9707C28.3056 53.9224 27.9283 52.9528 27.2495 51.894C26.6099 52.3019 25.8983 52.5839 25.1529 52.7248C25.6614 53.4795 25.6247 54.216 25.1136 54.9707C24.3632 54.8548 23.5955 54.9398 22.8886 55.2171C21.5285 55.7071 20.53 56.6113 20.661 57.7434C20.9834 60.102 23.114 60.8385 25.567 60.6681C26.3532 62.6703 27.8313 63.6872 30.5123 62.9534C31.6628 64.5939 33.5103 65.0499 36.0577 64.3292C38.3036 63.3674 39.2025 61.9339 39.1527 60.1781C41.8887 58.7078 42.8898 56.6689 42.5125 54.0089C42.2 51.5601 41.0956 49.2805 39.3676 47.5174C36.9723 45.0461 33.9166 44.6871 30.7193 45.4785C28.2454 42.2341 22.472 42.3861 16.6042 42.6298C14.9243 42.2289 13.3205 41.8331 11.7166 41.4164Z" fill="#CCA16E" stroke="#1D1D1B" stroke-width="0.371142" stroke-miterlimit="10" stroke-linecap="round"/>
<path d="M7.96118 48.6994C8.25291 49.0374 8.60934 49.3137 9.00946 49.5118" stroke="#1D1D1B" stroke-width="0.371142" stroke-miterlimit="10" stroke-linecap="round"/>
<path d="M16.3762 48.7387C16.5932 49.1258 16.9196 49.4403 17.3144 49.6429" stroke="#1D1D1B" stroke-width="0.371142" stroke-miterlimit="10" stroke-linecap="round"/>
<path d="M22.5085 48.398C22.8492 48.8881 23.4153 49.2471 24.2644 49.4463" stroke="#1D1D1B" stroke-width="0.371142" stroke-miterlimit="10" stroke-linecap="round"/>
<path d="M29.679 46.0577C29.9777 45.7833 30.3368 45.5831 30.7272 45.4733" stroke="#1D1D1B" stroke-width="0.371142" stroke-miterlimit="10" stroke-linecap="round"/>
<path d="M24.3403 57.3425L27.0947 57.2298" stroke="#1D1D1B" stroke-width="0.371142" stroke-miterlimit="10" stroke-linecap="round"/>
<path d="M39.1317 60.165C38.635 60.4022 38.1046 60.5614 37.5593 60.6367" stroke="#1D1D1B" stroke-width="0.371142" stroke-miterlimit="10" stroke-linecap="round"/>
<path d="M19.5475 26.3972C23.6594 26.3972 27.0008 29.3036 27.0008 32.8494C26.9922 34.1905 26.5189 35.4871 25.6616 36.5184L17.4902 35.8579L14.1121 37.2548C13.4913 36.6972 12.9931 36.0168 12.6489 35.2567C12.3047 34.4966 12.122 33.6733 12.1125 32.8389C12.1125 29.3036 15.4513 26.3972 19.5475 26.3972Z" fill="white" stroke="#1D1D1B" stroke-width="0.371142" stroke-miterlimit="10" stroke-linecap="round"/>
<path d="M14.9243 33.4155C15.0971 33.4134 15.2655 33.3604 15.4084 33.263C15.5512 33.1656 15.6621 33.0282 15.7271 32.8681C15.7922 32.708 15.8086 32.5322 15.7741 32.3628C15.7397 32.1934 15.6561 32.0379 15.5337 31.9159C15.4113 31.7938 15.2555 31.7107 15.0861 31.6767C14.9166 31.6428 14.7408 31.6597 14.5809 31.7252C14.4209 31.7908 14.2839 31.9021 14.1869 32.0452C14.09 32.1883 14.0374 32.3568 14.0359 32.5297C14.0359 32.6462 14.0589 32.7616 14.1036 32.8693C14.1482 32.9769 14.2137 33.0747 14.2963 33.157C14.3788 33.2392 14.4767 33.3044 14.5845 33.3488C14.6923 33.3932 14.8078 33.4158 14.9243 33.4155Z" fill="#1D1D1B"/>
<path d="M29.8124 40.3603C34.1523 40.3603 37.6981 37.3229 37.6981 33.5858C37.6981 29.8487 34.1523 26.8323 29.8124 26.8323C25.4725 26.8323 21.9058 29.8697 21.9058 33.5858C21.9058 37.302 25.4516 40.3603 29.8124 40.3603Z" fill="white" stroke="#1D1D1B" stroke-width="0.40536" stroke-miterlimit="10" stroke-linecap="round"/>
<path d="M30.528 35.153C31.091 35.153 31.5475 34.6966 31.5475 34.1335C31.5475 33.5705 31.091 33.1141 30.528 33.1141C29.965 33.1141 29.5085 33.5705 29.5085 34.1335C29.5085 34.6966 29.965 35.153 30.528 35.153Z" fill="#1D1D1B"/>
<path d="M9.50745 40.418C11.5831 40.418 13.2629 38.7931 13.2629 36.8329C13.2629 34.8726 11.5831 33.2477 9.50745 33.2477C7.43186 33.2477 5.73364 34.8516 5.73364 36.8329C5.73364 38.8141 7.43186 40.418 9.50745 40.418Z" stroke="#1D1D1B" stroke-width="0.381671" stroke-miterlimit="10" stroke-linecap="round"/>
<path d="M11.0929 35.4727C9.76162 35.9423 8.54124 36.6809 7.50781 37.6427" stroke="#1D1D1B" stroke-width="0.371142" stroke-miterlimit="10" stroke-linecap="round"/>
<path d="M8.32031 38.8692C9.23218 37.859 10.4145 37.1314 11.7272 36.7726" stroke="#1D1D1B" stroke-width="0.371142" stroke-miterlimit="10" stroke-linecap="round"/>
<path d="M22.2074 35.643C20.9233 34.7362 18.6406 34.8568 17.8859 35.8317C13.6037 35.4543 10.9043 36.9062 9.79053 40.2292C9.6595 42.7949 10.9436 44.3228 14.2824 44.3044C16.565 44.0424 18.68 43.361 20.1895 41.191C21.3007 40.7377 22.4328 40.2659 23.5649 39.7942C23.5466 38.5101 22.2258 36.9272 22.2074 35.643Z" fill="#FED70E"/>
<path d="M17.8857 35.8317C13.6035 35.4543 10.9041 36.9062 9.79034 40.2293C9.71696 41.4741 10 42.4935 10.6788 43.1907C10.5739 42.8299 10.514 42.4576 10.5006 42.0821C10.5193 41.6839 10.6155 41.2931 10.7836 40.9316C11.1466 40.1652 11.6238 39.4583 12.1988 38.835C12.5863 38.4843 13.018 38.1856 13.4829 37.9466C13.9398 37.6987 14.4234 37.5036 14.9243 37.3648C15.4059 37.2424 15.8983 37.1669 16.3945 37.1395C16.8295 37.1211 17.2436 37.1578 17.6787 37.1395C18.0625 37.1643 18.4479 37.1512 18.8291 37.1001C19.0875 37.087 19.334 36.9873 19.5289 36.8171C19.6056 36.713 19.6559 36.5919 19.6756 36.4641C19.6952 36.3363 19.6835 36.2056 19.6416 36.0833C19.2825 36.0204 18.7531 35.9077 17.8857 35.8317Z" fill="#FFE047"/>
<path d="M22.2072 35.643C20.923 34.7362 18.6404 34.8568 17.8856 35.8317C13.6034 35.4543 10.1493 37.7003 9.79028 40.2292C9.47055 42.4175 10.9434 44.3228 14.2822 44.3044C16.5648 44.0424 18.6797 43.361 20.1892 41.191" stroke="#1D1D1B" stroke-width="0.371142" stroke-miterlimit="10" stroke-linecap="round"/>
<path d="M25.0742 41.8331C27.4145 41.8331 29.3197 40.19 29.3197 38.1642C29.3197 36.1384 27.4145 34.4952 25.0742 34.4952C22.7339 34.4952 20.8496 36.1541 20.8496 38.1642C20.8496 40.1742 22.7549 41.8331 25.0742 41.8331Z" stroke="#1D1D1B" stroke-width="0.400096" stroke-miterlimit="10" stroke-linecap="round"/>
<path d="M41.7552 36.8695C37.4913 36.8328 33.2825 36.9455 29.2466 37.5116" stroke="#1D1D1B" stroke-width="0.371142" stroke-miterlimit="10" stroke-linecap="round"/>
<path d="M28.1696 37.3779C26.7958 38.2178 25.518 39.2056 24.3591 40.3236" stroke="#1D1D1B" stroke-width="0.371142" stroke-miterlimit="10" stroke-linecap="round"/>
<path d="M26.699 36.6232C25.3887 37.5667 24.1884 38.5678 23.03 39.5872" stroke="#1D1D1B" stroke-width="0.371142" stroke-miterlimit="10" stroke-linecap="round"/>
<path d="M20.3389 36.4922C19.3259 36.0311 18.2258 35.7925 17.1128 35.7925" stroke="#1D1D1B" stroke-width="0.371142" stroke-miterlimit="10" stroke-linecap="round"/>
</svg>
