<svg width="75" height="177" viewBox="0 0 75 177" fill="none" xmlns="http://www.w3.org/2000/svg">
<path d="M35.3767 160.594C35.7457 163.215 36.1453 165.851 36.5015 168.49C45.5969 171.772 55.5583 173.084 67.4182 170.225C68.4431 169.968 68.8402 169.264 68.2868 168.047C64.91 160.519 60.7414 158.88 56.555 158.055L35.3767 160.594Z" fill="#5C7174"/>
<path d="M56.0937 160.207C52.9935 162.825 48.4561 162.605 45.0613 163.102C44.3593 163.215 43.4369 164.173 43.7341 165.003C44.1675 166.185 44.4399 167.42 44.5438 168.675C42.9399 168.398 40.5059 167.604 38.9072 167.345C38.5562 165.131 38.2256 162.9 37.8823 160.683C43.3806 160.222 48.8763 159.779 54.3745 159.318L56.0937 160.207Z" fill="#506261"/>
<path d="M66.4778 170.43C66.793 170.373 67.1056 170.299 67.4181 170.227C68.443 169.971 68.8401 169.266 68.2867 168.049C65.2429 161.242 61.5356 159.251 57.7539 158.313C61.0001 159.789 63.9516 163.202 65.74 166.451C66.6802 168.139 67.0133 169.149 66.4778 170.43Z" fill="#A4A7A7"/>
<path d="M35.3767 160.594C35.7457 163.215 36.1453 165.851 36.5015 168.49C45.5969 171.772 55.5583 173.084 67.4182 170.225C68.4431 169.968 68.8402 169.264 68.2868 168.047C64.91 160.519 60.7414 158.88 56.555 158.055L35.3767 160.594Z" stroke="#1D1D1B" stroke-width="0.359629" stroke-miterlimit="10" stroke-linecap="round"/>
<path d="M22.8146 174.06C23.9214 173.804 24.6593 173.23 25.5637 172.843C24.5389 171.995 23.5525 171.147 22.5379 170.281C22.1869 171.001 21.8179 171.721 21.449 172.441C21.8256 172.899 22.4456 173.599 22.8146 174.06Z" fill="#1D1D1B" stroke="#1D1D1B" stroke-width="0.351977" stroke-miterlimit="10" stroke-linecap="round"/>
<path d="M16.5042 159.894C14.6057 163.994 14.3648 167.937 14.7107 171.793C17.1268 173.074 19.7478 173.691 22.5687 174.06C22.5866 173.525 22.6609 173.01 22.6788 172.492C22.6968 171.975 23.14 171.736 23.6576 172.18C27.347 175.39 32.402 176.199 38.1206 175.961C41.3704 175.861 44.6108 175.559 47.8232 175.057C49.299 174.816 49.299 173.709 48.5919 172.18C46.7958 168.124 43.5497 164.537 37.7568 161.718L16.5042 159.894Z" fill="#5C7174"/>
<path d="M15.915 161.257C14.5494 164.893 14.4033 168.359 14.7159 171.793C16.0667 172.496 17.4972 173.034 18.9767 173.396C18.4975 171.055 18.4412 168.692 19.1253 166.422C19.242 166.122 19.4439 165.863 19.7061 165.677C19.9683 165.49 20.2794 165.384 20.601 165.372C25.8584 165.521 30.8494 165.538 34.4901 163.215C28.2924 162.569 22.1127 161.923 15.915 161.257Z" fill="#506261"/>
<path d="M46.8139 175.205C47.147 175.167 47.4954 175.113 47.8387 175.057C49.3145 174.816 49.3145 173.709 48.6074 172.18C46.796 168.124 43.5498 164.537 37.7569 161.718C37.5904 161.701 37.4059 161.701 37.2214 161.683C41.372 164.819 45.374 168.306 47.311 173.248C47.5697 173.894 47.311 174.56 46.8139 175.205Z" fill="#A4A7A7"/>
<path d="M16.5042 159.894C14.6057 163.994 14.3648 167.937 14.7107 171.793C17.1268 173.074 19.7478 173.691 22.5687 174.06C22.5866 173.525 22.6609 173.01 22.6788 172.492C22.6968 171.975 23.14 171.736 23.6576 172.18C27.347 175.39 32.402 176.199 38.1206 175.961C41.3704 175.861 44.6108 175.559 47.8232 175.057C49.299 174.816 49.299 173.709 48.5919 172.18C46.7958 168.124 43.5497 164.537 37.7568 161.718L16.5042 159.894Z" stroke="#1D1D1B" stroke-width="0.359629" stroke-miterlimit="10" stroke-linecap="round"/>
<path d="M62.235 110.159C62.9371 125.324 62.4195 142.682 61.884 158.951C56.2474 162.623 47.4415 162.587 37.0317 160.817C37.6774 146.797 38.1949 133.108 38.8585 119.088C46.6456 116.119 54.4377 113.143 62.235 110.159Z" fill="#65A5D0"/>
<path d="M62.2351 110.159C62.9371 125.324 62.4196 142.682 61.8841 158.951C61.486 159.214 61.0737 159.454 60.6492 159.671L61.2589 110.528C61.5895 110.418 61.9046 110.29 62.2351 110.159Z" fill="#8CC9EF"/>
<path d="M43.5676 161.701C41.4821 161.498 39.2864 161.203 37.0369 160.817C37.6646 147.553 38.1437 134.601 38.7535 121.376C46.1323 118.441 53.5171 115.509 60.9079 112.578C59.0068 118.996 53.3446 121.635 46.9983 123.884C45.9273 124.253 44.9127 125.36 44.841 126.485C44.2671 135.8 44.5259 145.321 44.1749 154.801C44.0826 154.875 43.9725 154.949 43.8802 155.024C43.77 157.255 43.6778 159.469 43.5676 161.701Z" fill="#6798B8"/>
<path d="M62.235 110.159C62.9371 125.324 62.4195 142.682 61.884 158.951C56.2474 162.623 47.4415 162.587 37.0317 160.817C37.6774 146.797 38.1949 133.108 38.8585 119.088C46.6456 116.119 54.4377 113.143 62.235 110.159Z" stroke="#1D1D1B" stroke-width="0.359629" stroke-miterlimit="10" stroke-linecap="round"/>
<path d="M40.1165 154.58C47.8463 155.446 55.3558 155.577 62.0685 153.123" stroke="#1D1D1B" stroke-width="0.359629" stroke-miterlimit="10" stroke-linecap="round"/>
<path d="M9.27148 103.372C9.8249 109.009 11.5774 113.5 14.3265 117.041C14.6211 121.14 15.2309 125.239 15.2104 129.339C15.1745 140.243 14.493 151.145 14.1241 162.046C19.215 165.846 33.2885 165.7 40.6879 162.543C41.0004 149.562 41.3258 136.576 41.664 123.584C53.6546 121.371 63.8927 116.649 65.4249 103.856C46.7395 103.685 27.9415 103.538 9.27148 103.372Z" fill="#65A5D0"/>
<path d="M9.30981 103.795C9.91959 109.219 11.6541 113.572 14.329 117.041C14.6236 121.14 15.2334 125.239 15.2129 129.339C15.177 140.243 14.4955 151.145 14.1265 162.046C15.3794 162.987 17.1703 163.671 19.2712 164.15C19.2676 161.814 19.3976 159.479 19.6607 157.158C19.9553 144.578 20.4703 131.996 21.1979 119.083C21.0519 117.238 20.5164 115.283 20.7009 112.959C20.7931 111.678 21.3465 111.097 23.5781 111.353C33.8521 112.48 42.6888 111.722 49.8088 108.919C36.3203 107.206 22.8206 105.498 9.30981 103.795Z" fill="#6798B8"/>
<path d="M39.0662 163.158C39.6375 162.974 40.173 162.772 40.6905 162.549C41.0031 149.567 41.3285 136.581 41.6667 123.589C53.6573 121.376 63.8954 116.654 65.4275 103.861H64.7819C64.1721 113.582 51.9227 120.648 42.3687 122.493C40.524 122.844 40.4138 123.518 40.4138 124.835C40.3933 134.097 39.453 146.197 39.6016 156.564C39.57 158.771 39.3911 160.974 39.0662 163.158Z" fill="#8CC9EF"/>
<path d="M14.4392 155.208C20.952 158.916 32.6839 159.359 40.8288 156.074" stroke="#1D1D1B" stroke-width="0.359629" stroke-miterlimit="10" stroke-linecap="round"/>
<path d="M9.27148 103.372C9.8249 109.009 11.5774 113.5 14.3265 117.041C14.6211 121.14 15.2309 125.239 15.2104 129.339C15.1745 140.243 14.493 151.145 14.1241 162.046C19.215 165.846 33.2885 165.7 40.6879 162.543C41.0004 149.562 41.3258 136.576 41.664 123.584C53.6546 121.371 63.8927 116.649 65.4249 103.856C46.7395 103.685 27.9415 103.538 9.27148 103.372Z" stroke="#1D1D1B" stroke-width="0.359629" stroke-miterlimit="10" stroke-linecap="round"/>
<path d="M61.4974 66.8826C64.9664 68.653 68.4534 70.8487 71.2333 74.2435C72.8653 76.2665 73.8945 78.7084 74.2028 81.2893C74.8305 86.2905 72.9217 90.6435 71.2333 95.1066C71.4357 96.3621 71.5459 97.5611 71.3076 98.6936C71.0847 99.6723 70.4032 100.538 69.6089 101.386C70.6056 101.571 71.4537 101.996 71.8405 102.826C72.2274 103.656 72.0455 104.745 71.3281 105.555C70.2034 106.81 68.7071 106.81 67.362 106.792C66.0169 106.774 65.1304 105.998 64.2875 105.206C63.8058 101.166 63.3446 97.1256 62.8655 93.1031C60.5408 89.2668 58.229 85.4365 55.9299 81.6121C57.79 76.7014 59.6458 71.7916 61.4974 66.8826Z" fill="#FFD709"/>
<path d="M62.2737 68.4583C64.5591 70.8206 64.1722 73.5492 63.1756 76.2804C62.494 78.143 61.7562 80.0057 61.5358 81.981C61.2386 84.5636 62.2532 87.3614 62.6785 89.9235C61.0362 87.6535 58.9532 85.1632 57.3289 82.8573C57.5313 81.6403 57.7542 80.4233 57.9745 79.1884C59.3939 75.61 60.827 72.0333 62.2737 68.4583Z" fill="#E8C411"/>
<path d="M62.4758 67.4002C65.6118 69.0784 68.7094 71.1639 71.2382 74.2436C72.8702 76.2666 73.8993 78.7084 74.2077 81.2893C74.8354 86.2905 72.9266 90.6435 71.2382 95.1067C71.4406 96.3621 71.5508 97.5612 71.3125 98.6936C71.0896 99.6723 70.4081 100.538 69.6138 101.386C70.6105 101.571 71.4585 101.996 71.8454 102.826C72.2323 103.656 72.0504 104.745 71.333 105.555C71.1044 105.817 70.8364 106.042 70.5387 106.221C70.964 105.37 71.2228 104.561 71.1101 103.618C71.0383 103.085 70.4465 102.788 69.9853 102.475C69.7829 102.347 69.2654 102.234 69.1373 102.457C68.8964 102.88 69.6907 103.969 69.1936 103.951C68.4916 103.951 68.3251 102.901 68.425 102.088C68.5249 101.276 69.3115 100.187 69.6625 99.4494C69.9276 98.9372 70.0961 98.3804 70.1595 97.8071C70.2159 96.831 69.7906 95.8523 69.9187 94.894C70.0468 93.9358 70.5464 93.0493 70.8616 92.109C71.8198 89.3035 72.8344 86.352 72.7421 83.2544C72.6774 80.2349 71.5765 77.3293 69.6241 75.025C67.4668 72.5167 64.6997 70.5977 62.6321 68.1996L62.4758 67.4002Z" fill="#FFE047"/>
<path d="M61.4974 66.8826C64.9664 68.653 68.4534 70.8487 71.2333 74.2435C72.8653 76.2665 73.8945 78.7084 74.2028 81.2893C74.8305 86.2905 72.9217 90.6435 71.2333 95.1066C71.4357 96.3621 71.5459 97.5611 71.3076 98.6936C71.0847 99.6723 70.4032 100.538 69.6089 101.386C70.6056 101.571 71.4537 101.996 71.8405 102.826C72.2274 103.656 72.0455 104.745 71.3281 105.555C70.2034 106.81 68.7071 106.81 67.362 106.792C66.0169 106.774 65.1304 105.998 64.2875 105.206C63.8058 101.166 63.3446 97.1256 62.8655 93.1031C60.5408 89.2668 58.229 85.4365 55.9299 81.6121C57.79 76.7014 59.6458 71.7916 61.4974 66.8826Z" stroke="#1D1D1B" stroke-width="0.359629" stroke-miterlimit="10" stroke-linecap="round"/>
<path d="M60.7696 80.7563C60.0496 82.5268 60.106 84.7763 60.2341 86.4749" stroke="#1D1D1B" stroke-width="0.359629" stroke-miterlimit="10" stroke-linecap="round"/>
<path d="M69.6703 101.343C68.876 102.081 68.73 102.688 69.227 104.036" stroke="#1D1D1B" stroke-width="0.359629" stroke-miterlimit="10" stroke-linecap="round"/>
<path d="M48.0486 62.6398C53.5827 62.4937 58.6941 63.8568 63.2879 67.0312C64.4665 74.077 61.4048 79.6495 54.833 83.9846C52.5664 76.879 50.3049 69.7641 48.0486 62.6398Z" fill="white"/>
<path d="M60.667 78.635C59.5331 80.1483 58.1988 81.5006 56.7009 82.6549C56.1295 81.8248 55.5761 81.0126 55.0048 80.1825C54.5052 78.1328 53.9799 76.0703 53.4675 74.0334C54.8895 75.5451 56.2167 76.9465 57.7104 78.5888C58.5456 79.501 59.6166 79.0577 60.667 78.635Z" fill="#C1BDB7"/>
<path d="M48.0486 62.6398C53.5827 62.4937 58.6941 63.8568 63.2879 67.0312C64.4665 74.077 61.4048 79.6495 54.833 83.9846C52.5664 76.879 50.3049 69.7641 48.0486 62.6398Z" stroke="#1D1D1B" stroke-width="0.359629" stroke-miterlimit="10" stroke-linecap="round"/>
<path d="M46.5012 56.3318C48.4561 56.9596 50.3444 57.6411 51.979 58.8401C53.3424 61.5984 54.353 64.5174 54.9869 67.5282C53.0679 67.085 51.1437 66.2471 49.2478 65.499C48.4382 64.7432 47.6439 63.9618 46.8317 63.1931L46.5012 56.3318Z" fill="#C1BDB7" stroke="#1D1D1B" stroke-width="0.359629" stroke-miterlimit="10" stroke-linecap="round"/>
<path d="M46.5012 56.3318C48.3254 56.9211 50.1163 57.5488 51.6664 58.6198C50.411 60.444 49.545 62.5116 48.4177 64.5126C47.977 64.0873 47.2929 63.6261 46.8317 63.1829L46.5012 56.3318Z" fill="white" stroke="#1D1D1B" stroke-width="0.359629" stroke-miterlimit="10" stroke-linecap="round"/>
<path d="M49.6731 62.1247C53.2601 66.8083 55.466 73.1418 56.8854 80.4053C61.6637 85.3117 66.4779 90.4769 67.2901 105.001C67.3465 105.98 66.7546 106.539 66.0347 106.795C45.1536 113.951 26.2812 111.811 8.35171 105.153C7.55746 104.858 7.28075 104.028 7.39348 102.921C7.9469 97.6635 9.69937 93.0133 12.0053 88.6424C15.1942 81.1884 18.3917 73.7114 21.5977 66.2113C21.9667 64.3666 23.053 62.5039 24.4929 60.6387C28.81 59.3577 33.1067 58.0561 37.4238 56.7956C41.5009 58.5532 45.584 60.3296 49.6731 62.1247Z" fill="white"/>
<path d="M21.8923 65.0943C22.4048 63.6006 23.3502 62.1248 24.4929 60.6286C25.3588 60.3723 26.2274 60.1161 27.0754 59.8599C27.5725 60.1161 28.0721 60.3723 28.5691 60.6286C27.6468 62.732 26.7757 64.8714 25.5254 66.6418C24.3263 66.1089 23.1068 65.6093 21.8923 65.0943Z" fill="#C1BDB7"/>
<path d="M15.2514 107.448C12.9455 106.767 10.6397 105.99 8.35171 105.142C7.55746 104.848 7.28075 104.018 7.39348 102.911C7.6705 100.292 8.24557 97.713 9.10752 95.2244L16.9578 103.538L15.2514 107.448Z" fill="#C1BDB7"/>
<path d="M49.6731 62.1247C53.2601 66.8083 55.466 73.1417 56.8854 80.4053C61.6637 85.3117 66.4779 90.4769 67.2901 105.001C67.3465 105.98 66.7546 106.539 66.0347 106.795C45.1536 113.951 26.2812 111.811 8.35171 105.153C7.55746 104.858 7.28075 104.028 7.39348 102.921C7.9469 97.6635 9.69937 93.0133 12.0053 88.6424C15.1942 81.1884 18.3917 73.7114 21.5977 66.2113C21.9667 64.3666 23.053 62.5039 24.4929 60.6387C28.81 59.3577 33.1067 58.0561 37.4238 56.7956C41.5009 58.5532 45.584 60.3296 49.6731 62.1247Z" stroke="#1D1D1B" stroke-width="0.359629" stroke-miterlimit="10" stroke-linecap="round"/>
<path d="M25.4715 64.5767C30.8007 68.3046 29.9168 74.2794 27.265 80.0902C26.6578 81.4379 25.5868 82.4525 24.6824 83.6157C24.5687 83.783 24.4231 83.9262 24.254 84.0371C24.0849 84.148 23.8955 84.2245 23.6967 84.2621C23.498 84.2997 23.2938 84.2977 23.0958 84.2562C22.8978 84.2148 22.71 84.1347 22.5431 84.0205C19.2969 81.8247 16.1967 79.4266 13.0249 77.1387C11.193 75.5527 9.33034 73.9668 7.47795 72.3809C6.64783 71.3842 6.6094 70.3517 7.54968 69.4114C10.3449 66.6239 13.5168 64.4102 17.3343 63.5903C20.1219 62.9908 23.0529 62.9165 25.4715 64.5767Z" fill="white"/>
<path d="M25.4717 64.5767C25.5998 64.6869 25.7279 64.7791 25.8585 64.8714C18.8307 64.651 13.8167 67.2336 11.6722 72.509C10.9164 73.1546 10.5833 73.7465 9.84545 74.3921C9.05376 73.726 8.27744 73.0624 7.48576 72.3809C6.65564 71.3842 6.61721 70.3517 7.5575 69.4114C10.3451 66.6239 13.5169 64.4102 17.3344 63.5903C20.122 62.9908 23.053 62.9165 25.4717 64.5767Z" fill="#C1BDB7"/>
<path d="M23.8473 82.6011C23.9754 83.4107 23.6449 84.1383 23.0787 84.2049C22.5125 84.2715 21.9898 83.7079 21.8796 82.9239C21.7694 82.1399 22.082 81.4123 22.6354 81.32C23.1889 81.2278 23.7192 81.8068 23.8473 82.6011Z" fill="#C1BDB7"/>
<path d="M25.4715 64.5767C30.8007 68.3046 29.9168 74.2794 27.265 80.0902C26.6578 81.4379 25.5868 82.4525 24.6824 83.6157C24.5687 83.783 24.4231 83.9262 24.254 84.0371C24.0849 84.148 23.8955 84.2245 23.6967 84.2621C23.498 84.2997 23.2938 84.2977 23.0958 84.2562C22.8978 84.2148 22.71 84.1347 22.5431 84.0205C19.2969 81.8247 16.1967 79.4266 13.0249 77.1387C11.193 75.5527 9.33034 73.9668 7.47795 72.3809C6.64783 71.3842 6.6094 70.3517 7.54968 69.4114C10.3449 66.6239 13.5168 64.4102 17.3343 63.5903C20.1219 62.9908 23.0529 62.9165 25.4715 64.5767Z" stroke="#1D1D1B" stroke-width="0.359629" stroke-miterlimit="10" stroke-linecap="round"/>
<path d="M9.58662 70.1493C9.08957 70.5361 8.62839 70.9409 8.16722 71.3278C7.04388 72.306 5.9956 73.3671 5.03122 74.5023C2.994 76.8936 1.64834 79.7957 1.1394 82.8957C0.370767 87.8021 2.89187 92.3959 5.9715 96.6208C7.50876 98.7422 9.79158 100.382 11.9847 102.173C12.3921 102.941 12.779 103.795 13.5732 104.422C13.9642 104.683 14.3774 104.908 14.8082 105.096C13.9601 105.319 13.4989 105.865 13.4989 106.592C13.481 109.303 15.6024 110.612 18.3669 110.538C20.8368 110.484 22.8301 109.119 23.4911 106.167C24.8208 105.855 25.779 104.802 26.1839 102.644C27.2087 101.537 27.6058 100.32 27.2907 99.0574C26.645 96.3262 24.7824 95.5703 23.4475 94.0946C21.5465 91.9732 21.362 88.4862 19.6454 85.7191C20.8041 84.7548 21.8726 83.6872 22.8378 82.5293C23.281 82.0169 23.7242 81.4583 24.1188 80.9049C24.3391 77.9175 22.7916 74.0795 19.525 71.6455C16.4453 69.2986 12.9814 68.9861 9.58662 70.1493Z" fill="#FFD709"/>
<path d="M19.6608 110.364C21.5055 109.921 22.9428 108.57 23.5039 106.157C24.8336 105.844 25.7919 104.791 26.1967 102.634C27.2215 101.527 27.6186 100.31 27.3035 99.0471C26.6578 96.3159 24.7952 95.5601 23.4603 94.0843C21.7079 92.1294 21.4107 89.0114 20.0476 86.398C19.9554 86.3596 19.8427 86.3237 19.7504 86.2853C18.9588 84.8838 18.2567 83.7232 17.3523 82.3935C17.1226 82.0786 16.8421 81.8041 16.5222 81.5813C16.1917 81.343 15.5998 81.8221 16.266 82.2654C16.9321 82.7086 19.3815 86.8028 19.917 89.0524C20.3049 90.8747 21.0306 92.6083 22.0563 94.1637C23.0812 95.7497 25.1308 97.041 26.0609 98.7012C26.4334 99.3272 26.6659 100.026 26.7424 100.751C26.7808 101.028 26.5759 101.507 26.3196 101.453C25.9123 101.361 25.9302 100.623 25.5254 100.492C25.2846 100.42 25.0463 100.789 24.9899 101.046C24.7516 102.191 24.9899 103.408 24.6953 104.533C24.603 104.866 24.2341 105.288 23.8831 105.235C23.5321 105.181 23.5705 104.533 23.2938 104.274C23.1452 104.164 22.8326 104.089 22.7583 104.256C22.4816 104.809 22.6097 106.175 22.3894 106.746C21.7617 108.314 20.7676 109.385 19.6608 110.364Z" fill="#FFE047"/>
<path d="M9.58662 70.1493C9.08957 70.5362 8.62839 70.941 8.16722 71.3279C7.04388 72.306 5.9956 73.3671 5.03122 74.5023C2.994 76.8936 1.64834 79.7958 1.1394 82.8957C0.370767 87.8021 2.89187 92.396 5.9715 96.6209C7.50876 98.7423 9.79158 100.382 11.9847 102.173C12.3921 102.942 12.779 103.795 13.5732 104.422C13.9642 104.683 14.3774 104.909 14.8082 105.096C13.9601 105.319 13.4989 105.865 13.4989 106.593C13.481 109.303 15.6024 110.612 18.3669 110.538C18.7004 110.537 19.033 110.506 19.361 110.446C18.4771 110.261 17.6649 110.005 17.2601 109.598C17.1115 109.431 17.278 109.085 17.4446 108.916C17.7008 108.622 18.0902 108.934 18.3105 108.622C19.0484 107.515 18.5668 105.632 17.6828 105.153C16.7989 104.674 16.1456 104.174 15.3769 103.751C14.4352 103.054 13.6286 102.191 12.9968 101.204C12.1487 99.9234 10.8215 99.0292 9.78902 97.8737C5.36429 93.0775 3.12246 87.1744 3.40685 83.5747C3.64768 80.8256 6.22515 76.0857 10.6934 73.2623C11.1242 72.9787 11.5745 72.7261 12.0411 72.5064C13.9422 71.5482 16.2096 70.9384 19.9554 71.953C19.8068 71.8429 19.6787 71.7327 19.5301 71.6225C16.4453 69.2987 12.9814 68.9861 9.58662 70.1493Z" fill="#E8C411"/>
<path d="M9.58662 70.1493C9.08957 70.5361 8.62839 70.9409 8.16722 71.3278C7.04388 72.306 5.9956 73.3671 5.03121 74.5023C2.994 76.8936 1.64834 79.7957 1.1394 82.8957C0.370767 87.8021 2.89187 92.3959 5.9715 96.6208C7.50876 98.7422 9.79158 100.382 11.9847 102.173C12.3921 102.941 12.779 103.795 13.5732 104.422C13.9642 104.683 14.3774 104.908 14.8082 105.096C13.9601 105.319 13.4989 105.865 13.4989 106.592C13.481 109.303 15.6024 110.612 18.3669 110.538C20.8368 110.484 22.8301 109.119 23.4911 106.167C24.8208 105.855 25.779 104.802 26.1839 102.644C27.2087 101.537 27.6058 100.32 27.2907 99.0574C26.645 96.3262 24.7824 95.5703 23.4475 94.0946C21.5465 91.9732 21.362 88.4862 19.6454 85.7191C20.8041 84.7548 21.8726 83.6872 22.8378 82.5293C23.281 82.0169 23.7242 81.4583 24.1188 80.9049C24.3391 77.9175 22.7916 74.0795 19.525 71.6455C16.4453 69.2986 12.9814 68.9861 9.58662 70.1493Z" stroke="#1D1D1B" stroke-width="0.359629" stroke-miterlimit="10" stroke-linecap="round"/>
<path d="M16.5427 81.6787C17.723 82.8923 18.7551 84.2417 19.6172 85.6986" stroke="#1D1D1B" stroke-width="0.359629" stroke-miterlimit="10" stroke-linecap="round"/>
<path d="M25.5254 100.605C25.9866 101.343 26.2633 102.357 26.0788 103.095" stroke="#1D1D1B" stroke-width="0.359629" stroke-miterlimit="10" stroke-linecap="round"/>
<path d="M23.2582 104.276C23.4441 104.721 23.5366 105.2 23.53 105.682C23.5234 106.164 23.4178 106.64 23.2197 107.079" stroke="#1D1D1B" stroke-width="0.359629" stroke-miterlimit="10" stroke-linecap="round"/>
<path d="M14.698 105.032C15.2754 105.278 15.836 105.561 16.3762 105.88C16.781 106.136 17.2422 106.434 17.4471 106.877C17.5239 107.045 17.5558 107.23 17.5396 107.414C17.5235 107.598 17.4598 107.775 17.3549 107.927C17.3039 107.972 17.2442 108.006 17.1794 108.027C17.1146 108.048 17.0463 108.055 16.9786 108.048C16.911 108.041 16.8455 108.02 16.7863 107.987C16.7272 107.953 16.6756 107.907 16.6349 107.853" stroke="#1D1D1B" stroke-width="0.359629" stroke-miterlimit="10" stroke-linecap="round"/>
<path d="M7.63159 70.9794C11.6541 68.9298 15.8303 68.858 19.53 71.6251C23.6805 74.7227 25.0461 80.08 23.5524 83.0623" stroke="#1D1D1B" stroke-width="0.359629" stroke-miterlimit="10" stroke-linecap="round"/>
<path d="M48.5101 52.7527C48.4922 56.2218 47.8465 60.1136 49.6733 62.0505C48.7151 63.7287 47.9208 65.3812 46.9242 67.0133C46.7576 67.29 46.6474 67.805 46.3349 67.7819C45.8737 67.7256 45.597 67.1926 45.31 66.8416C43.6498 64.774 42.0997 62.6347 40.5138 60.5312L26.5863 57.654C28.0057 52.6374 28.1235 47.5824 27.6111 42.4915C26.2871 37.2347 24.4195 32.13 22.0385 27.2599C20.7575 24.7131 19.5123 22.1126 19.438 19.2892C19.3099 14.4391 21.1905 10.491 24.862 8.0749C27.7956 6.13796 31.011 4.6622 34.5287 4.27276C37.9235 3.90382 41.1518 4.45723 43.7343 6.284C47.2572 8.79229 49.3966 12.6662 50.7442 17.2062C52.2815 18.1081 53.2884 19.2713 52.5377 21.3184C51.7255 25.451 50.9338 29.5837 50.1216 33.7163L48.5101 52.7527Z" fill="#FFD709"/>
<path d="M29.566 58.2688L26.5786 57.659C27.998 52.6425 28.1158 47.5874 27.6034 42.4966C26.2822 37.2383 24.4172 32.1319 22.0385 27.2598C20.7575 24.7131 19.5123 22.1126 19.438 19.2891C19.3099 14.4391 21.1905 10.4909 24.862 8.07485C27.7956 6.13791 31.011 4.66214 34.5287 4.2727C35.7546 4.13884 36.9911 4.13283 38.2182 4.25477C32.9044 4.91835 28.6436 6.48635 26.079 9.45838C23.3298 12.6046 23.2581 17.593 25.8945 23.6985C28.1081 28.8073 30.6728 33.788 31.2441 40.1343C31.9462 47.6617 31.5618 53.9338 29.566 58.2688Z" fill="#E8C411"/>
<path d="M34.49 4.27276H34.5284C37.9232 3.90382 41.1514 4.45723 43.734 6.284C47.2569 8.79229 49.3962 12.6662 50.7439 17.2062C52.2812 18.1081 53.2881 19.2712 52.5374 21.3184C52.5015 21.5208 52.4631 21.7052 52.4272 21.8897C52.0941 21.7052 51.7816 21.5028 51.4664 21.3184C51.3742 20.7291 51.5049 20.0655 51.1897 19.5659C50.6927 18.7973 49.6525 18.4591 49.1605 17.6674C48.2766 16.2095 47.7591 14.5493 47.1698 12.9634C46.3808 10.7342 44.9334 8.79714 43.0192 7.40876C40.8747 5.60248 37.6644 4.58789 34.49 4.27276Z" fill="#FFE047"/>
<path d="M22.0589 36.4834C21.5846 34.6216 21.3064 32.7153 21.2288 30.7955C22.7225 31.8204 24.1982 32.8606 25.6919 33.9136C25.8585 32.051 26.0045 30.2063 26.171 28.3411C27.463 29.855 28.6292 31.472 29.658 33.1757" stroke="#1D1D1B" stroke-width="0.359629" stroke-miterlimit="10" stroke-linecap="round"/>
<path d="M38.5871 4.2548C36.7603 1.35964 33.1272 0.214383 30.4883 1.56204C27.7776 2.96351 26.061 5.84074 27.5188 10.2322" stroke="#1D1D1B" stroke-width="0.359629" stroke-miterlimit="10" stroke-linecap="round"/>
<path d="M31.5617 4.80825C30.086 3.78341 28.6281 3.271 26.9115 3.5272C24.5313 3.91664 23.0684 5.35398 22.1896 7.19868C21.1647 9.3201 21.526 11.4979 22.8711 13.5271" stroke="#1D1D1B" stroke-width="0.359629" stroke-miterlimit="10" stroke-linecap="round"/>
<path d="M48.5101 52.7527C48.4922 56.2218 47.8286 60.1828 49.6553 62.1248C49.3043 62.732 46.837 67.8434 46.3246 67.787C45.8634 67.7307 45.5867 67.1978 45.2998 66.8468C43.6395 64.7791 42.0895 62.6398 40.5035 60.5363L26.576 57.6591C27.9954 52.6425 28.1133 47.5875 27.6008 42.4966C26.2805 37.2385 24.4163 32.132 22.0385 27.2599C20.7575 24.7131 19.5123 22.1126 19.438 19.2892C19.3099 14.4391 21.1905 10.491 24.862 8.0749C27.7956 6.13796 31.011 4.6622 34.5287 4.27276C37.9235 3.90382 41.1518 4.45723 43.7343 6.284C47.2572 8.79229 49.3966 12.6662 50.7442 17.2062C52.2815 18.1081 53.2884 19.2713 52.5377 21.3184C51.7255 25.451 50.9338 29.5837 50.1216 33.7163L48.5101 52.7527Z" stroke="#1D1D1B" stroke-width="0.359629" stroke-miterlimit="10" stroke-linecap="round"/>
<path d="M30.3217 41.3717C29.8247 42.2198 28.6615 42.6989 27.6648 42.6989C26.0251 42.681 24.4186 41.7586 24.0497 40.1163C23.773 38.7892 23.9754 37.0725 24.9721 36.1502C25.8765 35.3201 27.5188 35.4123 28.6435 35.9094C29.548 36.2988 29.8605 37.4979 30.1552 38.4381C30.4498 39.3784 30.8213 40.5314 30.3217 41.3717Z" fill="#E8C411"/>
<path d="M27.1318 42.5811C25.9327 41.4743 25.4331 40.329 25.4152 39.0198C25.4152 38.2281 26.2812 37.3416 27.0754 37.3058C27.5187 37.2853 27.9055 36.7319 27.7954 36.4014C27.6288 35.9402 27.0267 35.6635 26.4656 35.6993C25.4715 35.7378 24.4365 36.6217 24.088 37.5825C23.8978 38.1758 23.8371 38.803 23.9101 39.4218C23.983 40.0406 24.1878 40.6366 24.5108 41.1694C25.0283 42.0175 26.2632 42.1097 27.1318 42.5811Z" fill="#FFE047"/>
<path d="M30.3217 41.3717C29.8247 42.2198 28.6615 42.6989 27.6648 42.6989C26.0251 42.681 24.4186 41.7586 24.0497 40.1163C23.773 38.7892 23.9754 37.0725 24.9721 36.1502C25.8765 35.3201 27.5188 35.4123 28.6435 35.9094" stroke="#1D1D1B" stroke-width="0.359629" stroke-miterlimit="10" stroke-linecap="round"/>
<path d="M25.71 38.843C26.7348 37.4979 28.8101 37.9591 28.9203 39.1582" stroke="#1D1D1B" stroke-width="0.359629" stroke-miterlimit="10" stroke-linecap="round"/>
<path d="M27.3521 40.4674C26.8909 40.1164 26.7423 39.7295 26.8551 39.2504C26.9075 38.9831 27.03 38.7346 27.2101 38.5302C27.3902 38.3258 27.6213 38.1729 27.8799 38.0872" stroke="#1D1D1B" stroke-width="0.359629" stroke-miterlimit="10" stroke-linecap="round"/>
<path d="M41.1133 61.1819C40.8571 61.0179 40.6342 60.6695 40.3575 60.7207C39.4351 60.9257 38.9381 62.3272 38.4205 63.4161C37.6263 65.1685 36.8525 66.9389 36.0583 68.7093C31.3364 66.7545 26.927 64.5767 23.0352 61.8839C21.9668 61.1153 22.0385 60.1878 22.5919 59.1912C23.5527 57.3977 24.4366 55.6042 25.4102 53.9337C25.9226 53.0293 26.535 52.7706 27.5316 53.0293C27.4573 53.6186 27.383 54.1541 27.2908 54.7639C30.6647 56.6493 34.2179 58.1942 37.8979 59.3756C38.6358 59.6318 39.6503 59.929 40.3344 60.3159C40.6525 60.5461 40.9181 60.8413 41.1133 61.1819Z" fill="white"/>
<path d="M27.4445 64.5946C25.9073 63.7466 24.4366 62.8421 23.0352 61.8839C21.9668 61.1153 22.0385 60.1878 22.5919 59.1912C23.5527 57.3977 24.4366 55.6042 25.4102 53.9337C25.9226 53.0293 26.6272 52.7706 27.6059 53.0293C27.4394 53.6186 27.3292 54.1541 27.1627 54.7639C28.2883 55.3702 29.4131 55.9416 30.537 56.4779C28.8281 58.5814 27.8135 61.2844 27.4445 64.5946Z" fill="#C1BDB7"/>
<path d="M41.0211 61.2203C40.8545 60.9974 40.6342 60.6669 40.3575 60.7207C39.4351 60.9257 38.9381 62.3272 38.4205 63.4161C37.6263 65.1685 36.8525 66.9389 36.0583 68.7093C31.3364 66.7545 26.927 64.5767 23.0352 61.8839C21.9668 61.1153 22.0385 60.1878 22.5919 59.1912C23.5527 57.3977 24.4366 55.6042 25.4102 53.9337C25.9226 53.0293 26.535 52.7706 27.5316 53.0293C27.4573 53.6186 27.383 54.1541 27.2908 54.7639C30.6647 56.6493 34.2179 58.1942 37.8979 59.3756C38.6358 59.6318 39.6503 59.929 40.3344 60.3159C40.6521 60.5004 40.8187 60.9052 41.0211 61.2203Z" stroke="#1D1D1B" stroke-width="0.359629" stroke-miterlimit="10" stroke-linecap="round"/>
<path d="M49.6553 35.2843C53.6573 36.0401 56.0016 38.843 56.6831 43.7392C57.6413 44.4592 58.4176 45.2329 58.3433 46.0451C58.1409 48.7199 55.0126 49.3297 52.8092 49.6807C52.8451 51.5792 51.7024 52.6322 49.7834 53.1293C49.1941 54.5128 47.7722 55.4915 46.0402 56.0987C43.0502 57.1518 40.1166 56.3934 37.4802 54.8638C35.0437 53.4239 33.8267 51.3768 33.4398 49.199C32.7942 45.5096 33.6243 42.5376 35.7098 40.7441C37.5475 39.1084 39.7682 37.9628 42.1663 37.4134C44.9334 36.8318 47.1649 35.9838 49.6553 35.2843Z" fill="#C9AB78"/>
<path d="M50.5774 35.5047C54.026 36.4834 56.0611 39.2257 56.6828 43.7316C57.6411 44.4515 58.4174 45.2253 58.3431 46.0375C58.1765 48.1973 56.1115 49.0069 54.1746 49.4322C55.2634 48.7302 56.2396 47.9923 56.793 46.9983C56.887 46.7881 56.9326 46.5595 56.9264 46.3293C56.9201 46.0992 56.8623 45.8733 56.7571 45.6685C56.5342 45.1561 55.945 44.8768 55.6503 44.4157C55.4245 44.0605 55.268 43.6658 55.1891 43.2525C54.874 41.7767 54.5051 40.3368 53.6211 38.7893C52.9012 37.5339 51.7764 36.6474 50.5466 35.9095C50.5471 35.774 50.5574 35.6387 50.5774 35.5047Z" fill="#DEC291"/>
<path d="M48.2897 54.9305C47.6053 55.4328 46.8462 55.8245 46.0402 56.0911C43.0502 57.1441 40.1166 56.3858 37.4802 54.8562C35.0437 53.4163 33.8267 51.3692 33.4398 49.1914C32.7942 45.502 33.6243 42.53 35.7098 40.7365C37.5475 39.1008 39.7682 37.9552 42.1663 37.4058C42.4609 37.3315 42.7556 37.2751 43.0323 37.2034C41.0774 37.9592 39.0841 38.9174 37.5725 40.3752C35.5612 42.2942 34.5646 44.7103 34.6747 47.257C34.7186 48.5921 35.0926 49.8956 35.7632 51.0508C36.4339 52.2061 37.3803 53.1773 38.5179 53.8775C41.6129 55.8528 44.9692 55.9809 48.2897 54.9305Z" fill="#B39661"/>
<path d="M49.6553 35.2843C53.6573 36.0401 56.0016 38.843 56.6831 43.7392C57.6413 44.4592 58.4176 45.2329 58.3433 46.0451C58.1409 48.7199 55.0126 49.3297 52.8092 49.6807C52.8451 51.5792 51.7024 52.6322 49.7834 53.1293C49.1941 54.5128 47.7722 55.4915 46.0402 56.0987C43.0502 57.1518 40.1166 56.3934 37.4802 54.8638C35.0437 53.4239 33.8267 51.3768 33.4398 49.199C32.7942 45.5096 33.6243 42.5376 35.7098 40.7441C37.5475 39.1084 39.7682 37.9628 42.1663 37.4134C44.9334 36.8318 47.1649 35.9838 49.6553 35.2843Z" stroke="#1D1D1B" stroke-width="0.359629" stroke-miterlimit="10" stroke-linecap="round"/>
<path d="M37.4982 47.1929C36.2812 47.4696 35.6535 48.041 35.5972 48.889" stroke="#1D1D1B" stroke-width="0.359629" stroke-miterlimit="10" stroke-linecap="round"/>
<path d="M36.0967 47.882C38.1259 49.0068 41.0774 49.6345 43.6958 49.9112C46.7396 50.2622 50.0422 49.9676 52.8656 49.6729" stroke="#1D1D1B" stroke-width="0.359629" stroke-miterlimit="10" stroke-linecap="round"/>
<path d="M45.8555 19.2891C46.3388 19.9347 47.0513 20.3703 47.8463 20.5061C49.0095 20.7828 50.2265 20.5061 51.3692 20.747C53.0499 21.1159 54.4437 22.3713 55.0227 24.3339C55.9809 27.4699 55.1329 29.9039 52.8834 31.5077C49.6167 31.764 46.3526 32.0407 43.0885 32.2994C43.068 30.3087 43.05 28.3333 43.05 26.3426C43.1807 24.1289 43.9545 22.3559 46.0938 21.5079C46.0195 20.7649 45.9478 20.0347 45.8555 19.2891Z" fill="white"/>
<path d="M45.8556 19.2891C46.3389 19.9347 47.0514 20.3703 47.8464 20.5061C49.0096 20.7828 50.2266 20.5061 51.3692 20.747C53.05 21.1159 54.4438 22.3713 55.0228 24.3339C55.0382 24.4102 55.0632 24.4842 55.0971 24.5542C51.5102 23.2732 47.7541 23.9265 43.9725 25.3229C43.7197 25.2531 43.4631 25.1984 43.2039 25.1589C43.5344 23.5166 44.3645 22.2073 46.099 21.5233C46.0196 20.7649 45.9479 20.0347 45.8556 19.2891Z" fill="#FFD709"/>
<path d="M48.9531 20.6368C49.7653 20.6547 50.5775 20.5804 51.3692 20.747C53.0499 21.1159 54.4437 22.3713 55.0227 24.3339C55.0382 24.4102 55.0631 24.4842 55.097 24.5542C54.5452 24.3517 53.9768 24.1974 53.3984 24.0931C52.8437 23.346 52.1854 22.6817 51.4435 22.1203C50.65 21.5667 49.8177 21.071 48.9531 20.6368Z" fill="#FFE047"/>
<path d="M55.0229 24.3262C55.9811 27.4622 55.1331 29.8962 52.8835 31.5" stroke="#1D1D1B" stroke-width="0.359629" stroke-miterlimit="10" stroke-linecap="round"/>
<path d="M45.8556 19.2891C46.3389 19.9347 47.0514 20.3703 47.8464 20.5061C49.0096 20.7828 50.2266 20.5061 51.3692 20.747C53.05 21.1159 54.4438 22.3713 55.0228 24.3339C55.0382 24.4102 55.0632 24.4842 55.0971 24.5542C51.5102 23.2732 47.7541 23.9265 43.9725 25.3229C43.7197 25.2531 43.4631 25.1984 43.2039 25.1589C43.5344 23.5166 44.3645 22.2073 46.099 21.5233" stroke="#1D1D1B" stroke-width="0.359629" stroke-miterlimit="10" stroke-linecap="round"/>
<path d="M51.6459 26.5399C52.0945 26.5399 52.4581 26.1763 52.4581 25.7277C52.4581 25.2792 52.0945 24.9155 51.6459 24.9155C51.1974 24.9155 50.8337 25.2792 50.8337 25.7277C50.8337 26.1763 51.1974 26.5399 51.6459 26.5399Z" fill="#1D1D1B"/>
<path d="M42.5145 29.453C43.5394 30.0628 44.5642 30.8186 45.8453 30.8365C47.7643 30.8186 49.609 30.1371 51.4357 30.3574C53.0601 30.524 53.8518 31.723 53.9082 33.1424C53.9825 34.7104 53.1395 35.561 52.1557 36.0222C50.1624 36.9804 48.023 36.9446 45.8658 36.9625C44.3788 37.0109 42.901 37.2144 41.4564 37.5697C41.1874 35.9197 42.7733 31.0953 42.5145 29.453Z" fill="#FFD709"/>
<path d="M53.7137 34.4337C53.4203 35.1488 52.8569 35.7195 52.1457 36.0222C50.1524 36.9804 48.013 36.9446 45.8557 36.9625C44.6497 36.9938 43.4491 37.1353 42.2688 37.3852C42.9144 36.8523 43.9828 36.4091 45.7558 36.1324C46.9907 35.93 48.2641 35.9838 49.517 35.8377C50.207 35.7683 50.8874 35.624 51.5461 35.4073C52.2738 35.1178 52.9937 34.7847 53.7137 34.4337Z" fill="#E8C411"/>
<path d="M43.6035 30.1191C44.2762 30.54 45.0432 30.7865 45.8351 30.8365C47.7541 30.8185 49.5988 30.137 51.4256 30.3574C53.05 30.5239 53.8416 31.723 53.898 33.1424C53.9582 33.8631 53.7471 34.5803 53.3062 35.1536C53.2655 34.4825 53.1167 33.8224 52.8655 33.1987C52.476 32.3686 51.7382 31.5743 50.8542 31.354C49.4886 31.003 48.0359 31.8664 46.6473 31.6307C45.3739 31.4104 44.139 30.8365 43.6035 30.1191Z" fill="#FFE047"/>
<path d="M42.5147 29.453C43.5395 30.0628 44.5644 30.8186 45.8454 30.8365C47.7644 30.8186 49.6091 30.1371 51.4359 30.3574C53.0603 30.524 53.852 31.723 53.9083 33.1424C53.9826 34.7104 53.1397 35.561 52.1558 36.0222C50.1625 36.9804 48.0232 36.9446 45.8659 36.9625C44.379 37.0109 42.9012 37.2144 41.4565 37.5697" stroke="#1D1D1B" stroke-width="0.359629" stroke-miterlimit="10" stroke-linecap="round"/>
<path d="M43.0501 20.8751C42.3568 21.5045 41.475 21.8872 40.5418 21.964C39.4253 22.0508 38.3051 22.0816 37.1855 22.0562C35.3543 22.0124 33.5391 22.405 31.8896 23.2015" stroke="#1D1D1B" stroke-width="0.359629" stroke-miterlimit="10" stroke-linecap="round"/>
<path d="M41.1133 21.8718C40.9248 21.9139 40.7341 21.9447 40.5419 21.964C39.4254 22.0508 38.3052 22.0816 37.1856 22.0562C35.994 22.033 34.8057 22.1885 33.6601 22.5174C33.4962 22.6481 33.3117 22.7941 33.1477 22.9427C32.455 23.551 31.8994 24.2996 31.5178 25.1388C31.1362 25.978 30.9372 26.8888 30.9341 27.8107C30.9341 31.5001 34.0701 34.4875 37.926 34.4875C41.782 34.4875 44.9154 31.5001 44.9154 27.8107C44.9009 26.5642 44.5368 25.3467 43.8646 24.2969C43.1925 23.247 42.2392 22.4068 41.1133 21.8718Z" fill="white" stroke="#1D1D1B" stroke-width="0.359629" stroke-miterlimit="10" stroke-linecap="round"/>
<path d="M41.1133 21.8718C40.9248 21.9139 40.7341 21.9447 40.5419 21.964C39.4254 22.0508 38.3052 22.0816 37.1856 22.0562C35.994 22.033 34.8057 22.1885 33.6601 22.5174C33.4962 22.6481 33.3117 22.7941 33.1477 22.9427C32.455 23.551 31.8994 24.2996 31.5178 25.1388C31.1362 25.978 30.9372 26.8888 30.9341 27.8107V27.8466C34.8259 25.4484 39.1968 24.3237 44.362 25.2076C43.706 23.7476 42.5554 22.5662 41.1133 21.8718Z" fill="#FFD709" stroke="#1D1D1B" stroke-width="0.359629" stroke-miterlimit="10" stroke-linecap="round"/>
<path d="M38.3641 28.0515C38.4942 28.0582 38.6244 28.0384 38.7467 27.9932C38.869 27.948 38.9808 27.8784 39.0753 27.7886C39.1698 27.6989 39.2451 27.5908 39.2965 27.4711C39.3479 27.3513 39.3745 27.2223 39.3745 27.0919C39.3745 26.9616 39.3479 26.8326 39.2965 26.7128C39.2451 26.5931 39.1698 26.485 39.0753 26.3953C38.9808 26.3055 38.869 26.2359 38.7467 26.1907C38.6244 26.1455 38.4942 26.1257 38.3641 26.1324C38.1182 26.1452 37.8865 26.2518 37.717 26.4303C37.5474 26.6089 37.4529 26.8457 37.4529 27.0919C37.4529 27.3382 37.5474 27.575 37.717 27.7536C37.8865 27.9321 38.1182 28.0387 38.3641 28.0515Z" fill="#1D1D1B"/>
</svg>
