<svg width="92" height="176" viewBox="0 0 92 176" fill="none" xmlns="http://www.w3.org/2000/svg">
<path d="M53.615 102.621C57.5397 105.829 58.2526 106.987 62.6469 109.555C66.2733 111.676 69.9752 113.668 72.0009 117.181C72.5461 118.103 72.8598 119.144 72.9153 120.213C72.9709 121.283 72.7665 122.35 72.3197 123.324C71.4833 125.349 70.4962 127.3 69.557 129.274C70.9898 129.939 71.8535 130.755 71.6547 131.961C71.2605 134.457 69.5981 135.763 66.3967 135.814C62.7702 128.063 59.1426 120.321 55.5139 112.588C53.7624 108.592 55.3665 106.604 53.615 102.621Z" fill="#FFD709"/>
<path d="M53.615 102.621C57.5397 105.829 58.2526 106.987 62.6469 109.555C66.2733 111.676 69.9752 113.668 72.0009 117.181C72.5461 118.103 72.8598 119.144 72.9153 120.213C72.9709 121.283 72.7665 122.35 72.3197 123.324C71.4833 125.349 70.4962 127.3 69.557 129.274C70.9898 129.939 71.8535 130.755 71.6547 131.961C71.4079 133.617 70.5682 134.751 69.0874 135.344C69.6564 133.517 69.7729 131.667 68.1242 129.792C67.6067 129.199 67.5587 128.681 67.9049 128.078C68.371 127.313 68.7172 126.45 69.2108 125.678C70.2983 123.963 70.8913 121.981 70.9246 119.951C70.9246 118.422 70.2597 116.794 68.0111 115.238C65.5706 113.524 62.9279 112.153 60.5354 110.377C58.6277 108.919 56.6236 107.59 54.537 106.401C54.465 105.095 54.1525 103.813 53.615 102.621Z" fill="#FFE047"/>
<path d="M68.669 117.723C65.9269 116.612 63.8326 117.87 61.9817 120.239" stroke="#1D1D1B" stroke-width="0.484514" stroke-linecap="round" stroke-linejoin="round"/>
<path d="M69.5808 129.298C69.8797 130.196 69.948 131.154 69.7796 132.085" stroke="#1D1D1B" stroke-width="0.484514" stroke-linecap="round" stroke-linejoin="round"/>
<path d="M53.615 102.621C57.5397 105.829 58.2526 106.987 62.6469 109.555C66.2733 111.676 69.9752 113.668 72.0009 117.181C72.5461 118.103 72.8598 119.144 72.9153 120.213C72.9709 121.283 72.7665 122.35 72.3197 123.324C71.4833 125.349 70.4962 127.3 69.557 129.274C70.9898 129.939 71.8535 130.755 71.6547 131.961C71.2605 134.457 69.5981 135.763 66.3967 135.814C62.7702 128.063 59.1426 120.321 55.5139 112.588C53.7624 108.592 55.3665 106.604 53.615 102.621Z" stroke="#1D1D1B" stroke-width="0.484514" stroke-linecap="round" stroke-linejoin="round"/>
<path d="M55.884 146.08C59.1677 151.139 59.8087 160.565 59.0683 169.45C61.7076 170.118 64.7925 171.253 67.4352 171.917C68.2236 169.995 68.7172 168.147 69.4918 166.217C70.2082 161.076 69.6666 153.854 68.1619 147.708C64.0041 147.166 60.0315 146.621 55.884 146.08Z" fill="#FFD709"/>
<path d="M55.884 146.08C59.1677 151.139 59.8087 160.565 59.0683 169.45C61.7076 170.118 64.7925 171.253 67.4352 171.917C67.682 171.352 67.8774 170.783 68.0762 170.204C66.8902 168.798 65.5329 167.54 63.8328 167.462C63.3632 167.462 62.8936 166.968 62.993 166.09C63.3543 162.92 63.4197 159.723 63.1884 156.541C63.1644 156.095 63.5585 155.897 63.7813 156.442C63.9287 156.836 64.6691 156.812 64.8679 156.171C65.2107 154.961 65.7797 153.826 66.0025 152.565C66.1019 151.948 66.5954 151.537 67.065 151.975C67.6984 152.495 68.416 152.903 69.1867 153.182C68.916 151.331 68.5698 149.456 68.1585 147.698C64.0041 147.166 60.0315 146.621 55.884 146.08Z" fill="#E8C411"/>
<path d="M68.2577 169.672C68.6554 168.514 69.0255 167.376 69.4917 166.217C70.0127 162.516 69.8619 157.727 69.1729 153.038C68.4326 158.368 68.0864 165.33 66.729 168.956C67.0889 169.378 67.7299 169.45 68.2577 169.672Z" fill="#FFE047"/>
<path d="M55.884 146.08C59.1677 151.139 59.8087 160.565 59.0683 169.45C61.7076 170.118 64.7925 171.253 67.4352 171.917C68.2236 169.995 68.7172 168.147 69.4918 166.217C70.2082 161.076 69.6666 153.854 68.1619 147.708C64.0041 147.166 60.0315 146.621 55.884 146.08Z" stroke="#1D1D1B" stroke-width="0.484514" stroke-linecap="round" stroke-linejoin="round"/>
<path d="M59.3629 168.709C58.7733 168.315 58.6499 168.884 58.6499 169.302C58.6739 170.166 59.0681 171.301 59.8839 171.599C67.4247 174.163 73.2517 174.238 77.2826 173.103C77.5522 173.044 77.7909 172.888 77.9542 172.666C78.1175 172.443 78.1944 172.169 78.1704 171.894C77.5294 168.216 74.9107 165.923 72.2714 164.442C71.7298 163.602 70.9003 163.355 70.0023 163.331C68.435 165.03 67.1816 166.994 66.3004 169.131C66.1496 169.426 66.1496 169.895 65.8548 169.995C64.5215 170.461 59.8084 169.007 59.3629 168.709Z" fill="#E30613"/>
<path d="M59.3629 168.709C58.7733 168.315 58.6499 168.884 58.6499 169.302C58.6739 170.166 59.0681 171.277 59.8839 171.599C64.1886 173.284 68.8248 173.95 73.4299 173.546C71.5452 171.359 69.2692 169.543 66.7186 168.192C66.5712 168.486 66.4238 168.809 66.3004 169.131C66.177 169.453 66.1496 169.895 65.8548 169.995C64.5215 170.461 59.8084 169.007 59.3629 168.709Z" fill="#D21D20"/>
<path d="M76.5661 173.203C76.7889 173.175 77.0357 173.127 77.2825 173.103C77.5569 173.053 77.8017 172.9 77.9667 172.675C78.1318 172.45 78.2046 172.17 78.1703 171.894C77.5293 168.216 74.9106 165.923 72.2713 164.442C71.7297 163.602 70.9002 163.355 70.0022 163.331C69.4164 163.962 68.8715 164.629 68.3706 165.33C69.249 165.462 70.0719 165.841 70.7444 166.421C71.417 167.002 71.9118 167.76 72.1719 168.61C74.2936 169.155 76.0486 170.289 76.5661 173.203Z" fill="#EE7260"/>
<path d="M75.7026 167.057C74.7313 166.034 73.6074 165.168 72.371 164.49C71.1294 165.861 70.2029 167.487 69.6563 169.254C69.4335 169.871 69.6323 170.282 70.2218 170.413C71.185 170.66 72.1962 170.612 73.1833 170.735C73.8517 169.079 74.6401 167.821 75.7026 167.057Z" fill="#FFD709"/>
<path d="M75.7027 167.057C74.7313 166.034 73.6074 165.168 72.371 164.49C71.82 165.074 71.3392 165.72 70.9382 166.416C71.6153 166.522 72.2622 166.77 72.8364 167.144C73.4107 167.518 73.8992 168.009 74.2699 168.586C74.6554 167.997 75.1402 167.48 75.7027 167.057Z" fill="#FFE047"/>
<path d="M59.3629 168.709C58.7733 168.315 58.6499 168.884 58.6499 169.302C58.6908 169.748 58.8212 170.181 59.0332 170.576C59.2452 170.971 59.5345 171.318 59.8839 171.599C61.1178 172.61 78.9108 175.942 78.1704 171.623C77.5294 167.945 74.9107 165.923 72.2714 164.442C71.7298 163.602 70.9003 163.355 70.0023 163.331C68.435 165.03 67.1816 166.994 66.3004 169.131C66.1496 169.426 66.1496 169.895 65.8548 169.995C64.5215 170.461 59.8084 169.007 59.3629 168.709Z" stroke="#1D1D1B" stroke-width="0.484514" stroke-linecap="round" stroke-linejoin="round"/>
<path d="M75.7746 167.033C74.7708 166.023 73.624 165.166 72.371 164.49C71.1294 165.861 70.2029 167.487 69.6563 169.254C69.4335 169.871 69.6323 170.282 70.2218 170.413C71.185 170.66 72.1962 170.612 73.1833 170.735C73.8517 169.079 74.7155 167.821 75.7746 167.033Z" stroke="#1D1D1B" stroke-width="0.484514" stroke-linecap="round" stroke-linejoin="round"/>
<path d="M46.2591 145.041C44.7543 153.508 41.6455 160.075 37.3026 165.216C38.6737 166.93 39.5237 168.596 39.3592 170.101L27.1945 172.103C25.8234 170.917 24.4284 169.731 23.0813 168.524C27.3761 160.641 31.695 152.702 35.1261 144.363C38.8314 144.575 42.5504 144.795 46.2591 145.041Z" fill="#FFD709"/>
<path d="M46.2591 145.041C45.7774 147.874 45.0421 150.659 44.062 153.36C43.575 152.535 43.0004 151.765 42.3481 151.064C41.5803 150.224 40.5932 150.299 40.0516 151.064C38.7937 152.743 36.7199 154.001 35.8322 155.705C33.9058 159.407 31.2151 162.985 29.6864 166.611C29.1174 167.722 29.3916 168.462 30.5502 168.809L30.8449 171.475C29.6384 171.695 28.4044 171.893 27.1945 172.092C25.8234 170.906 24.4284 169.72 23.0813 168.514C27.3761 160.63 31.695 152.692 35.1261 144.352C38.8314 144.575 42.5504 144.794 46.2591 145.041Z" fill="#E8C411"/>
<path d="M44.014 153.532C42.4855 157.793 40.2132 161.749 37.3027 165.216C38.4372 166.673 39.2256 168.055 39.3593 169.361L35.7088 168.696C37.0147 167.51 37.313 166.296 36.127 165.018C35.462 164.771 34.7936 164.5 34.1287 164.253C37.474 162.132 40.5829 158.018 44.014 153.532Z" fill="#FFE047"/>
<path d="M46.2591 145.041C44.7543 153.508 41.6455 160.075 37.3026 165.216C38.6737 166.93 39.5237 168.596 39.3592 170.101L27.1945 172.103C25.8234 170.917 24.4284 169.731 23.0813 168.524C27.3761 160.641 31.695 152.702 35.1261 144.363C38.8314 144.575 42.5504 144.795 46.2591 145.041Z" stroke="#1D1D1B" stroke-width="0.484514" stroke-linecap="round" stroke-linejoin="round"/>
<path d="M38.0153 166.564C38.2896 166.07 38.2896 165.535 37.6966 164.884C32.3152 161.48 26.567 164.737 24.2465 168.761C23.8458 168.538 23.4731 168.269 23.1359 167.959C22.845 168.403 22.6361 168.897 22.5189 169.415C22.3715 170.056 22.6423 170.478 23.0125 171.019C24.2945 172.822 28.4179 175.414 33.6965 174.944C35.969 174.769 38.1525 174.451 39.8663 173.042C40.1885 171.671 39.9177 170.279 39.0779 168.898C35.1773 166.282 30.118 167.527 27.256 170.502C26.7624 170.18 26.2928 169.861 25.8266 169.539C26.3682 168.528 28.3425 165.12 33.3023 165.12C34.8585 165.182 36.4386 165.354 38.0153 166.564Z" fill="#E30613"/>
<path d="M29.1309 164.342C27.0922 165.286 25.3887 166.827 24.2465 168.761C23.8458 168.538 23.4731 168.269 23.1359 167.959C22.845 168.404 22.6361 168.897 22.5189 169.415C22.3715 170.056 22.6423 170.478 23.0125 171.02C23.9757 172.353 26.5156 174.152 29.9467 174.769C29.0614 172.944 28.8432 170.867 29.3297 168.898C28.5734 169.335 27.8813 169.875 27.2731 170.502C26.7795 170.18 26.3099 169.861 25.8438 169.539C26.6318 168.022 27.873 166.788 29.3948 166.008C29.2375 165.466 29.1488 164.907 29.1309 164.342Z" fill="#D21D20"/>
<path d="M38.0155 166.564C38.2898 166.07 38.2898 165.535 37.6968 164.884C36.9371 164.403 36.1147 164.03 35.2529 163.773C35.3315 164.288 35.2451 164.815 35.0061 165.278C36.1004 165.45 37.1348 165.892 38.0155 166.564V166.564ZM34.9307 174.831C36.7576 174.608 38.4851 174.19 39.8665 173.052C40.1887 171.681 39.9179 170.289 39.0781 168.908C38.2016 168.32 37.2227 167.901 36.192 167.674C37.5734 170.214 36.4388 172.535 34.9307 174.831V174.831Z" fill="#EE7260"/>
<path d="M38.2142 166.564C38.2926 166.42 38.3414 166.262 38.3578 166.099C38.3742 165.936 38.3578 165.771 38.3095 165.615C38.2613 165.458 38.1822 165.313 38.0769 165.187C37.9717 165.062 37.8423 164.959 37.6966 164.884C32.4146 161.676 26.567 164.908 24.2465 168.761C23.887 168.567 23.5551 168.326 23.2593 168.044C22.8377 168.315 22.6663 168.908 22.5189 169.415C22.3715 170.056 22.6423 170.478 23.0125 171.019C24.2945 172.822 28.4179 175.414 33.6965 174.944C35.969 174.769 38.1525 174.451 39.8663 173.042C40.1885 171.671 39.9177 170.279 39.0779 168.898C35.1773 166.282 30.118 167.527 27.256 170.502C26.7624 170.18 26.2928 169.861 25.8266 169.539C26.3682 168.528 28.3425 165.12 33.3023 165.12C34.8585 165.182 36.634 165.354 38.2142 166.564Z" stroke="#1D1D1B" stroke-width="0.484514" stroke-linecap="round" stroke-linejoin="round"/>
<path d="M36.7815 114.96C43.9795 112.465 51.3421 111.231 58.9927 112.616C61.7588 116.167 63.5583 120.537 64.991 125.572C66.1256 129.593 67.2293 133.641 68.9431 137.453C70.7941 141.525 73.3614 145.226 75.5825 149.127C73.7795 149.298 72.1754 147.571 70.2765 147.276C70.2525 149.151 70.9415 151.047 70.7941 152.952C69.0802 151.89 67.4144 149.744 65.6115 148.496C64.7477 150.248 64.9705 153.357 63.7365 154.862C61.9096 153.209 60.9944 150.296 59.4177 148.373C58.0466 150.149 57.0972 152.541 55.3045 154.344C53.4296 152.27 53.2822 149.802 51.5786 147.852C49.6797 149.73 48.4938 152.27 46.2247 154.022C44.2743 151.999 44.1681 148.743 42.7182 146.824C40.2503 148.328 38.605 150.971 35.3144 152.277C33.7857 150.426 34.2039 148.034 33.1207 146.107C31.047 146.035 29.0487 147.564 26.6768 146.899C27.8867 144.01 31.047 140.777 31.4755 137.668C34.4926 130.446 36.2858 122.772 36.7815 114.96V114.96Z" fill="#E30613"/>
<path d="M56.2302 112.218C57.142 112.318 58.0812 112.441 58.9929 112.616C61.759 116.167 63.5585 120.537 64.9913 125.572C66.1259 129.593 67.2296 133.641 68.9434 137.453C70.7943 141.525 73.3616 145.226 75.5827 149.127C74.3728 149.25 73.2622 148.51 72.0763 147.917C69.9066 145.175 67.8568 142.289 66.4001 139.132C63.6134 133.11 61.9441 126.518 60.0829 120.006C59.2157 116.935 57.9749 114.22 56.2302 112.218Z" fill="#EE7260"/>
<path d="M36.7815 114.96C37.8681 114.59 38.9786 114.22 40.1132 113.898C39.4962 117.154 39.3008 121.031 39.3488 124.681C39.3728 126.978 39.743 128.287 40.1132 128.928C41.0764 130.642 41.0044 132.16 40.6822 133.84C40.4032 135.511 39.7169 137.087 38.6839 138.429C38.0903 139.2 37.6769 140.094 37.4739 141.045C36.9803 142.944 37.3025 145.069 36.5621 146.872C35.9665 148.214 35.2555 149.502 34.437 150.721C33.8954 149.216 33.8954 147.54 33.1071 146.131C31.0333 146.059 29.035 147.588 26.6631 146.923C27.873 144.034 31.0333 140.801 31.4618 137.692C34.4862 130.463 36.2841 122.781 36.7815 114.96V114.96Z" fill="#D21D20"/>
<path d="M36.7815 114.96C43.9795 112.465 51.3421 111.231 58.9927 112.616C61.7588 116.167 63.5583 120.537 64.991 125.572C66.1256 129.593 67.2293 133.641 68.9431 137.453C70.7941 141.525 73.3614 145.226 75.5825 149.127C73.7795 149.298 72.1754 147.571 70.2765 147.276C70.2525 149.151 70.9415 151.047 70.7941 152.952C69.0802 151.89 67.4144 149.744 65.6115 148.496C64.7477 150.248 64.9705 153.357 63.7365 154.862C61.9096 153.209 60.9944 150.296 59.4177 148.373C58.0466 150.149 57.0972 152.541 55.3045 154.344C53.4296 152.27 53.2822 149.802 51.5786 147.852C49.6797 149.73 48.4938 152.27 46.2247 154.022C44.2743 151.999 44.1681 148.743 42.7182 146.824C40.2503 148.328 38.605 150.971 35.3144 152.277C33.7857 150.426 34.2039 148.034 33.1207 146.107C31.047 146.035 29.0487 147.564 26.6768 146.899C27.8867 144.01 31.047 140.777 31.4755 137.668C34.4926 130.446 36.2858 122.772 36.7815 114.96V114.96Z" stroke="#1D1D1B" stroke-width="0.484514" stroke-linecap="round" stroke-linejoin="round"/>
<path d="M36.1168 103.334C36.5864 100.818 36.3156 98.3018 35.846 95.7928C33.8439 96.9263 31.6522 97.6859 29.3781 98.0344C28.6377 98.1578 28.3189 98.0344 28.1441 97.2941C27.8493 96.1115 27.8973 94.9256 27.5545 93.7156C27.4037 93.174 27.3557 92.9032 26.8142 92.8278C24.5931 92.605 22.2965 92.8793 20.0514 92.4097C19.1876 92.1629 18.9888 91.5459 19.0882 90.7541C19.5064 89.0026 20.1165 87.1756 20.6684 85.3761C20.9152 84.5843 20.8158 84.0051 20.2228 83.4258C18.1327 81.9016 16.2134 80.156 14.4986 78.2192C13.8576 77.4685 13.8302 76.879 14.4438 76.238C16.1576 74.4591 17.7515 72.4676 19.6538 70.7538C20.5656 69.9414 20.5656 69.6192 19.9726 68.4607C18.7935 66.1916 17.3607 63.7579 16.6683 61.3072C16.2501 59.9361 16.3495 59.5933 17.6315 59.0106C20.0145 57.911 22.516 57.0887 25.0866 56.5599C25.9504 56.4125 26.4577 55.9943 26.5914 55.1031C27.061 52.1176 27.085 49.0087 27.7019 46.1466C27.8973 45.1595 28.5897 44.6899 29.6763 44.8373C32.5144 45.1595 35.253 46.4414 38.0672 47.3806C39.3251 47.8228 40.3363 47.7748 40.8538 47.1338C42.5764 44.9029 44.4403 42.7849 46.4341 40.7927C47.2978 39.9289 47.9628 39.6307 48.9499 40.6178C51.0717 42.7156 52.7752 44.7893 54.7255 46.839C55.4899 47.6514 55.6373 47.8982 57.1249 47.6274C60.0108 47.0758 62.959 46.9259 65.886 47.1818C67.4181 47.3326 67.4661 47.504 67.4421 48.8613C67.4181 51.5521 67.2947 54.2153 67.048 56.906C66.9246 58.14 67.5141 58.8804 68.4533 59.326C70.6264 60.3543 72.7481 61.5231 74.8699 62.6337C76.1038 63.2986 76.2032 64.063 75.5108 65.1496C71.7541 71.1034 67.9768 74.3836 64.4224 75.7547C64.3984 77.0366 64.3744 78.2946 64.3504 79.556C64.2916 80.8723 64.6634 82.1718 65.4095 83.2578C66.5475 84.4918 67.6821 85.6983 68.8166 86.9323C69.3582 87.5493 69.6564 88.1662 69.5022 88.7832C69.2554 89.7464 68.563 90.4148 67.7472 90.9563C64.5149 93.0129 60.837 93.5956 56.9398 93.7944C56.9638 94.6582 56.9638 95.4466 56.5182 96.1938C56.0726 96.941 55.3117 97.3044 54.4616 97.4792C54.064 99.6763 54.04 101.87 55.6202 104.091C54.5336 104.389 53.447 104.66 52.3365 104.931C50.6226 105.03 48.8814 105.13 47.1299 105.202L41.0355 105.352C39.9009 104.931 38.7904 104.537 37.6798 104.143C37.152 103.879 36.6344 103.608 36.1168 103.334Z" fill="#FFD709"/>
<path d="M46.9753 40.3299C47.5923 39.8604 48.1613 39.8604 48.9497 40.6247C51.0714 42.7224 52.7749 44.7962 54.7253 46.8459C55.4896 47.6583 55.637 47.9051 57.1246 47.6343C60.0105 47.0827 62.9588 46.9327 65.8857 47.1887C67.4179 47.3395 67.4658 47.5109 67.4418 48.8682C67.4179 51.5589 67.2945 54.2222 67.0477 56.9129C66.9243 58.1469 67.5138 58.8872 68.453 59.3328C70.6261 60.3611 72.7479 61.53 74.8696 62.6405C76.1035 63.3055 76.2029 64.0699 75.5105 65.1564C73.454 68.4401 71.3974 70.908 69.3408 72.6973C71.1677 69.513 74.969 66.0579 72.5251 64.776C69.9817 63.4906 67.5138 62.0338 64.8985 60.8993C63.812 60.4331 63.0476 59.8161 63.1847 58.0372C63.3595 55.6927 63.4075 53.3996 63.6543 51.0791C63.8017 49.7697 63.4829 49.5743 61.5977 49.9445C59.5411 50.3627 57.4263 50.4861 55.3525 50.7569C54.1186 50.9317 53.1314 50.5101 52.5384 49.3515C50.5778 45.4611 48.6789 41.9341 46.9753 40.3299Z" fill="#FFE047"/>
<path d="M64.3742 78.4077C64.3742 78.8053 64.3502 79.1755 64.3502 79.5457C64.2914 80.862 64.6632 82.1616 65.4093 83.2476C66.5473 84.4815 67.6818 85.688 68.8164 86.922C69.358 87.539 69.6562 88.156 69.5019 88.7729C69.2551 89.7361 68.5627 90.4045 67.747 90.9461C66.3675 91.8096 64.8651 92.4591 63.291 92.8724C64.3193 92.0086 65.4881 91.1929 66.4033 90.3051C66.7589 89.9645 66.9701 89.5003 66.993 89.0084C67.016 88.5165 66.849 88.0346 66.5267 87.6624C65.9097 86.85 65.094 86.1816 64.525 85.3179C64.0588 84.5775 63.5652 83.7651 63.4418 82.9014C63.2396 81.0504 63.5584 79.5251 64.3742 78.4077Z" fill="#FFE047"/>
<path d="M36.1166 103.334C36.5862 100.818 36.3154 98.3019 35.8458 95.7929C33.8437 96.9264 31.652 97.686 29.3778 98.0345C28.6374 98.1579 28.3187 98.0345 28.1439 97.2942C27.8491 96.1116 27.8971 94.9257 27.5543 93.7157C27.4035 93.1741 27.3555 92.9033 26.8139 92.8279C24.5928 92.6051 22.2963 92.8794 20.0512 92.4098C19.1874 92.163 18.9886 91.546 19.088 90.7542C19.5062 89.0027 20.1163 87.1757 20.6681 85.3762C20.9149 84.5844 20.8155 84.0052 20.2226 83.4259C18.1324 81.9017 16.2132 80.1561 14.4984 78.2193C13.8574 77.4686 13.83 76.8791 14.4435 76.2381C16.1574 74.4592 17.7512 72.4677 19.6536 70.7539C20.5653 69.9415 20.5653 69.6193 19.9723 68.4608C18.7932 66.1917 17.3605 63.758 16.6681 61.3072C16.2499 59.9362 16.3493 59.5934 17.6312 59.0107C20.0143 57.9111 22.5157 57.0888 25.0864 56.56C25.9502 56.4126 26.4575 55.9944 26.5911 55.1032C27.0607 52.1177 27.0847 49.0088 27.7017 46.1467C27.7321 45.9297 27.8068 45.7212 27.9212 45.5343C28.0356 45.3474 28.1872 45.186 28.3667 45.0602C27.8491 48.2925 28.3906 51.6001 28.7368 54.7604C29.059 57.5231 28.8362 58.0167 27.1567 58.7091C25.5923 59.2857 24.1086 60.061 22.7419 61.0159C21.2097 62.1265 21.2337 62.3013 22.5431 63.7306C23.6776 64.992 24.987 66.6921 26.0736 67.9021C27.7874 69.8044 27.0093 69.6536 25.7034 71.3571C24.3974 73.0607 23.184 74.7848 21.8027 76.3169C20.9389 77.2561 21.3571 78.3427 22.5431 78.8842C23.9998 79.5698 25.2852 80.5981 26.7145 81.3522C28.514 82.3393 28.2193 82.7849 28.2193 83.9675C28.2193 84.9066 28.6649 86.24 28.562 86.881C29.9331 86.6102 31.1293 86.5108 32.2879 86.929C33.0523 87.2272 33.5458 88.1149 33.844 88.8793C34.051 89.5324 34.0329 90.236 33.7926 90.8776C34.2142 91.2992 35.1637 90.6822 35.6196 90.5348C38.5331 97.1708 37.8647 100.677 37.5185 104.057C37.066 103.803 36.5862 103.58 36.1166 103.334Z" fill="#E8C411"/>
<path d="M36.1168 103.334C36.5864 100.818 36.3156 98.3018 35.846 95.7928C33.8439 96.9263 31.6522 97.6859 29.3781 98.0344C28.6377 98.1578 28.3189 98.0344 28.1441 97.2941C27.8493 96.1115 27.8973 94.9256 27.5545 93.7156C27.4037 93.174 27.3557 92.9032 26.8142 92.8278C24.5931 92.605 22.2965 92.8793 20.0514 92.4097C19.1876 92.1629 18.9888 91.5459 19.0882 90.7541C19.5064 89.0026 20.1165 87.1756 20.6684 85.3761C20.9152 84.5843 20.8158 84.0051 20.2228 83.4258C18.1327 81.9016 16.2134 80.156 14.4986 78.2192C13.8576 77.4685 13.8302 76.879 14.4438 76.238C16.1576 74.4591 17.7515 72.4676 19.6538 70.7538C20.5656 69.9414 20.5656 69.6192 19.9726 68.4607C18.7935 66.1916 17.3607 63.7579 16.6683 61.3072C16.2501 59.9361 16.3495 59.5933 17.6315 59.0106C20.0145 57.911 22.516 57.0887 25.0866 56.5599C25.9504 56.4125 26.4577 55.9943 26.5914 55.1031C27.061 52.1176 27.085 49.0087 27.7019 46.1466C27.8973 45.1595 28.5897 44.6899 29.6763 44.8373C32.5144 45.1595 35.253 46.4414 38.0672 47.3806C39.3251 47.8228 40.3363 47.7748 40.8538 47.1338C42.5764 44.9029 44.4403 42.7849 46.4341 40.7927C47.2978 39.9289 47.9628 39.6307 48.9499 40.6178C51.0717 42.7156 52.7752 44.7893 54.7255 46.839C55.4899 47.6514 55.6373 47.8982 57.1249 47.6274C60.0108 47.0758 62.959 46.9259 65.886 47.1818C67.4181 47.3326 67.4661 47.504 67.4421 48.8613C67.4181 51.5521 67.2947 54.2153 67.048 56.906C66.9246 58.14 67.5141 58.8804 68.4533 59.326C70.6264 60.3543 72.7481 61.5231 74.8699 62.6337C76.1038 63.2986 76.2032 64.063 75.5108 65.1496C71.7541 71.1034 67.9768 74.3836 64.4224 75.7547C64.3984 77.0366 64.3744 78.2946 64.3504 79.556C64.2916 80.8723 64.6634 82.1718 65.4095 83.2578C66.5475 84.4918 67.6821 85.6983 68.8166 86.9323C69.3582 87.5493 69.6564 88.1662 69.5022 88.7832C69.2554 89.7464 68.563 90.4148 67.7472 90.9563C64.5149 93.0129 60.837 93.5956 56.9398 93.7944C56.9638 94.6582 56.9638 95.4466 56.5182 96.1938C56.0726 96.941 55.3117 97.3044 54.4616 97.4792C54.064 99.6763 54.04 101.87 55.6202 104.091C54.5336 104.389 53.447 104.66 52.3365 104.931C50.6226 105.03 48.8814 105.13 47.1299 105.202L41.0355 105.352C39.9009 104.931 38.7904 104.537 37.6798 104.143C37.152 103.879 36.6344 103.608 36.1168 103.334Z" stroke="#1D1D1B" stroke-width="0.484514" stroke-linecap="round" stroke-linejoin="round"/>
<path d="M40.1887 89.5134C38.9307 90.4286 38.4748 91.6626 38.8553 93.2838" stroke="#1D1D1B" stroke-width="0.484514" stroke-linecap="round" stroke-linejoin="round"/>
<path d="M56.9224 93.7842C50.4784 94.007 44.2606 93.7602 38.8552 91.3643" stroke="#1D1D1B" stroke-width="0.484514" stroke-linecap="round" stroke-linejoin="round"/>
<path d="M30.6873 86.6752C32.4388 86.281 33.8476 87.7035 33.8715 89.4413" stroke="#1D1D1B" stroke-width="0.484514" stroke-linecap="round" stroke-linejoin="round"/>
<path d="M32.2913 86.8741C31.7978 87.6385 31.7498 88.5263 31.7978 89.4655" stroke="#1D1D1B" stroke-width="0.484514" stroke-linecap="round" stroke-linejoin="round"/>
<path d="M34.6118 91.4158C35.0814 92.9685 35.623 94.4252 35.8458 95.8066" stroke="#1D1D1B" stroke-width="0.484514" stroke-linecap="round" stroke-linejoin="round"/>
<path d="M34.6119 84.8997C34.2603 84.5565 33.8427 84.2883 33.3842 84.1115C32.9258 83.9347 32.4362 83.8531 31.9452 83.8714C29.5767 84.0668 28.5895 85.8698 28.9597 88.3274C29.2545 90.2263 30.6118 91.3883 32.3668 91.8064C33.5253 92.0772 34.6839 91.5836 35.7944 90.4354" stroke="#1D1D1B" stroke-width="0.484514" stroke-linecap="round" stroke-linejoin="round"/>
<path d="M54.9482 65.5746C55.812 66.8085 56.0828 68.5121 56.0828 70.3733" stroke="#1D1D1B" stroke-width="0.484514" stroke-linecap="round" stroke-linejoin="round"/>
<path d="M62.722 64.7623C62.7069 66.4149 62.2514 68.0335 61.4023 69.4514" stroke="#1D1D1B" stroke-width="0.484514" stroke-linecap="round" stroke-linejoin="round"/>
<path d="M68.6176 68.2413C67.435 69.6467 66.2182 70.7332 64.9431 71.2782" stroke="#1D1D1B" stroke-width="0.484514" stroke-linecap="round" stroke-linejoin="round"/>
<path d="M71.2361 74.3357C69.4092 75.2989 67.6576 75.0761 65.9541 74.5105" stroke="#1D1D1B" stroke-width="0.484514" stroke-linecap="round" stroke-linejoin="round"/>
<path d="M59.9079 67.9706C64.2268 67.9706 67.7538 71.3023 67.7538 75.4223C67.7538 78.8294 65.3133 81.7155 62.0056 82.6204C61.9858 82.5739 61.9776 82.5233 61.9817 82.473C61.6595 80.9202 60.2678 80.1525 58.5266 79.9571C57.1555 79.8097 55.7605 79.9571 54.4134 79.8577C54.098 79.8339 53.7851 79.7846 53.4776 79.7103C52.5547 78.4674 52.0571 76.9601 52.0586 75.412C52.0586 71.2988 55.5754 67.9706 59.9079 67.9706Z" fill="white" stroke="#1D1D1B" stroke-width="0.484514" stroke-linecap="round" stroke-linejoin="round"/>
<path d="M50.5537 78.089C51.7123 78.9768 52.9531 79.7411 54.403 79.8405C55.7741 79.9399 57.1691 79.7925 58.5162 79.9399C60.23 80.1353 61.649 80.9031 61.9712 82.4558C62.266 84.084 61.7964 85.1979 60.3157 85.8629C58.218 86.8261 55.6027 86.2811 53.4295 85.4173C52.7646 84.8243 52.1236 84.2348 51.4826 83.6418C51.013 82.5552 50.5674 81.4687 50.1116 80.3821C50.283 79.6177 50.4338 78.8396 50.5537 78.089Z" fill="#FFD709"/>
<path d="M52.1101 79.1241C52.8095 79.5356 53.594 79.7807 54.4032 79.8405C55.7743 79.9399 57.1693 79.7925 58.5164 79.9399C60.2302 80.1353 61.6493 80.9031 61.9715 82.4558C62.0817 82.9849 62.0817 83.5309 61.9715 84.06C61.8724 83.3987 61.5651 82.7862 61.0942 82.3116C60.6232 81.837 60.0132 81.5249 59.3527 81.4207C57.872 81.1499 56.3193 81.2459 54.8385 80.8757C53.3578 80.5055 52.5763 79.8885 52.1101 79.1241Z" fill="#FFE047"/>
<path d="M62.0297 83.8885C61.8823 84.7523 61.3134 85.4173 60.3159 85.8629C58.417 86.7266 56.1205 86.3805 54.0981 85.6641C57.3887 85.8115 60.1308 85.3522 62.0297 83.8885Z" fill="#E8C411"/>
<path d="M50.554 78.089C51.7125 78.9768 52.9533 79.7411 54.4032 79.8405C55.7743 79.9399 57.1693 79.7925 58.5164 79.9399C60.2302 80.1353 61.6493 80.9031 61.9715 82.4558C62.2662 84.084 61.7967 85.1979 60.3159 85.8629C58.2182 86.8261 55.6029 86.2811 53.4298 85.4173" stroke="#1D1D1B" stroke-width="0.484514" stroke-linecap="round" stroke-linejoin="round"/>
<path d="M61.3131 76.7077C61.598 76.704 61.8698 76.5876 62.069 76.384C62.2681 76.1803 62.3784 75.906 62.3757 75.6211C62.3766 75.4813 62.3497 75.3427 62.2967 75.2134C62.2436 75.0841 62.1654 74.9666 62.0665 74.8677C61.9677 74.7689 61.8502 74.6906 61.7208 74.6375C61.5915 74.5845 61.4529 74.5576 61.3131 74.5585C61.0283 74.5558 60.7539 74.6661 60.5503 74.8653C60.3466 75.0644 60.2302 75.3362 60.2266 75.6211C60.2292 75.9084 60.3446 76.1833 60.5478 76.3864C60.751 76.5896 61.0258 76.705 61.3131 76.7077V76.7077Z" fill="#1D1D1B"/>
<path d="M50.725 64.7623C50.2075 66.6612 49.4671 68.3168 48.3257 69.4274" stroke="#1D1D1B" stroke-width="0.484514" stroke-linecap="round" stroke-linejoin="round"/>
<path d="M42.4338 64.0219C43.421 65.7734 43.966 67.5489 43.8426 69.3039" stroke="#1D1D1B" stroke-width="0.484514" stroke-linecap="round" stroke-linejoin="round"/>
<path d="M35.6948 67.8472C37.4087 69.3039 38.8037 70.8087 39.2219 72.5842" stroke="#1D1D1B" stroke-width="0.484514" stroke-linecap="round" stroke-linejoin="round"/>
<path d="M33.5732 75.6211C34.5536 75.4706 35.5543 75.5222 36.5139 75.7727C37.4735 76.0232 38.3718 76.4674 39.1535 77.0778" stroke="#1D1D1B" stroke-width="0.484514" stroke-linecap="round" stroke-linejoin="round"/>
<path d="M45.5183 83.5903C50.2074 83.5903 54.0566 79.8885 54.0566 75.364C54.0566 70.8395 50.2074 67.0828 45.5183 67.0828C40.8293 67.0828 36.9492 70.8086 36.9492 75.3503C36.9492 79.8919 40.7813 83.5903 45.5183 83.5903Z" fill="white" stroke="#1D1D1B" stroke-width="0.494822" stroke-linecap="round" stroke-linejoin="round"/>
<path d="M44.2847 76.3854C44.524 76.3854 44.7579 76.3144 44.9569 76.1815C45.1559 76.0485 45.3109 75.8595 45.4025 75.6384C45.4941 75.4174 45.5181 75.1741 45.4714 74.9394C45.4247 74.7047 45.3095 74.4891 45.1402 74.3198C44.971 74.1506 44.7554 74.0354 44.5207 73.9887C44.286 73.942 44.0427 73.966 43.8216 74.0576C43.6005 74.1491 43.4116 74.3042 43.2786 74.5032C43.1457 74.7022 43.0747 74.9361 43.0747 75.1754C43.0765 75.4958 43.2046 75.8025 43.4311 76.029C43.6576 76.2555 43.9643 76.3836 44.2847 76.3854V76.3854Z" fill="#1D1D1B"/>
<path d="M58.3757 112.516C57.3444 109.88 56.5282 107.164 55.9352 104.396L52.4527 105.284C50.6018 105.383 48.7783 105.507 46.9685 105.606C45.1895 105.555 43.414 105.507 41.6385 105.431C40.3051 105.037 38.9478 104.643 37.5904 104.225C36.85 104.074 36.0857 103.903 35.3453 103.731C30.2038 106 27.2492 108.616 24.5585 111.33C21.549 114.515 20.4145 117.5 20.1025 120.39C20.2259 124.338 22.1591 127.053 24.5962 129.421C25.7068 130.357 26.8413 131.221 27.9519 132.164C28.1987 132.558 28.394 133.027 28.6168 133.422C27.7531 133.744 27.5063 134.631 27.5063 135.619C27.502 136.09 27.6068 136.556 27.8126 136.98C28.0183 137.404 28.3194 137.774 28.6922 138.063C29.4322 138.724 30.3901 139.091 31.3829 139.091C32.8302 139.114 34.2584 138.76 35.527 138.063C36.6941 137.347 37.5624 136.233 37.9709 134.926C38.3903 133.541 38.4411 132.07 38.1183 130.659C37.8475 129.425 36.8843 128.092 35.7978 126.933C34.1936 125.219 32.6889 123.402 31.6846 121.058C33.2185 119.17 34.9036 117.411 36.7232 115.797C37.3063 115.24 37.9515 114.752 38.6461 114.343C45.0764 112.341 51.5889 111.402 58.3757 112.516Z" fill="#FFD709"/>
<path d="M36.3805 103.978C36.0103 103.903 35.6641 103.827 35.3214 103.731C30.1799 106 27.2253 108.616 24.5346 111.33C21.5251 114.515 20.3905 117.5 20.0786 120.39C20.202 124.338 22.1352 127.053 24.5723 129.421C25.6828 130.357 26.8174 131.221 27.9279 132.164C28.1747 132.558 28.3701 133.027 28.5929 133.422C27.7291 133.744 27.4823 134.631 27.4823 135.619C27.4781 136.09 27.5829 136.556 27.7886 136.98C27.9944 137.404 28.2955 137.774 28.6683 138.063C29.4083 138.724 30.3662 139.091 31.359 139.091C32.3976 139.086 33.4292 138.92 34.4165 138.597C34.6978 138.178 34.8872 137.705 34.9723 137.207C35.0574 136.71 35.0361 136.2 34.9101 135.711C34.6393 134.82 33.7755 134.203 32.593 133.86C31.7551 133.585 30.9875 133.13 30.3444 132.527C30.4608 132.039 30.4786 131.533 30.3968 131.038C30.315 130.543 30.1352 130.069 29.868 129.644C28.7574 127.989 27.3281 126.559 26.0427 125.027C24.3837 122.905 23.6982 121 24.1712 119.402C24.7521 117.453 25.7458 115.652 27.0847 114.12C29.3778 111.43 31.9451 108.962 34.4885 106.418C35.2396 105.706 35.8776 104.883 36.3805 103.978V103.978Z" fill="#E8C411"/>
<path d="M58.376 112.516C57.3446 109.88 56.5285 107.164 55.9355 104.396C55.5379 104.496 55.1677 104.568 54.7975 104.667C53.8617 106.665 54.2559 109.209 55.5139 112.17C56.4732 112.236 57.4285 112.352 58.376 112.516Z" fill="#FFE047"/>
<path d="M40.634 112.773C38.9207 113.922 37.3023 115.205 35.7942 116.612" stroke="#1D1D1B" stroke-width="0.484514" stroke-linecap="round" stroke-linejoin="round"/>
<path d="M28.6135 133.442C28.8355 134.083 29.2098 134.661 29.7041 135.125C30.1984 135.59 30.7981 135.927 31.4516 136.109" stroke="#1D1D1B" stroke-width="0.484514" stroke-linecap="round" stroke-linejoin="round"/>
<path d="M29.7754 136.973C29.6664 136.699 29.6144 136.405 29.6227 136.111C29.6309 135.816 29.6992 135.526 29.8234 135.259" stroke="#1D1D1B" stroke-width="0.484514" stroke-linecap="round" stroke-linejoin="round"/>
<path d="M58.3757 112.516C57.3444 109.88 56.5282 107.164 55.9352 104.396L52.4527 105.284C50.6018 105.383 48.7783 105.507 46.9685 105.606C45.1895 105.555 43.414 105.507 41.6385 105.431C40.3051 105.037 38.9478 104.643 37.5904 104.225C36.85 104.074 36.0857 103.903 35.3453 103.731C30.2038 106 27.2492 108.616 24.5585 111.33C21.549 114.515 20.4145 117.5 20.1025 120.39C20.2259 124.338 22.1591 127.053 24.5962 129.421C25.7068 130.357 26.8413 131.221 27.9519 132.164C28.2138 132.556 28.4289 132.979 28.5928 133.422C27.7051 133.744 27.5063 134.631 27.5063 135.619C27.502 136.09 27.6068 136.556 27.8126 136.98C28.0183 137.404 28.3194 137.774 28.6922 138.063C29.4322 138.724 30.3901 139.091 31.3829 139.091C32.8302 139.114 34.2584 138.76 35.527 138.063C36.6941 137.347 37.5624 136.233 37.9709 134.926C38.3903 133.541 38.4411 132.07 38.1183 130.659C37.8475 129.425 36.8843 128.092 35.7978 126.933C34.1936 125.219 32.6889 123.402 31.6846 121.058C33.2185 119.17 34.9036 117.411 36.7232 115.797C37.3063 115.24 37.9515 114.752 38.6461 114.343C45.0764 112.341 51.5889 111.402 58.3757 112.516Z" stroke="#1D1D1B" stroke-width="0.484514" stroke-linecap="round" stroke-linejoin="round"/>
<path d="M31.4755 119.821C31.4574 120.318 31.5684 120.812 31.7977 121.253" stroke="#1D1D1B" stroke-width="0.484514" stroke-linecap="round" stroke-linejoin="round"/>
<path d="M36.3802 105.754C36.8817 105.756 37.3726 105.61 37.7907 105.333C38.2088 105.056 38.5351 104.661 38.7283 104.198C38.9214 103.736 38.9727 103.226 38.8755 102.734C38.7784 102.242 38.5372 101.79 38.1826 101.435C37.828 101.081 37.376 100.839 36.884 100.742C36.392 100.645 35.8823 100.696 35.4195 100.89C34.9567 101.083 34.5618 101.409 34.2849 101.827C34.008 102.245 33.8616 102.736 33.8643 103.238C33.8688 103.903 34.1353 104.541 34.6061 105.012C35.077 105.483 35.7143 105.749 36.3802 105.754V105.754Z" fill="#EDEDED"/>
<path d="M38.1389 101.682H38.4131C38.7469 102.132 38.9282 102.677 38.9307 103.238C38.9288 103.616 38.8437 103.988 38.6814 104.33C38.5191 104.671 38.2835 104.972 37.9915 105.212C37.5383 105.172 37.118 104.959 36.8178 104.617C36.5176 104.275 36.3607 103.831 36.3797 103.376C36.3987 102.922 36.5921 102.492 36.9197 102.176C37.2473 101.861 37.6839 101.684 38.1389 101.682V101.682Z" fill="white"/>
<path d="M36.3802 105.754C36.8817 105.756 37.3726 105.61 37.7907 105.333C38.2088 105.056 38.5351 104.661 38.7283 104.198C38.9214 103.736 38.9727 103.226 38.8755 102.734C38.7784 102.242 38.5372 101.79 38.1826 101.435C37.828 101.081 37.376 100.839 36.884 100.742C36.392 100.645 35.8823 100.696 35.4195 100.89C34.9567 101.083 34.5618 101.409 34.2849 101.827C34.008 102.245 33.8616 102.736 33.8643 103.238C33.8688 103.903 34.1353 104.541 34.6061 105.012C35.077 105.483 35.7143 105.749 36.3802 105.754V105.754Z" stroke="#1D1D1B" stroke-width="0.484514" stroke-linecap="round" stroke-linejoin="round"/>
<path d="M55.6368 106.741C56.14 106.741 56.6321 106.593 57.0508 106.314C57.4694 106.035 57.796 105.638 57.989 105.173C58.182 104.708 58.2329 104.197 58.1351 103.703C58.0374 103.21 57.7954 102.756 57.4399 102.4C57.0843 102.044 56.6311 101.802 56.1377 101.703C55.6442 101.605 55.1327 101.655 54.6678 101.847C54.2028 102.04 53.8054 102.366 53.5258 102.784C53.2462 103.202 53.0969 103.694 53.0969 104.197C53.096 104.531 53.1611 104.862 53.2884 105.171C53.4156 105.48 53.6026 105.76 53.8386 105.997C54.0746 106.233 54.3549 106.42 54.6635 106.548C54.9721 106.676 55.3029 106.741 55.6368 106.741V106.741Z" fill="white"/>
<path d="M58.1562 103.903V104.204C58.1562 104.875 57.8897 105.518 57.4153 105.993C56.9409 106.467 56.2975 106.734 55.6266 106.734C54.9557 106.734 54.3123 106.467 53.8379 105.993C53.3635 105.518 53.097 104.875 53.097 104.204C53.0958 104.005 53.12 103.807 53.1689 103.615C54.7251 105.705 56.7234 106.765 58.1562 103.903Z" fill="#EDEDED"/>
<path d="M55.6368 106.741C56.14 106.741 56.6321 106.593 57.0508 106.314C57.4694 106.035 57.796 105.638 57.989 105.173C58.182 104.708 58.2329 104.197 58.1351 103.703C58.0374 103.21 57.7954 102.756 57.4399 102.4C57.0843 102.044 56.6311 101.802 56.1377 101.703C55.6442 101.605 55.1327 101.655 54.6678 101.847C54.2028 102.04 53.8054 102.366 53.5258 102.784C53.2462 103.202 53.0969 103.694 53.0969 104.197C53.096 104.531 53.1611 104.862 53.2884 105.171C53.4156 105.48 53.6026 105.76 53.8386 105.997C54.0746 106.233 54.3549 106.42 54.6635 106.548C54.9721 106.676 55.3029 106.741 55.6368 106.741V106.741Z" stroke="#1D1D1B" stroke-width="0.484514" stroke-linecap="round" stroke-linejoin="round"/>
<path d="M41.0523 107.776C41.4015 107.78 41.748 107.715 42.0718 107.585C42.3956 107.454 42.6902 107.26 42.9384 107.015C43.1865 106.769 43.3834 106.476 43.5174 106.154C43.6514 105.832 43.72 105.486 43.719 105.137C43.7245 104.608 43.5727 104.09 43.283 103.648C42.9933 103.205 42.5787 102.859 42.092 102.653C41.6052 102.447 41.0682 102.391 40.5491 102.49C40.03 102.59 39.5523 102.842 39.1766 103.214C38.8009 103.586 38.5442 104.061 38.439 104.579C38.3339 105.097 38.3851 105.634 38.5861 106.123C38.7871 106.612 39.1288 107.03 39.568 107.324C40.0071 107.619 40.5237 107.776 41.0523 107.776Z" fill="white"/>
<path d="M51.8119 107.454C53.2695 107.454 54.4512 106.272 54.4512 104.814C54.4512 103.357 53.2695 102.175 51.8119 102.175C50.3543 102.175 49.1726 103.357 49.1726 104.814C49.1726 106.272 50.3543 107.454 51.8119 107.454Z" fill="white"/>
<path d="M54.4033 105.26C54.3057 105.876 53.9905 106.436 53.5151 106.839C53.0396 107.242 52.4353 107.462 51.812 107.457C51.1117 107.456 50.4404 107.177 49.9455 106.682C49.4506 106.186 49.1727 105.515 49.1727 104.814C49.1693 104.34 49.2951 103.874 49.5366 103.466C49.7782 103.057 50.1263 102.723 50.5437 102.497C49.704 103.868 49.4572 105.459 50.4683 106.247C51.6406 107.186 53.1762 106.912 54.4033 105.26Z" fill="#EDEDED"/>
<path d="M51.8119 107.454C53.2695 107.454 54.4512 106.272 54.4512 104.814C54.4512 103.357 53.2695 102.175 51.8119 102.175C50.3543 102.175 49.1726 103.357 49.1726 104.814C49.1726 106.272 50.3543 107.454 51.8119 107.454Z" stroke="#1D1D1B" stroke-width="0.484514" stroke-linecap="round" stroke-linejoin="round"/>
<path d="M46.4817 108.074C47.0062 108.071 47.5182 107.913 47.9529 107.62C48.3876 107.326 48.7255 106.91 48.9239 106.425C49.1223 105.939 49.1723 105.405 49.0675 104.891C48.9628 104.377 48.708 103.906 48.3354 103.537C47.9628 103.168 47.4891 102.917 46.9742 102.817C46.4593 102.717 45.9262 102.772 45.4424 102.974C44.9586 103.177 44.5458 103.519 44.2561 103.956C43.9665 104.393 43.8129 104.907 43.815 105.431C43.8163 105.78 43.8864 106.125 44.0212 106.447C44.156 106.768 44.3528 107.06 44.6005 107.306C44.8482 107.551 45.1418 107.745 45.4646 107.877C45.7874 108.009 46.133 108.076 46.4817 108.074V108.074Z" fill="white"/>
<path d="M49.1209 105.777C49.0254 106.442 48.6829 107.046 48.1618 107.468C47.6406 107.891 46.9792 108.102 46.3095 108.059C45.6398 108.016 45.011 107.722 44.5486 107.235C44.0862 106.749 43.8242 106.106 43.8149 105.435C43.8205 104.801 44.0487 104.189 44.4598 103.707C44.8709 103.224 45.4386 102.902 46.0635 102.795C45.0009 103.906 44.2845 105.339 45.0352 106.326C45.9401 107.481 47.7396 108.074 49.1209 105.777Z" fill="#EDEDED"/>
<path d="M46.4817 108.074C47.0062 108.071 47.5182 107.913 47.9529 107.62C48.3876 107.326 48.7255 106.91 48.9239 106.425C49.1223 105.939 49.1723 105.405 49.0675 104.891C48.9628 104.377 48.708 103.906 48.3354 103.537C47.9628 103.168 47.4891 102.917 46.9742 102.817C46.4593 102.717 45.9262 102.772 45.4424 102.974C44.9586 103.177 44.5458 103.519 44.2561 103.956C43.9665 104.393 43.8129 104.907 43.815 105.431C43.8163 105.78 43.8864 106.125 44.0212 106.447C44.156 106.768 44.3528 107.06 44.6005 107.306C44.8482 107.551 45.1418 107.745 45.4646 107.877C45.7874 108.009 46.133 108.076 46.4817 108.074V108.074Z" stroke="#1D1D1B" stroke-width="0.484514" stroke-linecap="round" stroke-linejoin="round"/>
<path d="M41.0523 102.47C41.3625 102.469 41.6706 102.52 41.9641 102.621C40.1886 103.114 39.1534 104.334 39.8184 105.706C40.6067 107.334 42.2383 107.419 43.6916 105.63C43.5992 106.129 43.3667 106.592 43.0212 106.963C42.6757 107.335 42.2316 107.601 41.7407 107.73C41.2497 107.858 40.7323 107.845 40.2489 107.69C39.7655 107.536 39.336 107.247 39.0107 106.857C38.6853 106.468 38.4776 105.994 38.4118 105.49C38.3459 104.987 38.4246 104.476 38.6388 104.015C38.8529 103.555 39.1936 103.166 39.621 102.892C40.0484 102.618 40.5448 102.472 41.0523 102.47V102.47Z" fill="#EDEDED"/>
<path d="M41.0523 107.776C41.4015 107.78 41.748 107.715 42.0718 107.585C42.3956 107.454 42.6902 107.26 42.9384 107.015C43.1865 106.769 43.3834 106.476 43.5174 106.154C43.6514 105.832 43.72 105.486 43.719 105.137C43.7245 104.608 43.5727 104.09 43.283 103.648C42.9933 103.205 42.5787 102.859 42.092 102.653C41.6052 102.447 41.0682 102.391 40.5491 102.49C40.03 102.59 39.5523 102.842 39.1766 103.214C38.8009 103.586 38.5442 104.061 38.439 104.579C38.3339 105.097 38.3851 105.634 38.5861 106.123C38.7871 106.612 39.1288 107.03 39.568 107.324C40.0071 107.619 40.5237 107.776 41.0523 107.776Z" stroke="#1D1D1B" stroke-width="0.484514" stroke-linecap="round" stroke-linejoin="round"/>
</svg>
