<svg width="83" height="176" viewBox="0 0 83 176" fill="none" xmlns="http://www.w3.org/2000/svg">
<path d="M57.461 52.6574C64.6458 56.314 70.5605 61.0996 71.4638 70.3194C70.4374 72.7391 69.4315 75.1589 68.3974 77.5786C63.2422 73.8297 58.182 70.0422 56.8323 64.7023C52.9833 64.3688 51.105 61.7642 49.165 59.2162C51.9363 57.0197 54.6897 54.8437 57.461 52.6574Z" fill="#FFD709"/>
<path d="M68.7489 76.7549C68.6386 77.0321 68.5282 77.3092 68.3974 77.5863C63.2422 73.8374 58.182 70.0499 56.8323 64.71C54.2663 64.4894 52.565 63.25 51.1409 61.6796C51.6541 60.3966 52.1673 59.1315 52.6933 57.8305C53.8942 58.3283 55.226 58.5875 56.314 59.288C56.9048 59.6641 57.3284 60.253 57.4969 60.9329C58.9929 67.5173 63.3551 72.3953 68.7489 76.7549Z" fill="#E8C411"/>
<path d="M57.4608 52.6574C64.6457 56.314 70.5604 61.0996 71.4636 70.3194C71.3353 70.5965 71.225 70.8916 71.0941 71.1687C69.3774 62.7445 63.8887 57.3302 56.4678 53.4324L57.4608 52.6574Z" fill="#FFE047"/>
<path d="M57.461 52.6574C64.6458 56.314 70.5605 61.0996 71.4638 70.3194C70.4374 72.7391 69.4315 75.1589 68.3974 77.5786C63.2422 73.8297 58.182 70.0422 56.8323 64.7023C52.9833 64.3688 51.105 61.7642 49.165 59.2162C51.9363 57.0197 54.6897 54.8437 57.461 52.6574Z" stroke="#1D1D1B" stroke-width="0.364307" stroke-linecap="round" stroke-linejoin="round"/>
<path d="M41.8672 42.2445C49.0726 44.2974 55.8161 47.9334 62.0618 53.3118C61.2099 53.0347 57.9048 55.2132 55.3542 58.957C52.7317 62.8061 51.8619 66.6782 52.4546 67.1683H52.4726L52.4546 67.1888C47.8897 65.3926 43.843 62.5879 39.8811 59.6139C40.5534 53.8164 41.2154 48.0266 41.8672 42.2445Z" fill="#D0E6F8"/>
<path d="M53.599 62.0132C52.3622 64.6536 52.0286 66.7988 52.4546 67.1452H52.4726L52.4546 67.1657C47.8897 65.3695 43.843 62.5648 39.8811 59.5908C40.1018 57.6509 40.3225 55.729 40.5457 53.7891C44.6843 56.854 49.0478 59.6031 53.599 62.0132Z" fill="#9BB2C7"/>
<path d="M41.8671 42.2445C49.0725 44.2974 55.816 47.9334 62.0617 53.3118C61.7281 53.1989 61.0071 53.476 60.1013 54.0688C54.8743 49.3011 48.685 45.9755 41.6824 43.8894C41.7388 43.3351 41.7927 42.7808 41.8671 42.2445Z" fill="#E5F2FC"/>
<path d="M55.8521 64.5612C54.3125 66.5935 53.2655 67.8149 52.4547 67.1477C52.1031 66.8526 52.2699 65.3515 53.0269 63.3603C53.8778 63.9473 54.8389 64.3558 55.8521 64.5612Z" fill="#9BB2C7" stroke="#1D1D1B" stroke-width="0.364307" stroke-linecap="round" stroke-linejoin="round"/>
<path d="M62.1568 53.4041C62.5623 53.6992 62.5263 54.4305 62.1363 55.4159C61.4717 54.9745 60.7891 54.5486 60.104 54.1329C61.0817 53.476 61.8566 53.1988 62.1568 53.4041Z" fill="#9BB2C7" stroke="#1D1D1B" stroke-width="0.364307" stroke-linecap="round" stroke-linejoin="round"/>
<path d="M41.8672 42.2445C49.0726 44.2974 55.8161 47.9334 62.0618 53.3118C61.2099 53.0347 57.9048 55.2132 55.3542 58.957C52.7317 62.8061 51.8619 66.6782 52.4546 67.1683H52.4726L52.4546 67.1888C47.8897 65.3926 43.843 62.5879 39.8811 59.6139C40.5534 53.8164 41.2154 48.0266 41.8672 42.2445Z" stroke="#1D1D1B" stroke-width="0.364307" stroke-linecap="round" stroke-linejoin="round"/>
<path d="M56.4062 62.1235C56.4385 63.012 56.5816 63.8929 56.8322 64.7459" stroke="#1D1D1B" stroke-width="0.364307" stroke-linecap="round" stroke-linejoin="round"/>
<path d="M36.2682 158.97C33.6457 161.521 33.8485 165.898 34.0897 170.333C40.5047 172.883 46.6888 173.53 53.1372 173.566C56.2165 173.512 59.0391 173.16 61.192 172.162C61.3023 171.202 60.9713 170.333 60.0655 169.28C58.2359 167.12 55.5955 166.011 53.0089 164.81C49.9998 163.431 47.2548 161.536 44.8977 159.211C43.2888 158.714 41.6825 158.185 40.0942 157.672C38.7624 158.121 37.6 158.547 36.2682 158.97Z" fill="#3F545D"/>
<path d="M59.1775 172.865C59.8672 172.687 60.541 172.452 61.1919 172.162C61.3022 171.202 60.9712 170.333 60.0654 169.281C58.2358 167.12 55.5954 166.011 53.0088 164.811C49.9997 163.431 47.2547 161.536 44.8976 159.211L43.1245 158.657C44.6025 160.874 46.2833 163.22 49.0725 165.031C51.695 166.75 54.8923 167.636 57.2582 169.686C58.1999 170.499 58.6797 171.682 59.1775 172.865Z" fill="#647982"/>
<path d="M36.2682 158.97C33.6457 161.521 33.8485 165.898 34.0897 170.333C35.0494 170.723 35.9911 171.054 36.9354 171.359C36.9149 169.347 36.8225 167.351 36.9149 165.337C37.0457 164.431 37.4281 163.304 38.321 162.881C41.2386 162.419 43.8431 161.752 46.0422 160.315C45.6547 159.963 45.2724 159.594 44.8977 159.224C43.2888 158.726 41.6825 158.198 40.0942 157.685C38.7624 158.121 37.6 158.547 36.2682 158.97Z" fill="#263439"/>
<path d="M33.9587 167.156C33.9793 168.182 34.0332 169.263 34.0896 170.333C40.5047 172.883 46.6888 173.53 53.1372 173.566C56.2164 173.512 59.039 173.16 61.1919 172.162C61.2641 171.507 61.1219 170.846 60.7865 170.279C50.9766 171.554 41.9955 170.574 33.9587 167.156Z" stroke="#1D1D1B" stroke-width="0.364307" stroke-linecap="round" stroke-linejoin="round"/>
<path d="M36.2682 158.97C33.6457 161.521 33.8485 165.898 34.0897 170.333C40.5047 172.883 46.6888 173.53 53.1372 173.566C56.2165 173.512 59.0391 173.16 61.192 172.162C61.3023 171.202 60.9713 170.333 60.0655 169.28C58.2359 167.12 55.5955 166.011 53.0089 164.81C49.9998 163.431 47.2548 161.536 44.8977 159.211C43.2888 158.714 41.6825 158.185 40.0942 157.672C38.7624 158.121 37.6 158.547 36.2682 158.97Z" stroke="#1D1D1B" stroke-width="0.364307" stroke-linecap="round" stroke-linejoin="round"/>
<path d="M12.3246 158.891C10.164 161.939 9.1094 165.616 9.38653 169.812C16.6304 174.543 26.4223 176.152 35.2135 175.506C36.1193 175.434 37.5794 175.452 37.8745 174.325C38.2799 172.716 37.2458 171.646 36.6556 170.63C35.1776 168.172 31.1669 166.822 28.2853 165.242C25.1265 163.525 24 162.047 22.6682 159.83C21.1543 158.803 19.6378 157.816 18.1238 156.799C16.1865 157.492 14.2645 158.195 12.3246 158.891Z" fill="#3F545D"/>
<path d="M12.3246 158.891C10.164 161.939 9.1094 165.616 9.38653 169.812C11.5588 171.213 13.8919 172.347 16.3353 173.191C16.2968 170.345 16.5201 167.094 16.9075 165.857C17.3309 164.526 21.3031 162.216 23.8717 161.682C23.4385 161.095 23.0377 160.484 22.6708 159.853C21.1569 158.827 19.6403 157.839 18.1264 156.822C16.1865 157.492 14.2645 158.195 12.3246 158.891Z" fill="#263439"/>
<path d="M9.36844 167.582C9.32968 168.32 9.33568 169.061 9.3864 169.799C16.6303 174.543 26.4222 176.152 35.2134 175.506C36.1192 175.434 37.5793 175.452 37.8744 174.325C38.0369 173.704 37.9844 173.045 37.7255 172.457C35.1982 173.002 32.6077 173.196 30.0275 173.032C22.6707 172.457 15.6885 170.833 9.36844 167.582Z" stroke="#1D1D1B" stroke-width="0.364307" stroke-linecap="round" stroke-linejoin="round"/>
<path d="M12.3246 158.891C10.164 161.939 9.1094 165.616 9.38653 169.812C16.6304 174.543 26.4223 176.152 35.2135 175.506C36.1193 175.434 37.5794 175.452 37.8745 174.325C38.2799 172.716 37.2458 171.646 36.6556 170.63C35.1776 168.172 31.1669 166.822 28.2853 165.242C25.1265 163.525 24 162.047 22.6682 159.83C21.1543 158.803 19.6378 157.816 18.1238 156.799C16.1865 157.492 14.2645 158.195 12.3246 158.891Z" stroke="#1D1D1B" stroke-width="0.364307" stroke-linecap="round" stroke-linejoin="round"/>
<path d="M13.7103 122.317C14.4673 135.489 13.6 148.183 10.6311 160.192C15.1011 162.296 19.5532 163.271 24.0257 161.059C26.6867 149.733 27.2409 138.409 26.9638 127.082L13.7103 122.317Z" fill="#99867D"/>
<path d="M13.8592 125.366C14.321 137.446 13.3793 149.106 10.626 160.192C12.0993 160.905 13.6407 161.468 15.2269 161.872C18.9399 153.448 20.713 144.098 19.8996 133.567C22.2654 134.08 24.6287 134.657 26.9946 134.696C27.0305 132.479 27.0126 130.28 26.9767 128.08C22.5965 127.175 18.2368 126.269 13.8592 125.366Z" fill="#7B6C64"/>
<path d="M13.7103 122.317C14.4673 135.489 13.6 148.183 10.6311 160.192C15.1011 162.296 19.5532 163.271 24.0257 161.059C26.6867 149.733 27.2409 138.409 26.9638 127.082L13.7103 122.317Z" stroke="#1D1D1B" stroke-width="0.364307" stroke-linecap="round" stroke-linejoin="round"/>
<path d="M35.3443 127.072C39.0214 139.71 35.4931 149.779 33.9407 159.514C37.5331 161.233 41.2949 162.47 46.4295 160.253C49.1084 148.652 49.6268 136.828 47.0043 124.652C43.1039 125.476 39.2446 126.302 35.3443 127.072Z" fill="#99867D"/>
<path d="M43.825 161.133C44.7152 160.914 45.5863 160.623 46.4295 160.263C49.0365 148.958 49.6088 137.426 47.1993 125.568C46.8836 125.604 46.5886 125.643 46.2575 125.679C48.2051 136.338 47.4097 148.052 43.825 161.133Z" fill="#B7A297"/>
<path d="M35.8626 129.04C38.6699 140.754 35.4187 150.287 33.9407 159.524C34.7105 159.894 35.4931 160.246 36.2886 160.551C38.6339 151.942 39.5397 143.205 39.4294 134.354C42.5882 132.912 45.2491 130.954 47.8151 128.966C47.6689 128.062 47.5021 127.157 47.3353 126.233C43.494 127.157 39.686 128.098 35.8626 129.04Z" fill="#7B6C64"/>
<path d="M35.3443 127.072C39.0214 139.71 35.4931 149.779 33.9407 159.514C37.5331 161.233 41.2949 162.47 46.4295 160.253C49.1084 148.652 49.6268 136.828 47.0043 124.652C43.1039 125.476 39.2446 126.302 35.3443 127.072Z" stroke="#1D1D1B" stroke-width="0.364307" stroke-linecap="round" stroke-linejoin="round"/>
<path d="M61.5254 69.4212C68.3475 72.0554 74.9987 75.1123 81.4403 78.5742C80.3138 82.898 79.1694 87.2012 78.0429 91.507C70.817 90.6397 63.7784 89.1411 56.8142 87.3321L61.5254 69.4212Z" fill="#E6F3F5" stroke="#8DCECC" stroke-width="0.364307" stroke-linecap="round" stroke-linejoin="round"/>
<path d="M81.5534 78.6025C82.3463 79.0284 82.2 82.2436 81.2018 85.7873C80.2037 89.331 78.7436 91.8662 77.9507 91.4326C77.1578 90.9989 77.2964 87.8119 78.2997 84.2939C79.303 80.7759 80.7399 78.197 81.5534 78.6025Z" fill="#E6F3F5" stroke="#8DCECC" stroke-width="0.410814" stroke-linecap="round" stroke-linejoin="round"/>
<path d="M61.6718 69.4777C62.7803 70.0499 62.5776 74.502 61.2099 79.4159C59.8422 84.3298 57.8125 87.8402 56.704 87.2679C55.5955 86.6957 55.8162 82.2257 57.1838 77.3297C58.5515 72.4338 60.5633 68.9029 61.6718 69.4777Z" fill="#E6F3F5" stroke="#8DCECC" stroke-width="0.410814" stroke-linecap="round" stroke-linejoin="round"/>
<path d="M67.3066 77.0346C69.459 80.5647 71.1599 84.3509 72.3694 88.3046" stroke="white" stroke-width="0.364307" stroke-miterlimit="10"/>
<path d="M71.52 81.0966C72.5102 83.0604 73.3259 85.1074 73.9577 87.214" stroke="white" stroke-width="0.364307" stroke-miterlimit="10"/>
<path d="M76.8959 72.8571C77.1345 72.5718 77.4401 72.35 77.7853 72.2116C78.1306 72.0733 78.5047 72.0226 78.8743 72.0642C79.6441 72.1746 80.6295 72.6904 80.7937 73.4858C81.1273 74.9998 80.7937 76.6831 80.1856 78.1226C80.0135 78.4671 79.7503 78.7578 79.4246 78.9632C79.0988 79.1686 78.7231 79.2808 78.338 79.2876C77.6529 79.2696 77.0063 78.641 76.6753 78.0046C76.2673 77.1912 76.2673 76.193 76.3058 75.2692C76.3417 74.4455 76.3802 73.5038 76.8959 72.8571Z" fill="#FFD709"/>
<path d="M76.8959 72.8571C77.1345 72.5718 77.44 72.35 77.7853 72.2116C78.1305 72.0733 78.5047 72.0226 78.8743 72.0642C79.6441 72.1746 80.6295 72.6904 80.7937 73.4858C81.1273 74.9998 80.7937 76.6831 80.1855 78.1226C79.979 78.5464 79.6329 78.8862 79.2053 79.0849C79.0385 78.7513 79.0206 78.4177 79.2438 77.6607C79.4465 76.9602 79.7776 76.2571 79.834 75.5181C79.8699 74.9074 79.8699 74.2351 79.521 73.7219C79.2977 73.3703 78.7511 73.2959 78.338 73.2959C77.9249 73.2959 77.5246 73.6295 77.0986 73.6834C76.8963 73.7014 76.6928 73.7014 76.4905 73.6834C76.5585 73.3798 76.6974 73.0967 76.8959 72.8571Z" fill="#FFE047"/>
<path d="M76.8959 72.8571C77.1345 72.5718 77.4401 72.35 77.7853 72.2116C78.1306 72.0733 78.5047 72.0226 78.8743 72.0642C79.6441 72.1746 80.6295 72.6904 80.7937 73.4858C81.1273 74.9998 80.7937 76.6831 80.1856 78.1226C80.0135 78.4671 79.7503 78.7578 79.4246 78.9632C79.0988 79.1686 78.7231 79.2808 78.338 79.2876C77.6529 79.2696 77.0063 78.641 76.6753 78.0046C76.2673 77.1912 76.2673 76.193 76.3058 75.2692C76.3417 74.4455 76.3802 73.5038 76.8959 72.8571Z" stroke="#1D1D1B" stroke-width="0.364307" stroke-linecap="round" stroke-linejoin="round"/>
<path d="M72.8134 70.9172C73.0162 70.2347 73.4421 69.4572 74.1247 69.2544C74.9201 68.9978 76.0287 69.1261 76.5829 69.7343C77.4323 70.6965 77.8197 72.1002 77.8197 73.3755C77.8377 74.7611 77.3399 76.1827 76.6573 77.3836C76.2673 78.0687 75.5283 78.7872 74.7533 78.7333C73.9784 78.6794 73.3318 77.8455 72.9417 77.1449C72.5183 76.3751 72.4439 75.4257 72.4285 74.5584C72.4208 73.337 72.4208 72.0822 72.8134 70.9172Z" fill="#FFD709"/>
<path d="M72.9058 70.6581C73.1264 70.0499 73.5344 69.4392 74.1246 69.2544C74.9201 68.9978 76.0286 69.1261 76.5829 69.7343C77.4322 70.6965 77.8197 72.1002 77.8197 73.3755C77.8377 74.7611 77.3398 76.1827 76.6573 77.3836C76.5933 77.4958 76.5185 77.6015 76.434 77.6992C76.2376 77.4326 76.1106 77.1213 76.0645 76.7934C75.9722 76.3136 76.2134 75.8132 76.3057 75.3154C76.4339 74.7928 76.5265 74.2621 76.5829 73.727C76.626 73.131 76.5758 72.5319 76.434 71.9513C76.2878 71.4176 76.0825 70.8428 75.6411 70.4938C75.2896 70.2167 74.7533 70.1962 74.2914 70.2526C73.9219 70.3091 73.6627 70.8633 73.2932 70.8069C73.1541 70.7886 73.0213 70.7376 72.9058 70.6581Z" fill="#FFE047"/>
<path d="M72.8134 70.9172C73.0162 70.2347 73.4421 69.4572 74.1247 69.2544C74.9201 68.9978 76.0287 69.1261 76.5829 69.7343C77.4323 70.6965 77.8197 72.1002 77.8197 73.3755C77.8377 74.7611 77.3399 76.1827 76.6573 77.3836C76.2673 78.0687 75.5283 78.7872 74.7533 78.7333C73.9784 78.6794 73.3318 77.8455 72.9417 77.1449C72.5183 76.3751 72.4439 75.4257 72.4285 74.5584C72.4208 73.337 72.4208 72.0822 72.8134 70.9172Z" stroke="#1D1D1B" stroke-width="0.364307" stroke-linecap="round" stroke-linejoin="round"/>
<path d="M66.8088 71.6023C67.6223 70.7145 68.0918 69.4033 69.2106 68.9029C70.1908 68.4615 71.6689 68.3486 72.4618 69.0876C73.6088 70.1423 73.9039 71.9103 74.163 73.4499C74.3478 74.5584 73.1649 76.5522 71.9075 76.5522C71.207 76.5702 70.3936 76.2212 70.1703 75.554C69.8393 74.5276 69.9137 73.319 69.2671 72.5441C68.4537 72.2284 67.6402 71.9154 66.8088 71.6023Z" fill="#FFD709"/>
<path d="M69.8008 68.7002C70.7245 68.4436 71.8151 68.4795 72.4617 69.0876C73.6088 70.1423 73.9038 71.9103 74.163 73.4499C74.2913 74.2813 73.6498 75.6284 72.7953 76.2392C72.6668 75.8516 72.6473 75.4362 72.7389 75.0383C72.9249 74.1489 72.9249 73.2307 72.7389 72.3414C72.653 71.6186 72.3933 70.9274 71.9819 70.327C71.6124 69.8267 70.9555 69.6419 70.4423 69.2544C70.2267 69.08 70.024 68.8849 69.8008 68.7002Z" fill="#FFE047"/>
<path d="M66.8447 71.5818C67.6402 70.6786 68.1021 69.4033 69.2106 68.9029C70.1908 68.4615 71.6688 68.3486 72.4617 69.0876C73.6087 70.1423 73.9038 71.9103 74.163 73.4499" stroke="#1D1D1B" stroke-width="0.364307" stroke-linecap="round" stroke-linejoin="round"/>
<path d="M69.2671 72.598C68.4357 72.2849 67.5838 71.859 66.7524 71.5459" stroke="#8DCECC" stroke-width="0.364307" stroke-linecap="round" stroke-linejoin="round"/>
<path d="M74.1631 73.4422C74.3478 74.5507 73.1649 76.5445 71.9075 76.5445C71.207 76.5625 70.3936 76.2135 70.1703 75.5463C69.8393 74.5199 69.8932 73.3678 69.2671 72.5903" stroke="#1D1D1B" stroke-width="0.364307" stroke-linecap="round" stroke-linejoin="round"/>
<path d="M10.495 66.7705C5.08324 69.1184 4.78815 80.296 5.36294 87.8709C5.87614 95.0199 8.37288 101.912 9.13242 109.043C9.70465 114.475 9.27869 119.962 9.33514 125.412C16.5585 128.794 23.9846 131.86 32.7809 131.583C40.1505 131.36 46.876 130.251 50.743 126.225C50.1528 118.704 50.0399 111.129 48.9879 103.667C47.6381 94.2244 42.465 85.0611 43.5556 75.5643C44.3254 68.9132 44.1278 61.931 44.4049 55.0951L21.6135 31.6751C19.784 32.3602 17.9544 33.0428 16.1248 33.7074C13.6691 34.1898 13.0944 35.8526 12.5786 37.5564C11.8088 48.2105 11.2545 56.101 10.495 66.7705Z" fill="white"/>
<path d="M10.495 66.7705C5.08324 69.1185 4.78815 80.296 5.36294 87.8709C5.87614 95.0199 8.37288 101.912 9.13242 109.043C9.70465 114.475 9.27869 119.962 9.33514 125.412C13.215 127.223 17.1307 128.94 21.2877 130.105C22.5363 117.126 22.1285 104.041 20.0739 91.1657C24.0948 91.365 28.0888 90.4105 31.5851 88.4149C31.5287 92.2024 31.1771 95.9693 31.4003 99.7388C31.4363 100.588 31.6954 101.586 32.378 102.087C33.5789 102.972 35.2006 103.046 36.6273 103.526C35.7241 105.448 35.6009 107.037 37.3484 107.701C39.1446 108.404 41.0435 108.83 42.737 109.68C43.4016 109.993 43.825 110.639 44.3793 111.119C44.5281 107.001 44.6821 102.882 44.8412 98.7611C44.251 91.3889 43.6608 84.0527 43.068 76.6933L20.7308 77.2476C20.0483 73.8656 19.4478 70.4861 20.659 66.7911C20.5102 63.3526 20.3819 59.9167 20.233 56.4808L11.1237 57.5893C10.9389 60.4966 10.7362 63.4912 10.495 66.7705Z" fill="#EDEDED"/>
<path d="M25.6089 35.8141C24.2797 34.4387 22.93 33.0607 21.6136 31.6751C19.784 32.3602 17.9545 33.0428 16.1249 33.7074C13.6692 34.1898 13.0944 35.8526 12.5787 37.5564C12.5222 38.4263 12.4683 39.2756 12.4119 40.1224C14.2774 41.9879 16.1813 43.9099 17.9545 45.5367C20.2699 42.1167 22.8279 38.8675 25.6089 35.8141Z" fill="#EDEDED"/>
<path d="M10.495 66.7705C5.08324 69.1184 4.78815 80.296 5.36294 87.8709C5.87614 95.0199 8.37288 101.912 9.13242 109.043C9.70465 114.475 9.27869 119.962 9.33514 125.412C16.5585 128.794 23.9845 131.86 32.7809 131.583C40.1505 131.36 46.876 130.251 50.743 126.225C50.1528 118.704 50.0399 111.129 48.9879 103.667C47.6381 94.2244 42.465 85.0611 43.5556 75.5643C44.3254 68.9132 44.1278 61.931 44.4049 55.0951L21.6135 31.6751C19.784 32.3602 17.9544 33.0428 16.1248 33.7074C13.6691 34.1898 13.0944 35.8526 12.5786 37.5564C11.8088 48.2105 11.2545 56.101 10.495 66.7705Z" stroke="#1D1D1B" stroke-width="0.364307" stroke-linecap="round" stroke-linejoin="round"/>
<path d="M15.5757 38.493C20.7308 43.9329 22.7451 51.3513 23.1711 59.5857C23.2814 61.9515 23.2814 64.3354 23.3353 66.6987C20.6564 70.0807 16.4455 69.5829 12.3014 69.3237C11.8216 68.8105 11.3417 68.2691 10.8414 67.7533C5.6503 67.9919 1.40097 67.3274 1.23418 66.2753C1.04205 65.762 0.966666 65.2124 1.0135 64.6664C1.25214 59.365 1.73455 54.0995 4.22872 48.7776C5.83505 45.3237 7.40545 41.9622 10.749 39.2448C11.5804 38.5802 12.3579 37.6 13.4279 37.4358C14.2285 37.2921 15.0214 37.9208 15.5757 38.493Z" fill="#9BB2C7"/>
<path d="M18.9577 43.058C21.6546 47.8051 22.8555 53.458 23.1711 59.5729C23.2814 61.9387 23.2814 64.3226 23.3353 66.6859C22.5572 67.6835 21.5168 68.4449 20.3305 68.8849C20.2435 67.6783 20.2684 66.4663 20.4049 65.2643C18.483 65.0795 16.5559 64.9127 14.6032 64.7511C14.4287 56.2499 14.8572 48.231 18.9577 43.058Z" fill="#D0E6F8"/>
<path d="M15.5757 38.493C20.7308 43.9329 22.7451 51.3513 23.1711 59.5857C23.2814 61.9515 23.2814 64.3354 23.3353 66.6987C20.6564 70.0807 16.4455 69.5829 12.3014 69.3237C11.8216 68.8105 11.3417 68.2691 10.8414 67.7533C5.6503 67.9919 1.40097 67.3274 1.23418 66.2753C1.04205 65.762 0.966666 65.2124 1.0135 64.6664C1.25214 59.365 1.73455 54.0995 4.22872 48.7776C5.83505 45.3237 7.40545 41.9622 10.749 39.2448C11.5804 38.5802 12.3579 37.6 13.4279 37.4358C14.2285 37.2921 15.0214 37.9208 15.5757 38.493Z" stroke="#1D1D1B" stroke-width="0.364307" stroke-linecap="round" stroke-linejoin="round"/>
<path d="M10.9955 63.7298C16.3841 63.4732 20.7695 64.1558 20.7695 65.2694C20.7695 66.3831 16.3713 67.4864 10.9955 67.7456C5.61969 68.0048 1.24463 67.3017 1.24463 66.206C1.24463 65.1103 5.61969 63.971 10.9955 63.7298Z" fill="#9BB2C7" stroke="#1D1D1B" stroke-width="0.392728" stroke-linecap="round" stroke-linejoin="round"/>
<path d="M20.7872 54.2535C21.2703 57.8971 21.2643 61.5889 20.7693 65.2309" stroke="#1D1D1B" stroke-width="0.364307" stroke-linecap="round" stroke-linejoin="round"/>
<path d="M16.9256 63.8607C16.9256 63.971 16.9076 64.0813 16.9076 64.2122C16.8691 66.5576 16.7229 68.9234 17.4208 71.1199C18.0315 73.006 19.3992 75.1845 21.3391 75.5925C25.55 76.4419 30.0636 75.3359 34.2334 74.3095C36.3042 73.7963 38.3544 73.0265 40.4047 72.7391C40.3687 75.2512 40.2584 78.6409 40.2199 81.1633C36.9867 82.3463 33.8459 83.8243 30.5024 84.6916C27.7875 85.3947 24.9418 85.9746 22.132 85.8746C18.283 85.7283 14.3005 85.1535 11.3548 82.7953C9.15568 80.9991 7.95478 78.1945 6.84626 75.5899C5.73774 72.9469 5.14499 70.0833 4.83193 67.2581C4.75752 66.4062 4.70363 65.5568 4.68311 64.7075V64.4868C6.76601 64.0627 8.8794 63.8053 11.0032 63.717C12.9781 63.6106 14.9582 63.6586 16.9256 63.8607Z" fill="#E8C411"/>
<path d="M16.9255 63.8607C16.9255 63.971 16.9075 64.0814 16.9075 64.2122C16.869 66.5576 16.7228 68.9234 17.4207 71.12C18.0314 73.006 19.3991 75.1845 21.339 75.5925C25.5499 76.4419 30.0635 75.3359 34.2333 74.3095L34.4001 74.2531C33.9767 75.3257 33.679 76.3983 33.7175 77.4503C28.8216 78.079 20.6 79.6674 16.4431 77.1732C13.5435 75.4437 12.8891 69.3366 12.9174 64.3585C12.9353 64.1378 12.9353 63.8966 12.9353 63.6759C14.2679 63.6557 15.6005 63.7174 16.9255 63.8607Z" fill="#FFD709"/>
<path d="M16.9256 63.8607C16.9256 63.971 16.9076 64.0813 16.9076 64.2122C16.8691 66.5576 16.7229 68.9234 17.4208 71.1199C18.0315 73.006 19.3992 75.1845 21.3391 75.5925C25.55 76.4419 30.0636 75.3359 34.2334 74.3095C36.3042 73.7963 38.3544 73.0265 40.4047 72.7391C40.3687 75.2512 40.2584 78.6409 40.2199 81.1633C36.9867 82.3463 33.8459 83.8243 30.5024 84.6916C27.7876 85.3947 24.9418 85.9746 22.132 85.8746C18.283 85.7283 14.3005 85.1535 11.3548 82.7953C9.15568 80.9991 7.95478 78.1945 6.84626 75.5899C5.73774 72.9469 5.14499 70.0833 4.83193 67.2581C4.75752 66.4062 4.70363 65.5568 4.68311 64.7075V64.4868C6.76601 64.0627 8.8794 63.8053 11.0032 63.717C12.9781 63.6106 14.9582 63.6586 16.9256 63.8607V63.8607Z" stroke="#1D1D1B" stroke-width="0.364307" stroke-linecap="round" stroke-linejoin="round"/>
<path d="M40.6483 70.9172C38.5775 70.9172 36.73 71.9436 36.5272 73.9477C36.3245 75.9518 37.0404 77.9764 37.12 80.0086C37.2483 83.5549 37.2663 87.1011 37.12 90.632C37.0635 91.8508 36.2681 93.0132 36.4913 94.2244C36.6973 95.5741 37.3474 96.8165 38.3389 97.7552C39.668 98.9356 41.5156 99.3256 43.068 100.119C42.7165 102.872 44.5281 104.129 46.6605 104.904C50.2811 106.254 54.6408 106.7 56.8963 109.171C56.8399 105.107 56.9143 101.024 56.3959 96.9777C55.952 93.4854 55.4362 89.7364 56.8039 86.4571C57.6712 84.3709 61.3843 86.0516 62.734 86.2903C63.3242 86.3826 64.0812 86.6238 64.5431 86.2364C65.1538 85.7001 65.5695 84.7583 65.4129 83.9808C65.0233 82.104 64.1653 80.3563 62.9188 78.9001C61.1816 76.9807 58.6515 75.9441 56.6731 74.2813C54.3045 72.3028 51.3652 71.1339 48.2847 70.9455C45.747 70.7145 43.1681 70.8993 40.6483 70.9172Z" fill="white"/>
<path d="M36.8609 77.8455C36.9907 78.5606 37.0764 79.283 37.1175 80.0087C37.2459 83.5549 37.2638 87.1011 37.1175 90.632C37.0611 91.8508 36.2656 93.0132 36.4889 94.2244C36.6949 95.5741 37.345 96.8165 38.3364 97.7553C39.6656 98.9356 41.5131 99.3257 43.0656 100.119V100.129C43.6378 98.0606 44.4512 96.0232 44.7643 93.8857C45.0209 91.9997 44.7104 90.0803 44.7643 88.1943C44.7848 87.2166 44.5436 86.1414 45.0055 85.2767C45.3186 84.7019 46.0961 84.4068 46.7607 84.3529C47.592 84.2965 48.5338 84.4633 49.1984 84.979C49.9682 85.5718 50.4814 86.5315 50.8252 87.4732C51.4359 89.2489 51.731 91.1683 51.9697 93.0543C52.175 94.7915 52.0441 96.5646 52.1365 98.3198C52.1544 98.5969 52.0621 99.0023 52.3033 99.1512C52.5445 99.3 52.8755 99.0588 53.0063 98.8355C53.2172 98.3964 53.3359 97.9187 53.3553 97.4319C53.5606 95.7332 53.7069 94.032 53.7813 92.3153C53.8377 90.6525 53.6889 88.9795 53.7248 87.3449C53.7454 85.4974 54.5768 83.7063 56.609 82.5234C57.1813 82.1718 57.9203 82.8544 58.6028 82.9288C59.0288 82.9673 59.601 83.1854 59.8859 82.8749C60.1271 82.6183 59.832 82.1051 59.5908 81.8485C58.8013 81.0698 57.9126 80.3986 56.9478 79.8521C55.1002 78.8257 53.2527 77.6915 51.2409 77.0988C48.6903 76.329 46.0114 75.5592 43.3504 75.7876C41.1154 76.0082 39.0036 76.9782 36.8609 77.8455Z" fill="#EDEDED"/>
<path d="M53.7273 87.3423C53.7478 85.4948 54.5792 83.7037 56.6115 82.5208" stroke="#1D1D1B" stroke-width="0.364307" stroke-linecap="round" stroke-linejoin="round"/>
<path d="M42.5703 77.5863C41.9031 78.7333 41.7389 80.1934 41.8312 81.7074C42.0026 84.0437 42.0266 86.3886 41.9031 88.728C41.857 89.5941 41.5482 90.4256 41.0178 91.1118" stroke="#1D1D1B" stroke-width="0.364307" stroke-linecap="round" stroke-linejoin="round"/>
<path d="M44.7873 88.9692C44.9336 91.3145 45.3775 93.8087 44.3049 96.0617C43.6812 97.3366 43.2637 98.7025 43.0681 100.108" stroke="#1D1D1B" stroke-width="0.364307" stroke-linecap="round" stroke-linejoin="round"/>
<path d="M40.6483 70.9172C38.5775 70.9172 36.73 71.9436 36.5272 73.9477C36.3245 75.9518 37.0404 77.9764 37.12 80.0086C37.2483 83.5549 37.2663 87.1011 37.12 90.632C37.0635 91.8508 36.2681 93.0132 36.4913 94.2244C36.6973 95.5741 37.3474 96.8165 38.3389 97.7552C39.668 98.9356 41.5156 99.3256 43.068 100.119C42.7165 102.872 44.5281 104.129 46.6605 104.904C50.2811 106.254 54.6408 106.7 56.8963 109.171C56.8399 105.107 56.9143 101.024 56.3959 96.9777C55.952 93.4854 55.4362 89.7364 56.8039 86.4571C57.6712 84.3709 61.3843 86.0516 62.734 86.2903C63.3242 86.3826 64.0812 86.6238 64.5431 86.2364C65.1538 85.7001 65.5695 84.7583 65.4129 83.9808C65.0233 82.104 64.1653 80.3563 62.9188 78.9001C61.1816 76.9807 58.6515 75.9441 56.6731 74.2813C54.3045 72.3028 51.3652 71.1339 48.2847 70.9455C45.747 70.7145 43.1681 70.8993 40.6483 70.9172Z" stroke="#1D1D1B" stroke-width="0.364307" stroke-linecap="round" stroke-linejoin="round"/>
<path d="M62.172 74.8535C61.9536 76.3941 61.6321 77.9183 61.2097 79.4159C60.3065 82.6311 59.1236 85.2536 58.1074 86.5109" stroke="#8DCECC" stroke-width="0.364307" stroke-linecap="round" stroke-linejoin="round"/>
<path d="M58.8467 85.4024C60.2323 85.4589 61.9259 86.1235 62.7265 86.2697C63.3167 86.3621 64.0737 86.6033 64.5355 86.2158C65.1463 85.6795 65.5619 84.7378 65.4054 83.9603C65.0158 82.0835 64.1578 80.3357 62.9113 78.8796C62.5149 78.4534 62.086 78.0587 61.6282 77.6992C61.4999 78.2714 61.3511 78.8257 61.2023 79.4159C60.6561 81.4974 59.8654 83.5068 58.8467 85.4024Z" fill="white" stroke="#8DCECC" stroke-width="0.364307" stroke-linecap="round" stroke-linejoin="round"/>
<path d="M28.4546 26.7073C23.1506 27.8876 18.9218 30.0431 16.2429 33.6535C23.0583 38.6598 26.9381 48.1566 27.808 64.8383C27.9003 66.6859 28.4726 67.5378 29.9686 67.5173C33.1273 67.4993 36.3246 67.4813 39.4474 66.9271C40.6663 66.7244 41.0178 65.9468 41.1461 64.6356C41.626 59.6113 41.1641 54.4742 40.8151 49.2652L28.4546 26.7073Z" fill="#D0E6F8"/>
<path d="M28.4546 26.7073C23.1506 27.8876 18.9218 30.0431 16.2429 33.6535C18.5692 35.3793 20.5182 37.5623 21.9703 40.0685C24.6269 36.7453 27.536 33.6321 30.6717 30.7565L28.4546 26.7073Z" fill="#9BB2C7"/>
<path d="M28.4546 26.7073C23.1506 27.8876 18.9218 30.0431 16.2429 33.6535C23.0583 38.6598 26.9381 48.1566 27.808 64.8383C27.9003 66.6859 28.4726 67.5378 29.9686 67.5173C33.1273 67.4993 36.3246 67.4813 39.4474 66.9271C40.6663 66.7244 41.0178 65.9469 41.1461 64.6356C41.626 59.6113 41.1641 54.4742 40.8151 49.2652L28.4546 26.7073Z" stroke="#1D1D1B" stroke-width="0.364307" stroke-linecap="round" stroke-linejoin="round"/>
<path d="M28.1389 23.4536C21.8034 24.8392 20.0098 29.8686 21.0644 36.258C21.6546 39.7324 22.8196 43.0939 24.0205 46.4015C25.3577 50.0245 26.8805 53.5763 28.5829 57.0428C28.86 57.6329 29.268 58.8159 29.8402 58.5208C31.7057 57.5611 33.176 55.8598 34.3487 54.1047C35.8447 51.8876 36.5658 49.2292 37.6845 46.7889L28.1389 23.4536Z" fill="#D0E6F8"/>
<path d="M28.1389 23.4536C21.8034 24.8392 20.0098 29.8686 21.0644 36.258C21.2851 37.541 21.5776 38.8445 21.9317 40.107C24.6887 36.6455 27.7223 33.4137 31.0026 30.4434C30.0429 28.1109 29.0832 25.7835 28.1389 23.4536Z" fill="#9BB2C7"/>
<path d="M28.1389 23.4536C21.8034 24.8392 20.0098 29.8686 21.0644 36.258C21.6546 39.7324 22.8196 43.0939 24.0205 46.4015C25.3577 50.0245 26.8805 53.5763 28.5829 57.0428C28.86 57.6329 29.268 58.8159 29.8402 58.5208C31.7057 57.5611 33.176 55.8598 34.3487 54.1047C35.8447 51.8876 36.5658 49.2292 37.6845 46.7889L28.1389 23.4536Z" stroke="#1D1D1B" stroke-width="0.364307" stroke-linecap="round" stroke-linejoin="round"/>
<path d="M23.0404 17.7596C21.5624 15.1936 21.4521 12.8995 24.3234 11.2188C23.7153 6.59995 25.7835 4.77038 29.7121 4.86275C33.0479 -0.402721 36.6788 0.46716 40.3739 3.03318C43.6815 0.710932 46.9121 0.341425 49.8861 4.29566C51.4565 4.00057 52.7088 4.55226 53.7352 5.66335C59.5164 3.00239 62.806 8.97095 60.7917 11.2804C61.4204 13.405 60.6249 14.8446 58.6311 15.7324C50.6303 18.1872 42.6423 20.6446 34.6671 23.1046C31.6186 23.0481 28.5882 23.0122 25.5397 22.9558C22.1911 21.7369 21.3417 20.0177 23.0404 17.7596Z" fill="#3E525B"/>
<path d="M23.0404 17.7595C21.5624 15.1935 21.4521 12.8995 24.3234 11.2188C23.7153 6.59993 25.7835 4.78832 29.6813 4.86273C27.7593 7.74437 27.7414 10.7646 30.4511 13.6385C29.9379 15.7452 30.4691 16.9743 31.67 18.0008C30.9669 20.9568 28.8807 21.2904 27.0691 22.1577C26.9408 22.4348 26.8279 22.694 26.7175 22.9711C26.3301 22.9532 25.9477 22.9532 25.5346 22.9532C22.1911 21.7369 21.3417 20.0176 23.0404 17.7595Z" fill="#212D33"/>
<path d="M31.8545 2.31981C34.5693 0.0540181 37.451 1.00601 40.3711 3.0383V3.05883C40.2043 3.4463 40.0375 3.8158 39.8707 4.18531C37.2662 2.22744 34.5693 1.85023 31.8545 2.31981Z" fill="#58707B"/>
<path d="M46.0601 1.43198C47.3739 1.76556 48.6466 2.65084 49.886 4.29565C51.4564 4.00056 52.7086 4.55226 53.735 5.66334C59.5163 3.00238 62.8059 8.97094 60.7916 11.2804C61.3818 13.2921 60.6992 14.6983 58.9261 15.5836L58.5925 14.6983C59.6651 13.7745 60.0526 12.5531 59.7934 11.0032C61.333 7.92401 57.2069 4.81399 53.2731 7.03103C52.0517 5.86606 50.6122 5.74802 49.0957 6.03285C48.6466 4.29566 47.5586 2.79967 46.0601 1.43198Z" fill="#58707B"/>
<path d="M23.0404 17.7596C21.5624 15.1935 21.4521 12.8995 24.3234 11.2188C23.7153 6.59995 25.7835 4.77038 29.7121 4.86275C33.0479 -0.402721 36.6788 0.46716 40.3739 3.03318C43.6815 0.710932 46.9121 0.341425 49.8861 4.29566C51.4565 4.00057 52.7088 4.55226 53.7352 5.66335C59.5164 3.00239 62.806 8.97095 60.7917 11.2804C61.4204 13.405 60.6249 14.8446 58.6311 15.7324C50.6303 18.1872 42.6423 20.6446 34.6671 23.1046C31.6186 23.0481 28.5882 23.0122 25.5397 22.9558C22.1911 21.7369 21.3417 20.0177 23.0404 17.7596Z" stroke="#1D1D1B" stroke-width="0.364307" stroke-linecap="round" stroke-linejoin="round"/>
<path d="M25.3883 24.3055C23.9282 29.884 25.8502 40.3046 34.939 48.4261C35.696 49.3678 36.4529 50.3095 37.2305 51.2487C39.3372 51.2128 41.4618 51.1948 43.548 51.1743C43.8816 50.289 44.1946 49.3781 44.5282 48.4954C44.4538 47.4253 44.3614 46.3348 44.287 45.2622C45.452 45.3007 46.4502 45.0235 47.0044 43.7482C47.3534 42.9784 47.1327 42.2086 46.5964 41.4388L48.2412 39.7401C50.9381 40.7665 62.9651 45.7626 65.2745 42.8809C65.7749 42.2522 65.6645 41.2361 65.4054 40.4586C64.8126 38.6624 63.5014 37.1536 62.7803 35.3984C62.4169 34.4609 62.1813 33.4787 62.0798 32.4783C61.9695 31.6648 62.0798 30.8335 62.0978 30.02C63.078 28.932 63.1498 27.7671 62.3005 26.5302C62.2645 25.9375 62.4493 25.2908 62.1722 24.7546C60.104 20.7747 51.1049 20.3256 42.478 20.9979C35.4702 10.2257 23.0583 24.1002 25.3883 24.3055Z" fill="#FFD709"/>
<path d="M62.8368 43.7405C63.9453 43.7046 64.7947 43.4454 65.2745 42.8732C65.7749 42.2445 65.6646 41.2284 65.4054 40.4509C64.8126 38.6547 63.5014 37.1458 62.7803 35.3907C62.4169 34.4531 62.1813 33.4709 62.0798 32.4705C61.9695 31.6571 62.0798 30.8257 62.0978 30.0123C63.078 28.9243 63.1498 27.7593 62.3005 26.5225C62.2646 26.153 62.339 25.7527 62.3185 25.3935C61.949 25.4679 61.6 25.5603 61.2305 25.6347C61.8206 27.223 61.9695 28.7934 61.192 30.3818C60.9148 32.3422 60.9148 34.3001 61.7847 36.1477C62.4314 37.5513 63.3243 38.8266 63.9453 40.2661C64.1265 40.6787 64.1905 41.1333 64.1301 41.5799C64.071 42.0085 63.926 42.4208 63.7037 42.7921C63.4815 43.1633 63.1866 43.4859 62.8368 43.7405Z" fill="#FFE047"/>
<path d="M25.3882 24.3055C24.6107 27.2538 24.7954 31.5648 26.489 36.1836C27.7284 31.9728 28.9473 27.5926 31.385 25.024C31.6621 22.5683 31.9598 20.11 32.2549 17.6544C27.6232 19.5019 24.0385 24.1746 25.3882 24.3055Z" fill="#E8C411"/>
<path d="M39.0959 24.7109C41.0359 26.7432 45.7111 27.4258 47.4099 25.8938" stroke="#1D1D1B" stroke-width="0.364307" stroke-linecap="round" stroke-linejoin="round"/>
<path d="M48.1308 29.5145C47.1326 28.8319 46.9479 27.2615 48.5363 26.6329C50.0392 26.028 51.6615 25.7783 53.2767 25.9034C54.8919 26.0284 56.4565 26.5249 57.8484 27.3539C58.1616 27.5989 58.4038 27.9231 58.55 28.293C58.6961 28.6629 58.7409 29.0651 58.6797 29.458C58.5694 30.1047 57.8843 30.5666 57.2582 30.7898" stroke="#1D1D1B" stroke-width="0.364307" stroke-linecap="round" stroke-linejoin="round"/>
<path d="M55.6314 30.7718C55.8766 30.7718 56.0753 30.5731 56.0753 30.3279C56.0753 30.0828 55.8766 29.884 55.6314 29.884C55.3863 29.884 55.1875 30.0828 55.1875 30.3279C55.1875 30.5731 55.3863 30.7718 55.6314 30.7718Z" fill="#1D1D1B"/>
<path d="M51.5103 30.0508C51.7555 30.0508 51.9543 29.852 51.9543 29.6069C51.9543 29.3617 51.7555 29.1629 51.5103 29.1629C51.2652 29.1629 51.0664 29.3617 51.0664 29.6069C51.0664 29.852 51.2652 30.0508 51.5103 30.0508Z" fill="#1D1D1B"/>
<path d="M60.2861 30.3818C60.9533 30.4203 61.6538 30.4203 62.1157 29.9944" stroke="#1D1D1B" stroke-width="0.364307" stroke-linecap="round" stroke-linejoin="round"/>
<path d="M33.756 28.9423C33.2486 29.0212 32.7624 29.2021 32.3269 29.4742C31.8913 29.7462 31.5154 30.1037 31.2219 30.5251C30.9283 30.9465 30.7232 31.423 30.6189 31.9258C30.5147 32.4287 30.5134 32.9474 30.6152 33.4508" stroke="#1D1D1B" stroke-width="0.364307" stroke-linecap="round" stroke-linejoin="round"/>
<path d="M43.3093 41.3952C43.8456 41.5952 44.4203 41.6707 44.9901 41.6159" stroke="#1D1D1B" stroke-width="0.364307" stroke-linecap="round" stroke-linejoin="round"/>
<path d="M45.4776 38.2877C43.1682 36.8097 40.9152 35.5164 38.865 33.8536C37.9772 33.1505 37.4229 32.1909 36.4632 31.4698C35.8525 31.0079 34.8004 31.1567 34.1538 31.5801C33.8217 31.8239 33.5644 32.1556 33.4107 32.5378C33.257 32.92 33.2131 33.3375 33.2839 33.7433C33.549 35.2094 34.2669 36.5555 35.3367 37.5923C36.7429 38.9061 38.5699 39.6811 40.3071 40.4945C41.4416 40.9763 42.6244 41.335 43.8354 41.5645C43.7148 40.3226 44.0278 39.1217 45.4776 38.2877Z" fill="#1D1D1B" stroke="#1D1D1B" stroke-width="0.364307" stroke-linecap="round" stroke-linejoin="round"/>
<path d="M34.79 37.0047C34.9608 37.2085 35.146 37.3998 35.3443 37.5769C36.6761 38.8343 38.4235 39.6092 40.094 40.3688C40.3303 40.3227 40.552 40.2207 40.7406 40.0711C40.9434 39.8684 40.7766 39.4245 40.6483 39.1858C40.4065 38.759 40.1078 38.3671 39.7604 38.0209C39.1549 37.4391 38.478 36.9365 37.7461 36.5249C37.0456 36.1554 36.2321 35.8038 35.4367 35.8962C35.0672 35.9347 34.8465 36.4684 34.8106 36.8379C34.8106 36.9046 34.79 36.9611 34.79 37.0047Z" fill="#E30613" stroke="#1D1D1B" stroke-width="0.364307" stroke-linecap="round" stroke-linejoin="round"/>
<path d="M25.3883 24.3055C23.9282 29.884 25.8502 40.3046 34.939 48.4261C35.696 49.3678 36.4529 50.3095 37.2305 51.2487C39.3372 51.2128 41.4618 51.1948 43.548 51.1743C43.8816 50.289 44.1946 49.3781 44.5282 48.4954C44.4538 47.4253 44.3614 46.3348 44.287 45.2622C45.452 45.3007 46.4502 45.0235 47.0044 43.7482C47.3534 42.9784 47.1327 42.2086 46.5964 41.4388L48.2412 39.7401C50.9381 40.7665 62.9651 45.7626 65.2745 42.8809C65.7749 42.2522 65.6645 41.2361 65.4054 40.4586C64.8126 38.6624 63.5014 37.1536 62.7803 35.3984C62.4169 34.4609 62.1813 33.4787 62.0798 32.4783C61.9695 31.6648 62.0798 30.8335 62.0978 30.02C63.078 28.932 63.1498 27.7671 62.3005 26.5302C62.2645 25.9375 62.4493 25.2908 62.1722 24.7546C60.104 20.7747 51.1049 20.3256 42.478 20.9979C35.4702 10.2257 23.0583 24.1002 25.3883 24.3055Z" stroke="#1D1D1B" stroke-width="0.364307" stroke-linecap="round" stroke-linejoin="round"/>
<path d="M45.4775 38.2723C46.3557 38.8673 47.2972 39.363 48.2848 39.7503" stroke="#1D1D1B" stroke-width="0.364307" stroke-linecap="round" stroke-linejoin="round"/>
<path d="M30.2098 19.4454C30.2098 18.6756 28.7497 17.857 27.7156 17.7647C26.7354 17.6903 25.8296 18.301 25.1496 19.0195C24.5714 19.6734 24.2212 20.4973 24.1514 21.3674C24.059 22.1988 24.4465 23.1046 24.9212 23.8051C25.3292 24.3978 25.8091 24.8777 26.4608 25.006C27.459 25.0624 28.2904 25.3575 28.7164 24.7289C29.5452 23.51 30.2842 20.9594 30.2098 19.4454Z" fill="#E8C411"/>
<path d="M30.2099 19.4455C30.2099 18.6757 28.7498 17.8571 27.7157 17.7647C26.9767 17.7083 26.2736 18.0598 25.6834 18.5345C25.6576 18.6314 25.6387 18.73 25.6269 18.8296C25.602 18.942 25.6156 19.0595 25.6654 19.1632C25.7332 19.2349 25.824 19.2803 25.922 19.2915C26.0527 19.2884 26.183 19.2764 26.3121 19.2556C26.4167 19.243 26.5226 19.2491 26.6251 19.2735C26.7927 19.2941 26.9552 19.3445 27.105 19.4224C27.2841 19.4981 27.4523 19.5974 27.6053 19.7175C27.7332 19.8014 27.8503 19.9004 27.9543 20.0125C28.0467 20.1793 28.1031 20.3641 28.1776 20.5258C28.2332 20.647 28.2587 20.78 28.252 20.9132C28.2497 21.0701 28.274 21.2263 28.3238 21.3751C28.3252 21.4944 28.3442 21.6129 28.3803 21.7267C28.4303 21.8416 28.522 21.9333 28.6369 21.9833C28.7281 22.0533 28.836 22.0984 28.9499 22.1141C29.0604 22.1321 29.173 22.1321 29.2835 22.1141C29.4127 22.0884 29.5334 22.0311 29.6351 21.9473C29.7425 21.8428 29.8357 21.7246 29.9122 21.5958C29.9264 21.5684 29.9445 21.5434 29.9661 21.5214C30.1375 20.843 30.2195 20.1451 30.2099 19.4455Z" fill="#FFE047"/>
<path d="M26.625 19.2992C27.7694 19.448 28.3057 20.2229 28.3442 21.5367" stroke="#1D1D1B" stroke-width="0.364307" stroke-linecap="round" stroke-linejoin="round"/>
<path d="M30.2098 19.4454C30.2098 18.6756 28.7497 17.857 27.7156 17.7647C26.7354 17.6903 25.8296 18.301 25.1496 19.0195C24.5714 19.6734 24.2212 20.4973 24.1514 21.3674C24.059 22.1988 24.4465 23.1046 24.9212 23.8051C25.3292 24.3978 25.8091 24.8777 26.4608 25.006" stroke="#1D1D1B" stroke-width="0.364307" stroke-linecap="round" stroke-linejoin="round"/>
<path d="M55.0592 23.4048C54.9848 24.4569 55.1131 25.5295 55.7418 26.3968C56.4809 26.6299 57.1884 26.953 57.8485 27.3591C57.9276 27.4203 58.0014 27.4881 58.0692 27.5618C58.5479 27.6152 59.0299 27.6332 59.5113 27.6157C60.6637 27.5785 61.791 27.269 62.8009 26.7124C63.2628 26.4712 63.5707 25.9734 63.8273 25.5115C64.041 25.0957 64.1301 24.627 64.0839 24.1618C64.066 24.1618 64.048 24.1798 64.03 24.1798C62.747 24.2542 61.1099 24.0874 59.596 24.0335C57.5893 23.9719 56.0369 23.8436 55.0592 23.4048Z" fill="white" stroke="#1D1D1B" stroke-width="0.364307" stroke-linecap="round" stroke-linejoin="round"/>
<path d="M60.1936 24.0643C60.2527 24.1786 60.2843 24.3051 60.286 24.4338C60.2997 24.5381 60.2909 24.6442 60.2602 24.7449C60.2295 24.8456 60.1777 24.9386 60.1082 25.0176C60.0387 25.0967 59.9531 25.16 59.8572 25.2032C59.7613 25.2465 59.6572 25.2688 59.5519 25.2687C59.4467 25.2685 59.3427 25.2458 59.2469 25.2022C59.1511 25.1585 59.0657 25.095 58.9965 25.0157C58.9273 24.9364 58.8758 24.8432 58.8455 24.7424C58.8152 24.6416 58.8068 24.5355 58.8208 24.4312C58.8185 24.279 58.8643 24.1299 58.9517 24.0052C59.1544 24.0258 59.3751 24.0258 59.5983 24.0258C59.8215 24.0258 59.9909 24.0463 60.1936 24.0643Z" fill="#1D1D1B"/>
<path d="M58.8465 11.3445C59.2699 14.375 60.4528 17.018 62.8726 18.9579C63.6424 19.566 64.5918 19.9535 65.2949 20.6566C65.8286 21.1929 66.6241 21.8395 66.5317 22.5965C66.4214 23.705 65.4052 24.0925 64.0196 24.1849C62.7366 24.2593 61.0994 24.0925 59.5855 24.0386C56.1496 23.9462 54.0429 23.6127 53.8761 21.8934C52.8152 22.1603 51.6975 22.0894 50.6788 21.6907C49.1084 21.1262 47.5303 20.5822 46.0061 19.9638C43.956 19.1176 41.7281 18.7932 39.5218 19.0195C38.7808 19.0542 38.053 19.2283 37.3766 19.5327C36.1218 18.6833 34.5694 18.147 33.312 17.2977C35.198 16.4663 35.9371 14.765 35.198 12.9919C37.2509 11.809 38.1721 10.1693 38.1361 8.15238C41.0178 8.92219 43.7814 9.09411 46.3474 7.12598C47.8049 9.04793 50.0784 9.54573 52.8856 9.06589C54.0968 11.2598 55.9828 12.2041 58.8465 11.3445Z" fill="#FFD709"/>
<path d="M51.3999 14.144C51.4564 14.5495 51.4923 14.9754 51.5667 15.3988C51.8233 16.6382 52.3365 17.0257 52.9524 18.0598C53.2651 18.5137 53.5082 19.0119 53.6734 19.5378C54.0429 20.9235 51.9362 21.293 51.1074 21.3854L50.1477 21.4957C50.3325 21.5521 50.4967 21.6266 50.6814 21.6804C51.6474 22.049 52.6977 22.138 53.7119 21.937C53.7299 21.9191 53.7504 21.9011 53.7504 21.8806C53.9575 21.806 54.1605 21.7203 54.3585 21.624C54.5268 21.5109 54.6714 21.3663 54.7845 21.198C54.9255 20.9753 55.0311 20.7321 55.0976 20.477C55.1326 20.3082 55.1387 20.1346 55.1155 19.9638C55.0974 19.7758 55.0604 19.5901 55.0052 19.4095C54.9639 19.182 54.9021 18.9587 54.8204 18.7424C54.7169 18.5012 54.5869 18.2723 54.433 18.0598C54.2841 17.8571 54.1199 17.6903 53.9711 17.4876C53.8222 17.2849 53.7145 17.136 53.5656 16.9513C53.4168 16.7665 53.25 16.5997 53.1038 16.415L52.6213 15.8248C52.511 15.658 52.3827 15.4912 52.2724 15.3116C52.1056 15.0909 51.9567 14.8882 51.8105 14.6649C51.684 14.4834 51.5469 14.3095 51.3999 14.144Z" fill="#FFE047"/>
<path d="M58.8465 11.3445C59.2699 14.375 60.4529 17.018 62.8726 18.9579C63.6424 19.566 64.5919 19.9535 65.2949 20.6566C65.8287 21.1929 66.6241 21.8395 66.5318 22.5965C66.4214 23.705 65.4053 24.0925 64.0196 24.1849C63.763 24.1849 63.5064 24.2028 63.2062 24.2028C63.9632 23.8718 64.7946 23.5562 64.9614 22.7813C64.9848 22.4495 64.9002 22.1192 64.7202 21.8395C64.2919 21.3951 63.8219 20.993 63.3165 20.6386C60.7685 18.6243 59.3264 17.5594 58.5514 14.0619C58.4096 13.1459 58.5114 12.2087 58.8465 11.3445Z" fill="#FFE047"/>
<path d="M39.2061 19.0579C39.0213 20.2203 39.5397 21.4777 40.9792 22.5298C41.8671 23.1969 42.8088 23.9154 43.8993 24.1746C45.3719 24.5216 46.8996 24.5661 48.3899 24.3055C49.3675 24.1207 50.2554 23.51 50.9944 22.8634C51.2589 22.6037 51.4501 22.2789 51.5487 21.9216C51.2524 21.8661 50.9614 21.7854 50.6788 21.6804C49.1084 21.1262 47.5303 20.5822 46.006 19.9637C43.9559 19.1176 41.728 18.7932 39.5217 19.0195C39.4156 19.0233 39.31 19.0361 39.2061 19.0579Z" fill="white" stroke="#1D1D1B" stroke-width="0.364307" stroke-linecap="round" stroke-linejoin="round"/>
<path d="M44.9644 19.5738C44.559 19.4455 44.1536 19.3351 43.7276 19.2427C43.6308 19.3206 43.5525 19.419 43.4984 19.5309C43.4442 19.6427 43.4156 19.7651 43.4146 19.8894C43.4173 20.1019 43.5041 20.3048 43.6561 20.4534C43.8081 20.602 44.0128 20.6843 44.2254 20.6823C44.3299 20.6833 44.4336 20.6635 44.5304 20.6241C44.6272 20.5846 44.7152 20.5263 44.7893 20.4525C44.8633 20.3787 44.9219 20.2909 44.9617 20.1942C45.0014 20.0975 45.0216 19.9939 45.0209 19.8894C45.0225 19.7815 45.0033 19.6744 44.9644 19.5738Z" fill="#1D1D1B"/>
<path d="M33.312 17.3028C35.198 16.4714 35.9371 14.7701 35.198 12.997C37.2509 11.8141 38.1721 10.1744 38.1361 8.15751C41.0178 8.92732 43.7814 9.09924 46.3474 7.1311C47.8049 9.05305 50.0784 9.55086 52.8856 9.07101C54.0865 11.2496 55.9648 12.1939 58.8362 11.324C59.2596 14.3545 60.4426 16.9975 62.8623 18.9374C63.6321 19.5455 64.5815 19.933 65.2846 20.6361C65.8184 21.1724 66.6138 21.819 66.5215 22.576C66.4111 23.6845 65.395 24.072 64.0093 24.1643C62.7263 24.2388 61.0892 24.072 59.5752 24.0181C56.1393 23.9257 54.0326 23.5921 53.8658 21.8729C52.805 22.1397 51.6873 22.0689 50.6686 21.6702C49.1084 21.1262 47.5303 20.5822 46.0061 19.9638C43.956 19.1176 41.7281 18.7932 39.5218 19.0195C38.7808 19.0542 38.053 19.2283 37.3766 19.5327" stroke="#1D1D1B" stroke-width="0.364307" stroke-linecap="round" stroke-linejoin="round"/>
<path d="M51.5103 14.2159C52.4161 15.6939 53.0627 16.2482 54.0968 17.4696C55.0411 18.5961 55.4465 21.5342 53.6349 21.9216C52.9297 22.0143 52.2154 22.0143 51.5103 21.9216" stroke="#1D1D1B" stroke-width="0.364307" stroke-linecap="round" stroke-linejoin="round"/>
<path d="M30.469 17.875L30.0815 20.536C29.9712 21.2365 29.8609 21.9396 29.7864 22.6427C29.7326 23.2149 29.5298 23.8231 29.6941 24.3979C29.7311 24.6081 29.836 24.8004 29.9926 24.9454C30.1492 25.0904 30.349 25.1802 30.5614 25.201C30.8422 25.1842 31.1148 25.0999 31.3561 24.9551C31.5973 24.8104 31.8001 24.6095 31.947 24.3696C32.3525 23.7615 32.5013 23.0225 32.6296 22.3014C32.9427 20.5642 33.0556 18.8091 33.2583 17.0539C32.8144 16.4817 32.3525 15.9095 31.8906 15.3347C31.4107 16.1763 30.9489 17.0257 30.469 17.875Z" fill="#3E525B"/>
<path d="M30.8512 17.1001C31.0553 17.3681 31.3515 17.5509 31.6826 17.6133C31.1283 20.0715 30.5741 22.5478 30.0198 25.0214L29.6323 24.5236V23.5665C29.6862 23.1764 29.7606 22.7967 29.8171 22.4015C29.8889 21.8113 29.9633 21.2365 30.0198 20.6463C30.1301 20.0356 30.2225 19.4275 30.3149 18.8168C30.3713 18.5037 30.4432 18.1881 30.4996 17.875C30.4996 17.7082 30.4817 17.5415 30.4817 17.3618C30.6093 17.281 30.7326 17.1937 30.8512 17.1001Z" fill="#212D33"/>
<path d="M30.469 17.875L30.0815 20.536C29.9712 21.2365 29.8609 21.9396 29.7864 22.6427C29.7326 23.2149 29.5298 23.8231 29.6941 24.3978C29.7311 24.608 29.836 24.8003 29.9926 24.9454C30.1492 25.0904 30.349 25.1802 30.5614 25.201C30.8422 25.1842 31.1148 25.0998 31.3561 24.9551C31.5973 24.8104 31.8001 24.6095 31.947 24.3696C32.3525 23.7615 32.5013 23.0225 32.6296 22.3014C32.9427 20.5642 33.0556 18.8091 33.2583 17.0539" stroke="#1D1D1B" stroke-width="0.364307" stroke-linecap="round" stroke-linejoin="round"/>
<path d="M39.1524 51.6849C38.2646 50.2993 37.3972 48.9316 36.5094 47.5639C35.8268 46.4759 34.4412 45.9755 33.8125 47.0096C33.0427 48.249 32.9811 49.8322 32.9067 51.2974C32.8323 52.8371 32.7964 54.4383 33.3327 55.8778C33.6457 56.7092 34.7183 56.5988 35.3444 56.0446C36.1142 55.3441 36.9713 54.7616 37.6538 53.9918C38.2646 53.3118 38.652 52.4599 39.1524 51.6849Z" fill="#01716E" stroke="#1D1D1B" stroke-width="0.364307" stroke-linecap="round" stroke-linejoin="round"/>
<path d="M40.1121 51.649C40.9614 52.9782 41.7928 54.3074 42.6422 55.6392C43.3093 56.6656 44.5461 57.1172 45.0645 56.0626C45.6906 54.7796 45.6547 53.1989 45.6547 51.7594C45.6367 50.2069 45.5803 48.6006 45.026 47.1764C44.7129 46.3835 43.7712 46.5298 43.2529 47.1226C42.6062 47.841 41.8672 48.4518 41.313 49.2652C40.8152 49.9862 40.5175 50.8612 40.1121 51.649Z" fill="#01716E" stroke="#1D1D1B" stroke-width="0.390144" stroke-linecap="round" stroke-linejoin="round"/>
<path d="M40.6304 51.5566C41.4172 51.912 42.0936 52.4732 42.5882 53.1809" stroke="#1D1D1B" stroke-width="0.364307" stroke-linecap="round" stroke-linejoin="round"/>
<path d="M38.634 51.8337C37.9766 51.9109 37.3676 52.2181 36.9148 52.7011" stroke="#1D1D1B" stroke-width="0.364307" stroke-linecap="round" stroke-linejoin="round"/>
<path d="M39.5013 53.6043C40.3885 53.6043 41.1077 52.8851 41.1077 51.998C41.1077 51.1108 40.3885 50.3917 39.5013 50.3917C38.6142 50.3917 37.895 51.1108 37.895 51.998C37.895 52.8851 38.6142 53.6043 39.5013 53.6043Z" fill="#01716E" stroke="#1D1D1B" stroke-width="0.364307" stroke-linecap="round" stroke-linejoin="round"/>
</svg>
