<svg width="94" height="177" viewBox="0 0 94 177" fill="none" xmlns="http://www.w3.org/2000/svg">
<path d="M73.334 163.72C83.9611 165.652 92.8548 168.124 93.5367 173.202C90.5565 174.964 85.8716 174.571 81.3037 174.834C76.3194 175.115 72.6833 174.178 70.3408 171.235V174.178L65.9552 174.121C61.2155 171.328 62.1135 167.713 65.2264 163.71L73.334 163.72Z" fill="#1D1D1B"/>
<path d="M77.3267 164.509C86.1162 166.331 92.9563 168.78 93.5367 173.202C93.3676 173.296 93.2166 173.371 93.05 173.462C91.1005 169.21 84.7654 166.773 76.9519 164.993C77.082 164.827 77.2148 164.657 77.3267 164.509Z" fill="#575756"/>
<path d="M39.9016 162.333C28.6967 164.884 25.6411 168.632 24.0117 172.867C31.2266 176.784 38.5352 176.464 45.875 174.949C46.8892 174.132 47.6442 173.038 48.0483 171.799L48.1055 174.163L51.536 173.093C52.9206 169.121 51.2341 166.61 48.7042 164.473L39.9016 162.333Z" fill="#1D1D1B"/>
<path d="M50.604 173.379L51.541 173.098C52.9257 169.126 51.2391 166.615 48.7092 164.478C48.2407 164.366 47.7931 164.254 47.3428 164.16C50.9398 167.414 51.6894 170.037 50.604 173.379Z" fill="#575756"/>
<path d="M73.334 163.72C83.9611 165.652 92.8548 168.124 93.5367 173.202C90.5565 174.964 85.8716 174.571 81.3037 174.834C76.3194 175.115 72.6833 174.178 70.3408 171.235V174.178L65.9552 174.121C61.2155 171.328 62.1135 167.713 65.2264 163.71L73.334 163.72Z" stroke="#1D1D1B" stroke-width="0.367834" stroke-miterlimit="10" stroke-linecap="round"/>
<path d="M39.9016 162.333C28.6967 164.884 25.6411 168.632 24.0117 172.867C31.2266 176.784 38.5352 176.464 45.875 174.949C46.8892 174.132 47.6442 173.038 48.0483 171.799L48.1055 174.163L51.536 173.093C52.9206 169.121 51.2341 166.61 48.7042 164.473L39.9016 162.333Z" stroke="#1D1D1B" stroke-width="0.367834" stroke-miterlimit="10" stroke-linecap="round"/>
<path d="M35.7423 97.0636C36.1535 99.5544 36.0598 102.048 35.7423 104.578C33.2879 123.974 32.1817 143.427 31.5076 162.841C37.0176 165.964 43.6495 166.456 51.0283 165.183C51.1402 147.529 51.6842 129.877 54.3078 112.243C55.4322 112.225 56.5566 112.225 57.6914 112.204C61.2338 129.877 62.5456 147.099 62.9386 164.134C68.8417 166.326 74.9894 166.982 81.5093 165.407C81.9986 145.787 78.5864 126.334 74.409 106.584C73.7323 103.399 75.588 100.14 75.1898 96.8397L35.7423 97.0636Z" fill="#8E999E"/>
<path d="M79.7057 165.782C80.2861 165.67 80.8873 165.558 81.5042 165.407C81.9935 145.787 78.5813 126.334 74.4038 106.584C74.0655 105.049 74.3466 103.474 74.6641 101.899L71.572 102.519C72.7719 108.927 73.8208 115.374 75.1899 121.746C77.4959 132.334 78.8337 142.94 79.5183 153.603C79.7629 157.648 79.651 161.716 79.7057 165.782Z" fill="#A7B2B8"/>
<path d="M36.0234 100.325C36.0316 101.747 35.9376 103.169 35.7423 104.578C33.2879 123.974 32.1817 143.427 31.5076 162.841C32.1627 163.209 32.8379 163.54 33.5299 163.832C34.4305 145.899 37.0541 128.734 37.1738 112.43C37.1635 111.123 37.5003 109.836 38.1498 108.701C38.4674 108.18 39.1909 107.969 39.8182 107.92C42.1969 107.682 44.5917 107.65 46.9758 107.826C53.946 108.313 61.049 109.174 67.9281 107.225C70.1378 106.608 72.2174 105.632 74.2606 104.565C74.3361 103.027 74.7681 101.491 75.0284 99.9163C62.0319 100.064 49.0303 100.2 36.0234 100.325Z" fill="#747F83"/>
<path d="M57.6863 112.214C61.2286 129.887 62.5404 147.11 62.9335 164.145C64.0725 164.565 65.2333 164.924 66.4108 165.22C65.9605 156.75 65.8486 148.242 64.8751 139.791C64.2192 134.187 62.4207 128.752 61.4447 123.188C61.0699 121.126 60.7341 119.023 60.846 116.941C60.9422 115.826 61.3152 114.752 61.9314 113.818C62.3817 113.104 63.3759 112.881 63.8444 112.186C64.5003 110.593 63.5998 111.267 63.1495 111.306C62.4389 111.53 61.8767 111.699 61.1454 111.886C60.0082 112.124 58.8479 112.234 57.6863 112.214Z" fill="#747F83"/>
<path d="M48.8966 165.501C49.5916 165.407 50.3021 165.313 51.0335 165.183C51.1454 147.529 51.6894 129.877 54.313 112.243C53.0949 112.763 52.0642 113.284 51.7649 114.473C49.9273 126.727 49.6827 139.171 49.0294 151.539C48.7665 156.17 48.8238 160.967 48.8966 165.501Z" fill="#A7B2B8"/>
<path d="M54.3132 112.261C57.3116 112.412 60.2345 112.279 62.8789 111.418" stroke="#1D1D1B" stroke-width="0.367834" stroke-miterlimit="10" stroke-linecap="round"/>
<path d="M35.7423 97.0636C36.1535 99.5544 36.0598 102.048 35.7423 104.578C33.2879 123.974 32.1817 143.427 31.5076 162.841C37.0176 165.964 43.6495 166.456 51.0283 165.183C51.1402 147.529 51.6842 129.895 54.3078 112.261C55.4171 112.37 56.5341 112.376 57.6446 112.279C61.2051 129.952 62.5404 147.091 62.9334 164.134C68.8364 166.326 74.9842 166.982 81.5041 165.407C81.9934 145.787 78.5812 126.334 74.4038 106.584C73.727 103.399 75.5828 100.14 75.1846 96.8397L35.7423 97.0636Z" stroke="#1D1D1B" stroke-width="0.367834" stroke-miterlimit="10" stroke-linecap="round"/>
<path d="M61.4653 54.5995C66.7307 54.7661 71.9961 57.3714 77.2433 60.388C82.1729 63.2199 86.3322 66.4056 89.3123 70.0964C91.6366 72.9828 92.1415 75.5882 91.4674 77.9307C88.0838 89.5104 82.9772 92.7665 77.5426 95.2651C75.2869 89.8479 73.0312 84.4315 70.7754 79.016C73.2116 78.3055 75.7051 77.686 77.3526 75.5492C75.3667 73.001 72.6859 71.9704 69.9321 71.1635C67.1107 65.6352 64.2885 60.1139 61.4653 54.5995Z" fill="#508733"/>
<path d="M61.4653 54.5995C66.7307 54.7661 71.9961 57.3714 77.2433 60.388C82.1729 63.2199 86.3322 66.4056 89.3123 70.0964C91.6366 72.9828 92.1415 75.5882 91.4674 77.9307C91.4102 78.1363 91.3347 78.3419 91.28 78.5475C86.8761 67.6159 76.1189 61.5124 64.3882 56.791C63.4877 56.0596 62.5325 55.5157 61.6137 54.8806C61.5668 54.7869 61.5278 54.6932 61.4653 54.5995Z" fill="#70AB51"/>
<path d="M61.4653 54.5995C66.7307 54.7661 71.9961 57.3714 77.2433 60.388C82.1729 63.2199 86.3322 66.4056 89.3123 70.0964C91.6366 72.9828 92.1415 75.5882 91.4674 77.9307C88.0838 89.5104 82.9772 92.7665 77.5426 95.2651C75.2869 89.8479 73.0312 84.4315 70.7754 79.016C73.2116 78.3055 75.7051 77.686 77.3526 75.5492C75.3667 73.001 72.6859 71.9704 69.9321 71.1635C67.1107 65.6352 64.2885 60.1139 61.4653 54.5995Z" stroke="#1D1D1B" stroke-width="0.367834" stroke-miterlimit="10" stroke-linecap="round"/>
<path d="M36.4347 96.6888C34.9927 96.6315 33.9438 98.6174 33.6627 100.044C33.4935 100.942 34.5242 101.824 35.3493 102.235C41.7755 105.403 49.2715 107.295 56.9184 106.845C63.4019 106.488 70.3539 105.778 75.752 102.311C77.6078 101.111 76.9519 95.921 74.7396 95.7518C67.9724 95.2651 62.6159 100.718 55.8305 100.887C49.2168 101.054 43.0509 96.9309 36.4347 96.6888Z" fill="#508733"/>
<path d="M36.4346 96.6888C34.9927 96.6315 33.9438 98.6174 33.6627 100.044C33.4935 100.942 34.5242 101.824 35.3493 102.235C35.4959 102.296 35.6392 102.365 35.7788 102.441C35.5731 101.4 35.1229 100.192 35.8178 100.38C41.4762 101.972 47.473 104.073 53.7326 103.997C58.2667 103.922 62.9334 104.448 67.3191 103.323C70.5986 102.498 74.5522 100.981 76.0696 98.2635C72.548 100.491 64.3779 101.41 55.945 100.887H55.8305C54.3758 100.912 52.9232 100.767 51.5021 100.455C46.3668 99.7991 41.4007 98.581 37.5981 96.7643C37.2118 96.719 36.8235 96.6938 36.4346 96.6888Z" fill="#4A7035"/>
<path d="M36.4347 96.6888C34.9927 96.6315 33.9438 98.6174 33.6627 100.044C33.4935 100.942 34.5242 101.824 35.3493 102.235C41.7755 105.403 49.2715 107.295 56.9184 106.845C63.4019 106.488 70.3539 105.778 75.752 102.311C77.6078 101.111 76.9519 95.921 74.7396 95.7518C67.9724 95.2651 62.6159 100.718 55.8305 100.887C49.2168 101.054 43.0509 96.9309 36.4347 96.6888Z" stroke="#1D1D1B" stroke-width="0.367834" stroke-miterlimit="10" stroke-linecap="round"/>
<path d="M61.2466 51.7677C69.1174 60.9398 69.6432 67.1865 73.8206 76.9546C77.2042 84.8254 80.213 92.9226 76.6706 97.7195C72.7535 103.021 64.2632 102.834 56.2806 102.816C48.212 102.798 40.8383 101.616 34.3366 98.9923C32.6318 98.2999 31.3565 97.0246 31.2133 94.2891C31.1925 86.0435 33.0873 77.4986 36.3095 68.035C37.3506 64.9793 37.4912 61.6998 38.0716 58.5349C38.0898 56.5099 38.6702 54.5787 40.526 52.8374C44.5733 52.1815 48.5946 51.536 52.6497 50.8879C55.6819 51.169 58.2118 51.4684 61.2466 51.7677Z" fill="#508733"/>
<path d="M61.2469 51.7676C69.1177 60.9397 69.6435 67.1864 73.8209 76.9546C77.2045 84.8253 80.2133 92.9225 76.6709 97.7194C75.6424 99.0673 74.2968 100.14 72.7538 100.843C73.6335 98.1255 74.7787 95.4472 74.646 92.6362C74.4474 87.9863 73.2461 83.4343 71.1244 79.2919C66.8325 71.1035 63.1392 62.5196 61.0049 51.726C61.0778 51.7494 61.1715 51.7494 61.2469 51.7676Z" fill="#70AB51"/>
<path d="M62.4466 53.2122C62.5585 53.3423 62.6704 53.4724 62.7849 53.6234C62.3347 55.2163 61.8844 56.8274 61.4523 58.4411C61.3977 59.5447 59.6538 62.085 57.4805 62.085C55.3072 62.085 53.264 60.604 52.2515 58.9357C52.2333 59.9481 52.2151 60.9398 52.1761 61.9523C49.3587 62.2318 46.5268 61.5878 44.1075 60.1173C42.9831 59.4406 42.4964 59.4042 42.4209 60.1902C42.1216 63.1339 41.1664 64.8569 39.2559 65.9996C38.0743 70.2551 36.6115 74.4533 35.7318 78.7817C34.8736 82.8497 34.3401 86.9794 34.1363 91.1319C34.0608 92.5374 33.7797 94.4686 34.9405 95.2547C44.8311 102.04 69.1982 102.62 76.0643 98.2739C75.9523 98.4613 75.8404 98.6487 75.7103 98.8361C71.473 103 63.6595 102.844 56.2754 102.826C48.2068 102.808 40.8332 101.626 34.3315 99.0026C32.6267 98.3103 31.3513 97.035 31.2082 94.2994C31.1874 86.0539 33.0822 77.509 36.3044 68.0453C37.3455 64.9897 37.4861 61.7102 38.0665 58.5452C38.0847 56.5203 38.6651 54.589 40.5209 52.8478L45.7681 52.0045C47.1371 52.9415 48.4853 53.8967 49.8544 54.8337C54.0501 54.2836 58.2475 53.7431 62.4466 53.2122Z" fill="#4A7035"/>
<path d="M61.2466 51.7677C69.1174 60.9398 69.6432 67.1865 73.8206 76.9546C77.2042 84.8254 80.213 92.9226 76.6706 97.7195C72.7535 103.021 64.2632 102.834 56.2806 102.816C48.212 102.798 40.8383 101.616 34.3366 98.9923C32.6318 98.2999 31.3565 97.0246 31.2133 94.2891C31.1925 86.0435 33.0873 77.4986 36.3095 68.035C37.3506 64.9793 37.4912 61.6998 38.0716 58.5349C38.0898 56.5099 38.6702 54.5787 40.526 52.8374C44.5733 52.1815 48.5946 51.536 52.6497 50.8879C55.6819 51.169 58.2118 51.4684 61.2466 51.7677Z" stroke="#1D1D1B" stroke-width="0.367834" stroke-miterlimit="10" stroke-linecap="round"/>
<path d="M26.5025 59.4327C28.1716 59.4175 29.8168 59.0335 31.3202 58.3083C33.3243 57.3167 35.2243 56.6608 36.9968 56.679C38.8916 56.7154 39.8469 57.6342 40.4637 58.553C41.7963 60.5025 42.3195 62.2255 41.9447 64.0188C41.0832 68.0661 38.103 70.5023 35.1228 72.9957C31.5831 75.9577 27.0855 77.3424 22.2496 78.2794C17.6401 78.2794 14.7171 76.6865 12.8432 74.0629C10.1919 69.7093 8.78485 64.7122 8.77503 59.6149C8.76636 57.4787 9.18677 55.3624 10.0113 53.3917C10.3861 52.4547 11.2503 52.0903 12.4475 51.968C16.4402 51.6114 20.412 50.88 24.4046 50.5989C25.4718 50.5235 26.6534 50.8436 27.2521 51.7806C27.7414 52.5614 27.4785 53.5791 27.2911 54.4771C26.9281 56.1114 26.6647 57.7664 26.5025 59.4327Z" fill="#508733"/>
<path d="M19.0065 77.9671C16.1955 77.3867 14.2278 76.0176 12.8432 74.0629C10.1919 69.7094 8.78485 64.7123 8.77503 59.615C8.76636 57.4787 9.18677 55.3625 10.0113 53.3918C10.3679 52.5094 11.1357 52.1346 12.2055 52.0045C12.1664 52.3428 12.13 52.6968 12.1118 53.0456C10.6126 55.9893 10.3497 58.9487 10.7427 61.8534C11.6979 68.9147 14.4543 74.331 19.0065 77.9671Z" fill="#4A7035"/>
<path d="M26.6354 59.4328C28.2583 59.3885 29.8541 59.0055 31.3203 58.3084C33.3245 57.3167 35.2245 56.6608 36.997 56.6791C38.8918 56.7155 39.847 57.6343 40.4639 58.553C41.0634 59.3792 41.5257 60.2968 41.8329 61.2703C40.9084 60.1605 39.7747 59.2434 38.4962 58.5713C37.5227 58.0273 36.1537 58.1782 35.0865 58.4958C33.5873 58.9461 32.2001 59.7139 30.7191 60.2396C29.3526 60.7081 27.8899 61.1194 26.5026 61.4942C26.4844 60.6691 26.5599 60.2943 26.5417 59.4718C26.5702 59.4531 26.602 59.4398 26.6354 59.4328Z" fill="#70AB51"/>
<path d="M26.5025 59.4327C28.1716 59.4175 29.8168 59.0335 31.3202 58.3083C33.3243 57.3167 35.2243 56.6608 36.9968 56.679C38.8916 56.7154 39.8469 57.6342 40.4637 58.553C41.7963 60.5025 42.3195 62.2255 41.9447 64.0188C41.0832 68.0661 38.103 70.5023 35.1228 72.9957C31.4619 76.0135 26.9749 77.8551 22.2496 78.2794C17.6583 78.7296 14.7171 76.6865 12.8432 74.0629C10.1919 69.7093 8.78485 64.7122 8.77503 59.6149C8.76636 57.4787 9.18677 55.3624 10.0113 53.3917C10.3861 52.4547 11.2503 52.0903 12.4475 51.968C16.4402 51.6114 20.412 50.88 24.4046 50.5989C25.4718 50.5235 26.6534 50.8436 27.2521 51.7806C27.7414 52.5614 27.4785 53.5791 27.2911 54.4771C26.9281 56.1114 26.6647 57.7664 26.5025 59.4327V59.4327Z" stroke="#1D1D1B" stroke-width="0.367834" stroke-miterlimit="10" stroke-linecap="round"/>
<path d="M26.5024 59.5082C26.3905 61.5124 26.4478 63.4618 27.023 65.0547" stroke="#1D1D1B" stroke-width="0.367834" stroke-miterlimit="10" stroke-linecap="round"/>
<path d="M12.6922 47.7204C11.3049 49.0712 9.8994 50.776 11.0811 52.2752C12.3174 53.8681 14.3788 55.0107 18.2204 54.8233C21.8643 54.6541 25.4926 53.5688 27.0464 49.8937C27.6841 48.358 26.617 47.2701 24.7612 46.9161C20.7495 47.1764 16.7265 47.4445 12.6922 47.7204Z" fill="#508733"/>
<path d="M12.6922 47.7204C11.3049 49.0712 9.8994 50.776 11.0811 52.2752C11.3537 52.6357 11.6682 52.9625 12.0181 53.2487C12.0545 53.194 12.0727 53.1185 12.1118 53.0613C12.2098 51.1599 12.7441 49.3066 13.6734 47.6449C13.3481 47.6839 13.0305 47.7022 12.6922 47.7204Z" fill="#4A7035"/>
<path d="M25.8675 51.8301C26.3551 51.2491 26.7525 50.598 27.0466 49.8989C27.627 48.4569 26.7473 47.4262 25.1179 46.9942C25.9404 48.4882 26.0159 50.1956 25.8675 51.8301Z" fill="#70AB51"/>
<path d="M12.6922 47.7204C11.3049 49.0712 9.8994 50.776 11.0811 52.2752C12.3174 53.8681 14.3788 55.0107 18.2204 54.8233C21.8643 54.6541 25.4926 53.5688 27.0464 49.8937C27.6841 48.358 26.617 47.2701 24.7612 46.9161C20.7495 47.1764 16.7265 47.4445 12.6922 47.7204Z" stroke="#1D1D1B" stroke-width="0.367834" stroke-miterlimit="10" stroke-linecap="round"/>
<path d="M21.4635 50.0446C22.174 50.1383 23.0251 50.1565 23.6732 49.8C24.7093 49.2119 25.57 48.3584 26.1667 47.3273C26.7289 46.3331 26.3359 44.9848 26.8981 43.9906C27.8533 42.2858 29.9511 41.2551 30.607 39.3993C30.9818 38.3582 30.646 36.7757 29.6882 36.2135C28.6471 35.5784 27.1792 36.1016 26.0912 36.6456C25.0032 37.1896 24.4801 38.3686 23.6732 39.2119C22.6061 38.4311 21.3698 37.8272 20.4692 36.833C19.5687 35.8387 19.1392 34.3916 18.3506 33.2724C17.2262 31.6613 16.31 29.7873 14.7535 28.6056C13.9467 28.007 12.5802 27.7259 11.7734 28.3063C10.8754 28.9622 10.5943 30.3885 10.8182 31.4739C11.1357 33.0355 12.5802 34.1339 13.2726 35.5394C13.5329 36.06 14.2486 37.3197 13.6864 37.2442C12.523 37.0568 11.7552 35.8778 10.8234 35.1828C9.52199 34.2276 8.42362 32.8794 6.91922 32.2781C5.98222 31.9033 4.65221 31.7732 3.8844 32.4291C3.11658 33.085 2.87192 34.4723 3.3222 35.3702C4.10303 36.8512 5.81565 37.6008 7.10662 38.6705C7.85622 39.2874 8.75677 39.7559 9.41267 40.469C9.73021 40.8048 10.3132 41.4607 9.93322 41.7236C9.46473 42.0229 8.84527 41.367 8.31951 41.203C6.8958 40.7527 5.54756 39.8157 4.04837 39.8522C2.96041 39.8704 1.5367 40.3389 1.12546 41.3514C0.711623 42.2884 1.38574 43.6184 2.21082 44.2144C4.45961 45.8438 7.41635 46.2368 9.78226 47.6995C11.0576 48.4804 11.6745 50.0785 12.9498 50.8853C14.017 51.5776 15.3105 52.1867 16.5937 52.067C18.3324 51.9004 20.5629 50.9998 21.4635 50.0446Z" fill="#FFD709"/>
<path d="M18.5015 43.3165C20.4327 44.0661 21.5936 45.3024 21.6118 47.2701" stroke="#1D1D1B" stroke-width="0.367834" stroke-miterlimit="10" stroke-linecap="round"/>
<path d="M21.4246 50.1028C21.5645 49.9817 21.6796 49.8346 21.7637 49.6698" stroke="#1D1D1B" stroke-width="0.367834" stroke-miterlimit="10" stroke-linecap="round"/>
<path d="M21.4635 50.0446C22.174 50.1383 23.0251 50.1565 23.6732 49.8C24.7093 49.2119 25.57 48.3584 26.1667 47.3273C26.7289 46.3331 26.3359 44.9848 26.8981 43.9906C27.8533 42.2858 29.9511 41.2551 30.607 39.3993C30.9818 38.3582 30.646 36.7757 29.6882 36.2135C28.6471 35.5784 27.1792 36.1016 26.0912 36.6456C25.0032 37.1896 24.4801 38.3686 23.6732 39.2119C22.6061 38.4311 21.3698 37.8272 20.4692 36.833C19.5687 35.8387 19.1392 34.3916 18.3506 33.2724C17.2262 31.6613 16.31 29.7873 14.7535 28.6056C13.9467 28.007 12.5802 27.7259 11.7734 28.3063C10.8754 28.9622 10.5943 30.3885 10.8182 31.4739C11.1357 33.0355 12.5802 34.1339 13.2726 35.5394C13.5329 36.06 14.2486 37.3197 13.6864 37.2442C12.523 37.0568 11.7552 35.8778 10.8234 35.1828C9.52199 34.2276 8.42362 32.8794 6.91922 32.2781C5.98223 31.9033 4.65221 31.7732 3.8844 32.4291C3.11658 33.085 2.87192 34.4723 3.3222 35.3702C4.10303 36.8512 5.81565 37.6008 7.10662 38.6705C7.85622 39.2874 8.75677 39.7559 9.41267 40.469C9.73021 40.8048 10.3132 41.4607 9.93322 41.7236C9.46473 42.0229 8.84527 41.367 8.31951 41.203C6.8958 40.7527 5.54756 39.8157 4.04837 39.8522C2.96041 39.8704 1.5367 40.3389 1.12546 41.3514C0.711623 42.2884 1.38574 43.6184 2.21082 44.2144C4.45961 45.8438 7.41635 46.2368 9.78226 47.6995C11.0576 48.4804 11.6745 50.0785 12.9498 50.8853C14.017 51.5776 15.3105 52.1867 16.5937 52.067C18.3324 51.9004 20.5629 50.9998 21.4635 50.0446Z" stroke="#1D1D1B" stroke-width="0.367834" stroke-miterlimit="10" stroke-linecap="round"/>
<path d="M61.0411 46.104C61.1166 47.9025 61.2103 49.701 61.2858 51.4813C59.8412 52.6448 58.3811 53.7874 56.9183 54.93C51.6894 53.6937 46.4604 52.4756 41.2341 51.2393C41.739 44.7324 41.3642 38.0094 40.4532 31.1485C40.3231 24.9019 40.1721 18.6552 40.042 12.4086C44.6333 9.78502 49.2063 7.14321 53.7976 4.51962C57.7503 6.08128 61.7039 7.6308 65.6584 9.16816L65.5465 14.3971C67.5142 15.4643 68.3575 17.281 66.6891 20.7869C65.229 24.2902 63.7844 27.8144 62.3243 31.3177C62.1733 33.6238 62.3998 35.9272 62.2488 38.2333C61.5747 38.8527 60.2056 39.6752 60.5804 40.594C61.101 41.963 62.7173 42.5617 62.6991 43.798C62.7095 44.9484 62.1655 45.6225 61.0411 46.104Z" fill="#FFD709"/>
<path d="M55.8876 35.7267C54.1828 35.8386 52.504 36.0833 50.7914 35.987C49.8336 35.9297 48.9538 35.2947 47.9986 35.2947C46.6296 35.2738 45.8982 36.4919 45.9919 37.71C46.312 41.458 49.4406 43.1082 53.2068 43.4361C54.8827 43.5714 56.5694 43.4573 58.2119 43.0978C57.1422 41.7105 57.2931 40.0421 58.2666 38.1681C57.4805 37.3587 56.6737 36.5518 55.8876 35.7267Z" fill="#1D1D1B" stroke="#1D1D1B" stroke-width="0.367834" stroke-miterlimit="10" stroke-linecap="round"/>
<path d="M46.9497 40.4872C48.186 42.3248 50.5467 43.2045 53.1963 43.4492C54.0694 43.5221 54.9469 43.5221 55.8199 43.4492C55.5206 41.2941 52.4363 39.8053 51.5852 41.2368C49.7217 39.6804 48.2615 39.8313 46.9497 40.4872Z" fill="#E30613" stroke="#1D1D1B" stroke-width="0.367834" stroke-miterlimit="10" stroke-linecap="round"/>
<path d="M51.5747 41.2368C51.8464 41.4753 52.0419 41.7885 52.1369 42.1373" stroke="#1D1D1B" stroke-width="0.367834" stroke-miterlimit="10" stroke-linecap="round"/>
<path d="M59.6437 42.5486C59.0633 42.9598 58.3423 43.129 57.5068 43.2227" stroke="#1D1D1B" stroke-width="0.367834" stroke-miterlimit="10" stroke-linecap="round"/>
<path d="M61.0592 46.104C60.3661 46.3127 59.6463 46.4197 58.9224 46.4215" stroke="#1D1D1B" stroke-width="0.367834" stroke-miterlimit="10" stroke-linecap="round"/>
<path d="M56.1504 5.44363C59.318 6.67995 62.483 7.93708 65.6688 9.1734L65.5568 14.4024C67.3554 15.3758 68.1987 16.9687 67.0951 19.8682C66.6058 19.7172 66.119 19.5506 65.6323 19.3997C65.9316 17.4892 64.9946 16.1957 63.7219 15.0713C63.8885 11.5653 60.5725 8.58778 55.6533 5.87049C55.8121 5.72473 55.9813 5.59459 56.1504 5.44363Z" fill="#FFE047"/>
<path d="M41.963 51.4136L41.2342 51.2444C41.7392 44.7791 41.3644 38.0874 40.4846 31.2682C40.9141 31.2473 41.3644 31.2109 41.786 31.1745C42.4419 34.4722 43.4908 37.7126 43.7329 41.065C43.9411 43.7068 43.3399 46.3512 43.1525 48.9748C42.6397 49.5188 42.2441 50.3829 41.963 51.4136Z" fill="#E8C411"/>
<path d="M61.0411 46.104C61.1166 47.9025 61.2103 49.701 61.2858 51.4813C59.8412 52.6448 58.3811 53.7874 56.9183 54.93C51.6894 53.6937 46.4604 52.4756 41.2341 51.2393C41.739 44.7324 41.3642 38.0094 40.4532 31.1485C40.3231 24.9019 40.1721 18.6552 40.042 12.4086C44.6333 9.78502 49.2063 7.14321 53.7976 4.51962C57.7503 6.08128 61.7039 7.6308 65.6584 9.16816L65.5465 14.3971C67.5142 15.4643 68.3575 17.281 66.6891 20.7869C65.229 24.2902 63.7844 27.8144 62.3243 31.3177C62.1733 33.6238 62.3998 35.9272 62.2488 38.2333C61.5747 38.8527 60.2056 39.6752 60.5804 40.594C61.101 41.963 62.7173 42.5617 62.6991 43.798C62.7095 44.9484 62.1655 45.6225 61.0411 46.104Z" stroke="#1D1D1B" stroke-width="0.367834" stroke-miterlimit="10" stroke-linecap="round"/>
<path d="M59.7658 30.667C55.6821 31.755 52.983 33.9856 50.8279 36.6534C49.9274 37.7778 50.2085 38.772 51.1845 38.8085C55.643 39.0349 60.1224 39.0688 64.6018 39.0141C67.2254 38.9777 69.8307 38.7148 72.004 37.7596C72.5662 37.5149 72.7849 36.898 72.4725 36.2239C71.1243 33.262 68.1624 31.539 65.0338 29.9773L59.7658 30.667Z" fill="#644A2E"/>
<path d="M59.7656 30.667C58.7374 30.9314 57.7375 31.2958 56.7803 31.7549C58.6528 32.6809 60.7257 33.1281 62.8135 33.0563C64.1617 32.9991 65.4943 32.5123 66.8608 32.5878C67.8945 32.6555 68.9219 32.799 69.9347 33.0173C68.5292 31.8382 66.8113 30.8804 65.0258 30.0007L59.7656 30.667Z" fill="#42301C"/>
<path d="M58.2875 32.541C56.1116 33.5821 55.1642 34.8288 54.6697 36.1588" stroke="#1D1D1B" stroke-width="0.367834" stroke-miterlimit="10" stroke-linecap="round"/>
<path d="M59.5784 32.8299C57.9308 34.0662 57.1995 35.4326 56.9001 36.8772" stroke="#1D1D1B" stroke-width="0.367834" stroke-miterlimit="10" stroke-linecap="round"/>
<path d="M60.911 33.2906C60.0918 34.3689 59.6149 35.6681 59.542 37.0204" stroke="#1D1D1B" stroke-width="0.367834" stroke-miterlimit="10" stroke-linecap="round"/>
<path d="M62.522 33.4962C63.2341 34.7118 63.6986 36.0564 63.8884 37.4524" stroke="#1D1D1B" stroke-width="0.367834" stroke-miterlimit="10" stroke-linecap="round"/>
<path d="M63.9641 32.9731C65.1031 34.0288 65.9762 35.339 66.5122 36.7965" stroke="#1D1D1B" stroke-width="0.367834" stroke-miterlimit="10" stroke-linecap="round"/>
<path d="M65.7627 32.8299C67.1291 33.8081 68.331 34.9977 69.3233 36.354" stroke="#1D1D1B" stroke-width="0.367834" stroke-miterlimit="10" stroke-linecap="round"/>
<path d="M59.7658 30.667C55.6821 31.755 52.983 33.9856 50.8279 36.6534C49.9274 37.7778 50.2085 38.772 51.1845 38.8085C55.643 39.0349 60.1224 39.0688 64.6018 39.0141C67.2254 38.9777 69.8307 38.7148 72.004 37.7596C72.5662 37.5149 72.7849 36.898 72.4725 36.2239C71.1243 33.262 68.1624 31.539 65.0338 29.9773L59.7658 30.667Z" stroke="#1D1D1B" stroke-width="0.367834" stroke-miterlimit="10" stroke-linecap="round"/>
<path d="M64.5834 27.9497C67.4713 27.9497 69.8124 25.7682 69.8124 23.0773C69.8124 20.3864 67.4713 18.2049 64.5834 18.2049C61.6956 18.2049 59.3545 20.3864 59.3545 23.0773C59.3545 25.7682 61.6956 27.9497 64.5834 27.9497Z" fill="white" stroke="#1D1D1B" stroke-width="0.383487" stroke-miterlimit="10" stroke-linecap="round"/>
<path d="M65.1275 24.2408C65.5415 24.2408 65.8771 23.9052 65.8771 23.4912C65.8771 23.0772 65.5415 22.7416 65.1275 22.7416C64.7135 22.7416 64.3779 23.0772 64.3779 23.4912C64.3779 23.9052 64.7135 24.2408 65.1275 24.2408Z" fill="#1D1D1B"/>
<path d="M57.4807 25.2325C59.6722 25.6073 63.441 25.4016 65.3879 26.5078C66.3457 27.07 66.7934 28.6993 66.3067 29.6936C65.7627 30.8544 64.2453 31.4348 62.9908 31.604C61.7362 31.7732 60.4036 31.2292 59.412 30.6306C59.2037 28.8867 57.6863 26.9763 57.4807 25.2325Z" fill="#FFD709"/>
<path d="M57.4807 25.2325C59.6722 25.6073 63.441 25.4016 65.3879 26.5078C66.3457 27.07 66.7934 28.6993 66.3067 29.6936C66.1267 30.07 65.8589 30.3976 65.5259 30.6488C65.7591 30.0407 65.83 29.3822 65.7315 28.7384C65.5805 27.9575 64.7945 27.2938 64.0085 27.1455C62.0408 26.7499 59.9976 26.8436 57.9726 26.8852C57.7291 26.3612 57.5633 25.8044 57.4807 25.2325Z" fill="#FFE047"/>
<path d="M57.4807 25.2325C59.6722 25.6073 63.441 25.4016 65.3879 26.5078C66.3457 27.07 66.7934 28.6993 66.3067 29.6936C65.7627 30.8544 64.2453 31.4348 62.9908 31.604C61.7362 31.7732 60.4036 31.2292 59.412 30.6306" stroke="#1D1D1B" stroke-width="0.367834" stroke-miterlimit="10" stroke-linecap="round"/>
<path d="M53.0949 29.0559C56.3561 29.0559 59.0162 26.6197 59.0162 23.6213C59.0162 20.6229 56.3561 18.2049 53.0949 18.2049C49.8336 18.2049 47.1736 20.6411 47.1736 23.6213C47.1736 26.6015 49.8336 29.0559 53.0949 29.0559Z" fill="white" stroke="#1D1D1B" stroke-width="0.378269" stroke-miterlimit="10" stroke-linecap="round"/>
<path d="M51.2027 24.9903C51.6167 24.9903 51.9523 24.6547 51.9523 24.2407C51.9523 23.8267 51.6167 23.4911 51.2027 23.4911C50.7887 23.4911 50.4531 23.8267 50.4531 24.2407C50.4531 24.6547 50.7887 24.9903 51.2027 24.9903Z" fill="#1D1D1B"/>
<path d="M41.4761 42.7933C40.3153 43.0744 39.1336 43.0744 37.991 42.4367C35.3492 40.9557 35.1045 39.0245 34.7688 37.0958C34.1675 33.7409 34.0739 30.3286 34.0192 26.945C33.9981 22.4855 34.5013 18.039 35.5184 13.697C36.268 10.342 36.7911 7.04428 38.7224 5.41495C42.0019 2.65862 46.4604 1.53422 51.6139 1.14121C56.5591 0.766407 61.2285 1.10477 65.3877 3.14534C69.1748 5.00111 69.4376 11.4742 65.5387 13.5564C65.3331 11.1384 64.2087 9.67568 62.4154 8.62676C60.3904 7.44511 58.1234 7.32538 55.8174 7.20305C52.314 7.03387 48.7535 7.8199 45.7915 9.99582C43.8238 11.4195 43.5427 14.4544 43.3553 17.4163C43.1679 20.321 43.0742 23.2439 42.9259 26.1486C42.8113 28.3401 43.842 30.6644 43.3944 32.5956C43.1861 33.4936 41.4631 33.1162 40.5834 32.5956C41.0767 35.9749 41.3748 39.3797 41.4761 42.7933Z" fill="#644A2E"/>
<path d="M41.8511 3.40043C44.6438 2.0522 47.9311 1.41452 51.614 1.13342C56.5593 0.758625 61.2287 1.09698 65.3879 3.13755C69.1749 4.99333 69.4378 11.4664 65.5389 13.5486C65.4942 12.9487 65.3744 12.3567 65.1823 11.7865C65.6326 10.8678 66.0828 9.94899 65.7835 9.03022C65.1068 6.93239 63.6284 4.64716 61.528 3.95222C55.2892 1.91946 48.561 2.74454 41.8511 3.40043Z" fill="#886945"/>
<path d="M41.4763 42.7933C40.3155 43.0744 39.1338 43.0744 37.9912 42.4367C35.3494 40.9557 35.1047 39.0245 34.769 37.0958C34.5816 36.0547 34.4306 34.9772 34.3369 33.91C34.9356 36.2135 35.7606 38.2749 37.278 39.7012C37.6737 40.076 38.5534 39.3264 38.6471 38.7824C38.9855 37.114 38.517 35.3988 38.4597 33.6836L40.7657 33.9647C41.1511 36.8937 41.3883 39.8403 41.4763 42.7933Z" fill="#42301C"/>
<path d="M38.9099 26.5077C38.6288 26.0939 37.9911 25.6644 37.5226 25.87C36.3617 26.375 35.1228 27.2 34.6361 28.3817C34.3004 29.186 34.2431 30.3676 34.3368 31.2109C34.4878 32.5123 35.2165 33.8137 36.3982 34.3967C37.5798 34.9797 39.3601 35.0344 40.2216 34.0974C41.0832 33.1604 40.5392 31.4738 40.3153 30.1802C40.0939 28.8753 39.6162 27.6271 38.9099 26.5077Z" fill="#FFD709" stroke="#1D1D1B" stroke-width="0.367834" stroke-miterlimit="10" stroke-linecap="round"/>
<path d="M36.2185 29.8055C36.9317 28.8321 37.9988 28.7644 39.4433 29.6181" stroke="#1D1D1B" stroke-width="0.367834" stroke-miterlimit="10" stroke-linecap="round"/>
<path d="M37.6163 29.0923C37.4471 30.654 37.7854 31.755 38.9176 32.0907" stroke="#1D1D1B" stroke-width="0.367834" stroke-miterlimit="10" stroke-linecap="round"/>
<path d="M39.4332 24.1652C39.2666 27.895 38.7981 32.1479 40.6148 32.4941C41.2135 32.8871 41.8147 33.15 42.4133 33.0927C42.9209 33.0381 43.3139 32.8507 43.4258 32.3431L41.4009 25.7087C40.745 25.1959 40.0891 24.6702 39.4332 24.1652Z" fill="#644A2E"/>
<path d="M38.0093 6.17497C41.6532 5.4436 44.6255 5.87566 45.2424 10.4669" stroke="#1D1D1B" stroke-width="0.367834" stroke-miterlimit="10" stroke-linecap="round"/>
<path d="M49.8545 1.30252C52.8529 1.95842 54.2376 4.33735 53.2381 7.22381" stroke="#1D1D1B" stroke-width="0.367834" stroke-miterlimit="10" stroke-linecap="round"/>
<path d="M57.5925 1.1152C59.3182 2.82002 59.935 5.06881 57.8372 7.26034" stroke="#1D1D1B" stroke-width="0.367834" stroke-miterlimit="10" stroke-linecap="round"/>
<path d="M63.5893 2.46344C63.9623 2.9252 64.2178 3.47055 64.3337 4.05272C64.4497 4.63488 64.4227 5.23648 64.255 5.80592C64.0874 6.37535 63.7841 6.89563 63.3713 7.32212C62.9584 7.74861 62.4482 8.06858 61.8845 8.2546" stroke="#1D1D1B" stroke-width="0.367834" stroke-miterlimit="10" stroke-linecap="round"/>
<path d="M64.0212 9.92554C66.3247 9.66527 67.9254 8.97033 68.105 6.64606" stroke="#1D1D1B" stroke-width="0.367834" stroke-miterlimit="10" stroke-linecap="round"/>
<path d="M39.3965 24.108C39.1726 27.7805 38.7041 31.7549 40.5209 32.5409" stroke="#1D1D1B" stroke-width="0.367834" stroke-miterlimit="10" stroke-linecap="round"/>
<path d="M41.4761 42.7933C40.3153 43.0744 39.1336 43.0744 37.991 42.4367C35.3492 40.9557 35.1045 39.0245 34.7688 37.0958C34.1675 33.7409 34.0739 30.3286 34.0192 26.945C33.9981 22.4855 34.5013 18.039 35.5184 13.697C36.268 10.342 36.7911 7.04428 38.7224 5.41495C42.0019 2.65862 46.4604 1.53422 51.6139 1.14121C56.5591 0.766407 61.2285 1.10477 65.3877 3.14534C69.1748 5.00111 69.4376 11.4742 65.5387 13.5564C65.3331 11.1384 64.2087 9.67568 62.4154 8.62676C60.3904 7.44511 58.1234 7.32538 55.8174 7.20305C52.314 7.03387 48.7535 7.8199 45.7915 9.99582C43.8238 11.4195 43.5427 14.4544 43.3553 17.4163C43.1679 20.321 43.0742 23.2439 42.9259 26.1486C42.8113 28.3401 43.842 30.6644 43.3944 32.5956C43.1861 33.4936 41.4631 33.1162 40.5834 32.5956C41.0767 35.9749 41.3748 39.3797 41.4761 42.7933Z" stroke="#1D1D1B" stroke-width="0.367834" stroke-miterlimit="10" stroke-linecap="round"/>
<path d="M47.0434 23.8269C44.1781 23.9734 41.4114 24.9212 39.0581 26.5624" stroke="#1D1D1B" stroke-width="0.367834" stroke-miterlimit="10" stroke-linecap="round"/>
<path d="M57.8737 51.9185C57.0901 51.9277 56.3079 51.9842 55.5312 52.0877C54.5187 53.9799 53.5088 55.8539 52.4963 57.7461C53.8446 58.4411 55.3255 58.9278 57.0304 58.8341C58.9616 58.7222 60.2161 57.8216 60.8538 56.4343C59.7867 54.8596 58.9434 53.4932 57.8737 51.9185Z" fill="#EFB482" stroke="#1D1D1B" stroke-width="0.367834" stroke-miterlimit="10" stroke-linecap="round"/>
<path d="M55.25 58.795C55.3035 59.6037 55.1228 60.4107 54.7295 61.1193" stroke="#1D1D1B" stroke-width="0.367834" stroke-miterlimit="10" stroke-linecap="round"/>
<path d="M56.5798 58.9825V61.5878" stroke="#1D1D1B" stroke-width="0.367834" stroke-miterlimit="10" stroke-linecap="round"/>
<path d="M57.6863 58.7586C58.158 59.3546 58.4794 60.0554 58.6233 60.8018" stroke="#1D1D1B" stroke-width="0.367834" stroke-miterlimit="10" stroke-linecap="round"/>
<path d="M58.8862 58.4411C59.4446 58.9867 59.8456 59.6728 60.0471 60.427" stroke="#1D1D1B" stroke-width="0.367834" stroke-miterlimit="10" stroke-linecap="round"/>
<path d="M41.6273 47.6838C39.8652 47.309 39.5841 52.7046 40.1463 53.6988C41.2889 55.742 43.3894 56.9211 45.2425 58.0845C47.8115 59.7138 50.6407 60.669 53.8447 60.4452C53.7958 57.4539 54.6443 54.5166 56.2809 52.0122C50.0134 52.538 44.9614 51.3563 41.6273 47.6838Z" fill="#F9CACB"/>
<path d="M41.6273 47.6838C39.8652 47.309 39.5841 52.7046 40.1463 53.6988C40.524 54.3586 40.9977 54.9586 41.5518 55.4791C41.4581 52.7046 42.0385 50.232 43.0875 49.0503C42.5694 48.6294 42.0815 48.1728 41.6273 47.6838Z" fill="#FCE8E8"/>
<path d="M56.9548 51.9758C58.6622 51.3199 60.3384 50.6745 61.3041 49.5006C63.4409 50.3257 64.3389 52.4808 64.1671 54.9924C64.0005 57.2595 62.4805 58.514 61.1895 59.6956C60.1949 56.9147 58.7656 54.3091 56.9548 51.9758Z" fill="#F9CACB"/>
<path d="M59.9534 50.625C60.4633 50.3283 60.9199 49.9482 61.3042 49.5006C63.4411 50.3257 64.339 52.4808 64.1672 54.9924C64.0553 56.4734 63.363 57.5406 62.5379 58.4203C62.5405 55.5156 61.6972 52.7437 59.9534 50.625Z" fill="#FCE8E8"/>
<path d="M41.5152 47.5902C39.7349 47.2336 39.584 52.7046 40.1462 53.6989C41.2888 55.742 43.3892 56.9211 45.2424 58.0845C47.8113 59.7139 50.6405 60.6691 53.8445 60.4453C53.7956 57.454 54.6442 54.5167 56.2807 52.0123C50.0133 52.538 44.8312 51.2627 41.5152 47.5902Z" stroke="#1D1D1B" stroke-width="0.367834" stroke-miterlimit="10" stroke-linecap="round"/>
<path d="M56.9548 51.9758C58.6622 51.3199 60.3384 50.6745 61.3041 49.5006C63.4409 50.3257 64.3389 52.4808 64.1671 54.9924C64.0005 57.2595 62.4805 58.514 61.1895 59.6956C60.1949 56.9147 58.7656 54.3091 56.9548 51.9758V51.9758Z" stroke="#1D1D1B" stroke-width="0.367834" stroke-miterlimit="10" stroke-linecap="round"/>
<path d="M59.0161 23.4521H59.3553" stroke="#1D1D1B" stroke-width="0.367834" stroke-miterlimit="10" stroke-linecap="round"/>
</svg>
