<svg width="67" height="177" viewBox="0 0 67 177" fill="none" xmlns="http://www.w3.org/2000/svg">
<path d="M10.861 14.7462C8.76091 16.7948 7.20865 19.0086 8.23081 21.9569C5.18715 24.4071 5.14657 26.7684 7.15538 29.0737C6.11293 32.3779 7.338 34.7671 9.40008 36.7801C10.2396 37.8578 11.0817 38.9202 11.9212 40.0004C11.0259 41.7339 10.7088 43.4038 12.4133 44.8678C10.8255 47.3205 10.6049 49.2954 13.4278 50.1926C13.3746 52.9758 14.4145 54.6584 17.8665 53.9264C17.9933 56.3613 19.1626 57.6957 21.8664 57.3857C21.9754 58.6845 23.1802 59.5258 25.0977 60.057C27.728 60.0214 30.3759 59.9833 33.0062 59.9655C32.9149 55.3904 32.8235 50.8272 32.7322 46.2759C30.1012 41.1722 27.4802 36.0608 24.8695 30.9418C22.3618 25.6348 19.866 20.3362 17.3821 15.0461C15.2084 14.9469 13.0347 14.8377 10.861 14.7462Z" fill="#3C3C3B"/>
<path d="M10.861 14.7462C8.76091 16.7948 7.20865 19.0086 8.23081 21.9569C5.18715 24.4071 5.14657 26.7684 7.15538 29.0737C6.11293 32.3779 7.338 34.7671 9.40008 36.7801C10.2396 37.8578 11.0817 38.9202 11.9212 40.0004C11.0259 41.7339 10.7088 43.4038 12.4133 44.8678C10.8255 47.3205 10.6049 49.2954 13.4278 50.1926C13.3746 52.9758 14.4145 54.6584 17.8665 53.9264C17.9933 56.3613 19.1626 57.6957 21.8664 57.3857C21.9754 58.6845 23.1802 59.5258 25.0977 60.057C27.728 60.0214 30.3759 59.9833 33.0062 59.9655C33.0099 59.7763 33.0031 59.5871 32.9859 59.3987C30.906 59.4165 28.8414 59.4343 26.7591 59.4724C24.8238 58.9412 23.6368 58.1177 23.5277 56.8189C20.8062 57.1111 19.6369 55.7742 19.5278 53.3418C16.0657 54.0738 15.0207 52.3887 15.0613 49.6131C12.2484 48.7159 12.4691 46.7385 14.0467 44.2883C12.3499 42.8243 12.6771 41.1391 13.5724 39.4184C12.7329 38.3407 11.873 37.2783 11.036 36.1981C8.99172 34.185 7.73875 31.8238 8.8091 28.4942C6.80029 26.1889 6.8358 23.8276 9.86677 21.3774C8.95368 18.7239 10.1204 16.6753 11.8756 14.8072L10.861 14.7462Z" fill="#575756"/>
<path d="M10.861 14.7462C8.76091 16.7948 7.20865 19.0086 8.23081 21.9569C5.18715 24.4071 5.14657 26.7684 7.15538 29.0737C6.11293 32.3779 7.338 34.7671 9.40008 36.7801C10.2396 37.8578 11.0817 38.9202 11.9212 40.0004C11.0259 41.7339 10.7088 43.4038 12.4133 44.8678C10.8255 47.3205 10.6049 49.2954 13.4278 50.1927C13.3746 52.9758 14.4145 54.6584 17.8665 53.9264C17.9933 56.3613 19.1626 57.6957 21.8664 57.3857C21.9754 58.6845 23.1802 59.5258 25.0977 60.057C27.728 60.0214 30.3759 59.9833 33.0062 59.9655C32.9149 55.3904 32.8235 50.8272 32.7322 46.2759C30.1012 41.1722 27.4802 36.0608 24.8695 30.9418C22.3618 25.6348 19.866 20.3362 17.3821 15.0461C15.2084 14.9469 13.0347 14.8377 10.861 14.7462Z" stroke="#1D1D1B" stroke-width="0.359591" stroke-linecap="round" stroke-linejoin="round"/>
<path d="M17.1437 103.978C17.7093 103.978 18.1583 103.301 18.1583 102.478C18.1583 101.654 17.7017 100.976 17.1437 100.976C16.5857 100.976 16.1292 101.654 16.1292 102.478C16.1292 103.301 16.5958 103.978 17.1437 103.978Z" fill="#FFD1E2" stroke="#1D1D1B" stroke-width="0.359591" stroke-linecap="round" stroke-linejoin="round"/>
<path d="M20.7224 75.5207C20.3952 80.6269 20.5043 85.751 19.7078 90.7836C18.6502 97.4631 16.2203 103.886 15.2514 110.583C14.4905 115.69 15.9109 119.916 19.1777 121.947C20.347 118.783 21.5163 115.616 22.6856 112.469C24.0172 107.49 25.369 102.531 26.7032 97.5724C28.0348 93.4193 29.3689 89.2636 30.703 85.1461C29.4433 81.9079 28.1709 78.669 26.8858 75.4292C24.8491 75.4648 22.787 75.5029 20.7224 75.5207Z" fill="#FED70E"/>
<path d="M20.7224 75.5206C20.3952 80.6269 20.5043 85.751 19.7078 90.7835C18.6502 97.4631 16.2203 103.886 15.2514 110.583C14.4905 115.69 15.9109 119.916 19.1777 121.947C19.3071 121.619 19.4162 121.289 19.543 120.979C17.1689 118.709 16.2203 114.922 16.8595 110.492C17.8284 103.721 20.2557 97.242 21.2982 90.4912C22.0591 85.5502 21.9906 80.5176 22.3127 75.4952C21.7826 75.5028 21.2525 75.5206 20.7224 75.5206Z" fill="#FFE047"/>
<path d="M20.7224 75.5207C20.3952 80.6269 20.5043 85.751 19.7078 90.7836C18.6502 97.4631 16.2203 103.886 15.2514 110.583C14.4905 115.69 15.9109 119.916 19.1777 121.947C20.347 118.783 21.5163 115.616 22.6856 112.469C24.0172 107.49 25.369 102.531 26.7032 97.5724C28.0348 93.4193 29.3689 89.2636 30.703 85.1461C29.4433 81.9079 28.1709 78.669 26.8858 75.4292C24.8491 75.4648 22.787 75.5029 20.7224 75.5207Z" stroke="#1D1D1B" stroke-width="0.359591" stroke-linecap="round" stroke-linejoin="round"/>
<path d="M26.6398 55.9673C23.8092 56.2215 21.7445 58.7021 20.6006 62.4359C20.1441 63.9177 20.2709 65.5469 19.9057 67.0669C19.638 68.3317 19.2216 69.5603 18.6654 70.7269C17.9633 72.0512 17.6032 73.5305 17.6179 75.03C19.6825 77.043 23.2791 77.1345 27.1141 77.1142C27.7 74.9385 28.1286 73.0881 28.7221 70.9125L26.6398 55.9673Z" fill="#EAA8C0"/>
<path d="M26.6398 55.9673C23.8092 56.2215 21.7445 58.7022 20.6006 62.4359C20.1441 63.9177 20.2709 65.5469 19.9057 67.0669C19.638 68.3317 19.2216 69.5603 18.6654 70.7269C17.9633 72.0512 17.6032 73.5305 17.6179 75.03C17.9934 75.3958 18.4207 75.7042 18.886 75.945C18.9685 74.6331 19.33 73.3539 19.9463 72.1935C20.5188 70.9919 20.9446 69.7254 21.2144 68.4216C21.5797 66.8483 21.4503 65.1657 21.9246 63.628C22.9392 60.4076 24.5929 58.082 26.8198 57.2585C26.7666 56.8365 26.7133 56.3968 26.6398 55.9673Z" fill="#FFD1E2"/>
<path d="M26.6398 55.9673C23.8092 56.2215 21.7445 58.7021 20.6006 62.4359C20.1441 63.9177 20.2709 65.5469 19.9057 67.0669C19.638 68.3317 19.2216 69.5603 18.6654 70.7269C17.9633 72.0512 17.6032 73.5305 17.6179 75.03C19.6825 77.043 23.2791 77.1345 27.1141 77.1142C27.7 74.9385 28.1286 73.0881 28.7221 70.9125L26.6398 55.9673Z" stroke="#1D1D1B" stroke-width="0.359591" stroke-linecap="round" stroke-linejoin="round"/>
<path d="M16.0656 101.542C16.6135 101.634 16.9432 102.386 16.7961 103.21C16.649 104.033 16.1037 104.618 15.5558 104.526C15.0079 104.435 14.6782 103.685 14.7949 102.862C14.9116 102.038 15.5279 101.464 16.0656 101.542Z" fill="#FFD1E2" stroke="#1D1D1B" stroke-width="0.359591" stroke-linecap="round" stroke-linejoin="round"/>
<path d="M17.4911 103.281C18.0389 103.373 18.3484 104.125 18.2038 104.948C18.0592 105.772 17.4733 106.339 16.9356 106.247C16.3979 106.156 16.0758 105.386 16.2229 104.562C16.37 103.739 16.9432 103.172 17.4911 103.281Z" fill="#FFD1E2" stroke="#1D1D1B" stroke-width="0.359591" stroke-linecap="round" stroke-linejoin="round"/>
<path d="M19.5862 104.216C20.1138 104.361 20.3699 105.149 20.1518 105.935C19.9337 106.72 19.3123 107.272 18.7644 107.106C18.2166 106.941 17.9781 106.191 18.1963 105.386C18.4144 104.58 19.0434 104.069 19.5862 104.216Z" fill="#FFD1E2" stroke="#1D1D1B" stroke-width="0.359591" stroke-linecap="round" stroke-linejoin="round"/>
<path d="M21.5621 104.674C22.1099 104.801 22.3839 105.568 22.1835 106.374C21.9831 107.18 21.3795 107.729 20.8519 107.602C20.3243 107.475 20.0301 106.705 20.2305 105.899C20.4309 105.093 21.0345 104.544 21.5621 104.674Z" fill="#FFD1E2" stroke="#1D1D1B" stroke-width="0.359591" stroke-linecap="round" stroke-linejoin="round"/>
<path d="M17.3998 110.017C17.4911 111.445 17.1995 112.853 17.0879 114.282C17.0168 115.031 17.1259 115.964 17.6915 116.457C17.9692 116.699 18.3151 116.849 18.6814 116.885C19.0476 116.922 19.4161 116.843 19.7358 116.661" stroke="#1D1D1B" stroke-width="0.359591" stroke-linecap="round" stroke-linejoin="round"/>
<path d="M51.8768 152.455C52.1888 155.711 50.7456 158.81 47.2581 160.927C44.3894 162.647 41.2849 163.893 39.167 166.051C36.9934 168.285 36.2274 170.517 36.3009 172.769C36.3922 175.404 40.2805 176.299 44.884 175.915C52.1508 175.313 59.0548 173.061 65.2283 168.613C65.099 162.686 64.2772 157.084 62.1238 152.107C58.7073 152.216 55.2933 152.346 51.8768 152.455Z" fill="#F8AB84"/>
<path d="M62.5068 170.407C63.4377 169.858 64.333 169.253 65.2283 168.613C65.099 162.686 64.2772 157.084 62.1238 152.107C61.264 152.125 60.4244 152.163 59.5671 152.199C61.3507 158.11 62.3393 164.234 62.5068 170.407Z" fill="#DB916B"/>
<path d="M51.8768 152.455C52.1888 155.711 50.7456 158.81 47.2581 160.927C44.3894 162.647 41.2849 163.893 39.167 166.051C36.9934 168.285 36.2274 170.517 36.3009 172.769C36.3922 175.404 40.2805 176.299 44.884 175.915C52.1508 175.313 59.0548 173.061 65.2283 168.613C65.099 162.686 64.2772 157.084 62.1238 152.107C58.7073 152.216 55.2933 152.346 51.8768 152.455Z" stroke="#1D1D1B" stroke-width="0.359591" stroke-linecap="round" stroke-linejoin="round"/>
<path d="M45.6145 161.88C49.8503 161.496 52.3156 162.556 53.6675 164.516" stroke="#1D1D1B" stroke-width="0.359591" stroke-linecap="round" stroke-linejoin="round"/>
<path d="M48.7544 159.849C52.5894 159.775 55.349 161.239 56.7161 163.819" stroke="#1D1D1B" stroke-width="0.359591" stroke-linecap="round" stroke-linejoin="round"/>
<path d="M42.8017 163.397C41.4741 164.11 40.251 165.003 39.167 166.051C36.9934 168.285 36.2274 170.517 36.3009 172.769C36.3922 175.404 40.2805 176.299 44.884 175.915C52.1508 175.313 59.0548 173.061 65.2283 168.613C65.208 167.718 65.1725 166.821 65.1167 165.924C60.8423 168.719 55.9411 170.405 50.8547 170.829C50.1622 166.531 48.0063 163.58 42.8017 163.397Z" fill="white"/>
<path d="M62.5067 170.407C63.4376 169.858 64.3329 169.253 65.2283 168.613C65.208 167.718 65.1725 166.821 65.1167 165.924C64.2036 166.508 63.2727 167.039 62.3596 167.515C62.4332 168.468 62.489 169.436 62.5067 170.407Z" fill="#EDEDED"/>
<path d="M42.8017 163.397C41.4741 164.11 40.251 165.003 39.167 166.051C36.9934 168.285 36.2274 170.517 36.3009 172.769C36.3922 175.404 40.2805 176.299 44.884 175.915C52.1508 175.313 59.0548 173.061 65.2283 168.613C65.208 167.718 65.1725 166.821 65.1167 165.924C60.8423 168.719 55.9411 170.405 50.8547 170.829C50.1622 166.531 48.0063 163.58 42.8017 163.397Z" stroke="#1D1D1B" stroke-width="0.359591" stroke-linecap="round" stroke-linejoin="round"/>
<path d="M56.8074 148.686C53.9591 148.3 51.4937 148.978 49.7588 151.174C49.5066 151.467 49.3233 151.813 49.2223 152.187C49.1213 152.56 49.1053 152.952 49.1755 153.332C49.523 154.888 51.3492 154.321 52.6808 154.578C53.9236 154.796 54.9813 156.425 56.3889 156.408C57.9235 156.372 58.9253 155.645 59.6862 154.743C60.3812 153.919 60.508 153.98 61.5302 153.607C62.2429 153.352 64.7818 153.901 64.8554 152.821C65.0735 149.746 62.2784 148.813 59.1206 148.594C58.3597 148.538 57.576 148.795 56.8074 148.686Z" fill="white"/>
<path d="M56.8075 148.686L56.2241 148.63C56.3509 148.94 56.4778 149.271 56.6071 149.601C59.5113 149.418 62.0857 150.241 63.8586 153.48C64.4065 153.424 64.8427 153.241 64.8732 152.821C65.0913 149.746 62.2962 148.813 59.1384 148.594C58.3598 148.539 57.576 148.795 56.8075 148.686Z" fill="#EDEDED"/>
<path d="M56.8074 148.686C53.9591 148.3 51.4937 148.978 49.7588 151.174C49.5066 151.467 49.3233 151.813 49.2223 152.187C49.1213 152.56 49.1053 152.952 49.1755 153.332C49.523 154.888 51.3492 154.321 52.6808 154.578C53.9236 154.796 54.9813 156.425 56.3889 156.408C57.9235 156.372 58.9253 155.645 59.6862 154.743C60.3812 153.919 60.508 153.98 61.5302 153.607C62.2429 153.352 64.7818 153.901 64.8554 152.821C65.0735 149.746 62.2784 148.813 59.1206 148.594C58.3597 148.538 57.576 148.795 56.8074 148.686Z" stroke="#1D1D1B" stroke-width="0.359591" stroke-linecap="round" stroke-linejoin="round"/>
<path d="M29.6884 147.588C33.98 152.875 35.7529 159.043 36.1004 165.723C30.8222 169.64 22.8402 169.675 15.4999 170.598C9.09048 170.725 6.02146 170.067 5.89464 168.641C5.75679 167.211 5.95663 165.769 6.47801 164.432C7.7462 161.173 10.9167 159.691 14.3408 158.776C16.7148 158.118 18.8885 157.678 20.2937 156.433C23.5631 153.561 24.0982 150.412 24.258 147.209L29.6884 147.588Z" fill="#F8AB84"/>
<path d="M29.6886 147.588C33.9801 152.875 35.753 159.043 36.1005 165.723C35.4714 166.176 34.8121 166.585 34.1272 166.948C33.6707 159.719 31.1318 153.261 26.7717 147.377L29.6886 147.588Z" fill="#DB916B"/>
<path d="M29.6884 147.588C33.98 152.875 35.7529 159.043 36.1004 165.723C30.8222 169.64 22.8402 169.675 15.4999 170.598C9.09048 170.725 6.02146 170.067 5.89464 168.641C5.75679 167.211 5.95663 165.769 6.47801 164.432C7.7462 161.173 10.9167 159.691 14.3408 158.776C16.7148 158.118 18.8885 157.678 20.2937 156.433C23.5631 153.561 24.0982 150.412 24.258 147.209L29.6884 147.588Z" stroke="#1D1D1B" stroke-width="0.359591" stroke-linecap="round" stroke-linejoin="round"/>
<path d="M19.4441 157.03C21.7649 156.883 23.2791 158.22 24.1567 160.589" stroke="#1D1D1B" stroke-width="0.359591" stroke-linecap="round" stroke-linejoin="round"/>
<path d="M16.5603 158.202C19.2996 158.476 20.4308 160.489 20.6489 162.482" stroke="#1D1D1B" stroke-width="0.359591" stroke-linecap="round" stroke-linejoin="round"/>
<path d="M35.9178 163.435C35.9888 164.185 36.0623 164.96 36.1004 165.723C30.8222 169.64 22.8402 169.675 15.4999 170.598C9.09048 170.725 6.02146 170.067 5.89464 168.641C5.75679 167.211 5.95663 165.769 6.47801 164.432C7.52046 161.74 9.85646 160.276 12.5425 159.326C15.1524 159.928 17.0699 162.546 17.7826 167.395C24.5954 167.388 30.7309 166.234 35.9178 163.435Z" fill="white"/>
<path d="M35.9179 163.435C35.9889 164.185 36.0624 164.96 36.1005 165.723C35.4713 166.176 34.812 166.585 34.1272 166.948C34.0714 166.089 33.9801 165.265 33.8735 164.424C34.5717 164.13 35.2541 163.8 35.9179 163.435Z" fill="#EDEDED"/>
<path d="M35.9178 163.435C35.9888 164.185 36.0623 164.96 36.1004 165.723C30.8222 169.64 22.8402 169.675 15.4999 170.598C9.09048 170.725 6.02146 170.067 5.89464 168.641C5.75679 167.211 5.95663 165.769 6.47801 164.432C7.52046 161.74 9.85646 160.276 12.5425 159.326C15.1524 159.928 17.0699 162.546 17.7826 167.395C24.5954 167.388 30.7309 166.234 35.9178 163.435Z" stroke="#1D1D1B" stroke-width="0.359591" stroke-linecap="round" stroke-linejoin="round"/>
<path d="M26.5307 146.47C25.052 146.378 22.9316 146.818 21.4579 148.099C19.5582 149.71 18.5918 152.326 20.418 153.058C21.3311 153.444 22.4471 152.803 23.3932 153.131C24.3393 153.459 24.9277 155.31 26.3709 155.236C27.8674 155.162 29.2015 154.046 30.3885 153.131C31.4284 152.326 32.58 152.015 33.6402 152.308C34.2058 152.455 35.1189 152.181 35.2102 151.614C35.9533 147.659 29.0316 146.617 26.5307 146.47Z" fill="white"/>
<path d="M33.6352 152.298C34.2008 152.445 35.1139 152.171 35.2052 151.604C35.918 147.791 29.5263 146.68 26.8225 146.48C34.2186 149.418 33.0874 150.882 33.6352 152.298Z" fill="#EDEDED"/>
<path d="M26.5307 146.47C25.052 146.378 22.9316 146.818 21.4579 148.099C19.5582 149.71 18.5918 152.326 20.418 153.058C21.3311 153.444 22.4471 152.803 23.3932 153.131C24.3393 153.459 24.9277 155.31 26.3709 155.236C27.8674 155.162 29.2015 154.046 30.3885 153.131C31.4284 152.326 32.58 152.015 33.6402 152.308C34.2058 152.455 35.1189 152.181 35.2102 151.614C35.9533 147.659 29.0316 146.617 26.5307 146.47Z" stroke="#1D1D1B" stroke-width="0.359591" stroke-linecap="round" stroke-linejoin="round"/>
<path d="M31.388 127.054C30.6872 134.337 30.7723 141.675 31.6416 148.94C28.7171 150.01 25.8003 150.112 22.8835 148.757C21.8718 141.777 21.8104 134.691 22.7009 127.694C25.5796 127.475 28.4838 127.275 31.388 127.054Z" fill="#FED70E"/>
<path d="M31.3879 127.054C30.6871 134.337 30.7722 141.675 31.6415 148.94C30.7103 149.293 29.7419 149.539 28.7551 149.672C27.8805 142.25 27.6793 134.764 28.154 127.305C29.2243 127.219 30.3099 127.135 31.3879 127.054Z" fill="#E8C412"/>
<path d="M31.388 127.054C30.6872 134.337 30.7723 141.675 31.6416 148.94C28.7171 150.01 25.8003 150.112 22.8835 148.757C21.8718 141.777 21.8104 134.691 22.7009 127.694C25.5796 127.475 28.4838 127.275 31.388 127.054Z" stroke="#1D1D1B" stroke-width="0.359591" stroke-linecap="round" stroke-linejoin="round"/>
<path d="M58.4156 129.305C58.9228 136.313 59.6838 143.323 60.5892 150.333C58.3598 151.797 55.7118 151.858 52.7721 150.917C51.4361 144.246 50.5094 137.499 49.9973 130.714C52.8127 130.238 55.6205 129.781 58.4156 129.305Z" fill="#FED70E"/>
<path d="M58.4157 129.305C58.9229 136.313 59.6839 143.323 60.5894 150.333C59.9145 150.782 59.167 151.109 58.3802 151.301C56.9342 144.203 55.9883 137.012 55.5496 129.781C56.4982 129.616 57.4671 129.471 58.4157 129.305Z" fill="#E8C412"/>
<path d="M58.4156 129.305C58.9228 136.313 59.6837 143.323 60.5892 150.333C58.3598 151.797 55.7118 151.858 52.7721 150.917C51.4361 144.246 50.5094 137.499 49.9973 130.714C52.8127 130.238 55.6205 129.781 58.4156 129.305Z" stroke="#1D1D1B" stroke-width="0.359591" stroke-linecap="round" stroke-linejoin="round"/>
<path d="M24.0831 98.5967C23.4794 100.922 22.9138 103.245 22.2569 105.551C21.1434 109.503 19.8829 113.43 18.7694 117.393C17.8741 120.557 17.7269 123.831 17.8106 127.071C24.0755 131.245 31.672 130.63 38.7941 128.088C39.1593 124.466 39.5068 120.859 39.8543 117.238L42.8295 117.403C42.794 121.538 42.7559 125.656 42.7204 129.791C45.5688 132.096 49.3505 132.353 53.604 131.969C57.5481 131.621 61.4034 131.329 64.1046 129.369C63.9609 118.792 63.8214 108.227 63.6861 97.6741C56.0871 98.3705 48.4958 99.0601 40.912 99.743C35.2964 99.3668 29.7088 98.9805 24.0831 98.5967Z" fill="#6471B5"/>
<path d="M59.5291 131.201C61.2463 130.835 62.7985 130.286 64.0946 129.351C63.9509 118.774 63.8114 108.209 63.6761 97.6562C61.9945 97.8036 60.3154 97.9663 58.6338 98.1137L59.5291 131.201Z" fill="#47538C"/>
<path d="M36.9021 128.701C37.5235 128.517 38.1703 128.299 38.7841 128.078C39.1493 124.456 39.4968 120.849 39.8443 117.227H39.862C39.5703 117.227 39.2584 117.227 38.9667 117.245C38.5279 117.118 38.0891 117.044 37.6706 116.897C37.437 116.812 37.2105 116.708 36.9934 116.587C36.5571 116.366 36.1361 116.129 35.7252 115.908C35.6655 116.116 35.6415 116.333 35.6542 116.549C35.6894 116.799 35.7832 117.038 35.9281 117.245C36.1586 117.535 36.4283 117.792 36.7296 118.008C37.0035 118.211 37.5336 118.63 37.5514 118.979C37.7441 122.387 37.3054 125.315 36.9021 128.701Z" fill="#47538C"/>
<path d="M35.6973 115.908C37.9445 117.245 40.3363 117.337 42.7662 117.393" stroke="#1D1D1B" stroke-width="0.359591" stroke-linecap="round" stroke-linejoin="round"/>
<path d="M24.0831 98.5966C23.4794 100.922 22.9138 103.245 22.2569 105.551C21.1434 109.503 19.8829 113.43 18.7694 117.393C17.8741 120.557 17.7269 123.831 17.8106 127.071C20.387 128.776 23.3558 129.791 26.4343 130.02C23.8341 129.573 21.3546 128.591 19.1524 127.135C19.0788 123.693 19.2437 120.199 20.1923 116.813C21.3793 112.586 22.7287 108.413 23.9182 104.186C24.4255 102.356 24.9049 100.526 25.3614 98.6958C24.9404 98.6526 24.5219 98.6348 24.0831 98.5966Z" fill="#A3B2FF"/>
<path d="M24.0831 98.5967C23.4794 100.922 22.9138 103.245 22.2569 105.551C21.1434 109.503 19.8829 113.43 18.7694 117.393C17.8741 120.557 17.7269 123.831 17.8106 127.071C24.0755 131.245 31.672 130.63 38.7941 128.088C39.1593 124.466 39.5068 120.859 39.8543 117.238L42.8295 117.403C42.794 121.538 42.7559 125.656 42.7204 129.791C45.5688 132.096 49.3505 132.353 53.604 131.969C57.5481 131.621 61.4034 131.329 64.1046 129.369C63.9609 118.792 63.8214 108.227 63.6861 97.6741C56.0871 98.3705 48.4958 99.0601 40.912 99.743C35.2964 99.3668 29.7088 98.9805 24.0831 98.5967Z" stroke="#1D1D1B" stroke-width="0.359591" stroke-linecap="round" stroke-linejoin="round"/>
<path d="M30.8959 51.6745C29.0317 52.315 26.9417 53.0851 25.8003 54.6965C24.5043 56.4757 24.1517 58.8675 24.1517 61.0635C24.1132 64.4684 24.7521 67.8468 26.0312 71.0015C26.8529 72.9942 25.6482 75.0072 25.3742 76.9847C24.9912 79.656 27.9106 83.2423 27.8041 86.3C27.7483 87.4717 27.0432 88.5494 26.3431 89.4847C24.9177 91.3326 24.9532 93.2973 24.8213 95.1934C24.7655 96.2914 23.2513 96.9726 23.2132 98.0655C23.1219 103.911 41.2393 103.045 45.1275 102.935C52.2497 102.732 60.2672 101.581 64.6145 98.9449C65.4186 98.4519 65.3983 97.0971 65.2537 96.1643C64.8885 93.8565 63.8283 91.7164 63.1536 89.4847C62.4231 87.1235 62.1669 84.6352 61.8854 82.1138C61.1245 75.1597 58.9812 68.4065 56.8279 61.7447C55.7677 58.5091 54.781 54.8973 52.3055 52.5361C49.7857 50.1779 46.5183 48.7832 43.0756 48.5965C38.8931 48.4186 34.84 50.2664 30.8959 51.6745Z" fill="#EAA8C0"/>
<path d="M27.3347 53.268C26.7362 53.6351 26.2185 54.1202 25.8129 54.6939C24.5041 56.4757 24.1515 58.8674 24.1515 61.0634C24.113 64.4683 24.7519 67.8468 26.031 71.0014C26.8528 72.9941 25.648 75.0072 25.3741 76.9846C24.9911 79.6559 27.9104 83.2423 27.8039 86.2999C27.7481 87.4716 27.043 88.5493 26.343 89.4847C24.9175 91.3325 24.953 93.2972 24.8211 95.1933C24.7653 96.2913 23.2511 96.9725 23.2131 98.0654C23.1953 99.6591 24.5294 100.757 26.5738 101.507C25.2777 100.775 24.4914 99.8243 24.5117 98.5611C24.5294 97.4249 26.0995 96.7132 26.173 95.5771C26.2998 93.6022 26.2643 91.5689 27.743 89.6473C28.504 88.679 29.2217 87.5428 29.2649 86.3177C29.3739 83.1508 26.3607 79.4195 26.7437 76.6593C27.0176 74.5929 28.2655 72.5061 27.4184 70.4194C26.0973 67.1407 25.4337 63.6333 25.4654 60.0976C25.5009 57.81 25.8661 55.3039 27.2003 53.4561C27.2381 53.3887 27.2831 53.3256 27.3347 53.268Z" fill="#FFD1E2"/>
<path d="M57.9413 101.433C60.5512 100.81 62.872 99.9869 64.6069 98.9448C65.4109 98.4518 65.3906 97.097 65.2461 96.1642C64.8808 93.8564 63.8206 91.7163 63.1459 89.4847C62.4155 87.1234 62.1593 84.6351 61.8777 82.1137C61.1168 75.1597 58.9736 68.4064 56.8202 61.7446C55.7676 58.509 54.781 54.8972 52.3054 52.536C50.013 50.3902 47.0946 49.037 43.9785 48.6752C45.6633 49.3667 47.2053 50.3655 48.5262 51.621C51.5014 54.0737 52.6884 57.8049 53.2185 61.1905C55.4658 68.109 57.6927 75.1368 58.479 82.3654C58.7707 85.0011 59.0446 87.5809 59.7928 90.0337C60.5056 92.3568 61.6013 94.5884 61.9665 96.9877C62.1136 97.9561 62.1491 99.3464 61.3096 99.8599C60.2438 100.499 59.115 101.026 57.9413 101.433Z" fill="#CF8BA4"/>
<path d="M30.8959 51.6745C29.0317 52.315 26.9417 53.0851 25.8003 54.6965C24.5043 56.4757 24.1517 58.8675 24.1517 61.0635C24.1132 64.4684 24.7521 67.8468 26.0312 71.0015C26.8529 72.9942 25.6482 75.0072 25.3742 76.9847C24.9912 79.656 27.9106 83.2423 27.8041 86.3C27.7483 87.4717 27.0432 88.5494 26.3431 89.4847C24.9177 91.3326 24.9532 93.2973 24.8213 95.1934C24.7655 96.2914 23.2513 96.9726 23.2132 98.0655C23.1219 103.911 41.2393 103.045 45.1275 102.935C52.2497 102.732 60.2672 101.581 64.6145 98.9449C65.4186 98.4519 65.3983 97.0971 65.2537 96.1643C64.8885 93.8565 63.8283 91.7164 63.1536 89.4847C62.4231 87.1235 62.1669 84.6352 61.8854 82.1138C61.1245 75.1597 58.9812 68.4065 56.8279 61.7447C55.7677 58.5091 54.781 54.8973 52.3055 52.5361C49.7857 50.1779 46.5183 48.7832 43.0756 48.5965C38.8931 48.4186 34.84 50.2664 30.8959 51.6745Z" stroke="#1D1D1B" stroke-width="0.359591" stroke-linecap="round" stroke-linejoin="round"/>
<path d="M42.071 104.033C46.289 102.074 50.7277 100.208 55.0725 98.8712L58.489 99.9514C58.4713 101.731 57.4111 107.271 57.6114 109.61L47.8413 114.884L44.0799 113.549C43.2581 110.105 42.8928 107.472 42.071 104.033Z" fill="#5DA0D4" stroke="#1D1D1B" stroke-width="0.359591" stroke-linecap="round" stroke-linejoin="round"/>
<path d="M45.3583 104.582L42.1067 104.013" stroke="#1D1D1B" stroke-width="0.359591" stroke-linecap="round" stroke-linejoin="round"/>
<path d="M45.3582 104.582L58.489 99.9158C59.676 103.355 60.5891 106.796 60.863 110.235C56.4979 112.523 52.1506 113.694 47.788 114.922C46.9789 111.481 46.1622 108.021 45.3582 104.582Z" fill="#5DA0D4" stroke="#1D1D1B" stroke-width="0.359591" stroke-linecap="round" stroke-linejoin="round"/>
<path d="M48.2244 105.807C51.1108 104.654 53.9972 103.594 56.881 102.696C57.5705 104.73 58.0241 106.837 58.2329 108.974C55.4759 110.182 52.6275 111.224 49.7411 112.195C49.0431 110.116 48.5354 107.978 48.2244 105.807Z" fill="#A1DAF8" stroke="#1D1D1B" stroke-width="0.359591" stroke-linecap="round" stroke-linejoin="round"/>
<path d="M42.6189 106.547C43.2226 106.364 43.8237 106.163 44.4451 105.98C44.8839 106.311 44.9524 106.86 44.9524 107.701C44.1306 107.902 43.4914 108.067 42.6696 108.268C42.6671 107.711 42.6367 107.124 42.6189 106.547Z" fill="#5DA0D4" stroke="#1D1D1B" stroke-width="0.359591" stroke-linecap="round" stroke-linejoin="round"/>
<path d="M42.619 108.278C42.9284 108.278 43.1668 107.894 43.1668 107.419C43.1668 106.944 42.9284 106.575 42.619 106.575C42.3095 106.575 42.0889 106.961 42.0889 107.419C42.0889 107.876 42.3273 108.278 42.619 108.278Z" fill="#5DA0D4" stroke="#1D1D1B" stroke-width="0.405497" stroke-linecap="round" stroke-linejoin="round"/>
<path d="M44.5923 101.909C44.7191 102.386 44.8282 102.862 44.9575 103.337C45.8238 103.276 46.657 102.979 47.3671 102.478C47.1845 102.038 47.0196 101.616 46.8598 101.177C46.0565 101.236 45.279 101.487 44.5923 101.909Z" fill="#EDEDED" stroke="#1D1D1B" stroke-width="0.359591" stroke-linecap="round" stroke-linejoin="round"/>
<path d="M47.8591 100.719C47.9885 101.177 48.0976 101.654 48.2244 102.13C49.0918 102.069 49.926 101.771 50.6365 101.268C50.4538 100.831 50.289 100.409 50.1292 99.9693C49.3221 100.027 48.542 100.284 47.8591 100.719Z" fill="#EDEDED" stroke="#1D1D1B" stroke-width="0.359591" stroke-linecap="round" stroke-linejoin="round"/>
<path d="M51.0549 99.4583C51.1843 99.9336 51.2933 100.409 51.4202 100.884C52.2872 100.823 53.121 100.526 53.8323 100.025C53.6496 99.5854 53.4848 99.1635 53.325 98.7263C52.5204 98.7831 51.7416 99.0343 51.0549 99.4583Z" fill="#EDEDED" stroke="#1D1D1B" stroke-width="0.359591" stroke-linecap="round" stroke-linejoin="round"/>
<path d="M29.0493 63.168C30.2186 66.5358 31.6973 69.812 32.5394 73.2509C33.5539 77.2948 34.6928 81.3844 34.5685 85.5299C34.4391 90.3083 32.4506 94.8833 31.8292 99.621C31.3904 102.844 30.5331 106.247 31.4639 109.34C31.8825 110.822 33.8735 111.938 35.3725 111.681C38.0915 111.242 40.1384 108.809 42.5302 107.419" stroke="#1D1D1B" stroke-width="0.359591" stroke-linecap="round" stroke-linejoin="round"/>
<path d="M16.0656 36.5233C15.5913 40.44 15.9388 44.3746 18.0211 47.722C19.8828 50.7237 22.6221 53.1028 25.0697 55.6648C26.4995 57.1792 27.5778 58.9914 28.2275 60.9719" stroke="#1D1D1B" stroke-width="0.359591" stroke-linecap="round" stroke-linejoin="round"/>
<path d="M28.7755 56.3791C29.5628 56.3791 30.201 55.7646 30.201 55.0065C30.201 54.2485 29.5628 53.634 28.7755 53.634C27.9883 53.634 27.3501 54.2485 27.3501 55.0065C27.3501 55.7646 27.9883 56.3791 28.7755 56.3791Z" fill="#E8C412" stroke="#1D1D1B" stroke-width="0.377443" stroke-linecap="round" stroke-linejoin="round"/>
<path d="M12.4691 15.8619C8.72538 18.5892 9.10837 20.803 12.1951 21.962C12.4691 22.4322 12.7379 22.9253 12.9916 23.4336C11.2567 24.7858 11.84 26.1583 12.6263 27.5003C12.3524 28.7077 12.0962 29.8972 11.8223 31.0867C9.95806 32.1669 7.94924 33.0641 6.21436 34.3451C4.52439 35.5361 2.99868 36.9453 1.67678 38.5364C1.19994 39.1388 0.662227 40.5316 1.27349 40.9891C3.28231 42.5142 12.1799 41.6296 14.5869 41.4263C16.2305 41.2814 17.8563 40.8239 19.4822 40.5113C18.8252 42.9818 20.5398 44.0214 23.8828 44.0214C26.6956 47.6433 28.3189 51.6897 28.3392 56.3181C30.1731 56.8663 32.0984 57.0392 34.0004 56.8264C37.2977 56.3689 40.0877 55.3624 41.4878 52.8004C41.815 49.242 42.1447 45.6455 42.5023 42.077C40.9805 36.3124 39.4587 30.5275 37.9546 24.7629L34.9845 14.9469L23.3172 14.891C20.2659 15.257 15.5279 15.5137 12.4691 15.8619Z" fill="#FED70E"/>
<path d="M12.4691 15.862C8.72537 18.5892 9.10837 20.803 12.1951 21.9621C12.4691 22.4323 12.7379 22.9254 12.9916 23.4337C11.2567 24.7859 11.84 26.1584 12.6263 27.5004C12.3524 28.7077 12.0962 29.8972 11.8223 31.0867C9.95806 32.167 7.94924 33.0642 6.21436 34.3452C4.52439 35.5361 2.99868 36.9454 1.67678 38.5365C1.19994 39.1388 0.662227 40.5317 1.27349 40.9892C1.70161 41.2642 2.18018 41.4509 2.68118 41.5382C2.29566 39.2507 4.20301 36.4548 13.2731 32.0399C13.4735 30.6114 14.696 28.911 13.8387 27.7571C12.4691 25.8915 12.6517 24.4529 14.4043 23.4744C13.821 22.8898 13.2528 22.3026 12.6872 21.718C11.1907 19.7406 11.7563 17.7657 13.1615 15.7883C12.9256 15.8264 12.6872 15.8442 12.4691 15.862Z" fill="#FFE047"/>
<path d="M12.4691 15.8619C8.72538 18.5892 9.10837 20.803 12.1951 21.962C12.4691 22.4322 12.7379 22.9253 12.9916 23.4336C11.2567 24.7858 11.84 26.1583 12.6263 27.5003C12.3524 28.7077 12.0962 29.8972 11.8223 31.0867C9.95806 32.1669 7.94924 33.0641 6.21436 34.3451C4.52439 35.5361 2.99868 36.9453 1.67678 38.5364C1.19994 39.1388 0.662227 40.5316 1.27349 40.9891C3.28231 42.5142 12.1799 41.6296 14.5869 41.4263C16.2305 41.2814 17.8563 40.8239 19.4822 40.5113C18.8252 42.9818 20.5398 44.0214 23.8828 44.0214C26.6956 47.6433 28.3189 51.6897 28.3392 56.3181C30.1731 56.8663 32.0984 57.0392 34.0004 56.8264C37.2977 56.3689 40.0877 55.3624 41.4878 52.8004C41.815 49.242 42.1447 45.6455 42.5023 42.077C40.9805 36.3124 39.4587 30.5275 37.9546 24.7629L34.9845 14.9469L23.3172 14.891C20.2659 15.257 15.5279 15.5137 12.4691 15.8619Z" stroke="#1D1D1B" stroke-width="0.359591" stroke-linecap="round" stroke-linejoin="round"/>
<path d="M14.9521 41.3907C21.8359 40.2571 27.9359 38.5185 32.2452 35.3694" stroke="#1D1D1B" stroke-width="0.359591" stroke-linecap="round" stroke-linejoin="round"/>
<path d="M15.3352 41.3171C16.5603 43.6224 19.6826 42.7277 20.796 40.9689C22.3179 42.0491 25.3793 41.5001 26.3761 39.4133C29.024 40.6842 31.6162 39.4693 31.2332 36.0659C27.0964 38.7195 21.5443 40.275 15.3352 41.3171Z" fill="white" stroke="#1D1D1B" stroke-width="0.359591" stroke-linecap="round" stroke-linejoin="round"/>
<path d="M11.4265 21.6087C14.4397 20.4192 17.8562 20.437 21.2702 20.5463C24.9403 20.6556 28.6257 20.4726 32.0092 21.535" stroke="#1D1D1B" stroke-width="0.359591" stroke-linecap="round" stroke-linejoin="round"/>
<path d="M19.3705 17.3615C18.6603 18.4799 18.6958 19.5042 19.3705 20.5107" stroke="#1D1D1B" stroke-width="0.359591" stroke-linecap="round" stroke-linejoin="round"/>
<path d="M21.4529 26.4836C23.4997 28.8804 25.9448 29.5946 28.7754 28.8804" stroke="#1D1D1B" stroke-width="0.359591" stroke-linecap="round" stroke-linejoin="round"/>
<path d="M30.7842 34.5282C32.1741 34.8586 32.9401 35.9185 33.3408 37.3647" stroke="#1D1D1B" stroke-width="0.359591" stroke-linecap="round" stroke-linejoin="round"/>
<path d="M30.622 21.169C30.7488 21.2783 30.8756 21.4079 31.005 21.535C31.4013 21.9573 31.6289 22.5109 31.6441 23.0905C31.6441 24.8697 29.3056 26.3108 26.4572 26.3108C23.6089 26.3108 21.2881 24.8646 21.2881 23.0905C21.3005 22.5261 21.5147 21.9849 21.8917 21.5655C22.2568 21.1566 22.6968 20.8218 23.1878 20.5793C25.7267 20.62 28.2276 20.6555 30.622 21.169Z" fill="white" stroke="#1D1D1B" stroke-width="0.359591" stroke-linecap="round" stroke-linejoin="round"/>
<path d="M27.9918 23.8403C28.4358 23.8403 28.7958 23.4796 28.7958 23.0346C28.7958 22.5896 28.4358 22.2289 27.9918 22.2289C27.5477 22.2289 27.1877 22.5896 27.1877 23.0346C27.1877 23.4796 27.5477 23.8403 27.9918 23.8403Z" fill="#1D1D1B"/>
<path d="M15.0994 25.2688C13.0703 24.885 11.6093 23.7438 11.6093 22.4323C11.6052 22.1472 11.6677 21.8652 11.7919 21.6088C11.83 21.5529 11.8477 21.4995 11.8833 21.4436C14.5135 20.5108 17.4176 20.4548 20.3472 20.5108C20.6135 23.6879 17.6738 24.4072 15.0994 25.2688Z" fill="white" stroke="#1D1D1B" stroke-width="0.359591" stroke-linecap="round" stroke-linejoin="round"/>
<path d="M16.3217 23.3828C16.735 23.3828 17.07 23.0471 17.07 22.633C17.07 22.2189 16.735 21.8832 16.3217 21.8832C15.9085 21.8832 15.5735 22.2189 15.5735 22.633C15.5735 23.0471 15.9085 23.3828 16.3217 23.3828Z" fill="#1D1D1B"/>
<path d="M20.3471 20.5463C20.6946 24.5189 16.0556 24.613 13.3163 25.9626C12.4945 26.3667 11.5256 26.7861 11.0158 27.5385C10.506 28.2908 10.0849 29.3863 10.3031 30.3191C10.7951 32.4058 12.3854 32.9548 13.8996 33.1556C15.3606 33.3564 16.8951 32.3931 17.9173 31.3256C19.3985 29.8006 20.3116 27.7672 21.0218 25.7618C21.3515 24.8646 20.9863 23.8581 20.9305 22.9253C20.895 22.2314 20.8392 21.5172 20.7859 20.8208L20.3471 20.5463Z" fill="#FED70E"/>
<path d="M19.6824 22.999C18.3482 24.6638 15.3173 24.9765 13.3085 25.9754C12.4867 26.3795 11.5178 26.7989 11.008 27.5512C10.4982 28.3035 10.0771 29.399 10.2952 30.3318C10.5692 31.4857 11.1728 32.1796 11.9211 32.5838C11.5721 32.0392 11.3629 31.4166 11.312 30.7714C11.2611 30.1262 11.3701 29.4784 11.6294 28.8856C12.6135 26.4329 16.4307 26.5981 18.4954 24.951C19.0676 24.4262 19.4793 23.7493 19.6824 22.999Z" fill="#FFE047"/>
<path d="M20.3471 20.5463C20.6946 24.5189 16.0556 24.613 13.3163 25.9626C12.4945 26.3667 11.5256 26.7861 11.0158 27.5385C10.506 28.2908 10.0849 29.3863 10.3031 30.3191C10.7951 32.4058 12.3854 32.9548 13.8996 33.1556C15.3606 33.3564 16.8951 32.3931 17.9173 31.3256" stroke="#1D1D1B" stroke-width="0.359591" stroke-linecap="round" stroke-linejoin="round"/>
<path d="M55.5849 55.0981C61.9943 59.2893 64.863 64.5582 66.0855 70.305C61.028 73.7084 55.2552 74.4226 49.1577 73.9092C47.6747 69.4354 45.9551 65.0439 44.0063 60.7533C47.86 58.8674 51.7195 56.9823 55.5849 55.0981Z" fill="#EAA8C0"/>
<path d="M55.5849 55.0981C61.9943 59.2893 64.863 64.5582 66.0855 70.305C64.9368 71.0788 63.7131 71.7345 62.4331 72.2621C62.9252 68.2183 53.4848 56.3791 52.0593 56.8188C53.2286 56.2494 54.4156 55.6826 55.5849 55.0981Z" fill="#CF8BA4"/>
<path d="M55.5849 55.0981C61.9943 59.2893 64.863 64.5582 66.0855 70.305C61.028 73.7084 55.2552 74.4226 49.1577 73.9092C47.6747 69.4354 45.9551 65.0439 44.0063 60.7533" stroke="#1D1D1B" stroke-width="0.359591" stroke-linecap="round" stroke-linejoin="round"/>
<path d="M62.5244 72.2342C62.9987 74.1558 63.473 76.0468 63.3817 78.0166C63.2372 80.9446 62.7984 84.1472 61.0457 86.4906C59.8207 88.1376 57.3934 88.8137 55.3465 88.74C50.3448 88.5774 46.0887 86.2695 42.6646 84.165C39.3673 82.5002 36.6001 80.3778 34.0409 78.0166C31.7582 76.6441 30.1526 75.2894 28.9834 73.9169C26.901 73.7338 24.6715 73.8991 23.8142 72.9002C23.3222 72.3156 23.6874 71.2176 24.1972 70.6686C25.8053 68.9478 27.9612 69.4968 29.932 69.6519C30.2617 66.4316 31.3574 64.1618 34.5355 64.4922C35.1747 63.6128 36.141 62.6063 37.2012 62.6063C39.1543 62.5885 40.7243 64.9294 41.2011 67.0721C41.7667 65.8648 42.5708 64.7845 44.2676 64.1796C45.1452 63.961 46.1318 63.7958 46.9156 64.5278C47.5192 65.1124 47.8287 66.1189 47.2986 66.7239C46.2028 68.0227 44.9068 69.0673 43.9582 70.3102C44.2373 71.6258 44.1593 72.9924 43.7324 74.2676C46.5892 76.6972 49.9343 78.482 53.5406 79.501C53.3002 77.6649 52.9273 75.8488 52.4246 74.0668C55.9502 74.0744 59.3464 73.5636 62.5244 72.2342Z" fill="#FED70E"/>
<path d="M24.9404 73.5255C24.5157 73.4334 24.1281 73.2166 23.8269 72.9028C23.3349 72.3182 23.7001 71.2202 24.2099 70.6711C25.818 68.9504 27.9739 69.4994 29.9447 69.6545C30.2744 66.4341 31.3701 64.1644 34.5482 64.4948C35.1874 63.6154 36.1537 62.6089 37.2139 62.6089C37.6123 62.6185 38.0047 62.7075 38.3683 62.8707C38.7319 63.0339 39.0595 63.2681 39.3318 63.5595C38.5876 63.3564 37.7948 63.4351 37.1049 63.7806C36.4835 64.1466 35.9356 65.0515 35.3294 65.4454C34.7993 65.8114 34.4341 65.8292 33.8329 66.0122C31.5502 66.7086 31.1469 68.1549 30.0512 70.9177C28.7374 70.9914 27.3855 70.7881 26.1249 71.1363C25.4502 71.3193 24.6031 71.7412 24.4813 72.4351C24.4306 72.8494 24.6589 73.1976 24.9404 73.5255Z" fill="#FFE047"/>
<path d="M41.2848 66.8967C41.5744 66.2649 41.9893 65.6988 42.5043 65.233C43.0193 64.7671 43.6236 64.4113 44.2803 64.1872C45.1579 63.9686 46.1445 63.8034 46.9283 64.5354C47.5319 65.12 47.8414 66.1265 47.3113 66.7314C47.2588 66.7889 47.2105 66.8501 47.1667 66.9144C46.875 65.9257 46.1978 65.3894 44.9575 65.2318C43.6411 65.0666 42.3451 66.3832 41.2671 67.011C41.2824 66.975 41.2885 66.9357 41.2848 66.8967Z" fill="#FFE047"/>
<path d="M41.1934 67.0669C41.2196 67.1456 41.222 67.2302 41.2002 67.3102C41.1784 67.3902 41.1335 67.4619 41.0711 67.5163C41.0086 67.5707 40.9315 67.6053 40.8495 67.6158C40.7674 67.6263 40.6841 67.6122 40.61 67.5753C39.2226 66.9526 38.5454 66.1494 38.2715 65.0514" stroke="#1D1D1B" stroke-width="0.359591" stroke-linecap="round" stroke-linejoin="round"/>
<path d="M34.5661 64.4846C34.0773 65.2176 33.8048 66.0739 33.7798 66.9552" stroke="#1D1D1B" stroke-width="0.359591" stroke-linecap="round" stroke-linejoin="round"/>
<path d="M29.9448 69.6289C29.8998 70.2 29.9495 70.7746 30.0919 71.3293" stroke="#1D1D1B" stroke-width="0.359591" stroke-linecap="round" stroke-linejoin="round"/>
<path d="M62.5244 72.2343C62.9987 74.1558 63.473 76.0468 63.3817 78.0166C63.2371 80.9446 62.7983 84.1472 61.0457 86.4906C59.8206 88.1376 57.3933 88.8137 55.3464 88.74C53.6337 88.6865 51.9371 88.3913 50.3066 87.8631C53.0282 87.8631 55.6026 87.3319 58.1238 85.7027C60.754 84.0023 60.1326 77.6506 59.4199 73.2484C60.4792 72.991 61.5171 72.6519 62.5244 72.2343Z" fill="#E8C412"/>
<path d="M62.5244 72.2342C62.9987 74.1558 63.4731 76.0468 63.3817 78.0166C63.2372 80.9446 62.7984 84.1472 61.0457 86.4906C59.8207 88.1376 57.3934 88.8137 55.3465 88.74C50.3448 88.5774 46.0887 86.2695 42.6646 84.165C39.3673 82.5002 36.6001 80.3778 34.0409 78.0166C31.7582 76.6441 30.1526 75.2894 28.9834 73.9169C26.901 73.7338 24.6715 73.8991 23.8142 72.9002C23.3222 72.3156 23.6874 71.2176 24.1972 70.6686C25.8053 68.9478 27.9612 69.4968 29.932 69.6519C30.2617 66.4316 31.3574 64.1618 34.5355 64.4922C35.1747 63.6128 36.141 62.6063 37.2012 62.6063C39.1543 62.5885 40.7243 64.9294 41.2011 67.0721C41.7667 65.8648 42.5708 64.7845 44.2676 64.1796C45.1452 63.961 46.1318 63.7958 46.9156 64.5278C47.5192 65.1124 47.8287 66.1189 47.2986 66.7239C46.2028 68.0227 44.9068 69.0673 43.9582 70.3102C44.2373 71.6258 44.1593 72.9924 43.7324 74.2676C46.5892 76.6972 49.9343 78.482 53.5406 79.501C53.3002 77.6649 52.9273 75.8488 52.4246 74.0668C55.9502 74.0744 59.3464 73.5636 62.5244 72.2342Z" stroke="#1D1D1B" stroke-width="0.359591" stroke-linecap="round" stroke-linejoin="round"/>
<path d="M15.4823 13.8667C15.2617 12.6949 15.6269 11.5054 16.3574 10.3083C16.8342 9.54577 16.4132 6.46524 16.4132 6.46524C17.727 4.32513 20.9964 4.12433 23.7915 4.06842C28.6842 3.99471 33.4298 4.70892 37.6883 6.70415C38.8313 7.30113 39.7046 8.31167 40.1309 9.53052C40.4581 10.4989 39.7453 11.5435 39.7834 12.5501C39.8189 13.6099 40.3313 14.6165 40.3135 15.6789C40.2932 16.5202 39.8925 17.3259 39.6921 18.1494C37.3451 17.0345 35.0091 15.9153 32.6841 14.7918L15.4823 13.8667Z" fill="#F8AB84"/>
<path d="M35.9357 5.97977C36.5368 6.19835 37.105 6.43727 37.6883 6.71178C38.8298 7.30692 39.7029 8.31451 40.1309 9.53052C40.4581 10.4989 39.7453 11.5435 39.7834 12.5501C39.8189 13.6099 40.3312 14.6165 40.3135 15.6789C40.2932 16.5202 39.8925 17.3259 39.6921 18.1494C38.3224 17.5089 36.9705 16.8506 35.6187 16.2101C36.6281 13.0431 36.6662 9.62202 35.9357 5.97977Z" fill="#DB916B"/>
<path d="M15.4823 13.8667C15.2617 12.6949 15.6269 11.5054 16.3574 10.3083C16.8342 9.54577 16.4132 6.46524 16.4132 6.46524C17.727 4.32513 20.9964 4.12433 23.7915 4.06842C28.6842 3.99471 33.4298 4.70892 37.6883 6.70415C38.8313 7.30113 39.7046 8.31167 40.1309 9.53052C40.4581 10.4989 39.7454 11.5435 39.7834 12.5501C39.8189 13.6099 40.3313 14.6165 40.3135 15.6789C40.2932 16.5202 39.8925 17.3259 39.6921 18.1494C37.3451 17.0345 35.0091 15.9153 32.6841 14.7918L15.4823 13.8667Z" stroke="#1D1D1B" stroke-width="0.359591" stroke-linecap="round" stroke-linejoin="round"/>
<path d="M33.1964 15.7348C35.2407 14.9469 40.5925 15.7704 41.1404 19.039C43.6057 19.6236 45.4852 20.8868 46.0888 23.6496C47.6107 23.9241 49.1021 24.2342 49.1579 25.9727C52.4983 25.5534 54.7379 26.4506 54.5629 30.2936C56.7543 31.8186 57.429 33.7503 56.2978 36.2209C58.7809 38.0712 60.0415 40.2469 59.5114 42.9386C60.9723 44.0366 61.3731 45.4447 60.7542 47.1832C63.3286 49.0869 62.7072 53.6976 59.7396 54.0458C59.5215 58.4938 51.8515 57.8583 50.7 55.1438C47.9987 56.4426 45.8986 56.1605 44.638 53.6061C41.3154 54.1144 39.4511 52.9859 39.7631 49.5089C38.0637 48.1897 37.0416 46.6342 38.3732 44.2552C36.8767 42.6259 36.6941 40.8518 37.7898 38.9176C36.0143 37.5807 35.7074 35.4939 35.8165 33.2267C35.8368 32.055 35.8723 30.8833 35.8901 29.7116C33.9726 28.6949 33.5541 27.2411 35.2331 25.1924C34.4291 24.1758 34.4469 23.1413 35.3067 22.0433C32.4659 20.9122 31.809 16.2838 33.1964 15.7348Z" fill="#3C3C3B"/>
<path d="M33.1963 15.7348C35.2406 14.9469 40.5924 15.7704 41.1402 19.039C43.6056 19.6236 45.4851 20.8868 46.0887 23.6496C47.6105 23.9241 49.1019 24.2342 49.1577 25.9727C52.4981 25.5534 54.7378 26.4506 54.5627 30.2936C56.7542 31.8186 57.4289 33.7503 56.2976 36.2209C58.7808 38.0712 60.0413 40.2469 59.5112 42.9386C60.9722 44.0366 61.3729 45.4447 60.7541 47.1832C63.3285 49.0869 62.7071 53.6976 59.7395 54.0458C59.6482 55.8402 58.3521 56.8086 56.7466 57.139C57.0575 56.8704 57.3086 56.5393 57.4834 56.167C57.6582 55.7948 57.7528 55.3899 57.7611 54.9786C60.7363 54.6329 61.3577 50.0197 58.7757 48.116C59.4148 46.3978 58.9938 44.9694 57.5329 43.8714C58.063 41.2001 56.8201 39.004 54.337 37.1562C55.4708 34.7035 54.7758 32.7438 52.5844 31.2264C52.767 27.4012 50.5198 26.4862 47.1793 26.9259C47.1235 25.1696 45.6448 24.8569 44.1357 24.5824C43.5346 21.8196 41.6348 20.5564 39.1695 19.9718C38.7104 17.3081 35.058 16.2635 32.6484 16.4109C32.6855 16.2652 32.7537 16.1293 32.8483 16.0126C32.9429 15.8959 33.0616 15.8011 33.1963 15.7348Z" fill="#1D1D1B"/>
<path d="M33.1964 15.7348C35.2407 14.9469 40.5925 15.7704 41.1404 19.039C43.6057 19.6236 45.4852 20.8868 46.0888 23.6496C47.6107 23.9241 49.1021 24.2342 49.1579 25.9727C52.4983 25.5534 54.7379 26.4506 54.5629 30.2936C56.7543 31.8186 57.429 33.7503 56.2978 36.2209C58.7809 38.0712 60.0415 40.2469 59.5114 42.9386C60.9723 44.0366 61.3731 45.4447 60.7542 47.1832C63.3286 49.0869 62.7072 53.6976 59.7396 54.0458C59.5215 58.4938 51.8515 57.8583 50.7 55.1438C47.9987 56.4426 45.8986 56.1605 44.638 53.6061C41.3154 54.1144 39.4511 52.9859 39.7631 49.5089C38.0637 48.1897 37.0416 46.6342 38.3732 44.2552C36.8767 42.6259 36.6941 40.8518 37.7898 38.9176C36.0143 37.5807 35.7074 35.4939 35.8165 33.2267C35.8368 32.055 35.8723 30.8833 35.8901 29.7116C33.9726 28.6949 33.5541 27.2411 35.2331 25.1924C34.4291 24.1758 34.4469 23.1413 35.3067 22.0433C32.4659 20.9122 31.809 16.2838 33.1964 15.7348Z" stroke="#1D1D1B" stroke-width="0.359591" stroke-linecap="round" stroke-linejoin="round"/>
<path d="M9.41766 13.7752C8.34224 14.0675 5.71201 15.2036 4.87501 16.0271C1.85926 18.9908 20.7223 18.1317 21.1078 18.1317C23.5377 18.1672 32.065 17.1607 34.1651 16.0271C35.0249 15.5696 32.8335 14.5021 31.9204 14.159C30.2591 13.5185 28.4507 13.2821 26.6777 13.1423C20.8872 12.6772 15.0611 12.2502 9.41766 13.7752Z" fill="#F8AB84"/>
<path d="M9.41781 13.7752C8.34238 14.0675 5.71216 15.2036 4.87515 16.0271C2.99316 17.8749 9.60296 18.2409 14.9547 18.2587C12.1241 17.2903 7.72351 16.904 7.46733 16.2457C7.15789 15.4832 12.1799 14.2124 15.5381 12.8068C13.4703 12.9186 11.4194 13.2431 9.41781 13.7752Z" fill="#FFD0B8"/>
<path d="M9.41766 13.7752C8.34224 14.0675 5.71201 15.2036 4.87501 16.0271C1.85926 18.9908 20.7223 18.1317 21.1078 18.1317C23.5377 18.1672 32.065 17.1607 34.1651 16.0271C35.0249 15.5696 32.8335 14.5021 31.9204 14.159C30.2591 13.5185 28.4507 13.2821 26.6777 13.1423C20.8872 12.6772 15.0611 12.2502 9.41766 13.7752Z" stroke="#1D1D1B" stroke-width="0.359591" stroke-linecap="round" stroke-linejoin="round"/>
<path d="M40.7927 35.6998C40.6837 37.9695 41.0667 40.3104 40.4453 42.5065C39.3318 46.5147 36.7016 48.8022 34.3275 50.9805C32.3745 52.7927 30.074 55.3166 28.7044 57.6041C27.9916 58.8114 28.3746 59.5257 28.7044 60.9083" stroke="#1D1D1B" stroke-width="0.359591" stroke-linecap="round" stroke-linejoin="round"/>
<path d="M27.3703 60.6974C27.2435 59.5638 28.7045 59.4266 29.0875 60.2399C29.4704 61.1371 30.4191 62.6011 30.2745 63.5695C30.1832 64.2837 29.1052 64.7972 28.6309 64.2837C27.9182 63.4984 27.4794 61.831 27.3703 60.6974Z" fill="#5DA0D4" stroke="#1D1D1B" stroke-width="0.359591" stroke-linecap="round" stroke-linejoin="round"/>
<path d="M40.3844 26.1837C42.9791 26.659 44.6049 29.6964 44.0013 32.937C43.3976 36.1777 40.8232 38.4271 38.2488 37.9493C35.6744 37.4714 34.0308 34.4366 34.6319 31.1985C35.233 27.9604 37.7973 25.7212 40.3844 26.1837Z" fill="#EF7D00" stroke="#1D1D1B" stroke-width="0.377443" stroke-linecap="round" stroke-linejoin="round"/>
<path d="M41.8884 23.0346C41.8706 21.2783 41.9239 19.5398 41.9797 17.7835C42.1065 14.3064 42.2181 10.8472 41.7058 7.46163C41.5967 6.78554 41.4876 6.05353 41.0488 5.4664C40.6101 4.87927 39.8441 4.4243 39.2049 4.11421C37.964 3.48106 36.6432 3.01935 35.2786 2.7417C33.8946 2.44412 32.4908 2.24789 31.0783 2.15457C30.193 2.09223 29.3034 2.14176 28.4304 2.30199C27.5348 2.47221 26.655 2.71707 25.8001 3.03399C25.6043 3.10773 25.4419 3.25051 25.3436 3.43558C25.2017 3.63094 25.0905 3.84695 25.0139 4.07609H23.8091L23.9181 3.80159C24.0431 3.44233 24.2136 3.10064 24.4254 2.78491C24.6603 2.41313 25.0092 2.12773 25.4197 1.97156C26.3316 1.63289 27.2722 1.37768 28.23 1.20906C29.1987 1.02086 30.1877 0.95935 31.1722 1.02605C32.6319 1.13361 34.0826 1.33996 35.5145 1.64369C36.9751 1.93173 38.3888 2.42188 39.7147 3.10008C40.5686 3.52179 41.3174 4.12972 41.9061 4.87927C42.4007 5.59681 42.7085 6.42682 42.8015 7.29388C43.3493 10.7913 43.2225 14.3039 43.1109 17.8165C43.0577 19.555 42.9841 21.2935 43.0019 23.0321C43.0196 23.3066 43.0196 23.5811 42.454 23.6014C41.8884 23.6217 41.8884 23.3294 41.8884 23.0346Z" fill="#5DA0D4" stroke="#1D1D1B" stroke-width="0.359591" stroke-linecap="round" stroke-linejoin="round"/>
<path d="M41.432 28.545C40.0623 28.3798 38.9311 29.0025 38.5836 30.4106C38.2361 31.8187 38.2919 34.4011 40.2805 34.7849C41.8023 35.0772 42.9665 33.3208 43.1111 31.2265C43.2759 28.9745 43.1314 25.9194 43.2404 23.2278L41.4497 23.1795L41.432 28.545Z" fill="#5DA0D4" stroke="#1D1D1B" stroke-width="0.359591" stroke-linecap="round" stroke-linejoin="round"/>
</svg>
