<svg width="111" height="177" viewBox="0 0 111 177" fill="none" xmlns="http://www.w3.org/2000/svg">
<path d="M73.4688 37.9652C75.3175 38.3956 77.3322 39.7024 79.1991 41.6419C83.4747 44.5563 87.377 47.6056 90.7737 51.2019C92.4747 52.0965 94.1912 52.9936 95.9077 53.8907C99.4936 54.7853 103.077 55.6824 106.681 56.577C106.961 65.5588 105.263 76.5423 94.6397 77.5431C90.9423 77.8802 86.9674 74.538 83.0262 72.1473C79.8525 60.8345 76.6425 49.2598 73.4688 37.9652Z" fill="#3A384A"/>
<path d="M73.4688 37.9652C75.3175 38.3956 77.3322 39.7024 79.1991 41.6419C83.4747 44.5563 87.377 47.6056 90.7737 51.2019C91.689 51.6686 92.6043 52.1535 93.5196 52.6384C93.2603 52.9184 93.001 53.1984 92.7158 53.4785C90.4004 52.4413 88.1057 50.3229 85.7902 48.233C83.5136 46.1976 80.9 44.5563 78.3797 42.8372C76.9795 41.8856 75.5275 41.0092 74.0859 40.1302C73.8784 39.4016 73.6736 38.673 73.4688 37.9652Z" fill="#595570"/>
<path d="M93.4081 52.5839C94.2482 53.0118 95.0675 53.4603 95.9076 53.8804C96.6362 54.0671 97.3648 54.233 98.0934 54.4197C99.0269 60.5441 97.5749 68.4032 94.3415 77.5509C91.3156 77.6624 88.1186 75.4429 84.9319 73.3504C84.2966 70.4023 83.6614 67.4516 83.0261 64.5346C84.9501 66.0903 86.8351 67.7264 88.9457 69.1085C88.6086 61.3946 90.4211 56.2788 93.4081 52.5839Z" fill="#272633"/>
<path d="M104.944 56.1492C105.522 56.297 106.5 54.8527 107.073 54.9902C107.241 60.5182 106.269 68.3954 103.321 72.653C105.206 66.4352 105.934 60.8345 104.944 56.1492Z" fill="#595570"/>
<path d="M88.9561 69.1059C88.6191 61.3946 90.4315 56.2788 93.4185 52.5839" stroke="#1D1D1B" stroke-width="0.404547" stroke-linecap="round" stroke-linejoin="round"/>
<path d="M73.4688 37.9652C75.3175 38.3956 77.3322 39.7024 79.1991 41.6419C83.4747 44.5563 87.3771 47.6056 90.7737 51.2019C92.4747 52.0965 94.1912 52.9936 95.9077 53.8907C99.4937 54.7853 103.469 53.3307 107.057 54.2252C107.431 63.5597 105.452 77.2813 94.6423 77.5431C90.9267 77.6183 86.97 74.538 83.0288 72.1473C79.8525 60.8345 76.6425 49.2598 73.4688 37.9652Z" stroke="#1D1D1B" stroke-width="0.404547" stroke-linecap="round" stroke-linejoin="round"/>
<path d="M106.847 53.144C107.76 55.4387 105.074 58.2391 100.884 59.367C96.6935 60.4949 92.5008 59.5744 91.5674 57.2927C90.6339 55.0109 93.3409 52.1976 97.5311 51.0567C101.721 49.9159 105.935 50.8597 106.847 53.144Z" fill="#272633" stroke="#1D1D1B" stroke-width="0.433073" stroke-linecap="round" stroke-linejoin="round"/>
<path d="M87.8617 45.2643C86.8988 45.5822 86.0408 46.1568 85.3803 46.9263C83.5497 48.9799 84.3432 50.8157 86.3682 51.482C87.8799 51.9669 89.5601 51.4639 91.1469 50.9635C90.6621 53.017 91.8211 54.2487 93.7243 55.0888C93.5145 55.7621 93.3891 56.4589 93.3509 57.1631C93.3223 57.8186 93.3597 58.4753 93.4624 59.1233C95.2774 59.9815 98.0751 60.1605 100.875 59.3826C102.365 58.9955 103.766 58.3237 105.001 57.4042C105.187 56.9764 105.356 56.546 105.504 56.1363C106.046 54.622 106.308 53.2841 106.157 52.1588C103.002 49.3585 99.8668 46.5763 96.7113 43.7941C93.7606 44.2764 90.7372 44.4812 87.8617 45.2643Z" fill="#FFD709"/>
<path d="M84.5015 49.9496C84.7815 50.6419 85.4531 51.1838 86.3683 51.482C87.88 51.9669 89.5602 51.4638 91.1471 50.9634C90.6622 53.017 91.8212 54.2486 93.7244 55.0887C93.5147 55.7621 93.3893 56.4588 93.351 57.163C93.3224 57.8185 93.3598 58.4752 93.4625 59.1233C94.6941 59.7015 96.3951 59.9634 98.2231 59.8311C98.3385 58.7704 98.545 57.7216 98.8402 56.6963C98.9154 56.3955 99.0087 56.0973 99.0995 55.8173C98.0623 54.7802 97.5671 53.6885 97.5852 52.4958C93.8151 52.2884 92.0053 50.8338 91.5386 48.5183C89.1868 49.4829 86.8532 49.8381 84.5015 49.9496Z" fill="#E8C411"/>
<path d="M87.8617 45.2643C86.8988 45.5822 86.0408 46.1568 85.3803 46.9263C83.5497 48.9799 84.3432 50.8157 86.3682 51.482C87.8799 51.9669 89.5601 51.4639 91.1469 50.9635C90.6621 53.017 91.8211 54.2487 93.7243 55.0888C93.5145 55.7621 93.3891 56.4589 93.3509 57.1631C93.3223 57.8186 93.3597 58.4753 93.4624 59.1233C95.2774 59.9815 98.0751 60.1605 100.875 59.3826C102.365 58.9955 103.766 58.3237 105.001 57.4042C105.187 56.9764 105.356 56.546 105.504 56.1363C106.046 54.622 106.308 53.2841 106.157 52.1588C103.002 49.3585 99.8668 46.5763 96.7113 43.7941C93.7606 44.2764 90.7372 44.4812 87.8617 45.2643Z" stroke="#1D1D1B" stroke-width="0.365648" stroke-linecap="round" stroke-linejoin="round"/>
<path d="M97.3471 55.8874C96.0949 55.8933 94.8563 55.6279 93.7166 55.1094" stroke="#1D1D1B" stroke-width="0.404547" stroke-linecap="round" stroke-linejoin="round"/>
<path d="M103.396 42.8554C104.926 43.1354 106.588 43.5658 107.091 45.5624C108.323 50.3437 106.344 53.3099 102.629 53.7974C99.6623 54.1889 98.7393 52.5269 98.8404 50.6029C96.9165 50.0636 96.2267 47.8234 96.7298 45.6376C99.0271 44.7041 101.099 43.7888 103.396 42.8554Z" fill="#E8C411"/>
<path d="M106.904 45.0023C106.981 45.1838 107.044 45.3711 107.091 45.5624C107.783 48.2512 107.464 50.3618 106.383 51.7983C104.682 52.3039 103.012 52.4154 101.641 51.5753C100.912 51.1449 101.192 50.3437 101.996 49.7084C100.277 49.6695 99.6415 49.0161 99.6052 48.0101C102.107 47.6548 104.628 46.3843 106.904 45.0023Z" fill="#FFD709"/>
<path d="M98.8945 50.601C101.081 51.1197 102.948 49.5637 104.722 46.3273" stroke="#1D1D1B" stroke-width="0.404547" stroke-linecap="round" stroke-linejoin="round"/>
<path d="M103.396 42.8554C104.926 43.1354 106.588 43.5658 107.091 45.5624C108.323 50.3437 106.344 53.3099 102.629 53.7974C99.6623 54.1889 98.7393 52.5269 98.8404 50.6029C96.9165 50.0636 96.2267 47.8234 96.7298 45.6376C99.0271 44.7041 101.099 43.7888 103.396 42.8554Z" stroke="#1D1D1B" stroke-width="0.404547" stroke-linecap="round" stroke-linejoin="round"/>
<path d="M86.1456 45.5624C84.7818 41.4942 102.069 36.4147 108.53 36.8814C110.247 38.3023 110.415 40.0188 109.536 41.9427C103.116 46.89 87.5069 49.6514 86.1456 45.5624Z" fill="#CB6E33"/>
<path d="M109.984 39.1035C110.171 39.9824 110.002 40.934 109.536 41.9556C103.152 46.864 87.732 49.628 86.1633 45.6505C90.1358 45.4948 94.074 44.8495 97.8884 43.7292C102.025 42.4758 106.067 40.93 109.984 39.1035Z" fill="#A65C45"/>
<path d="M101.472 37.61C101.192 40.4288 102.144 42.7965 104.584 44.6507" stroke="#1D1D1B" stroke-width="0.404547" stroke-linecap="round" stroke-linejoin="round"/>
<path d="M97.9068 38.4501C97.4945 41.5127 99.3072 43.717 102.276 45.5271" stroke="#1D1D1B" stroke-width="0.404547" stroke-linecap="round" stroke-linejoin="round"/>
<path d="M97.8498 38.489C96.0581 40.7656 95.8715 43.6956 96.3563 47.0197" stroke="#1D1D1B" stroke-width="0.404547" stroke-linecap="round" stroke-linejoin="round"/>
<path d="M93.258 47.4509C91.4271 45.6356 90.867 43.3977 91.0355 40.877" stroke="#1D1D1B" stroke-width="0.404547" stroke-linecap="round" stroke-linejoin="round"/>
<path d="M90.1024 47.4896C88.5905 46.2189 88.0122 44.5022 88.5153 42.2046" stroke="#1D1D1B" stroke-width="0.404547" stroke-linecap="round" stroke-linejoin="round"/>
<path d="M86.1456 45.5624C84.7818 41.4942 102.069 36.4147 108.53 36.8814C110.247 38.3023 110.415 40.0188 109.536 41.9427C103.116 46.89 87.5069 49.6514 86.1456 45.5624Z" stroke="#1D1D1B" stroke-width="0.404547" stroke-linecap="round" stroke-linejoin="round"/>
<path d="M105.691 36.9566C106.633 36.8517 107.583 36.8265 108.53 36.8814C110.247 38.3025 110.416 40.0192 109.537 41.9434C108.722 42.5607 107.854 43.104 106.943 43.5668C105.45 41.7852 104.796 39.6639 105.691 36.9566Z" fill="#9D9D9C"/>
<path d="M109.441 42.0156C108.658 42.6114 107.821 43.1323 106.941 43.5716C106.294 42.8342 105.81 41.9692 105.52 41.0328C106.323 40.7138 107.127 40.3793 107.911 40.0422C107.97 40.2626 108.082 41.7174 109.441 42.0156Z" fill="#575756"/>
<path d="M108.416 36.9021C107.148 37.9394 107.876 41.8682 109.5 41.9615" stroke="#1D1D1B" stroke-width="0.404547" stroke-linecap="round" stroke-linejoin="round"/>
<path d="M106.886 36.9021C105.615 37.9653 106.437 42.8199 108.043 42.9133" stroke="#1D1D1B" stroke-width="0.404547" stroke-linecap="round" stroke-linejoin="round"/>
<path d="M105.691 36.9566C106.633 36.8517 107.583 36.8265 108.53 36.8814C110.247 38.3025 110.416 40.0192 109.537 41.9434C108.722 42.5607 107.854 43.104 106.943 43.5668C105.45 41.7852 104.796 39.6639 105.691 36.9566Z" stroke="#1D1D1B" stroke-width="0.404547" stroke-linecap="round" stroke-linejoin="round"/>
<path d="M99.4937 37.9653C98.4099 36.3966 96.4678 35.7821 94.2276 36.2851C91.0305 37.0137 88.8136 41.196 88.9562 43.6411C89.0496 45.4562 90.0582 46.6282 91.5335 46.61C92.4851 46.61 94.2405 45.6377 94.2768 43.7578C94.435 41.3075 94.6943 39.0284 99.4937 37.9653Z" fill="#FFD709"/>
<path d="M89.1323 44.6498C89.4876 45.8816 90.3641 46.6284 91.5415 46.6103C92.4932 46.6103 94.2488 45.6378 94.2851 43.7577C92.6977 44.5706 90.9006 44.8817 89.1323 44.6498Z" fill="#E8C411"/>
<path d="M99.4936 37.9653C98.4098 36.3966 96.4677 35.7821 94.2274 36.2851C93.3374 36.5156 92.5174 36.9607 91.8394 37.5815C94.5645 37.2082 97.1029 37.1693 98.6146 38.1416C98.8946 38.0586 99.1954 38.0223 99.4936 37.9653Z" fill="#FFE047"/>
<path d="M99.5482 38.0015C98.467 36.4457 96.4678 35.782 94.2276 36.285C91.0305 37.0136 88.8136 41.1959 88.9562 43.641C89.0496 45.4561 90.0582 46.628 91.5335 46.6099C92.4851 46.6099 94.2405 45.6376 94.2768 43.7577C94.4531 41.1959 94.6761 39.1035 99.5482 38.0015Z" stroke="#1D1D1B" stroke-width="0.404547" stroke-linecap="round" stroke-linejoin="round"/>
<path d="M68.1482 41.476C73.2821 56.1103 78.404 70.7463 83.5137 85.3841C82.8395 91.9752 82.1671 98.5715 81.4964 105.173C83.3996 104.929 85.212 104.875 87.3953 103.737C88.5543 103.138 88.8136 101.403 89.0755 99.0875C90.2526 87.9977 88.1602 78.5881 84.7998 68.2658C84.1101 60.8916 82.8784 53.5355 80.1533 46.1613L79.1447 41.6238C76.6996 39.1605 74.1222 37.5166 71.2286 37.7344C70.2018 38.992 69.175 40.2288 68.1482 41.476Z" fill="#3A384A"/>
<path d="M79.594 43.66C79.5007 43.0065 80.7143 42.9313 79.1454 41.6243C78.0382 40.4544 76.7599 39.4593 75.354 38.6732L75.3359 38.6524H75.3177C74.7333 38.3448 74.1119 38.113 73.4688 37.9626C73.6736 38.6732 73.8785 39.3993 74.0859 40.128C75.5226 41.0071 76.98 41.8836 78.3804 42.8353C78.7901 43.118 79.1817 43.3981 79.594 43.66Z" fill="#595570"/>
<path d="M79.1447 41.6238C76.6996 39.1605 74.1222 37.5166 71.2286 37.7344C70.1914 38.9842 69.175 40.2158 68.1482 41.4682C73.2821 56.1025 78.404 70.7385 83.5137 85.3763C82.8395 91.9674 82.1671 98.5637 81.4964 105.165C83.3996 104.922 85.212 104.867 87.3953 103.729C88.5543 103.13 88.8136 101.395 89.0755 99.0797C90.2526 87.9899 88.1602 78.5803 84.7998 68.258C84.1101 60.8838 82.8784 53.5277 80.1533 46.1535" stroke="#1D1D1B" stroke-width="0.404547" stroke-linecap="round" stroke-linejoin="round"/>
<path d="M53.3632 159.144C52.1861 162.989 52.2042 166.723 52.5231 170.421L59.0054 170.981V169.078C64.7564 171.372 70.4504 172.625 76.7226 172.708C80.6685 172.775 84.612 172.475 88.5022 171.811C91.0043 171.38 90.5013 168.881 88.4477 167.499C85.1418 165.24 79.2429 162.588 77.1712 159.461L53.3632 159.144Z" fill="#1D1D1B" stroke="#1D1D1B" stroke-width="0.404547" stroke-linecap="round" stroke-linejoin="round"/>
<path d="M88.7954 171.764C90.9812 171.186 90.4212 168.834 88.4609 167.509C85.155 165.25 79.2561 162.598 77.1844 159.471C76.8655 159.471 76.5673 159.471 76.251 159.453C77.3322 161.449 79.3858 163.28 82.3365 165.015C84.3149 166.174 86.3322 167.255 88.1809 168.619C89.4877 169.581 89.3736 170.664 88.7954 171.764Z" fill="#575756" stroke="#1D1D1B" stroke-width="0.404547" stroke-linecap="round" stroke-linejoin="round"/>
<path d="M59.0186 170.981L61.1114 169.749L59.8407 168.123L57.9917 168.162L58.0669 170.102L59.0186 170.981Z" fill="#1D1D1B" stroke="#1D1D1B" stroke-width="0.404547" stroke-linecap="round" stroke-linejoin="round"/>
<path d="M20.5426 160.863C19.1243 163.944 19.2929 167.042 19.5055 170.141C21.9143 171.437 24.3412 171.896 26.7474 172.008C26.7863 171.204 26.8045 170.403 26.8226 169.617C30.0715 171.746 33.2271 174.323 37.8191 175.368C40.8061 176.058 43.9046 176.04 46.9487 175.964C49.8242 175.892 52.7179 175.666 55.4793 174.927C57.4966 174.385 58.5778 172.464 55.9849 170.672C52.3549 168.152 48.8337 165.966 46.3497 162.811C44.5347 161.636 42.7197 160.459 40.9046 159.284C34.0992 159.818 27.3118 160.345 20.5426 160.863Z" fill="#1D1D1B" stroke="#1D1D1B" stroke-width="0.404547" stroke-linecap="round" stroke-linejoin="round"/>
<path d="M26.1251 168.964L26.1069 171.502L26.7786 172.008L29.0555 170.662L27.8418 168.292L26.1251 168.964Z" fill="#1D1D1B" stroke="#1D1D1B" stroke-width="0.404547" stroke-linecap="round" stroke-linejoin="round"/>
<path d="M55.0438 175.031C55.1916 174.995 55.342 174.958 55.4716 174.919C57.4889 174.377 58.5701 172.456 55.9772 170.664C52.3472 168.144 48.826 165.958 46.342 162.803C45.1285 162.025 43.8969 161.216 42.6653 160.433C44.1406 163.775 48.6289 168.349 54.9867 172.158C55.7672 172.625 55.7335 173.893 55.0438 175.031Z" fill="#575756" stroke="#1D1D1B" stroke-width="0.404547" stroke-linecap="round" stroke-linejoin="round"/>
<path d="M86.7417 84.8604C86.2568 92.2346 85.7046 99.6399 82.8031 106.835C82.2612 123.824 80.3943 140.802 77.651 157.783C78.9475 159.079 79.2923 160.415 79.2197 161.722C78.2655 161.496 77.3528 160.918 76.3987 161.05C71.9181 161.646 67.645 164.055 63.1256 163.887C59.41 163.775 55.4714 162.188 52.6348 160.21L53.1948 109.648C57.7117 100.967 62.2354 92.2985 66.766 83.6417C73.0383 83.3254 79.3312 83.0272 85.6034 82.7264C85.995 83.442 86.3632 84.1525 86.7417 84.8604Z" fill="#2C596A"/>
<path d="M66.3745 163.625C65.3061 163.843 64.2151 163.93 63.1256 163.884C59.41 163.773 55.4714 162.186 52.6348 160.207L53.1948 109.646C54.4913 107.162 55.7696 104.66 57.0842 102.178C60.1853 104.68 63.2786 107.181 66.3641 109.682C66.8049 131.626 67.5128 155.989 66.3745 163.625Z" fill="#1B3540"/>
<path d="M86.7416 84.8604C86.2567 92.2346 85.7044 99.6399 82.803 106.835C82.2611 123.824 80.3942 140.802 77.6509 157.783C78.9474 159.079 79.2922 160.415 79.2196 161.722C78.5844 161.571 77.9672 161.255 77.3527 161.104C77.1271 159.761 76.3804 158.304 75.3354 156.793C78.6777 140.717 79.3674 125.616 79.4244 110.756C83.2697 101.216 85.3881 91.8431 83.4745 82.8276L85.6033 82.7135C85.9948 83.4421 86.363 84.1525 86.7416 84.8604Z" fill="#4B869E"/>
<path d="M86.7417 84.8604C86.2568 92.2346 85.7046 99.6399 82.8031 106.835C82.2612 123.824 80.3943 140.802 77.651 157.783C78.9475 159.079 79.2923 160.415 79.2197 161.722C78.2655 161.496 77.3528 160.918 76.3987 161.05C71.9181 161.646 67.645 164.055 63.1256 163.887C59.41 163.775 55.4714 162.188 52.6348 160.21L53.1948 109.648C57.7117 100.967 62.2354 92.2985 66.766 83.6417C73.0383 83.3254 79.3312 83.0272 85.6034 82.7264C85.995 83.442 86.3632 84.1525 86.7417 84.8604Z" stroke="#1D1D1B" stroke-width="0.404547" stroke-linecap="round" stroke-linejoin="round"/>
<path d="M17.5736 95.0349C17.4051 101.551 17.8718 107.88 20.1873 113.704V156.606C18.546 159.015 17.4051 161.366 19.9824 162.569C23.1198 164.045 26.125 165.422 29.5761 165.147C33.9244 164.81 37.5856 163.259 41.9157 162.774C44.0056 162.533 46.4714 163.653 47.8794 165.072C48.6832 162.831 47.8794 160.778 46.3236 158.817C49.4904 144.356 52.633 129.891 55.7514 115.423C60.6779 114.601 65.3296 112.716 69.4186 108.982C69.4912 106.965 69.5482 104.95 69.6053 102.933C71.0988 99.2561 71.3581 95.4653 71.4333 91.6745L77.8922 90.8966C77.8196 88.843 77.7625 86.8076 77.6873 84.754L31.6323 80.9969C26.9478 85.6831 22.2616 90.3625 17.5736 95.0349Z" fill="#2C596A"/>
<path d="M17.5736 95.0349C17.4051 101.551 17.8718 107.88 20.1873 113.704V156.606C18.546 159.015 17.4051 161.366 19.9824 162.569C23.1198 164.045 26.125 165.422 29.5761 165.147C30.0947 165.108 30.6133 165.053 31.1319 164.978C31.0774 163.653 31.0022 162.308 31.1708 161.001C31.3756 159.359 32.3661 157.866 32.5139 156.222C33.8777 141.603 35.3894 127.809 35.8846 113.133C35.9598 111.399 34.4482 109.026 34.2252 107.31C33.8881 104.807 33.2917 102.176 34.0178 99.7487C35.5865 99.2302 37.9201 97.397 37.959 94.6718C40.9252 92.5612 42.0661 87.5777 39.0402 83.3383C39.1724 82.7782 39.3202 82.2 39.4525 81.6399C36.8388 81.417 34.2433 81.2095 31.6297 80.9865C26.9469 85.6797 22.2616 90.3625 17.5736 95.0349Z" fill="#1B3540"/>
<path d="M46.1007 163.757C46.7623 164.104 47.3665 164.551 47.8924 165.082C48.6962 162.842 47.8924 160.788 46.3366 158.828C49.3997 144.786 52.449 130.76 55.4844 116.748C54.5899 116.807 53.706 116.976 52.8526 117.251C49.3444 130.954 46.0022 144.658 43.0903 158.361C44.9987 159.948 46.2303 161.703 46.1007 163.757Z" fill="#4B869E"/>
<path d="M69.6053 102.933C71.0988 99.2561 71.3581 95.4653 71.4333 91.6745L77.8922 90.8966C77.8196 88.843 77.7625 86.8076 77.6873 84.754L31.6323 80.9969C26.9478 85.6831 22.2616 90.3625 17.5736 95.0349C17.4051 101.551 17.8718 107.88 20.1873 113.704V156.606C18.546 159.015 17.4051 161.366 19.9824 162.569C23.1198 164.045 26.125 165.422 29.5761 165.147C33.9244 164.81 37.5856 163.259 41.9157 162.774C44.0056 162.533 46.4714 163.653 47.8794 165.072C48.6832 162.831 47.8794 160.778 46.3236 158.817C49.4904 144.356 52.633 129.891 55.7514 115.423C60.6779 114.601 65.3296 112.716 69.4186 108.982" stroke="#1D1D1B" stroke-width="0.404547" stroke-linecap="round" stroke-linejoin="round"/>
<path d="M75.2992 47.393L88.2352 84.1888C84.7063 86.3824 75.7841 86.9528 67.9536 87.8863C56.1187 89.3086 44.1153 87.9857 32.8743 84.0203C37.0575 77.0004 41.2398 69.9875 45.4213 62.9815C44.9736 55.9064 44.525 48.8373 44.0756 41.7742L46.7644 41.6057C56.2734 43.5296 65.785 45.4587 75.2992 47.393Z" fill="#BB2121"/>
<path d="M41.003 86.3823C38.2573 85.7308 35.5467 84.9389 32.8821 84.0098C37.0653 76.99 41.2476 69.9771 45.4291 62.9711C45.3358 61.4594 45.2424 59.9659 45.1491 58.4542C45.7091 57.0904 46.2874 55.7473 46.8656 54.3834C46.1007 52.5684 45.3098 50.7533 44.532 48.9513C44.3816 46.5788 44.2338 44.2089 44.0834 41.8571C45.6884 42.342 47.296 42.845 48.901 43.3506L63.6675 49.4543C61.6503 53.45 59.5604 57.2952 57.0971 60.6193C56.06 59.9089 55.0228 59.201 53.9857 58.4905C52.2977 68.0583 46.8656 77.245 41.003 86.3823Z" fill="#90292A"/>
<path d="M75.2994 47.3929C75.5794 48.2149 75.8594 49.0368 76.1576 49.838C75.7091 52.1716 75.0375 54.8968 73.8059 57.0437C72.7687 55.2701 71.1922 53.6288 68.8949 52.2105C68.2541 52.8975 67.3978 53.3449 66.468 53.4785C65.6097 52.4413 64.7515 51.4249 63.9114 50.3799C65.2726 48.8864 66.6365 47.4111 67.9978 45.9176C70.4247 46.4024 72.8517 46.9081 75.2994 47.3929Z" fill="#90292A"/>
<path d="M75.2992 47.393L88.2352 84.1888C84.7063 86.3824 75.7841 86.9528 67.9536 87.8863C56.1187 89.3086 44.1153 87.9857 32.8743 84.0203C37.0575 77.0004 41.2398 69.9875 45.4213 62.9815C44.9736 55.9064 44.525 48.8373 44.0756 41.7742L46.7644 41.6057C56.2734 43.5296 65.785 45.4587 75.2992 47.393Z" stroke="#1D1D1B" stroke-width="0.404547" stroke-linecap="round" stroke-linejoin="round"/>
<path d="M72.6468 38.3749C74.3451 39.9618 75.8775 41.5875 76.7358 43.4544C75.3927 45.5287 73.5258 46.9444 71.62 48.3264C70.7436 46.1614 69.8853 43.9963 69.0271 41.8442C70.238 40.6904 71.4333 39.5339 72.6468 38.3749Z" fill="#3A384A" stroke="#1D1D1B" stroke-width="0.404547" stroke-linecap="round" stroke-linejoin="round"/>
<path d="M69.678 43.3221C72.8517 44.8545 75.9891 46.4336 78.5846 48.5701C81.1775 56.2036 83.0081 63.6712 83.6615 71.0091C85.3598 74.1205 86.7418 77.2631 87.3408 80.3616C87.5275 81.334 88.0123 82.34 88.2924 83.2942C88.5724 84.2484 88.3287 85.1403 88.4609 86.1308C88.7366 88.4848 88.8362 90.8561 88.7591 93.225C88.7021 95.9683 88.3468 98.696 88.1601 101.439C87.9009 101.496 87.6571 101.551 87.4134 101.59C88.3857 89.7713 87.1904 79.2415 81.709 71.1594C79.0415 61.3559 74.9905 51.9825 69.678 43.3221Z" fill="#3A384A"/>
<path d="M87.4133 101.59C88.3856 89.7713 87.1903 79.2415 81.7089 71.1594C79.0382 61.3553 74.9836 51.9819 69.6675 43.3221C72.8412 44.8545 75.9786 46.4336 78.5741 48.5701C81.167 56.2036 82.9976 63.6712 83.651 71.0091" stroke="#1D1D1B" stroke-width="0.404547" stroke-linecap="round" stroke-linejoin="round"/>
<path d="M79.1626 41.6237C79.4219 41.8105 79.6812 41.979 79.9406 42.1657" stroke="#1D1D1B" stroke-width="0.404547" stroke-linecap="round" stroke-linejoin="round"/>
<path d="M45.6162 82.4153L43.0022 86.8031C43.7102 86.9535 44.3273 87.0831 45.0171 87.2154L47.67 82.8821L45.6162 82.4153Z" fill="#575756" stroke="#1D1D1B" stroke-width="0.401954" stroke-linecap="round" stroke-linejoin="round"/>
<path d="M45.1362 71.6988C45.4733 71.6444 45.8285 71.6055 46.1733 71.551C48.3566 71.2917 47.8898 73.1197 47.086 74.6858C50.1975 73.9961 53.5838 73.7524 56.1975 74.0713C58.6996 74.3695 58.6607 75.6763 58.0125 77.245C57.3643 78.8137 56.8379 80.455 56.1456 82.0237C55.6996 83.0324 55.0255 83.4058 54.2061 83.4421C52.0022 83.4991 45.5044 83.2009 43.303 82.9572C42.6859 84.1344 41.6591 85.3271 41.0057 86.5043C38.8977 86.0012 37.1423 85.4023 35.0706 84.7489C37.8501 81.2951 40.7257 77.8984 43.3678 74.3332C43.9538 73.4931 44.5502 72.6141 45.1362 71.6988Z" fill="#EDEDED"/>
<path d="M45.1362 71.6988C45.4733 71.6444 45.8285 71.6055 46.1734 71.551C48.3566 71.2917 47.8899 73.1197 47.0861 74.6858C47.4232 74.6132 47.7602 74.538 48.0947 74.481C45.9867 78.4767 43.539 82.4334 41.0006 86.3928C40.2357 86.2061 39.4448 86.0012 38.7059 85.8146L38.6851 85.7938C38.4984 85.7575 38.2936 85.7005 38.1069 85.646C38.0887 85.646 38.0706 85.6279 38.0524 85.6279C38.042 85.6293 38.0313 85.6282 38.0213 85.6246C38.0114 85.621 38.0025 85.615 37.9954 85.6071C37.9852 85.6082 37.9748 85.6071 37.965 85.604C37.9552 85.6008 37.9461 85.5957 37.9384 85.589H37.9021L37.7335 85.5345C37.6887 85.5276 37.6451 85.5145 37.6039 85.4956H37.5468C36.7249 85.2545 35.8848 85.0108 35.0654 84.7489C37.845 81.2951 40.7205 77.8984 43.3627 74.3332C43.9539 73.4931 44.5502 72.6141 45.1362 71.6988Z" fill="#C6C6C6"/>
<path d="M45.1362 71.6988C45.4733 71.6444 45.8285 71.6055 46.1734 71.551C48.3566 71.2917 47.8899 73.1197 47.0861 74.6858C50.1975 73.9961 53.5839 73.7524 56.1975 74.0713C58.6996 74.3695 58.6607 75.6763 58.0125 77.245C57.3643 78.8137 56.8379 80.455 56.1456 82.0237C55.6997 83.0324 55.0255 83.4058 54.2062 83.4421C52.0022 83.4991 45.5044 83.2009 43.303 82.9572L41.0213 86.3824C38.8951 85.8975 37.1319 85.3919 35.0576 84.7385C37.8372 81.2848 40.7127 77.8881 43.3549 74.3228C43.9538 73.4931 44.5502 72.6141 45.1362 71.6988Z" stroke="#1D1D1B" stroke-width="0.404547" stroke-linecap="round" stroke-linejoin="round"/>
<path d="M43.6167 73.9365C43.9892 74.1394 44.3455 74.3709 44.6824 74.6288C45.4603 75.207 45.035 75.9719 44.6824 76.6071C42.9088 79.7057 41.0031 82.8301 39.2114 85.9416C37.8294 85.5682 36.4474 85.1767 35.0627 84.7462C37.8423 81.2925 40.7179 77.8958 43.36 74.3306C43.4482 74.1957 43.5234 74.0713 43.6167 73.9365Z" fill="#3C3C3B" stroke="#1D1D1B" stroke-width="0.404547" stroke-linecap="round" stroke-linejoin="round"/>
<path d="M45.3956 79.41C45.9538 78.763 46.5458 78.1459 47.1691 77.5613C47.991 76.7393 48.9608 76.2363 50.0628 76.2182C51.4629 76.1793 52.8812 76.2 54.2814 76.2545C55.2719 76.2934 55.8683 76.8145 55.7205 77.525C55.5338 78.4195 55.0282 79.2233 54.6003 80.0453C54.1725 80.8672 53.1613 80.9606 52.1163 80.9606C50.0809 80.9787 48.0662 80.9398 46.0308 80.9606C44.8121 80.9787 44.5503 80.4549 45.3956 79.41Z" fill="#575756" stroke="#1D1D1B" stroke-width="0.404547" stroke-linecap="round" stroke-linejoin="round"/>
<path d="M42.0298 76.086L43.3938 76.2545" stroke="#1D1D1B" stroke-width="0.404547" stroke-linecap="round" stroke-linejoin="round"/>
<path d="M40.4431 78.1033L42.4036 78.347" stroke="#1D1D1B" stroke-width="0.404547" stroke-linecap="round" stroke-linejoin="round"/>
<path d="M38.8562 80.0816L41.1901 80.3617" stroke="#1D1D1B" stroke-width="0.404547" stroke-linecap="round" stroke-linejoin="round"/>
<path d="M37.2148 82.1171L40.07 82.4543" stroke="#1D1D1B" stroke-width="0.404547" stroke-linecap="round" stroke-linejoin="round"/>
<path d="M43.6166 29.7146C37.2874 32.9428 31.4637 36.1968 26.0679 39.5339C21.7205 55.4958 17.3774 71.4576 13.0386 87.4195C12.0015 91.9752 10.705 96.7358 12.6082 100.506C15.7819 106.729 22.6323 110.699 31.8942 113.05C29.5035 108.72 28.7568 103.661 30.3073 97.9285C31.3885 93.9147 32.7887 89.9761 34.0411 86.0193C37.1396 82.117 40.4066 78.347 43.3548 74.3332C47.0341 69.2926 50.2259 62.5718 50.0756 56.0169C49.9822 51.7983 47.2234 46.7577 45.8025 42.1294C43.6918 37.0136 42.7765 32.7561 43.6166 29.7146Z" fill="#272633"/>
<path d="M30.7925 96.212C31.8011 92.7764 32.9757 89.3979 34.0414 86.0193C37.1399 82.117 40.4069 78.347 43.3551 74.3332C47.0344 69.2926 50.2262 62.5718 50.0758 56.0169C50.0214 52.8821 48.4708 49.2961 47.0888 45.7491C46.5106 46.1224 45.8961 46.5269 45.2608 46.9625C42.3101 46.6462 39.0379 45.3575 36.3179 43.3325C33.4061 44.3696 32.4286 48.1501 31.2022 51.2875C31.0155 60.0048 30.8288 68.7792 29.9342 77.4602C29.3534 83.136 28.0855 88.55 26.8228 94.1118C28.1399 94.7937 29.4675 95.5016 30.7925 96.212Z" fill="#3A384A"/>
<path d="M42.9815 52.3584C42.1803 53.4603 41.3402 54.469 40.5364 55.6254C41.9002 62.162 41.8046 68.919 40.2563 75.4144C40.3601 75.0178 40.4981 74.6308 40.6686 74.258C43.6738 65.6133 44.252 57.5675 42.9815 52.3584Z" fill="#272633"/>
<path d="M43.6166 29.7146C37.2874 32.9428 31.4637 36.1968 26.0679 39.5339C21.7205 55.4958 17.3774 71.4576 13.0386 87.4195C12.0015 91.9752 10.705 96.7358 12.6082 100.506C15.7819 106.729 22.6323 110.699 31.8942 113.05C29.5035 108.72 28.7568 103.661 30.3073 97.9285C31.3885 93.9147 32.7887 89.9761 34.0411 86.0193C37.1396 82.117 40.4066 78.347 43.3548 74.3332C47.0341 69.2926 50.2259 62.5718 50.0755 56.0169C49.8889 47.673 41.3582 37.947 43.6166 29.7146Z" stroke="#1D1D1B" stroke-width="0.365648" stroke-linecap="round" stroke-linejoin="round"/>
<path d="M43.6168 29.7146C42.8519 30.1061 42.1052 30.4925 41.3584 30.8892C40.1194 34.3682 39.1825 37.9476 38.5581 41.5875C40.8736 43.9574 43.8787 45.788 47.6877 46.9833C45.2789 41.1208 42.1415 35.0897 43.6168 29.7146Z" fill="#3A384A" stroke="#1D1D1B" stroke-width="0.365648" stroke-linecap="round" stroke-linejoin="round"/>
<path d="M37.4561 81.8189C39.4733 79.3531 41.4699 76.8924 43.3549 74.3332C47.0342 69.2926 50.2261 62.5718 50.0757 56.017C49.9823 51.8373 47.1457 45.8814 45.577 41.9972C44.1235 44.2401 42.8241 46.5791 41.6877 48.998C44.488 53.7223 44.4309 64.2702 40.1553 75.6582C39.3702 77.7601 38.4691 79.8169 37.4561 81.8189Z" fill="#3A384A"/>
<path d="M37.4561 81.8188C39.4733 79.353 41.4699 76.8923 43.3549 74.3332C47.0342 69.2926 50.2261 62.5718 50.0757 56.0169C49.9823 51.6505 47.2028 45.9176 45.5952 41.9608C44.1385 44.2143 42.8389 46.5656 41.7058 48.998C44.5061 53.7222 44.4491 64.2701 40.1734 75.6581" stroke="#1D1D1B" stroke-width="0.365648" stroke-linecap="round" stroke-linejoin="round"/>
<path d="M29.2416 38.3386C26.8147 37.9833 16.7724 44.6678 11.3377 49.3713C7.44834 52.7421 4.5054 56.6911 2.58407 61.2831C0.584943 66.0981 0.361954 70.2623 2.58407 74.3513C5.81222 80.232 10.7232 86.206 18.0792 91.983C21.9997 87.4886 25.9262 82.9831 29.8587 78.4662C25.4897 74.6002 23.138 70.9468 22.1864 67.4335C26.4983 63.2122 31.0152 59.1051 33.8907 53.6911C37.4015 47.0948 35.4412 39.2539 29.2416 38.3386Z" fill="#3A384A" stroke="#1D1D1B" stroke-width="0.404547" stroke-linecap="round" stroke-linejoin="round"/>
<path d="M29.2416 38.3386C26.8147 37.9833 16.7724 44.6678 11.3377 49.3713C7.44834 52.7421 4.5054 56.6911 2.58407 61.2831C0.584943 66.0981 0.361954 70.2623 2.58407 74.3513C5.81222 80.232 10.7232 86.206 18.0792 91.983L26.0679 82.8145C25.8994 82.6667 25.7127 82.5163 25.5493 82.3685C21.3826 79.3348 18.17 76.1248 16.6583 72.5389C14.6618 67.799 15.3333 62.8129 19.552 57.5312C23.8847 52.0861 29.2235 47.6367 35.1975 43.8277C34.3574 40.9522 32.322 38.7871 29.2416 38.3386Z" fill="#272633"/>
<path d="M29.2416 38.3386C26.8147 37.9833 16.7724 44.6678 11.3377 49.3713C7.44834 52.7421 4.5054 56.6911 2.58407 61.2831C0.584943 66.0981 0.361954 70.2623 2.58407 74.3513C5.81222 80.232 10.7232 86.206 18.0792 91.983C21.9997 87.4886 25.9262 82.9831 29.8587 78.4662C25.4897 74.6002 23.138 70.9468 22.1864 67.4335C26.4983 63.2122 31.0152 59.1051 33.8907 53.6911C37.4015 47.0948 35.4412 39.2539 29.2416 38.3386Z" stroke="#1D1D1B" stroke-width="0.365648" stroke-linecap="round" stroke-linejoin="round"/>
<path d="M57.5068 55.9806C60.1377 53.6107 61.575 51.252 61.8188 48.9046C56.633 41.7923 51.4757 34.68 46.2873 27.5677C43.3003 27.941 43.0955 29.9557 43.1888 31.9341C43.6166 41.4552 48.5639 49.4647 57.5068 55.9806Z" fill="#BB2121" stroke="#1D1D1B" stroke-width="0.365648" stroke-linecap="round" stroke-linejoin="round"/>
<path d="M77.4253 15.936C80.5627 13.3587 82.9896 10.6517 82.803 7.53502C82.0381 1.72952 76.6059 1.01907 71.6379 1.00092C54.4082 0.907577 45.9501 12.6119 41.6381 25.6801C40.6295 28.7242 43.8421 30.4614 45.2682 29.3594C50.1221 24.6542 54.97 19.9559 59.8118 15.2644L77.4253 15.936Z" fill="#B2B2B2"/>
<path d="M80.5267 13.0034C81.9995 11.2843 82.9148 9.49264 82.8033 7.53241C82.0384 1.72951 76.6063 1.01906 71.6383 1.00091C70.4853 0.992482 69.3325 1.04268 68.1846 1.1513C78.7714 2.77445 83.2882 4.79172 80.5267 13.0034Z" fill="#C6C6C6"/>
<path d="M60.4185 2.92477C50.4877 6.78041 44.8767 15.8555 41.6381 25.68C40.6295 28.7241 43.8421 30.4613 45.2682 29.3594C49.8196 24.9549 54.3563 20.5487 58.8783 16.1408C58.0564 13.9187 57.2915 11.7173 58.7461 10.4364C61.9509 7.66459 63.8048 4.97835 60.4185 2.92477Z" fill="#9D9D9C"/>
<path d="M47.8562 16.3093C50.7295 16.4027 52.9701 16.981 53.7558 18.7185" stroke="#1D1D1B" stroke-width="0.365648" stroke-linecap="round" stroke-linejoin="round"/>
<path d="M49.2173 14.2558C51.3436 14.1576 53.445 14.7468 55.2103 15.9363" stroke="#1D1D1B" stroke-width="0.365648" stroke-linecap="round" stroke-linejoin="round"/>
<path d="M51.009 12.5186C52.6168 12.6915 53.8495 13.2335 54.707 14.1446" stroke="#1D1D1B" stroke-width="0.365648" stroke-linecap="round" stroke-linejoin="round"/>
<path d="M76.1185 3.98801C75.7659 7.03985 74.0649 10.0372 70.5464 12.1842" stroke="#1D1D1B" stroke-width="0.365648" stroke-linecap="round" stroke-linejoin="round"/>
<path d="M71.4519 4.44681C71.1356 7.19047 69.6367 9.03945 67.365 10.2894" stroke="#1D1D1B" stroke-width="0.365648" stroke-linecap="round" stroke-linejoin="round"/>
<path d="M78.1935 6.89972C77.6515 8.69165 76.0463 9.83268 73.7668 11.1189" stroke="#1D1D1B" stroke-width="0.365648" stroke-linecap="round" stroke-linejoin="round"/>
<path d="M77.4253 15.936C80.5627 13.3587 82.9896 10.6517 82.803 7.53502C82.0381 1.72952 76.6059 1.01907 71.6379 1.00092C54.4082 0.907577 45.9501 12.6119 41.6381 25.6801C40.6295 28.7242 43.8421 30.4614 45.2682 29.3594C50.1221 24.6542 54.97 19.9559 59.8118 15.2644L77.4253 15.936Z" stroke="#1D1D1B" stroke-width="0.365648" stroke-linecap="round" stroke-linejoin="round"/>
<path d="M77.0287 9.2904C78.2882 12.1062 79.8663 14.7684 81.7322 17.2247C82.3675 18.0466 82.4245 18.6793 82.0511 19.146C81.6596 19.6646 80.7547 20.1832 79.6605 20.248C80.6977 21.687 81.2473 24.84 79.772 25.4934C80.6873 28.0526 79.4375 30.1062 78.7659 32.6628C78.6337 33.1295 79.1004 33.8762 79.2119 34.3248C79.606 35.8806 79.1938 36.8451 78.2059 37.4052C77.5136 37.8149 76.5983 37.9471 75.6285 37.9652C75.2733 40.3559 74.1169 41.2893 72.3433 41.196C71.7081 43.3429 71.091 45.4898 70.4583 47.616C68.7781 48.7932 65.397 51.6505 63.9424 53.4604C61.7565 49.6333 59.6848 50.6238 56.2129 48.3835C49.7903 44.2349 45.4213 38.8416 44.3012 33.1684C44.0099 31.8196 44.1816 30.4119 44.7886 29.1727L52.0124 18.7545C54.1594 17.821 54.9061 15.8064 53.6356 12.1841C56.7628 9.9029 60.1701 8.03282 63.7738 6.61972C66.626 8.63699 69.5249 10.4468 72.753 10.6154C74.2931 10.7176 75.8163 10.2456 77.0287 9.2904Z" fill="#FFD709"/>
<path d="M48.4161 41.5486C46.2874 38.9168 44.8768 36.0802 44.2882 33.1683C43.9969 31.8195 44.1686 30.4119 44.7757 29.1727L51.9995 18.7544C54.1464 17.821 54.8932 15.8063 53.6227 12.184C56.0618 10.3979 58.6769 8.86533 61.4273 7.61017C60.8102 8.54361 59.8586 9.47705 58.7566 10.4468C56.257 12.6326 60.289 17.5047 59.9701 20.6395C59.8041 22.3767 59.1689 24.0102 56.7964 24.9152C58.1602 35.2764 53.773 40.9522 48.4161 41.5486Z" fill="#E8C411"/>
<path d="M80.1712 21.2203C80.8064 22.776 80.9491 24.9722 79.7589 25.4934C80.6742 28.0526 79.4244 30.1061 78.7529 32.6627C78.6206 33.1294 79.0874 33.8762 79.1988 34.3248C79.593 35.8805 79.1807 36.8451 78.1928 37.4051C77.9576 37.5404 77.7069 37.6467 77.446 37.7215C77.8616 37.0471 78.1228 36.2891 78.211 35.5019C78.3224 34.5685 77.7987 33.6351 77.8739 32.6809C77.9854 31.2626 78.5662 29.9013 78.7892 28.4804C78.9577 27.4743 78.9396 26.4657 79.0122 25.4571C79.287 24.9088 79.3574 24.2804 79.2105 23.6849C79.0636 23.0894 78.7092 22.5658 78.211 22.2082C78.8644 21.8918 79.5178 21.5599 80.1712 21.2203Z" fill="#FFE047"/>
<path d="M77.0288 9.29037C78.2883 12.1062 79.8664 14.7683 81.7323 17.2246C82.8162 18.643 82.1991 19.483 80.6693 19.9861C80.4463 17.2998 77.327 13.9005 75.2734 10.2601C75.9025 10.0236 76.4938 9.69698 77.0288 9.29037Z" fill="#FFE047"/>
<path d="M69.2114 20.1935C69.2465 20.3403 69.2716 20.4893 69.2866 20.6395V20.7536C69.2866 22.4338 67.01 23.8132 64.2097 23.8132C61.539 23.8132 59.3376 22.5634 59.1509 20.9947C59.1339 20.9155 59.1269 20.8345 59.1302 20.7536C59.1297 20.5308 59.1683 20.3096 59.2443 20.1002C61.6323 19.2393 66.3566 19.8746 69.2114 20.1935Z" fill="white" stroke="#1D1D1B" stroke-width="0.365648" stroke-linecap="round" stroke-linejoin="round"/>
<path d="M63.5459 22.4523C63.7689 22.4507 63.9864 22.3833 64.1711 22.2585C64.3559 22.1337 64.4996 21.957 64.5842 21.7507C64.6688 21.5444 64.6905 21.3177 64.6466 21.0991C64.6028 20.8805 64.4953 20.6798 64.3376 20.5221C64.1799 20.3645 63.9792 20.257 63.7606 20.2131C63.542 20.1692 63.3153 20.1909 63.109 20.2756C62.9027 20.3602 62.7261 20.5039 62.6013 20.6886C62.4764 20.8734 62.409 21.0909 62.4075 21.3138C62.4088 21.6153 62.5292 21.9041 62.7424 22.1173C62.9556 22.3305 63.2444 22.4509 63.5459 22.4523Z" fill="#1D1D1B"/>
<path d="M57.9736 21.0414C59.4853 18.4822 68.4463 20.2635 70.9122 20.3673C73.8367 20.4999 76.7664 20.4627 79.6865 20.2558C81.3097 20.1443 82.0202 19.2186 82.0202 19.2186" stroke="#1D1D1B" stroke-width="0.365648" stroke-linecap="round" stroke-linejoin="round"/>
<path d="M68.4469 24.2073C67.1036 25.4572 65.7395 26.1107 64.3962 26.3337" stroke="#1D1D1B" stroke-width="0.365648" stroke-linecap="round" stroke-linejoin="round"/>
<path d="M73.7668 20.4917C73.6682 21.1946 73.7858 21.9108 74.1039 22.5453C75.1724 24.7975 75.7756 27.2421 75.8774 29.7328C76.0168 31.2932 75.7054 32.8609 74.9803 34.2496C76.1575 33.8944 76.8653 32.795 76.8653 30.4796C76.8861 26.5021 75.5222 23.375 73.7668 20.4917Z" fill="#FFE047"/>
<path d="M73.7487 20.4528C75.691 23.444 76.7679 26.9142 76.8602 30.4795C76.9354 33.241 75.8541 34.2885 74.2465 34.3689C72.9034 34.4233 71.2803 32.5746 70.9795 31.9212" stroke="#1D1D1B" stroke-width="0.365648" stroke-linecap="round" stroke-linejoin="round"/>
<path d="M60.5695 35.1079C59.3169 36.1737 58.5519 37.4055 58.5156 38.8422" stroke="#1D1D1B" stroke-width="0.365648" stroke-linecap="round" stroke-linejoin="round"/>
<path d="M59.1509 36.7155C61.2771 36.3421 64.8241 36.7699 66.6547 37.5737C69.0065 38.5823 72.8906 38.0586 75.6158 37.9652" stroke="#1D1D1B" stroke-width="0.365648" stroke-linecap="round" stroke-linejoin="round"/>
<path d="M71.1171 45.3032C70.8915 46.081 70.6685 46.8589 70.4456 47.616C68.7654 48.7932 65.3842 51.6506 63.9296 53.4604C61.9305 49.9885 60.0403 50.4734 57.1155 48.9228C62.8458 49.5763 67.513 48.3835 71.1171 45.3032Z" fill="#E8C411"/>
<path d="M77.0287 9.2904C78.2882 12.1062 79.8663 14.7684 81.7322 17.2247C82.3675 18.0466 82.4245 18.6793 82.0511 19.146C81.6596 19.6646 80.7547 20.1832 79.6605 20.248C80.6977 21.687 81.2473 24.84 79.772 25.4934C80.6873 28.0526 79.4375 30.1062 78.766 32.6628C78.6337 33.1295 79.1004 33.8762 79.2119 34.3248C79.606 35.8806 79.1938 36.8451 78.2059 37.4052C77.5136 37.8149 76.5983 37.9471 75.6285 37.9652C75.2733 40.3559 74.1169 41.2893 72.3433 41.196C71.7081 43.3429 71.091 45.4898 70.4583 47.616C68.7781 48.7932 65.397 51.6505 63.9424 53.4604C61.7566 49.6333 59.6848 50.6238 56.2129 48.3835C49.7903 44.2349 45.4213 38.8416 44.3012 33.1684C44.0099 31.8196 44.1816 30.4119 44.7886 29.1727L52.0124 18.7545C54.1594 17.821 54.9061 15.8064 53.6356 12.1841C56.7628 9.9029 60.1701 8.03282 63.7738 6.61972C66.626 8.63699 69.5249 10.4468 72.753 10.6154C74.2931 10.7176 75.8163 10.2456 77.0287 9.2904V9.2904Z" stroke="#1D1D1B" stroke-width="0.365648" stroke-linecap="round" stroke-linejoin="round"/>
<path d="M81.0477 19.9135C81.2701 20.2484 81.3933 20.6394 81.4029 21.0414C81.4029 22.7397 79.1264 24.1036 76.326 24.1036C76.0823 24.1036 75.8386 24.1036 75.6156 24.0828C75.0886 22.8046 74.4518 21.5744 73.7124 20.4061C75.6726 20.4424 77.4643 20.388 79.6761 20.2376C80.1497 20.2172 80.6151 20.1072 81.0477 19.9135Z" fill="white" stroke="#1D1D1B" stroke-width="0.365648" stroke-linecap="round" stroke-linejoin="round"/>
<path d="M77.5762 22.3951C77.8298 22.3821 78.0688 22.2723 78.2437 22.0881C78.4186 21.904 78.5162 21.6598 78.5162 21.4058C78.5162 21.1519 78.4186 20.9076 78.2437 20.7235C78.0688 20.5394 77.8298 20.4295 77.5762 20.4165C77.442 20.4096 77.3079 20.4301 77.1818 20.4767C77.0558 20.5233 76.9406 20.5951 76.8432 20.6876C76.7458 20.7802 76.6682 20.8916 76.6152 21.015C76.5622 21.1385 76.5349 21.2715 76.5349 21.4058C76.5349 21.5402 76.5622 21.6731 76.6152 21.7966C76.6682 21.92 76.7458 22.0314 76.8432 22.124C76.9406 22.2165 77.0558 22.2883 77.1818 22.3349C77.3079 22.3815 77.442 22.402 77.5762 22.3951Z" fill="#1D1D1B"/>
<path d="M79.8164 25.4934C79.3498 25.6928 78.8288 25.7258 78.3408 25.5867" stroke="#1D1D1B" stroke-width="0.365648" stroke-linecap="round" stroke-linejoin="round"/>
<path d="M58.9434 49.7266C61.8578 51.6687 62.9027 55.1976 63.2942 59.7508C65.2978 62.0849 66.7464 64.8428 67.531 67.8173L71.9753 67.0887C71.5837 64.195 69.9969 61.2832 67.6062 58.3791C67.308 55.5399 67.028 52.6099 66.7298 49.7526C66.2426 50.072 65.7806 50.4282 65.3478 50.8182C64.8021 51.414 64.3374 52.0792 63.9658 52.7966C63.2579 50.6601 61.1836 50.1752 58.9434 49.7266Z" fill="#BB2121" stroke="#1D1D1B" stroke-width="0.365648" stroke-linecap="round" stroke-linejoin="round"/>
<path d="M64.9746 56.7848C65.6449 56.7848 66.1883 56.2414 66.1883 55.5711C66.1883 54.9008 65.6449 54.3575 64.9746 54.3575C64.3043 54.3575 63.761 54.9008 63.761 55.5711C63.761 56.2414 64.3043 56.7848 64.9746 56.7848Z" stroke="#1D1D1B" stroke-width="0.365648" stroke-linecap="round" stroke-linejoin="round"/>
<path d="M67.793 63.6353C68.4633 63.6353 69.0066 63.0919 69.0066 62.4216C69.0066 61.7513 68.4633 61.208 67.793 61.208C67.1227 61.208 66.5793 61.7513 66.5793 62.4216C66.5793 63.0919 67.1227 63.6353 67.793 63.6353Z" stroke="#1D1D1B" stroke-width="0.365648" stroke-linecap="round" stroke-linejoin="round"/>
<path d="M71.9001 42.6506C73.1965 45.788 73.7151 49.7266 73.3754 53.7041C71.8197 52.7888 70.7255 50.2867 69.3979 49.9885C68.8197 49.8562 67.7566 51.5935 65.366 50.8286C65.8327 50.3618 66.525 49.9314 67.1395 49.3714C69.0634 47.616 71.0781 45.1709 71.9001 42.6506Z" fill="#BB2121" stroke="#1D1D1B" stroke-width="0.365648" stroke-linecap="round" stroke-linejoin="round"/>
<path d="M27.712 78.5129C29.1122 77.0946 30.3619 75.4714 31.744 73.9027C34.2072 71.1024 36.1882 75.3392 34.9929 77.9917C34.161 79.6965 33.0993 81.2791 31.8373 82.6953C32.6529 83.6704 33.7082 84.4165 34.8995 84.8603C35.3273 84.4325 35.7007 83.9476 36.0741 83.4991C41.0784 87.3443 39.0067 91.7497 35.9263 92.1049C35.8329 94.7548 34.6298 96.6217 31.8373 97.314C31.1476 99.129 29.7474 100.283 27.7483 99.8706C23.4726 99.0124 20.4493 96.8291 18.6732 94.0833C16.9359 91.3763 17.7579 87.9044 19.8503 84.321C21.4398 81.5933 23.846 79.4671 27.712 78.5129Z" fill="#FFD709"/>
<path d="M35.2159 94.9622C34.5625 96.1005 33.4812 96.9017 31.8451 97.314C31.1554 99.129 29.7552 100.283 27.7561 99.8706C23.4804 99.0123 20.4571 96.8291 18.681 94.0832C16.9437 91.3763 17.7657 87.9044 19.8582 84.321C20.1912 83.7466 20.5656 83.1972 20.9783 82.6771C22.7077 89.8646 27.935 94.4385 35.2159 94.9622Z" fill="#E8C411"/>
<path d="M31.8381 97.3687C30.0922 97.0541 28.4209 96.4146 26.9109 95.4835" stroke="#1D1D1B" stroke-width="0.365648" stroke-linecap="round" stroke-linejoin="round"/>
<path d="M30.4941 91.9001C32.3094 92.2165 34.078 92.385 35.94 92.105" stroke="#1D1D1B" stroke-width="0.365648" stroke-linecap="round" stroke-linejoin="round"/>
<path d="M34.8606 84.8422C35.5826 85.1096 36.225 85.5557 36.7277 86.1388" stroke="#1D1D1B" stroke-width="0.365648" stroke-linecap="round" stroke-linejoin="round"/>
<path d="M27.712 78.5129C29.1122 77.0946 30.3619 75.4714 31.744 73.9027C34.2072 71.1024 36.1882 75.3392 34.9929 77.9917C34.161 79.6965 33.0993 81.2791 31.8373 82.6953C32.6529 83.6704 33.7082 84.4165 34.8995 84.8603C35.3273 84.4325 35.7007 83.9476 36.0741 83.4991C41.0784 87.3443 39.0067 91.7497 35.9263 92.1049C35.8329 94.7548 34.6298 96.6217 31.8373 97.314C31.1476 99.129 29.7474 100.283 27.7483 99.8706C23.4726 99.0124 20.4493 96.8291 18.6732 94.0833C16.9359 91.3763 17.7579 87.9044 19.8503 84.321C21.4398 81.5933 23.846 79.4671 27.712 78.5129Z" stroke="#1D1D1B" stroke-width="0.365648" stroke-linecap="round" stroke-linejoin="round"/>
<path d="M48.0791 22.5271C45.2607 22.3016 44.1405 23.6343 43.972 25.9679C43.7853 28.509 44.8484 29.7224 47.4076 29.9817C48.4447 29.292 49.4974 28.8071 50.519 28.1148C49.723 26.2402 48.9011 24.3733 48.0791 22.5271Z" fill="#E8C411"/>
<path d="M47.0888 24.56C45.6158 24.9153 45.2424 25.9604 45.6521 27.4748" stroke="#1D1D1B" stroke-width="0.365648" stroke-linecap="round" stroke-linejoin="round"/>
<path d="M45.6885 25.7372C46.7725 25.7008 47.5375 26.9689 46.9851 27.8481" stroke="#1D1D1B" stroke-width="0.365648" stroke-linecap="round" stroke-linejoin="round"/>
<path d="M48.0791 22.5271C45.2607 22.3016 44.1405 23.6343 43.972 25.9679C43.7853 28.509 44.8484 29.7224 47.4076 29.9817" stroke="#1D1D1B" stroke-width="0.365648" stroke-linecap="round" stroke-linejoin="round"/>
<path d="M52.0178 18.6612C51.87 23.3673 51.9063 27.9022 53.2494 31.3378C51.9529 31.5245 50.6565 31.7112 49.36 31.8797C48.3877 27.8841 48.1284 23.7951 48.1284 19.6931C49.4223 19.3327 50.7109 18.9982 52.0178 18.6612Z" fill="#9D9D9C"/>
<path d="M52.0178 18.6612C51.87 23.3673 51.9063 27.9022 53.2494 31.3378C51.9529 31.5245 50.6565 31.7112 49.36 31.8797C48.3877 27.8841 48.1284 23.7951 48.1284 19.6931" stroke="#1D1D1B" stroke-width="0.365648" stroke-linecap="round" stroke-linejoin="round"/>
</svg>
